<svg xmlns="http://www.w3.org/2000/svg" width="4096" height="4096" viewBox="0 0 4096 4096" role="img" aria-label="Lovecraftian symbol">

  <path d="M 3580.00 1126.00 L 3558.00 1119.00 L 3541.00 1127.00 L 3512.00 1158.00 L 2831.00 1719.00 L 2731.00 1808.00 L 2702.00 1819.00 L 2571.00 1722.00 L 2557.00 1702.00 L 2561.00 1682.00 L 2586.00 1655.00 L 2642.00 1569.00 L 2658.00 1505.00 L 2896.00 1235.00 L 2956.00 1176.00 L 3002.00 1114.00 L 3018.00 1113.00 L 3027.00 1125.00 L 3020.00 1257.00 L 3032.00 1277.00 L 3058.00 1286.00 L 3124.00 1287.00 L 3148.00 1273.00 L 3153.00 1252.00 L 3151.00 843.00 L 3158.00 802.00 L 3149.00 788.00 L 3133.00 783.00 L 3116.00 792.00 L 3102.00 817.00 L 2749.00 1205.00 L 2648.00 1325.00 L 2635.00 1335.00 L 2623.00 1335.00 L 2612.00 1325.00 L 2586.00 1255.00 L 2554.00 1199.00 L 2499.00 1126.00 L 2459.00 1082.00 L 2373.00 1018.00 L 2342.00 1002.00 L 2332.00 989.00 L 2330.00 975.00 L 2347.00 937.00 L 2357.00 879.00 L 2357.00 801.00 L 2342.00 728.00 L 2315.00 677.00 L 2280.00 632.00 L 2263.00 627.00 L 2237.00 641.00 L 2191.00 685.00 L 2184.00 699.00 L 2188.00 728.00 L 2214.00 761.00 L 2229.00 825.00 L 2219.00 906.00 L 2204.00 932.00 L 2170.00 939.00 L 2119.00 924.00 L 2027.00 920.00 L 1905.00 939.00 L 1882.00 915.00 L 1863.00 867.00 L 1861.00 830.00 L 1882.00 763.00 L 1911.00 721.00 L 1912.00 700.00 L 1904.00 685.00 L 1853.00 637.00 L 1840.00 630.00 L 1820.00 631.00 L 1798.00 645.00 L 1782.00 680.00 L 1762.00 706.00 L 1734.00 801.00 L 1733.00 876.00 L 1763.00 965.00 L 1763.00 989.00 L 1753.00 1003.00 L 1721.00 1018.00 L 1645.00 1076.00 L 1580.00 1145.00 L 1518.00 1236.00 L 1490.00 1293.00 L 1480.00 1331.00 L 1467.00 1339.00 L 1435.00 1313.00 L 1266.00 1118.00 L 1182.00 1032.00 L 1036.00 867.00 L 988.00 804.00 L 962.00 783.00 L 945.00 783.00 L 934.00 808.00 L 939.00 865.00 L 937.00 1259.00 L 943.00 1273.00 L 962.00 1284.00 L 1041.00 1286.00 L 1061.00 1272.00 L 1068.00 1252.00 L 1063.00 1125.00 L 1075.00 1112.00 L 1095.00 1119.00 L 1179.00 1221.00 L 1442.00 1509.00 L 1457.00 1577.00 L 1538.00 1689.00 L 1541.00 1704.00 L 1530.00 1718.00 L 1473.00 1752.00 L 1406.00 1813.00 L 1384.00 1819.00 L 1373.00 1815.00 L 557.00 1131.00 L 522.00 1114.00 L 504.00 1128.00 L 502.00 1151.00 L 512.00 1182.00 L 506.00 1213.00 L 506.00 1661.00 L 514.00 1678.00 L 535.00 1688.00 L 609.00 1688.00 L 631.00 1673.00 L 637.00 1627.00 L 632.00 1396.00 L 640.00 1385.00 L 655.00 1384.00 L 1035.00 1704.00 L 1294.00 1913.00 L 1298.00 1924.00 L 1295.00 1943.00 L 1247.00 2003.00 L 1215.00 2055.00 L 1195.00 2102.00 L 1176.00 2117.00 L 1162.00 2119.00 L 1102.00 2092.00 L 954.00 2048.00 L 916.00 2027.00 L 781.00 1985.00 L 745.00 1967.00 L 604.00 1924.00 L 520.00 1890.00 L 499.00 1906.00 L 498.00 3422.00 L 506.00 3456.00 L 521.00 3465.00 L 604.00 3465.00 L 623.00 3454.00 L 630.00 3433.00 L 627.00 2092.00 L 640.00 2074.00 L 652.00 2073.00 L 712.00 2093.00 L 753.00 2113.00 L 891.00 2156.00 L 933.00 2177.00 L 968.00 2183.00 L 1016.00 2205.00 L 1067.00 2217.00 L 1129.00 2244.00 L 1140.00 2259.00 L 1139.00 2274.00 L 1119.00 2318.00 L 1110.00 2395.00 L 1108.00 2584.00 L 1116.00 2615.00 L 1112.00 2640.00 L 1093.00 2653.00 L 965.00 2652.00 L 947.00 2660.00 L 935.00 2679.00 L 937.00 3424.00 L 940.00 3439.00 L 954.00 3454.00 L 968.00 3459.00 L 1045.00 3459.00 L 1061.00 3446.00 L 1066.00 3430.00 L 1066.00 2813.00 L 1073.00 2796.00 L 1088.00 2785.00 L 1125.00 2781.00 L 1148.00 2799.00 L 1182.00 2885.00 L 1204.00 2916.00 L 1215.00 2947.00 L 1305.00 3088.00 L 1429.00 3216.00 L 1543.00 3302.00 L 1674.00 3371.00 L 1859.00 3431.00 L 1948.00 3441.00 L 2091.00 3445.00 L 2236.00 3431.00 L 2345.00 3399.00 L 2365.00 3387.00 L 2421.00 3371.00 L 2493.00 3335.00 L 2592.00 3275.00 L 2697.00 3185.00 L 2766.00 3114.00 L 2866.00 2973.00 L 2922.00 2863.00 L 2942.00 2800.00 L 2965.00 2785.00 L 2994.00 2780.00 L 3013.00 2789.00 L 3023.00 2807.00 L 3020.00 3425.00 L 3028.00 3443.00 L 3049.00 3458.00 L 3125.00 3460.00 L 3144.00 3447.00 L 3155.00 3422.00 L 3155.00 2682.00 L 3147.00 2665.00 L 3130.00 2652.00 L 3013.00 2656.00 L 2997.00 2651.00 L 2984.00 2637.00 L 2990.00 2526.00 L 2985.00 2376.00 L 2961.00 2296.00 L 2958.00 2257.00 L 2967.00 2242.00 L 3003.00 2232.00 L 3028.00 2217.00 L 3171.00 2173.00 L 3217.00 2152.00 L 3263.00 2141.00 L 3297.00 2124.00 L 3452.00 2072.00 L 3463.00 2077.00 L 3469.00 2089.00 L 3467.00 3442.00 L 3476.00 3458.00 L 3496.00 3466.00 L 3571.00 3465.00 L 3584.00 3460.00 L 3599.00 3431.00 L 3596.00 1906.00 L 3581.00 1894.00 L 3544.00 1899.00 L 3492.00 1924.00 L 3440.00 1936.00 L 3317.00 1984.00 L 3178.00 2028.00 L 3137.00 2048.00 L 3002.00 2088.00 L 2954.00 2113.00 L 2915.00 2118.00 L 2903.00 2108.00 L 2876.00 2065.00 L 2861.00 2025.00 L 2807.00 1952.00 L 2799.00 1929.00 L 2812.00 1904.00 L 3437.00 1384.00 L 3453.00 1384.00 L 3462.00 1393.00 L 3451.00 1428.00 L 3459.00 1457.00 L 3454.00 1485.00 L 3456.00 1667.00 L 3467.00 1681.00 L 3488.00 1688.00 L 3555.00 1688.00 L 3575.00 1678.00 L 3585.00 1651.00 L 3587.00 1157.00 Z M 1645.00 1934.00 L 1682.00 1920.00 L 1718.00 1958.00 L 1766.00 2038.00 L 1787.00 2060.00 L 1890.00 2221.00 L 1999.00 2373.00 L 2013.00 2403.00 L 2046.00 2434.00 L 2067.00 2424.00 L 2349.00 1997.00 L 2405.00 1927.00 L 2426.00 1923.00 L 2490.00 1968.00 L 2554.00 2029.00 L 2609.00 2094.00 L 2670.00 2195.00 L 2685.00 2238.00 L 2705.00 2270.00 L 2732.00 2372.00 L 2741.00 2458.00 L 2737.00 2603.00 L 2709.00 2725.00 L 2642.00 2862.00 L 2587.00 2939.00 L 2541.00 2989.00 L 2469.00 3055.00 L 2424.00 3087.00 L 2309.00 3147.00 L 2181.00 3187.00 L 1991.00 3194.00 L 1871.00 3179.00 L 1731.00 3123.00 L 1626.00 3057.00 L 1528.00 2966.00 L 1463.00 2880.00 L 1431.00 2829.00 L 1367.00 2655.00 L 1356.00 2530.00 L 1363.00 2371.00 L 1399.00 2249.00 L 1431.00 2176.00 L 1459.00 2129.00 L 1555.00 2010.00 Z M 1997.00 1169.00 L 2077.00 1169.00 L 2119.00 1174.00 L 2154.00 1190.00 L 2194.00 1201.00 L 2253.00 1237.00 L 2310.00 1290.00 L 2339.00 1324.00 L 2371.00 1384.00 L 2388.00 1439.00 L 2372.00 1459.00 L 2296.00 1477.00 L 2230.00 1509.00 L 2176.00 1550.00 L 2096.00 1640.00 L 2087.00 1659.00 L 2088.00 1681.00 L 2103.00 1691.00 L 2122.00 1690.00 L 2225.00 1654.00 L 2275.00 1619.00 L 2291.00 1600.00 L 2309.00 1592.00 L 2322.00 1592.00 L 2315.00 1620.00 L 2225.00 1736.00 L 2213.00 1764.00 L 2137.00 1867.00 L 2123.00 1896.00 L 2078.00 1958.00 L 2066.00 1984.00 L 2054.00 1994.00 L 2038.00 1990.00 L 2015.00 1961.00 L 2003.00 1937.00 L 1982.00 1912.00 L 1971.00 1885.00 L 1955.00 1870.00 L 1944.00 1848.00 L 1921.00 1822.00 L 1908.00 1794.00 L 1890.00 1776.00 L 1870.00 1738.00 L 1776.00 1612.00 L 1767.00 1588.00 L 1779.00 1583.00 L 1865.00 1650.00 L 1937.00 1682.00 L 1979.00 1691.00 L 2001.00 1687.00 L 2010.00 1674.00 L 2003.00 1645.00 L 1943.00 1572.00 L 1859.00 1505.00 L 1785.00 1472.00 L 1721.00 1462.00 L 1707.00 1449.00 L 1702.00 1433.00 L 1707.00 1409.00 L 1724.00 1389.00 L 1735.00 1358.00 L 1759.00 1330.00 L 1770.00 1304.00 L 1843.00 1234.00 L 1913.00 1197.00 Z" fill="#000" fill-rule="evenodd" shape-rendering="geometricPrecision"/>
</svg>
