<svg xmlns="http://www.w3.org/2000/svg" width="4096" height="4096" viewBox="0 0 4096 4096" role="img" aria-label="Lovecraftian symbol">

  <path d="M 510.00 611.00 L 495.00 636.00 L 500.00 660.00 L 527.00 697.00 L 540.00 731.00 L 588.00 807.00 L 630.00 892.00 L 674.00 959.00 L 746.00 1096.00 L 797.00 1178.00 L 806.00 1206.00 L 828.00 1231.00 L 845.00 1267.00 L 845.00 1276.00 L 831.00 1281.00 L 687.00 1201.00 L 657.00 1201.00 L 630.00 1231.00 L 587.00 1327.00 L 560.00 1365.00 L 556.00 1395.00 L 562.00 1407.00 L 603.00 1436.00 L 707.00 1484.00 L 779.00 1527.00 L 1039.00 1655.00 L 1127.00 1705.00 L 1168.00 1719.00 L 1301.00 1794.00 L 1397.00 1836.00 L 1427.00 1858.00 L 1571.00 1926.00 L 1602.00 1948.00 L 1749.00 2017.00 L 1783.00 2040.00 L 1824.00 2057.00 L 1835.00 2072.00 L 1831.00 2089.00 L 1587.00 2336.00 L 1391.00 2544.00 L 1361.00 2567.00 L 1338.00 2554.00 L 1163.00 2375.00 L 1149.00 2352.00 L 1163.00 2324.00 L 1352.00 2091.00 L 1361.00 2073.00 L 1362.00 2059.00 L 1354.00 2044.00 L 1294.00 1991.00 L 1275.00 1988.00 L 1258.00 1998.00 L 1126.00 2173.00 L 1058.00 2251.00 L 1030.00 2246.00 L 927.00 2135.00 L 793.00 2004.00 L 774.00 2004.00 L 756.00 2014.00 L 707.00 2069.00 L 626.00 2143.00 L 620.00 2158.00 L 625.00 2183.00 L 767.00 2317.00 L 924.00 2481.00 L 1225.00 2780.00 L 1245.00 2812.00 L 1245.00 3315.00 L 1226.00 3332.00 L 1056.00 3330.00 L 1026.00 3346.00 L 1015.00 3370.00 L 1015.00 3552.00 L 1021.00 3565.00 L 1059.00 3576.00 L 1456.00 3576.00 L 1479.00 3561.00 L 1484.00 3550.00 L 1483.00 2804.00 L 1529.00 2745.00 L 2037.00 2223.00 L 2052.00 2217.00 L 2072.00 2227.00 L 2274.00 2430.00 L 2620.00 2762.00 L 2655.00 2804.00 L 2653.00 3553.00 L 2658.00 3565.00 L 2677.00 3577.00 L 3061.00 3577.00 L 3075.00 3571.00 L 3089.00 3543.00 L 3088.00 3363.00 L 3081.00 3346.00 L 3056.00 3331.00 L 2920.00 3334.00 L 2910.00 3330.00 L 2898.00 3313.00 L 2899.00 2806.00 L 2894.00 2775.00 L 2909.00 2740.00 L 3450.00 2197.00 L 3472.00 2182.00 L 3477.00 2166.00 L 3474.00 2149.00 L 3406.00 2087.00 L 3337.00 2011.00 L 3304.00 2004.00 L 3163.00 2140.00 L 3066.00 2246.00 L 3038.00 2252.00 L 2973.00 2177.00 L 2842.00 2004.00 L 2825.00 1990.00 L 2801.00 1991.00 L 2738.00 2050.00 L 2738.00 2079.00 L 2861.00 2233.00 L 2904.00 2296.00 L 2933.00 2322.00 L 2949.00 2354.00 L 2768.00 2545.00 L 2750.00 2548.00 L 2736.00 2543.00 L 2661.00 2463.00 L 2344.00 2159.00 L 2296.00 2106.00 L 2278.00 2095.00 L 2268.00 2083.00 L 2268.00 2066.00 L 2281.00 2052.00 L 2494.00 1948.00 L 2525.00 1926.00 L 2621.00 1883.00 L 2875.00 1748.00 L 2965.00 1707.00 L 3045.00 1660.00 L 3137.00 1618.00 L 3171.00 1595.00 L 3493.00 1436.00 L 3536.00 1405.00 L 3541.00 1380.00 L 3535.00 1361.00 L 3508.00 1325.00 L 3465.00 1227.00 L 3441.00 1201.00 L 3419.00 1197.00 L 3274.00 1280.00 L 3260.00 1281.00 L 3252.00 1266.00 L 3266.00 1234.00 L 3288.00 1209.00 L 3301.00 1174.00 L 3319.00 1151.00 L 3386.00 1023.00 L 3409.00 992.00 L 3422.00 958.00 L 3439.00 937.00 L 3555.00 732.00 L 3568.00 697.00 L 3595.00 662.00 L 3600.00 633.00 L 3592.00 618.00 L 3421.00 519.00 L 3393.00 520.00 L 3356.00 577.00 L 3343.00 615.00 L 3296.00 685.00 L 3284.00 718.00 L 3265.00 741.00 L 3253.00 773.00 L 3235.00 794.00 L 3194.00 878.00 L 3176.00 899.00 L 3163.00 935.00 L 3142.00 967.00 L 3128.00 977.00 L 3115.00 968.00 L 3018.00 815.00 L 3000.00 797.00 L 2839.00 545.00 L 2825.00 537.00 L 2803.00 540.00 L 2775.00 563.00 L 2742.00 578.00 L 2727.00 602.00 L 2729.00 621.00 L 2770.00 671.00 L 2832.00 763.00 L 2844.00 791.00 L 2893.00 855.00 L 2905.00 883.00 L 2956.00 947.00 L 2965.00 974.00 L 3048.00 1089.00 L 3054.00 1104.00 L 3052.00 1127.00 L 2987.00 1245.00 L 2965.00 1272.00 L 2956.00 1301.00 L 2905.00 1381.00 L 2867.00 1460.00 L 2832.00 1500.00 L 2464.00 1684.00 L 2381.00 1732.00 L 2296.00 1770.00 L 2234.00 1812.00 L 2222.00 1814.00 L 2213.00 1803.00 L 2221.00 1781.00 L 2270.00 1723.00 L 2283.00 1695.00 L 2446.00 1462.00 L 2459.00 1434.00 L 2506.00 1372.00 L 2579.00 1257.00 L 2628.00 1194.00 L 2634.00 1178.00 L 2631.00 1049.00 L 2596.00 921.00 L 2546.00 826.00 L 2505.00 769.00 L 2467.00 726.00 L 2397.00 666.00 L 2297.00 606.00 L 2198.00 571.00 L 2075.00 555.00 L 2002.00 556.00 L 1896.00 571.00 L 1813.00 601.00 L 1756.00 631.00 L 1651.00 706.00 L 1595.00 764.00 L 1559.00 813.00 L 1499.00 926.00 L 1464.00 1049.00 L 1459.00 1118.00 L 1464.00 1187.00 L 1637.00 1434.00 L 1644.00 1452.00 L 1668.00 1480.00 L 1829.00 1726.00 L 1879.00 1786.00 L 1883.00 1807.00 L 1869.00 1813.00 L 1825.00 1791.00 L 1800.00 1770.00 L 1772.00 1763.00 L 1749.00 1745.00 L 1712.00 1733.00 L 1634.00 1685.00 L 1538.00 1642.00 L 1263.00 1498.00 L 1228.00 1460.00 L 1190.00 1381.00 L 1138.00 1300.00 L 1127.00 1268.00 L 1043.00 1127.00 L 1042.00 1108.00 L 1053.00 1084.00 L 1222.00 835.00 L 1293.00 718.00 L 1367.00 617.00 L 1368.00 593.00 L 1358.00 579.00 L 1325.00 565.00 L 1294.00 540.00 L 1272.00 538.00 L 1257.00 547.00 L 1035.00 888.00 L 970.00 976.00 L 956.00 969.00 L 920.00 901.00 L 900.00 878.00 L 889.00 845.00 L 872.00 825.00 L 859.00 792.00 L 842.00 771.00 L 703.00 520.00 L 674.00 519.00 L 607.00 563.00 Z M 2039.00 794.00 L 2106.00 802.00 L 2167.00 816.00 L 2234.00 851.00 L 2294.00 898.00 L 2323.00 932.00 L 2355.00 977.00 L 2362.00 1008.00 L 2384.00 1051.00 L 2380.00 1069.00 L 2373.00 1076.00 L 2316.00 1087.00 L 2244.00 1118.00 L 2197.00 1148.00 L 2129.00 1212.00 L 2113.00 1240.00 L 2092.00 1260.00 L 2087.00 1273.00 L 2091.00 1297.00 L 2104.00 1303.00 L 2130.00 1302.00 L 2182.00 1286.00 L 2201.00 1274.00 L 2226.00 1266.00 L 2303.00 1207.00 L 2314.00 1202.00 L 2320.00 1207.00 L 2295.00 1256.00 L 2275.00 1276.00 L 2221.00 1352.00 L 2206.00 1381.00 L 2122.00 1497.00 L 2073.00 1577.00 L 2052.00 1598.00 L 2042.00 1597.00 L 2006.00 1552.00 L 1968.00 1490.00 L 1917.00 1421.00 L 1909.00 1403.00 L 1890.00 1381.00 L 1879.00 1357.00 L 1861.00 1340.00 L 1823.00 1279.00 L 1799.00 1254.00 L 1779.00 1204.00 L 1786.00 1203.00 L 1816.00 1222.00 L 1871.00 1266.00 L 1914.00 1287.00 L 1949.00 1294.00 L 1979.00 1306.00 L 1993.00 1306.00 L 2008.00 1295.00 L 2009.00 1275.00 L 2004.00 1261.00 L 1986.00 1244.00 L 1967.00 1212.00 L 1890.00 1143.00 L 1861.00 1129.00 L 1840.00 1112.00 L 1763.00 1083.00 L 1726.00 1077.00 L 1711.00 1062.00 L 1711.00 1048.00 L 1728.00 1021.00 L 1741.00 980.00 L 1769.00 938.00 L 1826.00 875.00 L 1922.00 819.00 Z" fill="#000" fill-rule="evenodd" shape-rendering="geometricPrecision"/>
</svg>
