<svg xmlns="http://www.w3.org/2000/svg" width="4096" height="4096" viewBox="0 0 4096 4096" role="img" aria-label="Lovecraftian symbol">

  <path d="M 3110.00 3151.00 L 3109.00 3153.00 L 3093.00 3155.00 L 3075.00 3162.00 L 3058.00 3173.00 L 3030.00 3187.00 L 3006.00 3210.00 L 2998.00 3215.00 L 2983.00 3231.00 L 2974.00 3248.00 L 2960.00 3265.00 L 2952.00 3281.00 L 2953.00 3283.00 L 2948.00 3296.00 L 2949.00 3299.00 L 2947.00 3301.00 L 2946.00 3312.00 L 2944.00 3313.00 L 2945.00 3317.00 L 2943.00 3318.00 L 2940.00 3328.00 L 2941.00 3331.00 L 2936.00 3343.00 L 2937.00 3346.00 L 2935.00 3347.00 L 2935.00 3391.00 L 2945.00 3422.00 L 2944.00 3426.00 L 2946.00 3428.00 L 2947.00 3443.00 L 2949.00 3445.00 L 2948.00 3449.00 L 2955.00 3470.00 L 2988.00 3515.00 L 3034.00 3561.00 L 3050.00 3570.00 L 3076.00 3577.00 L 3099.00 3590.00 L 3117.00 3595.00 L 3118.00 3597.00 L 3134.00 3599.00 L 3196.00 3597.00 L 3198.00 3595.00 L 3210.00 3594.00 L 3222.00 3590.00 L 3251.00 3575.00 L 3275.00 3569.00 L 3291.00 3561.00 L 3337.00 3512.00 L 3336.00 3511.00 L 3341.00 3507.00 L 3351.00 3488.00 L 3365.00 3471.00 L 3369.00 3463.00 L 3375.00 3432.00 L 3377.00 3431.00 L 3379.00 3419.00 L 3385.00 3407.00 L 3387.00 3396.00 L 3389.00 3395.00 L 3390.00 3359.00 L 3388.00 3358.00 L 3389.00 3355.00 L 3384.00 3343.00 L 3385.00 3341.00 L 3383.00 3340.00 L 3381.00 3329.00 L 3379.00 3328.00 L 3374.00 3295.00 L 3372.00 3294.00 L 3373.00 3289.00 L 3371.00 3288.00 L 3370.00 3279.00 L 3368.00 3278.00 L 3369.00 3276.00 L 3365.00 3268.00 L 3351.00 3252.00 L 3338.00 3230.00 L 3318.00 3213.00 L 3294.00 3187.00 L 3265.00 3174.00 L 3242.00 3158.00 L 3216.00 3151.00 L 3175.00 3149.00 Z M 1803.00 2664.00 L 1802.00 2666.00 L 1780.00 2666.00 L 1758.00 2672.00 L 1708.00 2703.00 L 1680.00 2731.00 L 1663.00 2758.00 L 1649.00 2774.00 L 1641.00 2787.00 L 1634.00 2810.00 L 1621.00 2837.00 L 1613.00 2861.00 L 1611.00 2881.00 L 1609.00 2882.00 L 1607.00 2926.00 L 1605.00 2928.00 L 1604.00 2974.00 L 1605.00 2988.00 L 1607.00 2989.00 L 1609.00 3051.00 L 1611.00 3052.00 L 1613.00 3069.00 L 1631.00 3104.00 L 1637.00 3127.00 L 1645.00 3145.00 L 1668.00 3173.00 L 1676.00 3187.00 L 1707.00 3221.00 L 1745.00 3245.00 L 1790.00 3261.00 L 1839.00 3261.00 L 1841.00 3259.00 L 1860.00 3258.00 L 1883.00 3253.00 L 1910.00 3241.00 L 1947.00 3215.00 L 1968.00 3187.00 L 1987.00 3167.00 L 2000.00 3135.00 L 2019.00 3111.00 L 2026.00 3094.00 L 2032.00 3049.00 L 2034.00 3047.00 L 2033.00 3042.00 L 2042.00 3007.00 L 2041.00 3003.00 L 2043.00 3002.00 L 2044.00 2967.00 L 2046.00 2964.00 L 2044.00 2962.00 L 2042.00 2918.00 L 2035.00 2883.00 L 2033.00 2882.00 L 2034.00 2876.00 L 2032.00 2874.00 L 2031.00 2861.00 L 2029.00 2859.00 L 2030.00 2852.00 L 2023.00 2821.00 L 2015.00 2807.00 L 2001.00 2791.00 L 1988.00 2760.00 L 1969.00 2738.00 L 1956.00 2716.00 L 1936.00 2700.00 L 1929.00 2698.00 L 1887.00 2672.00 L 1861.00 2666.00 Z M 1817.00 2799.00 L 1834.00 2799.00 L 1839.00 2800.00 L 1841.00 2802.00 L 1848.00 2804.00 L 1858.00 2812.00 L 1857.00 2813.00 L 1866.00 2824.00 L 1865.00 2825.00 L 1869.00 2832.00 L 1874.00 2836.00 L 1873.00 2837.00 L 1884.00 2849.00 L 1884.00 2851.00 L 1887.00 2853.00 L 1888.00 2858.00 L 1890.00 2859.00 L 1892.00 2868.00 L 1894.00 2870.00 L 1893.00 2873.00 L 1895.00 2875.00 L 1896.00 2887.00 L 1898.00 2888.00 L 1897.00 2892.00 L 1899.00 2893.00 L 1900.00 2902.00 L 1902.00 2903.00 L 1901.00 2906.00 L 1903.00 2908.00 L 1906.00 2920.00 L 1906.00 2938.00 L 1904.00 2939.00 L 1904.00 3004.00 L 1903.00 3014.00 L 1901.00 3016.00 L 1902.00 3022.00 L 1900.00 3023.00 L 1899.00 3034.00 L 1897.00 3036.00 L 1898.00 3039.00 L 1896.00 3041.00 L 1895.00 3052.00 L 1893.00 3053.00 L 1894.00 3055.00 L 1892.00 3057.00 L 1891.00 3064.00 L 1889.00 3065.00 L 1890.00 3067.00 L 1887.00 3071.00 L 1887.00 3073.00 L 1876.00 3085.00 L 1875.00 3088.00 L 1869.00 3093.00 L 1865.00 3100.00 L 1866.00 3101.00 L 1863.00 3103.00 L 1863.00 3105.00 L 1860.00 3107.00 L 1860.00 3109.00 L 1851.00 3118.00 L 1847.00 3119.00 L 1846.00 3121.00 L 1826.00 3125.00 L 1824.00 3125.00 L 1822.00 3123.00 L 1817.00 3123.00 L 1809.00 3121.00 L 1808.00 3119.00 L 1802.00 3118.00 L 1798.00 3115.00 L 1792.00 3113.00 L 1777.00 3099.00 L 1776.00 3095.00 L 1773.00 3091.00 L 1771.00 3082.00 L 1769.00 3081.00 L 1767.00 3071.00 L 1764.00 3068.00 L 1763.00 3063.00 L 1755.00 3052.00 L 1755.00 3050.00 L 1753.00 3049.00 L 1751.00 3042.00 L 1749.00 3041.00 L 1747.00 3033.00 L 1745.00 3031.00 L 1743.00 3017.00 L 1741.00 3015.00 L 1740.00 3002.00 L 1740.00 2920.00 L 1741.00 2911.00 L 1743.00 2909.00 L 1745.00 2895.00 L 1748.00 2891.00 L 1748.00 2888.00 L 1752.00 2882.00 L 1758.00 2868.00 L 1760.00 2866.00 L 1761.00 2861.00 L 1763.00 2860.00 L 1764.00 2853.00 L 1767.00 2849.00 L 1768.00 2843.00 L 1778.00 2824.00 L 1781.00 2822.00 L 1781.00 2820.00 L 1787.00 2814.00 L 1797.00 2807.00 L 1801.00 2806.00 L 1802.00 2804.00 Z M 1676.00 496.00 L 1661.00 503.00 L 1661.00 526.00 L 1698.00 581.00 L 1705.00 605.00 L 1730.00 637.00 L 1740.00 676.00 L 1762.00 722.00 L 1772.00 768.00 L 1790.00 802.00 L 1824.00 1018.00 L 1822.00 1204.00 L 1798.00 1344.00 L 1782.00 1403.00 L 1769.00 1427.00 L 1762.00 1468.00 L 1741.00 1511.00 L 1731.00 1550.00 L 1708.00 1584.00 L 1665.00 1673.00 L 1600.00 1766.00 L 1500.00 1879.00 L 1446.00 1933.00 L 1430.00 1941.00 L 1414.00 1940.00 L 1397.00 1926.00 L 1379.00 1874.00 L 1362.00 1847.00 L 1330.00 1687.00 L 1334.00 1584.00 L 1354.00 1489.00 L 1389.00 1406.00 L 1416.00 1376.00 L 1419.00 1340.00 L 1405.00 1331.00 L 1387.00 1333.00 L 1364.00 1351.00 L 1334.00 1361.00 L 1278.00 1393.00 L 1171.00 1465.00 L 1075.00 1553.00 L 998.00 1634.00 L 938.00 1719.00 L 874.00 1821.00 L 842.00 1883.00 L 831.00 1926.00 L 810.00 1957.00 L 799.00 2002.00 L 774.00 2062.00 L 763.00 2118.00 L 746.00 2158.00 L 732.00 2245.00 L 718.00 2288.00 L 706.00 2413.00 L 706.00 2570.00 L 717.00 2688.00 L 731.00 2727.00 L 742.00 2788.00 L 768.00 2849.00 L 777.00 2894.00 L 795.00 2924.00 L 813.00 2975.00 L 877.00 3090.00 L 937.00 3174.00 L 1032.00 3281.00 L 1100.00 3343.00 L 1180.00 3405.00 L 1278.00 3465.00 L 1315.00 3479.00 L 1350.00 3501.00 L 1443.00 3537.00 L 1491.00 3547.00 L 1527.00 3565.00 L 1737.00 3597.00 L 1914.00 3597.00 L 2104.00 3569.00 L 2304.00 3501.00 L 2424.00 3437.00 L 2484.00 3397.00 L 2551.00 3343.00 L 2662.00 3238.00 L 2786.00 3068.00 L 2800.00 3034.00 L 2822.00 3004.00 L 2832.00 2971.00 L 2854.00 2943.00 L 2864.00 2895.00 L 2886.00 2855.00 L 2896.00 2803.00 L 2918.00 2753.00 L 2946.00 2599.00 L 2950.00 2373.00 L 2918.00 2151.00 L 2854.00 1936.00 L 2790.00 1806.00 L 2726.00 1702.00 L 2596.00 1548.00 L 2577.00 1545.00 L 2563.00 1560.00 L 2572.00 1636.00 L 2567.00 1740.00 L 2527.00 1866.00 L 2495.00 1929.00 L 2427.00 2021.00 L 2393.00 2059.00 L 2377.00 2066.00 L 2367.00 2063.00 L 2369.00 2036.00 L 2406.00 1948.00 L 2413.00 1896.00 L 2434.00 1834.00 L 2450.00 1680.00 L 2450.00 1581.00 L 2438.00 1416.00 L 2412.00 1328.00 L 2402.00 1268.00 L 2381.00 1220.00 L 2370.00 1172.00 L 2349.00 1140.00 L 2306.00 1040.00 L 2246.00 944.00 L 2178.00 854.00 L 2085.00 754.00 L 1977.00 662.00 L 1884.00 598.00 L 1769.00 534.00 L 1729.00 520.00 L 1705.00 502.00 Z M 2210.00 2195.00 L 2211.00 2197.00 L 2211.00 2209.00 L 2208.00 2212.00 L 2208.00 2214.00 L 2183.00 2239.00 L 2183.00 2241.00 L 2180.00 2243.00 L 2179.00 2246.00 L 2162.00 2264.00 L 2161.00 2267.00 L 2155.00 2272.00 L 2154.00 2275.00 L 2115.00 2314.00 L 2110.00 2316.00 L 2107.00 2319.00 L 2103.00 2320.00 L 2102.00 2322.00 L 2098.00 2323.00 L 2095.00 2326.00 L 2091.00 2327.00 L 2081.00 2336.00 L 2079.00 2336.00 L 2077.00 2339.00 L 2074.00 2340.00 L 2067.00 2346.00 L 2059.00 2348.00 L 2058.00 2350.00 L 2049.00 2352.00 L 2047.00 2354.00 L 2037.00 2356.00 L 2033.00 2359.00 L 2031.00 2359.00 L 2027.00 2362.00 L 2023.00 2363.00 L 2020.00 2366.00 L 2015.00 2368.00 L 2015.00 2369.00 L 2012.00 2370.00 L 2007.00 2374.00 L 1998.00 2376.00 L 1996.00 2378.00 L 1993.00 2379.00 L 1983.00 2380.00 L 1982.00 2382.00 L 1971.00 2384.00 L 1970.00 2386.00 L 1968.00 2386.00 L 1965.00 2388.00 L 1962.00 2388.00 L 1955.00 2392.00 L 1950.00 2392.00 L 1948.00 2394.00 L 1946.00 2392.00 L 1940.00 2391.00 L 1935.00 2386.00 L 1932.00 2379.00 L 1932.00 2371.00 L 1936.00 2361.00 L 1939.00 2359.00 L 1939.00 2357.00 L 1953.00 2343.00 L 1954.00 2340.00 L 1959.00 2336.00 L 1960.00 2333.00 L 1969.00 2323.00 L 1970.00 2320.00 L 1977.00 2314.00 L 1977.00 2312.00 L 1987.00 2303.00 L 1987.00 2301.00 L 2022.00 2267.00 L 2025.00 2266.00 L 2026.00 2264.00 L 2029.00 2263.00 L 2037.00 2256.00 L 2039.00 2256.00 L 2042.00 2254.00 L 2063.00 2234.00 L 2065.00 2234.00 L 2068.00 2231.00 L 2072.00 2230.00 L 2073.00 2228.00 L 2083.00 2226.00 L 2085.00 2224.00 L 2095.00 2222.00 L 2097.00 2220.00 L 2104.00 2218.00 L 2105.00 2216.00 L 2112.00 2214.00 L 2113.00 2212.00 L 2115.00 2212.00 L 2120.00 2208.00 L 2124.00 2207.00 L 2130.00 2203.00 L 2135.00 2202.00 L 2137.00 2200.00 L 2149.00 2198.00 L 2150.00 2196.00 L 2160.00 2195.00 L 2163.00 2194.00 L 2165.00 2192.00 L 2177.00 2190.00 L 2178.00 2188.00 L 2184.00 2187.00 L 2198.00 2187.00 L 2202.00 2188.00 Z M 1443.00 2194.00 L 1447.00 2190.00 L 1449.00 2190.00 L 1450.00 2188.00 L 1454.00 2187.00 L 1471.00 2188.00 L 1473.00 2190.00 L 1482.00 2192.00 L 1484.00 2194.00 L 1492.00 2196.00 L 1494.00 2198.00 L 1504.00 2200.00 L 1506.00 2202.00 L 1518.00 2204.00 L 1519.00 2206.00 L 1531.00 2211.00 L 1534.00 2214.00 L 1538.00 2215.00 L 1541.00 2218.00 L 1545.00 2219.00 L 1549.00 2222.00 L 1558.00 2224.00 L 1560.00 2226.00 L 1571.00 2228.00 L 1573.00 2230.00 L 1578.00 2231.00 L 1587.00 2236.00 L 1604.00 2252.00 L 1606.00 2252.00 L 1607.00 2254.00 L 1610.00 2255.00 L 1613.00 2258.00 L 1619.00 2260.00 L 1628.00 2268.00 L 1631.00 2269.00 L 1631.00 2271.00 L 1647.00 2287.00 L 1649.00 2287.00 L 1656.00 2292.00 L 1667.00 2303.00 L 1668.00 2307.00 L 1671.00 2309.00 L 1673.00 2316.00 L 1675.00 2317.00 L 1675.00 2319.00 L 1677.00 2322.00 L 1697.00 2342.00 L 1697.00 2344.00 L 1702.00 2348.00 L 1701.00 2349.00 L 1705.00 2354.00 L 1705.00 2356.00 L 1707.00 2357.00 L 1708.00 2363.00 L 1710.00 2364.00 L 1709.00 2366.00 L 1711.00 2368.00 L 1711.00 2378.00 L 1706.00 2384.00 L 1699.00 2387.00 L 1685.00 2387.00 L 1677.00 2386.00 L 1676.00 2384.00 L 1658.00 2382.00 L 1657.00 2380.00 L 1646.00 2379.00 L 1637.00 2375.00 L 1634.00 2375.00 L 1625.00 2368.00 L 1623.00 2368.00 L 1616.00 2362.00 L 1614.00 2362.00 L 1613.00 2360.00 L 1608.00 2358.00 L 1606.00 2356.00 L 1597.00 2354.00 L 1596.00 2352.00 L 1586.00 2350.00 L 1585.00 2348.00 L 1582.00 2348.00 L 1574.00 2344.00 L 1570.00 2340.00 L 1566.00 2338.00 L 1557.00 2328.00 L 1555.00 2328.00 L 1552.00 2324.00 L 1545.00 2319.00 L 1540.00 2317.00 L 1531.00 2310.00 L 1529.00 2310.00 L 1528.00 2308.00 L 1517.00 2298.00 L 1517.00 2296.00 L 1510.00 2290.00 L 1507.00 2286.00 L 1501.00 2281.00 L 1501.00 2280.00 L 1498.00 2279.00 L 1488.00 2269.00 L 1483.00 2261.00 L 1479.00 2257.00 L 1479.00 2255.00 L 1472.00 2249.00 L 1471.00 2246.00 L 1470.00 2246.00 L 1469.00 2244.00 L 1465.00 2241.00 L 1465.00 2240.00 L 1462.00 2238.00 L 1451.00 2226.00 L 1450.00 2226.00 L 1449.00 2223.00 L 1447.00 2221.00 L 1447.00 2219.00 L 1444.00 2217.00 L 1440.00 2203.00 L 1441.00 2197.00 L 1443.00 2196.00 Z M 1005.00 2173.00 L 1015.00 2163.00 L 1034.00 2166.00 L 1068.00 2217.00 L 1199.00 2358.00 L 1307.00 2446.00 L 1417.00 2508.00 L 1490.00 2542.00 L 1587.00 2574.00 L 1740.00 2603.00 L 1855.00 2608.00 L 1934.00 2602.00 L 2076.00 2574.00 L 2124.00 2552.00 L 2171.00 2543.00 L 2297.00 2478.00 L 2349.00 2446.00 L 2436.00 2378.00 L 2598.00 2216.00 L 2626.00 2179.00 L 2649.00 2171.00 L 2662.00 2191.00 L 2663.00 2237.00 L 2689.00 2384.00 L 2690.00 2530.00 L 2662.00 2703.00 L 2636.00 2765.00 L 2626.00 2809.00 L 2559.00 2940.00 L 2466.00 3066.00 L 2338.00 3182.00 L 2245.00 3239.00 L 2203.00 3254.00 L 2168.00 3277.00 L 2088.00 3305.00 L 1944.00 3333.00 L 1875.00 3338.00 L 1710.00 3333.00 L 1586.00 3309.00 L 1488.00 3277.00 L 1347.00 3206.00 L 1206.00 3087.00 L 1106.00 2965.00 L 1070.00 2905.00 L 1037.00 2838.00 L 1027.00 2804.00 L 1006.00 2769.00 L 997.00 2711.00 L 974.00 2631.00 L 964.00 2497.00 L 974.00 2346.00 L 1000.00 2239.00 Z" fill="#000" fill-rule="evenodd" shape-rendering="geometricPrecision"/>
</svg>
