<svg xmlns="http://www.w3.org/2000/svg" width="4096" height="4096" viewBox="0 0 4096 4096" role="img" aria-label="Lovecraftian symbol">

  <path d="M 2802.00 507.00 L 2755.00 496.00 L 2718.00 498.00 L 2677.00 516.00 L 2644.00 545.00 L 2608.00 608.00 L 2575.00 688.00 L 2551.00 723.00 L 2512.00 813.00 L 2488.00 848.00 L 2450.00 936.00 L 2425.00 973.00 L 2383.00 1071.00 L 2300.00 1224.00 L 2289.00 1258.00 L 2259.00 1302.00 L 2243.00 1294.00 L 2238.00 1280.00 L 2234.00 1234.00 L 2217.00 1179.00 L 2205.00 1102.00 L 2185.00 1039.00 L 2174.00 960.00 L 2140.00 894.00 L 2093.00 860.00 L 2057.00 851.00 L 2018.00 850.00 L 1969.00 877.00 L 1934.00 913.00 L 1922.00 965.00 L 1930.00 1047.00 L 1954.00 1126.00 L 1962.00 1197.00 L 1986.00 1271.00 L 1997.00 1345.00 L 2017.00 1407.00 L 2029.00 1490.00 L 2048.00 1541.00 L 2055.00 1595.00 L 2071.00 1642.00 L 2072.00 1688.00 L 2048.00 1740.00 L 2028.00 1765.00 L 2017.00 1802.00 L 1996.00 1835.00 L 1982.00 1873.00 L 1962.00 1899.00 L 1954.00 1928.00 L 1899.00 2027.00 L 1861.00 2115.00 L 1809.00 2206.00 L 1803.00 2230.00 L 1778.00 2269.00 L 1764.00 2315.00 L 1749.00 2330.00 L 1731.00 2331.00 L 1720.00 2316.00 L 1714.00 2261.00 L 1692.00 2210.00 L 1679.00 2135.00 L 1628.00 1978.00 L 1616.00 1913.00 L 1600.00 1873.00 L 1585.00 1804.00 L 1565.00 1758.00 L 1558.00 1711.00 L 1523.00 1591.00 L 1470.00 1533.00 L 1435.00 1520.00 L 1395.00 1517.00 L 1344.00 1532.00 L 1314.00 1558.00 L 1288.00 1596.00 L 1281.00 1617.00 L 1288.00 1698.00 L 1303.00 1729.00 L 1319.00 1804.00 L 1335.00 1841.00 L 1377.00 2014.00 L 1397.00 2060.00 L 1408.00 2122.00 L 1428.00 2171.00 L 1439.00 2232.00 L 1459.00 2278.00 L 1466.00 2324.00 L 1486.00 2376.00 L 1498.00 2441.00 L 1517.00 2484.00 L 1529.00 2551.00 L 1548.00 2595.00 L 1566.00 2678.00 L 1554.00 2726.00 L 1505.00 2814.00 L 1422.00 2988.00 L 1405.00 2985.00 L 1396.00 2969.00 L 1347.00 2799.00 L 1339.00 2749.00 L 1320.00 2713.00 L 1277.00 2544.00 L 1257.00 2498.00 L 1246.00 2442.00 L 1225.00 2391.00 L 1215.00 2330.00 L 1195.00 2283.00 L 1183.00 2230.00 L 1163.00 2187.00 L 1156.00 2133.00 L 1132.00 2071.00 L 1125.00 2027.00 L 1095.00 1961.00 L 1051.00 1921.00 L 1011.00 1903.00 L 984.00 1901.00 L 917.00 1932.00 L 881.00 1970.00 L 872.00 2004.00 L 871.00 2056.00 L 882.00 2111.00 L 959.00 2353.00 L 976.00 2435.00 L 995.00 2467.00 L 1007.00 2535.00 L 1057.00 2688.00 L 1069.00 2746.00 L 1089.00 2793.00 L 1099.00 2848.00 L 1120.00 2898.00 L 1159.00 3057.00 L 1178.00 3099.00 L 1190.00 3153.00 L 1210.00 3203.00 L 1220.00 3263.00 L 1244.00 3317.00 L 1241.00 3348.00 L 1221.00 3379.00 L 1194.00 3445.00 L 1190.00 3488.00 L 1227.00 3561.00 L 1277.00 3593.00 L 1303.00 3599.00 L 1348.00 3597.00 L 1399.00 3568.00 L 1428.00 3533.00 L 1628.00 3130.00 L 1659.00 3078.00 L 1685.00 3056.00 L 2305.00 2762.00 L 2333.00 2743.00 L 2433.00 2701.00 L 2467.00 2680.00 L 2500.00 2670.00 L 2524.00 2652.00 L 2564.00 2638.00 L 2662.00 2585.00 L 2754.00 2546.00 L 2780.00 2527.00 L 2814.00 2517.00 L 2961.00 2446.00 L 3007.00 2419.00 L 3048.00 2369.00 L 3059.00 2335.00 L 3059.00 2311.00 L 3039.00 2249.00 L 3000.00 2211.00 L 2943.00 2196.00 L 2882.00 2203.00 L 2765.00 2264.00 L 2724.00 2277.00 L 2690.00 2298.00 L 2666.00 2304.00 L 2566.00 2357.00 L 2536.00 2367.00 L 2440.00 2419.00 L 2340.00 2461.00 L 2244.00 2512.00 L 2214.00 2520.00 L 2123.00 2571.00 L 2089.00 2582.00 L 2053.00 2606.00 L 2022.00 2613.00 L 1990.00 2633.00 L 1960.00 2643.00 L 1877.00 2692.00 L 1864.00 2695.00 L 1854.00 2687.00 L 1876.00 2632.00 L 1928.00 2539.00 L 1935.00 2514.00 L 1955.00 2487.00 L 1967.00 2448.00 L 1986.00 2422.00 L 2002.00 2378.00 L 2049.00 2299.00 L 2122.00 2141.00 L 2143.00 2112.00 L 2153.00 2076.00 L 2175.00 2044.00 L 2185.00 2011.00 L 2205.00 1987.00 L 2246.00 1892.00 L 2267.00 1863.00 L 2280.00 1823.00 L 2305.00 1792.00 L 2445.00 1720.00 L 2546.00 1678.00 L 2579.00 1658.00 L 2613.00 1648.00 L 2645.00 1627.00 L 2748.00 1585.00 L 2771.00 1568.00 L 2813.00 1555.00 L 2904.00 1507.00 L 3014.00 1461.00 L 3047.00 1440.00 L 3140.00 1402.00 L 3195.00 1361.00 L 3219.00 1318.00 L 3224.00 1299.00 L 3222.00 1259.00 L 3193.00 1202.00 L 3133.00 1159.00 L 3072.00 1157.00 L 2923.00 1221.00 L 2828.00 1272.00 L 2732.00 1310.00 L 2698.00 1332.00 L 2651.00 1346.00 L 2614.00 1370.00 L 2576.00 1381.00 L 2512.00 1420.00 L 2492.00 1418.00 L 2492.00 1395.00 L 2544.00 1309.00 L 2554.00 1276.00 L 2606.00 1185.00 L 2617.00 1151.00 L 2639.00 1121.00 L 2648.00 1087.00 L 2670.00 1054.00 L 2680.00 1021.00 L 2700.00 995.00 L 2739.00 904.00 L 2861.00 672.00 L 2868.00 619.00 L 2858.00 564.00 Z" fill="#000" fill-rule="evenodd" shape-rendering="geometricPrecision"/>
</svg>
