<svg xmlns="http://www.w3.org/2000/svg" width="4096" height="4096" viewBox="0 0 4096 4096" role="img" aria-label="Lovecraftian symbol">

  <path d="M 1352.00 523.00 L 1327.00 543.00 L 1292.00 559.00 L 1254.00 596.00 L 1222.00 636.00 L 1194.00 705.00 L 1189.00 804.00 L 1219.00 891.00 L 1254.00 941.00 L 1295.00 983.00 L 1347.00 1019.00 L 1450.00 1058.00 L 1527.00 1100.00 L 1615.00 1162.00 L 1685.00 1230.00 L 1781.00 1357.00 L 1816.00 1427.00 L 1824.00 1458.00 L 1848.00 1495.00 L 1851.00 1534.00 L 1840.00 1550.00 L 1805.00 1565.00 L 1731.00 1619.00 L 1664.00 1688.00 L 1637.00 1726.00 L 1612.00 1728.00 L 1591.00 1720.00 L 1507.00 1651.00 L 1435.00 1578.00 L 1412.00 1543.00 L 1288.00 1398.00 L 1215.00 1328.00 L 1155.00 1289.00 L 1083.00 1257.00 L 1019.00 1246.00 L 951.00 1245.00 L 859.00 1264.00 L 791.00 1300.00 L 757.00 1333.00 L 722.00 1380.00 L 697.00 1444.00 L 687.00 1502.00 L 715.00 1615.00 L 757.00 1676.00 L 810.00 1721.00 L 881.00 1753.00 L 979.00 1759.00 L 1074.00 1724.00 L 1125.00 1686.00 L 1185.00 1597.00 L 1195.00 1537.00 L 1215.00 1533.00 L 1279.00 1603.00 L 1357.00 1704.00 L 1406.00 1753.00 L 1482.00 1816.00 L 1561.00 1871.00 L 1565.00 1882.00 L 1552.00 1923.00 L 1544.00 1998.00 L 1550.00 2062.00 L 1543.00 2085.00 L 1181.00 2548.00 L 1109.00 2616.00 L 1054.00 2652.00 L 952.00 2692.00 L 859.00 2710.00 L 794.00 2711.00 L 705.00 2685.00 L 666.00 2657.00 L 626.00 2617.00 L 591.00 2561.00 L 579.00 2510.00 L 580.00 2441.00 L 594.00 2397.00 L 629.00 2344.00 L 665.00 2320.00 L 685.00 2292.00 L 688.00 2280.00 L 680.00 2271.00 L 668.00 2271.00 L 618.00 2295.00 L 575.00 2334.00 L 519.00 2410.00 L 498.00 2490.00 L 495.00 2539.00 L 499.00 2582.00 L 520.00 2652.00 L 546.00 2687.00 L 555.00 2715.00 L 611.00 2782.00 L 668.00 2827.00 L 731.00 2859.00 L 845.00 2891.00 L 1023.00 2891.00 L 1148.00 2859.00 L 1243.00 2823.00 L 1292.00 2795.00 L 1385.00 2731.00 L 1596.00 2547.00 L 1619.00 2543.00 L 1625.00 2564.00 L 1621.00 2646.00 L 1626.00 2735.00 L 1658.00 2891.00 L 1681.00 2949.00 L 1694.00 3008.00 L 1713.00 3042.00 L 1722.00 3108.00 L 1745.00 3186.00 L 1750.00 3292.00 L 1742.00 3326.00 L 1710.00 3393.00 L 1681.00 3423.00 L 1629.00 3458.00 L 1560.00 3472.00 L 1477.00 3458.00 L 1421.00 3417.00 L 1392.00 3374.00 L 1380.00 3296.00 L 1371.00 3275.00 L 1356.00 3278.00 L 1332.00 3331.00 L 1332.00 3356.00 L 1357.00 3434.00 L 1392.00 3487.00 L 1433.00 3525.00 L 1497.00 3561.00 L 1620.00 3583.00 L 1721.00 3565.00 L 1786.00 3529.00 L 1849.00 3473.00 L 1920.00 3380.00 L 1932.00 3335.00 L 1952.00 3295.00 L 1965.00 3160.00 L 1962.00 2982.00 L 1953.00 2870.00 L 1959.00 2666.00 L 1992.00 2581.00 L 2007.00 2569.00 L 2028.00 2569.00 L 2047.00 2587.00 L 2123.00 2741.00 L 2194.00 2849.00 L 2268.00 2931.00 L 2370.00 3026.00 L 2462.00 3086.00 L 2532.00 3121.00 L 2577.00 3136.00 L 2614.00 3157.00 L 2766.00 3201.00 L 2816.00 3235.00 L 2855.00 3296.00 L 2859.00 3373.00 L 2848.00 3397.00 L 2813.00 3437.00 L 2764.00 3470.00 L 2758.00 3487.00 L 2777.00 3498.00 L 2817.00 3494.00 L 2884.00 3445.00 L 2919.00 3402.00 L 2948.00 3314.00 L 2949.00 3268.00 L 2923.00 3179.00 L 2887.00 3125.00 L 2834.00 3070.00 L 2745.00 3020.00 L 2649.00 2951.00 L 2569.00 2872.00 L 2524.00 2813.00 L 2463.00 2706.00 L 2451.00 2660.00 L 2431.00 2620.00 L 2423.00 2553.00 L 2406.00 2496.00 L 2412.00 2472.00 L 2448.00 2435.00 L 2481.00 2413.00 L 2503.00 2413.00 L 2554.00 2438.00 L 2657.00 2500.00 L 2737.00 2569.00 L 2852.00 2686.00 L 3008.00 2816.00 L 3079.00 2859.00 L 3180.00 2894.00 L 3257.00 2899.00 L 3345.00 2894.00 L 3431.00 2862.00 L 3485.00 2827.00 L 3526.00 2786.00 L 3557.00 2744.00 L 3566.00 2716.00 L 3589.00 2678.00 L 3596.00 2650.00 L 3600.00 2590.00 L 3596.00 2523.00 L 3589.00 2501.00 L 3557.00 2450.00 L 3519.00 2408.00 L 3495.00 2391.00 L 3447.00 2377.00 L 3442.00 2381.00 L 3446.00 2399.00 L 3512.00 2475.00 L 3525.00 2512.00 L 3523.00 2595.00 L 3478.00 2671.00 L 3423.00 2717.00 L 3345.00 2739.00 L 3311.00 2738.00 L 3253.00 2724.00 L 3194.00 2693.00 L 3123.00 2621.00 L 3066.00 2550.00 L 2958.00 2381.00 L 2859.00 2252.00 L 2732.00 2130.00 L 2648.00 2078.00 L 2626.00 2051.00 L 2623.00 1973.00 L 2641.00 1945.00 L 2743.00 1906.00 L 2811.00 1891.00 L 2856.00 1871.00 L 2920.00 1856.00 L 2988.00 1823.00 L 3044.00 1785.00 L 3122.00 1710.00 L 3189.00 1605.00 L 3198.00 1566.00 L 3221.00 1516.00 L 3221.00 1426.00 L 3189.00 1328.00 L 3133.00 1257.00 L 3094.00 1229.00 L 3016.00 1197.00 L 2977.00 1190.00 L 2917.00 1194.00 L 2821.00 1232.00 L 2758.00 1295.00 L 2722.00 1348.00 L 2708.00 1433.00 L 2708.00 1474.00 L 2722.00 1540.00 L 2764.00 1608.00 L 2817.00 1657.00 L 2888.00 1688.00 L 2897.00 1700.00 L 2895.00 1712.00 L 2873.00 1724.00 L 2734.00 1761.00 L 2685.00 1784.00 L 2610.00 1805.00 L 2588.00 1803.00 L 2566.00 1787.00 L 2551.00 1750.00 L 2491.00 1669.00 L 2401.00 1590.00 L 2392.00 1576.00 L 2391.00 1552.00 L 2415.00 1420.00 L 2415.00 1384.00 L 2387.00 1171.00 L 2364.00 1092.00 L 2363.00 1069.00 L 2380.00 1055.00 L 2451.00 1093.00 L 2508.00 1107.00 L 2573.00 1107.00 L 2649.00 1082.00 L 2720.00 1031.00 L 2753.00 990.00 L 2789.00 919.00 L 2799.00 838.00 L 2784.00 749.00 L 2726.00 669.00 L 2663.00 623.00 L 2569.00 590.00 L 2494.00 589.00 L 2462.00 594.00 L 2389.00 623.00 L 2338.00 658.00 L 2296.00 700.00 L 2254.00 762.00 L 2226.00 833.00 L 2215.00 922.00 L 2229.00 1126.00 L 2245.00 1180.00 L 2270.00 1361.00 L 2271.00 1422.00 L 2263.00 1486.00 L 2257.00 1499.00 L 2238.00 1512.00 L 2148.00 1491.00 L 2009.00 1495.00 L 1984.00 1473.00 L 1954.00 1387.00 L 1934.00 1354.00 L 1919.00 1312.00 L 1849.00 1204.00 L 1781.00 1125.00 L 1711.00 1059.00 L 1597.00 979.00 L 1601.00 960.00 L 1643.00 923.00 L 1678.00 868.00 L 1699.00 783.00 L 1700.00 750.00 L 1688.00 682.00 L 1653.00 618.00 L 1604.00 565.00 L 1531.00 523.00 L 1467.00 511.00 L 1376.00 516.00 Z M 938.00 1389.00 L 965.00 1390.00 L 973.00 1392.00 L 975.00 1394.00 L 981.00 1395.00 L 989.00 1401.00 L 994.00 1403.00 L 1000.00 1409.00 L 1003.00 1410.00 L 1007.00 1415.00 L 1009.00 1415.00 L 1012.00 1419.00 L 1014.00 1419.00 L 1018.00 1423.00 L 1020.00 1423.00 L 1023.00 1427.00 L 1026.00 1428.00 L 1044.00 1449.00 L 1044.00 1451.00 L 1046.00 1452.00 L 1045.00 1453.00 L 1050.00 1459.00 L 1051.00 1465.00 L 1053.00 1467.00 L 1055.00 1471.00 L 1055.00 1474.00 L 1057.00 1476.00 L 1058.00 1483.00 L 1060.00 1488.00 L 1061.00 1508.00 L 1059.00 1510.00 L 1057.00 1522.00 L 1055.00 1523.00 L 1054.00 1529.00 L 1052.00 1531.00 L 1053.00 1533.00 L 1051.00 1534.00 L 1050.00 1542.00 L 1048.00 1543.00 L 1047.00 1553.00 L 1045.00 1554.00 L 1046.00 1557.00 L 1044.00 1558.00 L 1044.00 1561.00 L 1039.00 1571.00 L 1034.00 1575.00 L 1031.00 1579.00 L 1028.00 1580.00 L 1025.00 1583.00 L 1021.00 1584.00 L 1015.00 1589.00 L 1010.00 1591.00 L 1007.00 1594.00 L 1005.00 1594.00 L 1003.00 1597.00 L 1001.00 1597.00 L 997.00 1602.00 L 994.00 1603.00 L 990.00 1607.00 L 975.00 1615.00 L 967.00 1616.00 L 965.00 1618.00 L 951.00 1619.00 L 932.00 1618.00 L 930.00 1616.00 L 916.00 1614.00 L 914.00 1612.00 L 910.00 1611.00 L 905.00 1607.00 L 903.00 1607.00 L 896.00 1601.00 L 894.00 1601.00 L 892.00 1598.00 L 886.00 1596.00 L 885.00 1594.00 L 881.00 1593.00 L 879.00 1591.00 L 869.00 1587.00 L 867.00 1584.00 L 865.00 1584.00 L 856.00 1575.00 L 856.00 1573.00 L 853.00 1571.00 L 852.00 1565.00 L 850.00 1564.00 L 851.00 1562.00 L 849.00 1560.00 L 848.00 1553.00 L 846.00 1551.00 L 846.00 1548.00 L 843.00 1544.00 L 844.00 1542.00 L 841.00 1536.00 L 839.00 1535.00 L 838.00 1530.00 L 835.00 1528.00 L 834.00 1522.00 L 832.00 1521.00 L 831.00 1518.00 L 830.00 1509.00 L 828.00 1507.00 L 828.00 1495.00 L 830.00 1493.00 L 829.00 1490.00 L 831.00 1488.00 L 832.00 1482.00 L 834.00 1481.00 L 836.00 1474.00 L 839.00 1472.00 L 839.00 1470.00 L 841.00 1469.00 L 841.00 1467.00 L 844.00 1464.00 L 843.00 1463.00 L 845.00 1462.00 L 846.00 1457.00 L 848.00 1456.00 L 850.00 1449.00 L 852.00 1448.00 L 853.00 1443.00 L 855.00 1442.00 L 855.00 1440.00 L 857.00 1437.00 L 868.00 1426.00 L 875.00 1422.00 L 882.00 1416.00 L 884.00 1416.00 L 889.00 1410.00 L 891.00 1410.00 L 900.00 1402.00 L 904.00 1401.00 L 906.00 1399.00 L 915.00 1395.00 L 924.00 1394.00 L 925.00 1392.00 L 936.00 1391.00 Z M 2946.00 1331.00 L 2975.00 1331.00 L 2980.00 1332.00 L 2982.00 1334.00 L 2989.00 1335.00 L 2990.00 1337.00 L 2996.00 1338.00 L 3003.00 1342.00 L 3005.00 1345.00 L 3007.00 1345.00 L 3015.00 1352.00 L 3017.00 1352.00 L 3026.00 1360.00 L 3029.00 1361.00 L 3033.00 1366.00 L 3035.00 1366.00 L 3047.00 1378.00 L 3048.00 1381.00 L 3051.00 1383.00 L 3052.00 1388.00 L 3055.00 1390.00 L 3058.00 1398.00 L 3061.00 1402.00 L 3062.00 1406.00 L 3064.00 1407.00 L 3065.00 1412.00 L 3068.00 1416.00 L 3069.00 1420.00 L 3071.00 1421.00 L 3070.00 1423.00 L 3072.00 1425.00 L 3073.00 1431.00 L 3075.00 1432.00 L 3076.00 1442.00 L 3078.00 1444.00 L 3078.00 1462.00 L 3075.00 1471.00 L 3073.00 1472.00 L 3072.00 1476.00 L 3070.00 1478.00 L 3071.00 1479.00 L 3069.00 1482.00 L 3066.00 1484.00 L 3065.00 1489.00 L 3063.00 1490.00 L 3061.00 1496.00 L 3059.00 1497.00 L 3057.00 1504.00 L 3055.00 1505.00 L 3055.00 1507.00 L 3050.00 1513.00 L 3050.00 1515.00 L 3040.00 1525.00 L 3037.00 1526.00 L 3035.00 1529.00 L 3032.00 1530.00 L 3028.00 1534.00 L 3026.00 1534.00 L 3024.00 1537.00 L 3021.00 1538.00 L 3011.00 1547.00 L 3007.00 1548.00 L 3005.00 1550.00 L 3001.00 1551.00 L 2997.00 1554.00 L 2983.00 1558.00 L 2976.00 1559.00 L 2943.00 1559.00 L 2924.00 1554.00 L 2920.00 1551.00 L 2918.00 1551.00 L 2914.00 1548.00 L 2910.00 1547.00 L 2892.00 1533.00 L 2890.00 1533.00 L 2888.00 1530.00 L 2879.00 1525.00 L 2878.00 1523.00 L 2875.00 1522.00 L 2868.00 1515.00 L 2864.00 1508.00 L 2862.00 1501.00 L 2860.00 1500.00 L 2859.00 1493.00 L 2857.00 1491.00 L 2856.00 1484.00 L 2854.00 1483.00 L 2855.00 1481.00 L 2853.00 1479.00 L 2852.00 1473.00 L 2850.00 1472.00 L 2848.00 1461.00 L 2846.00 1459.00 L 2847.00 1438.00 L 2850.00 1425.00 L 2852.00 1424.00 L 2853.00 1417.00 L 2855.00 1415.00 L 2854.00 1413.00 L 2856.00 1412.00 L 2857.00 1406.00 L 2859.00 1404.00 L 2860.00 1401.00 L 2860.00 1397.00 L 2862.00 1396.00 L 2864.00 1389.00 L 2866.00 1388.00 L 2867.00 1383.00 L 2870.00 1381.00 L 2871.00 1378.00 L 2878.00 1371.00 L 2881.00 1370.00 L 2883.00 1367.00 L 2886.00 1366.00 L 2893.00 1360.00 L 2899.00 1357.00 L 2903.00 1353.00 L 2906.00 1352.00 L 2908.00 1349.00 L 2910.00 1349.00 L 2917.00 1343.00 L 2918.00 1344.00 L 2924.00 1339.00 L 2928.00 1338.00 L 2932.00 1335.00 L 2939.00 1334.00 L 2941.00 1332.00 Z M 2544.00 736.00 L 2546.00 738.00 L 2552.00 738.00 L 2560.00 740.00 L 2561.00 742.00 L 2565.00 743.00 L 2568.00 746.00 L 2572.00 747.00 L 2578.00 752.00 L 2580.00 752.00 L 2589.00 759.00 L 2597.00 762.00 L 2603.00 767.00 L 2606.00 768.00 L 2612.00 775.00 L 2618.00 780.00 L 2618.00 782.00 L 2623.00 787.00 L 2623.00 789.00 L 2628.00 793.00 L 2628.00 795.00 L 2636.00 804.00 L 2636.00 806.00 L 2641.00 810.00 L 2642.00 813.00 L 2644.00 815.00 L 2644.00 817.00 L 2646.00 818.00 L 2648.00 825.00 L 2650.00 826.00 L 2651.00 833.00 L 2653.00 835.00 L 2654.00 843.00 L 2654.00 862.00 L 2653.00 870.00 L 2651.00 872.00 L 2650.00 880.00 L 2648.00 882.00 L 2649.00 884.00 L 2647.00 885.00 L 2646.00 890.00 L 2644.00 891.00 L 2643.00 895.00 L 2640.00 898.00 L 2640.00 900.00 L 2629.00 912.00 L 2629.00 914.00 L 2623.00 919.00 L 2623.00 921.00 L 2616.00 929.00 L 2617.00 930.00 L 2612.00 934.00 L 2612.00 936.00 L 2600.00 947.00 L 2593.00 949.00 L 2592.00 951.00 L 2586.00 954.00 L 2584.00 953.00 L 2582.00 955.00 L 2575.00 956.00 L 2574.00 958.00 L 2562.00 960.00 L 2560.00 962.00 L 2543.00 964.00 L 2520.00 965.00 L 2518.00 963.00 L 2506.00 962.00 L 2504.00 960.00 L 2495.00 958.00 L 2489.00 955.00 L 2487.00 952.00 L 2481.00 950.00 L 2480.00 948.00 L 2477.00 947.00 L 2450.00 921.00 L 2434.00 904.00 L 2434.00 902.00 L 2432.00 901.00 L 2433.00 900.00 L 2431.00 898.00 L 2430.00 892.00 L 2428.00 891.00 L 2426.00 880.00 L 2426.00 872.00 L 2424.00 870.00 L 2424.00 838.00 L 2426.00 836.00 L 2426.00 826.00 L 2428.00 815.00 L 2430.00 814.00 L 2433.00 808.00 L 2432.00 807.00 L 2434.00 806.00 L 2435.00 803.00 L 2445.00 793.00 L 2446.00 790.00 L 2451.00 786.00 L 2452.00 783.00 L 2455.00 781.00 L 2455.00 779.00 L 2458.00 776.00 L 2459.00 773.00 L 2468.00 763.00 L 2470.00 763.00 L 2472.00 760.00 L 2477.00 759.00 L 2478.00 757.00 L 2485.00 756.00 L 2487.00 754.00 L 2499.00 752.00 L 2500.00 750.00 L 2506.00 749.00 L 2507.00 747.00 L 2516.00 745.00 L 2517.00 743.00 L 2519.00 743.00 L 2523.00 740.00 L 2531.00 738.00 L 2536.00 738.00 L 2538.00 736.00 Z M 1438.00 651.00 L 1458.00 652.00 L 1477.00 655.00 L 1479.00 657.00 L 1487.00 658.00 L 1491.00 661.00 L 1499.00 664.00 L 1501.00 667.00 L 1503.00 667.00 L 1522.00 686.00 L 1524.00 686.00 L 1526.00 689.00 L 1529.00 690.00 L 1542.00 701.00 L 1545.00 705.00 L 1545.00 707.00 L 1547.00 708.00 L 1548.00 714.00 L 1550.00 715.00 L 1551.00 724.00 L 1553.00 725.00 L 1552.00 730.00 L 1554.00 732.00 L 1555.00 747.00 L 1557.00 749.00 L 1556.00 782.00 L 1554.00 798.00 L 1552.00 799.00 L 1552.00 804.00 L 1550.00 807.00 L 1550.00 810.00 L 1547.00 813.00 L 1547.00 815.00 L 1544.00 817.00 L 1544.00 819.00 L 1522.00 841.00 L 1518.00 847.00 L 1508.00 855.00 L 1497.00 861.00 L 1487.00 864.00 L 1486.00 866.00 L 1480.00 867.00 L 1479.00 869.00 L 1472.00 871.00 L 1471.00 873.00 L 1466.00 874.00 L 1465.00 876.00 L 1455.00 878.00 L 1454.00 880.00 L 1449.00 881.00 L 1436.00 881.00 L 1431.00 880.00 L 1429.00 878.00 L 1422.00 877.00 L 1421.00 875.00 L 1414.00 871.00 L 1410.00 870.00 L 1407.00 867.00 L 1403.00 866.00 L 1400.00 863.00 L 1396.00 862.00 L 1395.00 860.00 L 1390.00 859.00 L 1389.00 857.00 L 1387.00 857.00 L 1382.00 853.00 L 1380.00 853.00 L 1375.00 849.00 L 1372.00 848.00 L 1368.00 843.00 L 1360.00 836.00 L 1360.00 834.00 L 1357.00 831.00 L 1356.00 828.00 L 1353.00 826.00 L 1353.00 824.00 L 1342.00 812.00 L 1342.00 810.00 L 1340.00 809.00 L 1337.00 802.00 L 1335.00 801.00 L 1331.00 788.00 L 1331.00 781.00 L 1329.00 780.00 L 1330.00 770.00 L 1328.00 769.00 L 1328.00 747.00 L 1330.00 745.00 L 1329.00 742.00 L 1332.00 736.00 L 1334.00 735.00 L 1335.00 730.00 L 1352.00 708.00 L 1353.00 704.00 L 1359.00 697.00 L 1360.00 693.00 L 1364.00 689.00 L 1364.00 687.00 L 1370.00 682.00 L 1383.00 668.00 L 1386.00 667.00 L 1392.00 662.00 L 1399.00 660.00 L 1400.00 658.00 L 1410.00 657.00 L 1412.00 655.00 L 1418.00 654.00 L 1436.00 653.00 Z" fill="#000" fill-rule="evenodd" shape-rendering="geometricPrecision"/>
</svg>
