<svg xmlns="http://www.w3.org/2000/svg" width="4096" height="4096" viewBox="0 0 4096 4096" role="img" aria-label="Lovecraftian symbol">

  <path d="M 2885.00 707.00 L 2874.00 706.00 L 2869.00 715.00 L 2870.00 889.00 L 2851.00 1025.00 L 2829.00 1075.00 L 2820.00 1123.00 L 2795.00 1163.00 L 2786.00 1192.00 L 2717.00 1303.00 L 2659.00 1372.00 L 2550.00 1469.00 L 2487.00 1508.00 L 2474.00 1499.00 L 2472.00 1484.00 L 2501.00 1428.00 L 2536.00 1256.00 L 2539.00 1104.00 L 2528.00 982.00 L 2511.00 947.00 L 2497.00 867.00 L 2428.00 710.00 L 2336.00 571.00 L 2269.00 503.00 L 2248.00 496.00 L 2242.00 503.00 L 2245.00 523.00 L 2328.00 649.00 L 2341.00 691.00 L 2363.00 731.00 L 2397.00 868.00 L 2404.00 1022.00 L 2397.00 1126.00 L 2363.00 1251.00 L 2342.00 1290.00 L 2332.00 1327.00 L 2298.00 1388.00 L 2236.00 1476.00 L 2144.00 1572.00 L 2070.00 1635.00 L 1973.00 1699.00 L 1890.00 1735.00 L 1777.00 1772.00 L 1673.00 1785.00 L 1537.00 1786.00 L 1366.00 1808.00 L 1297.00 1834.00 L 1254.00 1843.00 L 1213.00 1864.00 L 1170.00 1877.00 L 1050.00 1946.00 L 963.00 2007.00 L 856.00 2114.00 L 781.00 2206.00 L 750.00 2253.00 L 740.00 2282.00 L 684.00 2379.00 L 624.00 2565.00 L 616.00 2608.00 L 607.00 2750.00 L 608.00 2841.00 L 620.00 2946.00 L 641.00 2998.00 L 654.00 3058.00 L 675.00 3096.00 L 684.00 3130.00 L 752.00 3242.00 L 846.00 3354.00 L 963.00 3456.00 L 1002.00 3473.00 L 1078.00 3521.00 L 1168.00 3557.00 L 1292.00 3590.00 L 1419.00 3599.00 L 1521.00 3594.00 L 1579.00 3586.00 L 1682.00 3556.00 L 1718.00 3534.00 L 1764.00 3517.00 L 1853.00 3458.00 L 1942.00 3380.00 L 1984.00 3330.00 L 2045.00 3240.00 L 2079.00 3170.00 L 2089.00 3124.00 L 2110.00 3082.00 L 2133.00 2940.00 L 2133.00 2869.00 L 2125.00 2803.00 L 2107.00 2724.00 L 2089.00 2696.00 L 2071.00 2646.00 L 2041.00 2601.00 L 1938.00 2495.00 L 1878.00 2457.00 L 1800.00 2422.00 L 1718.00 2399.00 L 1635.00 2392.00 L 1563.00 2396.00 L 1460.00 2426.00 L 1401.00 2457.00 L 1359.00 2491.00 L 1272.00 2586.00 L 1259.00 2615.00 L 1241.00 2635.00 L 1227.00 2671.00 L 1202.00 2710.00 L 1198.00 2747.00 L 1206.00 2755.00 L 1219.00 2754.00 L 1298.00 2687.00 L 1329.00 2678.00 L 1368.00 2656.00 L 1438.00 2640.00 L 1562.00 2649.00 L 1595.00 2660.00 L 1654.00 2696.00 L 1688.00 2725.00 L 1718.00 2768.00 L 1746.00 2874.00 L 1745.00 2932.00 L 1719.00 3025.00 L 1677.00 3094.00 L 1599.00 3161.00 L 1535.00 3196.00 L 1452.00 3208.00 L 1392.00 3207.00 L 1306.00 3195.00 L 1235.00 3165.00 L 1174.00 3128.00 L 1077.00 3031.00 L 1046.00 2982.00 L 1015.00 2916.00 L 991.00 2789.00 L 991.00 2746.00 L 1008.00 2636.00 L 1032.00 2572.00 L 1042.00 2526.00 L 1114.00 2408.00 L 1184.00 2333.00 L 1266.00 2268.00 L 1395.00 2204.00 L 1432.00 2196.00 L 1481.00 2197.00 L 1531.00 2204.00 L 1599.00 2226.00 L 1731.00 2226.00 L 1804.00 2198.00 L 1887.00 2146.00 L 1917.00 2135.00 L 1962.00 2129.00 L 2051.00 2131.00 L 2174.00 2160.00 L 2251.00 2160.00 L 2296.00 2152.00 L 2352.00 2130.00 L 2407.00 2094.00 L 2436.00 2084.00 L 2451.00 2090.00 L 2552.00 2192.00 L 2646.00 2259.00 L 2698.00 2288.00 L 2849.00 2355.00 L 2914.00 2365.00 L 2988.00 2389.00 L 3008.00 2407.00 L 3028.00 2452.00 L 3055.00 2488.00 L 3091.00 2524.00 L 3148.00 2555.00 L 3218.00 2572.00 L 3321.00 2559.00 L 3393.00 2520.00 L 3439.00 2475.00 L 3475.00 2409.00 L 3488.00 2342.00 L 3487.00 2303.00 L 3467.00 2217.00 L 3439.00 2172.00 L 3392.00 2129.00 L 3388.00 2116.00 L 3393.00 2105.00 L 3441.00 2061.00 L 3471.00 2008.00 L 3487.00 1910.00 L 3471.00 1812.00 L 3437.00 1757.00 L 3392.00 1713.00 L 3340.00 1682.00 L 3260.00 1663.00 L 3218.00 1663.00 L 3138.00 1682.00 L 3088.00 1713.00 L 3047.00 1749.00 L 2994.00 1852.00 L 2988.00 1890.00 L 2964.00 1907.00 L 2868.00 1907.00 L 2746.00 1892.00 L 2698.00 1874.00 L 2646.00 1865.00 L 2618.00 1847.00 L 2569.00 1834.00 L 2535.00 1809.00 L 2503.00 1798.00 L 2488.00 1781.00 L 2488.00 1766.00 L 2497.00 1753.00 L 2537.00 1734.00 L 2615.00 1670.00 L 2691.00 1597.00 L 2754.00 1521.00 L 2819.00 1421.00 L 2833.00 1380.00 L 2854.00 1348.00 L 2867.00 1305.00 L 2888.00 1269.00 L 2923.00 1115.00 L 2931.00 925.00 L 2919.00 779.00 Z M 3212.00 2211.00 L 3225.00 2210.00 L 3259.00 2210.00 L 3264.00 2211.00 L 3268.00 2214.00 L 3270.00 2214.00 L 3274.00 2217.00 L 3278.00 2218.00 L 3280.00 2221.00 L 3287.00 2223.00 L 3288.00 2225.00 L 3295.00 2227.00 L 3296.00 2229.00 L 3303.00 2231.00 L 3316.00 2243.00 L 3324.00 2254.00 L 3330.00 2259.00 L 3331.00 2262.00 L 3335.00 2266.00 L 3335.00 2268.00 L 3338.00 2270.00 L 3338.00 2272.00 L 3342.00 2278.00 L 3343.00 2284.00 L 3345.00 2285.00 L 3346.00 2294.00 L 3348.00 2295.00 L 3347.00 2301.00 L 3349.00 2303.00 L 3350.00 2312.00 L 3350.00 2332.00 L 3349.00 2340.00 L 3347.00 2342.00 L 3348.00 2347.00 L 3346.00 2348.00 L 3346.00 2354.00 L 3345.00 2359.00 L 3343.00 2361.00 L 3343.00 2366.00 L 3341.00 2374.00 L 3339.00 2375.00 L 3337.00 2382.00 L 3330.00 2390.00 L 3321.00 2396.00 L 3318.00 2400.00 L 3306.00 2411.00 L 3306.00 2412.00 L 3303.00 2413.00 L 3299.00 2417.00 L 3295.00 2418.00 L 3289.00 2422.00 L 3286.00 2422.00 L 3284.00 2424.00 L 3274.00 2426.00 L 3272.00 2428.00 L 3264.00 2430.00 L 3259.00 2430.00 L 3257.00 2432.00 L 3227.00 2432.00 L 3225.00 2430.00 L 3218.00 2430.00 L 3201.00 2426.00 L 3193.00 2423.00 L 3187.00 2419.00 L 3183.00 2418.00 L 3175.00 2411.00 L 3172.00 2410.00 L 3166.00 2403.00 L 3155.00 2393.00 L 3154.00 2390.00 L 3150.00 2386.00 L 3150.00 2384.00 L 3147.00 2382.00 L 3147.00 2380.00 L 3144.00 2378.00 L 3145.00 2377.00 L 3142.00 2374.00 L 3142.00 2372.00 L 3139.00 2370.00 L 3139.00 2368.00 L 3136.00 2366.00 L 3135.00 2363.00 L 3132.00 2360.00 L 3130.00 2355.00 L 3128.00 2354.00 L 3125.00 2348.00 L 3126.00 2344.00 L 3124.00 2343.00 L 3125.00 2322.00 L 3127.00 2315.00 L 3128.00 2303.00 L 3130.00 2301.00 L 3132.00 2287.00 L 3135.00 2283.00 L 3136.00 2279.00 L 3139.00 2276.00 L 3139.00 2274.00 L 3142.00 2272.00 L 3142.00 2270.00 L 3147.00 2264.00 L 3147.00 2262.00 L 3150.00 2260.00 L 3151.00 2255.00 L 3153.00 2254.00 L 3155.00 2249.00 L 3159.00 2245.00 L 3160.00 2242.00 L 3167.00 2237.00 L 3169.00 2237.00 L 3171.00 2234.00 L 3173.00 2234.00 L 3180.00 2229.00 L 3182.00 2229.00 L 3183.00 2227.00 L 3189.00 2225.00 L 3191.00 2222.00 L 3194.00 2221.00 L 3201.00 2215.00 L 3206.00 2213.00 L 3210.00 2213.00 Z M 2531.00 1976.00 L 2533.00 1970.00 L 2539.00 1965.00 L 2555.00 1965.00 L 2567.00 1970.00 L 2586.00 1983.00 L 2610.00 1996.00 L 2615.00 1997.00 L 2616.00 1999.00 L 2622.00 2000.00 L 2623.00 2002.00 L 2654.00 2004.00 L 2656.00 2006.00 L 2669.00 2008.00 L 2670.00 2010.00 L 2681.00 2012.00 L 2682.00 2014.00 L 2693.00 2016.00 L 2695.00 2018.00 L 2707.00 2020.00 L 2708.00 2022.00 L 2716.00 2023.00 L 2718.00 2025.00 L 2734.00 2027.00 L 2735.00 2029.00 L 2759.00 2031.00 L 2761.00 2033.00 L 2788.00 2035.00 L 2789.00 2037.00 L 2838.00 2039.00 L 2839.00 2041.00 L 2972.00 2041.00 L 2974.00 2039.00 L 2987.00 2038.00 L 3012.00 2039.00 L 3023.00 2043.00 L 3029.00 2048.00 L 3030.00 2047.00 L 3039.00 2055.00 L 3057.00 2080.00 L 3084.00 2105.00 L 3087.00 2111.00 L 3087.00 2122.00 L 3080.00 2134.00 L 3051.00 2161.00 L 3042.00 2176.00 L 3028.00 2191.00 L 3020.00 2206.00 L 3011.00 2230.00 L 2994.00 2245.00 L 2987.00 2246.00 L 2985.00 2248.00 L 2971.00 2248.00 L 2960.00 2244.00 L 2959.00 2242.00 L 2952.00 2240.00 L 2937.00 2231.00 L 2888.00 2222.00 L 2875.00 2217.00 L 2874.00 2215.00 L 2869.00 2214.00 L 2853.00 2204.00 L 2845.00 2202.00 L 2844.00 2200.00 L 2816.00 2194.00 L 2805.00 2189.00 L 2803.00 2190.00 L 2802.00 2188.00 L 2792.00 2184.00 L 2773.00 2169.00 L 2759.00 2162.00 L 2738.00 2156.00 L 2727.00 2149.00 L 2721.00 2142.00 L 2708.00 2134.00 L 2706.00 2131.00 L 2699.00 2129.00 L 2681.00 2118.00 L 2672.00 2108.00 L 2643.00 2089.00 L 2624.00 2070.00 L 2609.00 2060.00 L 2588.00 2038.00 L 2579.00 2033.00 L 2552.00 2004.00 L 2538.00 1994.00 L 2533.00 1987.00 Z M 3229.00 1799.00 L 3249.00 1799.00 L 3260.00 1801.00 L 3261.00 1803.00 L 3272.00 1805.00 L 3274.00 1807.00 L 3284.00 1809.00 L 3286.00 1811.00 L 3289.00 1811.00 L 3292.00 1813.00 L 3294.00 1813.00 L 3295.00 1815.00 L 3299.00 1816.00 L 3302.00 1819.00 L 3305.00 1820.00 L 3312.00 1828.00 L 3313.00 1828.00 L 3316.00 1832.00 L 3322.00 1837.00 L 3322.00 1838.00 L 3325.00 1839.00 L 3331.00 1845.00 L 3331.00 1847.00 L 3336.00 1851.00 L 3338.00 1857.00 L 3342.00 1863.00 L 3343.00 1870.00 L 3345.00 1871.00 L 3346.00 1880.00 L 3348.00 1881.00 L 3347.00 1884.00 L 3349.00 1886.00 L 3350.00 1894.00 L 3350.00 1926.00 L 3349.00 1936.00 L 3347.00 1937.00 L 3348.00 1942.00 L 3346.00 1944.00 L 3345.00 1952.00 L 3343.00 1953.00 L 3341.00 1960.00 L 3339.00 1961.00 L 3339.00 1963.00 L 3337.00 1965.00 L 3336.00 1968.00 L 3335.00 1968.00 L 3328.00 1976.00 L 3324.00 1979.00 L 3316.00 1988.00 L 3316.00 1990.00 L 3307.00 1999.00 L 3302.00 2001.00 L 3296.00 2006.00 L 3282.00 2012.00 L 3279.00 2015.00 L 3275.00 2016.00 L 3271.00 2019.00 L 3268.00 2019.00 L 3264.00 2022.00 L 3253.00 2023.00 L 3252.00 2025.00 L 3250.00 2024.00 L 3237.00 2024.00 L 3235.00 2025.00 L 3233.00 2023.00 L 3214.00 2022.00 L 3213.00 2020.00 L 3204.00 2018.00 L 3201.00 2015.00 L 3197.00 2014.00 L 3190.00 2008.00 L 3185.00 2006.00 L 3180.00 2002.00 L 3178.00 2002.00 L 3177.00 2000.00 L 3173.00 1999.00 L 3170.00 1996.00 L 3168.00 1996.00 L 3158.00 1986.00 L 3153.00 1978.00 L 3153.00 1976.00 L 3151.00 1975.00 L 3150.00 1971.00 L 3147.00 1968.00 L 3146.00 1964.00 L 3135.00 1952.00 L 3134.00 1949.00 L 3132.00 1948.00 L 3127.00 1938.00 L 3127.00 1935.00 L 3125.00 1934.00 L 3126.00 1930.00 L 3124.00 1929.00 L 3123.00 1921.00 L 3123.00 1898.00 L 3124.00 1893.00 L 3126.00 1891.00 L 3125.00 1889.00 L 3127.00 1888.00 L 3128.00 1883.00 L 3130.00 1882.00 L 3133.00 1874.00 L 3134.00 1874.00 L 3136.00 1869.00 L 3141.00 1863.00 L 3140.00 1862.00 L 3142.00 1861.00 L 3142.00 1859.00 L 3145.00 1856.00 L 3144.00 1855.00 L 3146.00 1852.00 L 3149.00 1850.00 L 3149.00 1848.00 L 3153.00 1844.00 L 3154.00 1841.00 L 3161.00 1835.00 L 3168.00 1827.00 L 3174.00 1822.00 L 3174.00 1821.00 L 3177.00 1820.00 L 3185.00 1813.00 L 3189.00 1812.00 L 3192.00 1809.00 L 3201.00 1807.00 L 3202.00 1805.00 L 3214.00 1803.00 L 3216.00 1801.00 Z" fill="#000" fill-rule="evenodd" shape-rendering="geometricPrecision"/>
</svg>
