<svg xmlns="http://www.w3.org/2000/svg" width="4096" height="4096" viewBox="0 0 4096 4096" role="img" aria-label="Lovecraftian symbol">

  <path d="M 1954.00 499.00 L 1797.00 516.00 L 1663.00 544.00 L 1516.00 589.00 L 1377.00 648.00 L 1219.00 735.00 L 1086.00 829.00 L 982.00 919.00 L 867.00 1039.00 L 761.00 1178.00 L 688.00 1297.00 L 622.00 1431.00 L 575.00 1553.00 L 536.00 1689.00 L 509.00 1836.00 L 497.00 1962.00 L 498.00 2148.00 L 516.00 2304.00 L 549.00 2455.00 L 595.00 2596.00 L 650.00 2723.00 L 714.00 2842.00 L 814.00 2989.00 L 908.00 3100.00 L 1019.00 3209.00 L 1133.00 3300.00 L 1264.00 3386.00 L 1405.00 3459.00 L 1576.00 3525.00 L 1719.00 3563.00 L 1911.00 3592.00 L 2013.00 3597.00 L 2183.00 3592.00 L 2325.00 3573.00 L 2472.00 3539.00 L 2624.00 3487.00 L 2768.00 3421.00 L 2877.00 3358.00 L 3012.00 3262.00 L 3128.00 3160.00 L 3215.00 3069.00 L 3302.00 2961.00 L 3384.00 2836.00 L 3453.00 2706.00 L 3513.00 2560.00 L 3560.00 2398.00 L 3586.00 2257.00 L 3598.00 2124.00 L 3597.00 1947.00 L 3579.00 1791.00 L 3552.00 1662.00 L 3500.00 1498.00 L 3448.00 1377.00 L 3360.00 1218.00 L 3282.00 1106.00 L 3188.00 995.00 L 3079.00 888.00 L 2954.00 788.00 L 2843.00 715.00 L 2718.00 648.00 L 2558.00 582.00 L 2403.00 537.00 L 2250.00 509.00 L 2122.00 498.00 Z M 1564.00 3087.00 L 1579.00 3086.00 L 1588.00 3088.00 L 1593.00 3091.00 L 1594.00 3090.00 L 1604.00 3097.00 L 1613.00 3107.00 L 1613.00 3110.00 L 1616.00 3114.00 L 1619.00 3124.00 L 1619.00 3134.00 L 1617.00 3139.00 L 1617.00 3144.00 L 1613.00 3149.00 L 1613.00 3152.00 L 1612.00 3154.00 L 1601.00 3165.00 L 1593.00 3170.00 L 1584.00 3173.00 L 1565.00 3173.00 L 1556.00 3170.00 L 1553.00 3167.00 L 1550.00 3166.00 L 1541.00 3159.00 L 1540.00 3156.00 L 1537.00 3153.00 L 1534.00 3147.00 L 1533.00 3141.00 L 1531.00 3138.00 L 1531.00 3123.00 L 1533.00 3119.00 L 1533.00 3115.00 L 1535.00 3111.00 L 1537.00 3109.00 L 1538.00 3105.00 L 1541.00 3103.00 L 1547.00 3096.00 L 1553.00 3091.00 L 1555.00 3090.00 L 1556.00 3091.00 Z M 1401.00 2779.00 L 1385.00 2789.00 L 1378.00 2795.00 L 1376.00 2795.00 L 1373.00 2798.00 L 1364.00 2802.00 L 1362.00 2805.00 L 1348.00 2813.00 L 1341.00 2819.00 L 1336.00 2821.00 L 1327.00 2828.00 L 1314.00 2835.00 L 1307.00 2841.00 L 1290.00 2851.00 L 1289.00 2853.00 L 1285.00 2854.00 L 1276.00 2861.00 L 1274.00 2861.00 L 1266.00 2868.00 L 1264.00 2868.00 L 1261.00 2871.00 L 1251.00 2876.00 L 1239.00 2885.00 L 1231.00 2889.00 L 1230.00 2891.00 L 1222.00 2895.00 L 1209.00 2905.00 L 1199.00 2910.00 L 1186.00 2920.00 L 1184.00 2920.00 L 1132.00 2955.00 L 1119.00 2962.00 L 1117.00 2965.00 L 1097.00 2977.00 L 1095.00 2975.00 L 1099.00 2968.00 L 1100.00 2962.00 L 1102.00 2961.00 L 1103.00 2954.00 L 1106.00 2951.00 L 1107.00 2945.00 L 1113.00 2933.00 L 1117.00 2919.00 L 1120.00 2916.00 L 1121.00 2910.00 L 1128.00 2896.00 L 1128.00 2893.00 L 1131.00 2888.00 L 1131.00 2885.00 L 1134.00 2881.00 L 1135.00 2878.00 L 1134.00 2877.00 L 1141.00 2863.00 L 1141.00 2860.00 L 1148.00 2847.00 L 1148.00 2842.00 L 1154.00 2831.00 L 1155.00 2825.00 L 1162.00 2811.00 L 1161.00 2810.00 L 1162.00 2807.00 L 1165.00 2803.00 L 1169.00 2789.00 L 1172.00 2786.00 L 1175.00 2775.00 L 1179.00 2768.00 L 1183.00 2755.00 L 1187.00 2749.00 L 1187.00 2744.00 L 1194.00 2731.00 L 1194.00 2728.00 L 1200.00 2716.00 L 1200.00 2712.00 L 1207.00 2698.00 L 1207.00 2694.00 L 1210.00 2692.00 L 1213.00 2694.00 L 1222.00 2695.00 L 1230.00 2699.00 L 1245.00 2702.00 L 1253.00 2706.00 L 1267.00 2709.00 L 1271.00 2712.00 L 1286.00 2716.00 L 1293.00 2720.00 L 1313.00 2727.00 L 1315.00 2729.00 L 1318.00 2729.00 L 1323.00 2733.00 L 1328.00 2734.00 L 1330.00 2736.00 L 1350.00 2745.00 L 1362.00 2753.00 L 1366.00 2754.00 L 1379.00 2764.00 L 1386.00 2767.00 Z M 804.00 2702.00 L 817.00 2698.00 L 820.00 2695.00 L 836.00 2691.00 L 840.00 2688.00 L 846.00 2688.00 L 852.00 2685.00 L 859.00 2684.00 L 864.00 2681.00 L 872.00 2681.00 L 878.00 2678.00 L 889.00 2677.00 L 895.00 2674.00 L 907.00 2674.00 L 916.00 2671.00 L 941.00 2668.00 L 980.00 2666.00 L 1030.00 2666.00 L 1072.00 2668.00 L 1098.00 2671.00 L 1110.00 2674.00 L 1123.00 2674.00 L 1132.00 2677.00 L 1139.00 2677.00 L 1142.00 2680.00 L 1137.00 2690.00 L 1137.00 2694.00 L 1130.00 2707.00 L 1130.00 2711.00 L 1123.00 2725.00 L 1124.00 2726.00 L 1117.00 2740.00 L 1116.00 2747.00 L 1113.00 2750.00 L 1112.00 2756.00 L 1105.00 2770.00 L 1102.00 2781.00 L 1099.00 2785.00 L 1095.00 2799.00 L 1091.00 2805.00 L 1091.00 2808.00 L 1085.00 2820.00 L 1084.00 2826.00 L 1077.00 2840.00 L 1078.00 2841.00 L 1071.00 2855.00 L 1071.00 2859.00 L 1064.00 2872.00 L 1064.00 2876.00 L 1057.00 2890.00 L 1057.00 2894.00 L 1051.00 2905.00 L 1050.00 2912.00 L 1047.00 2915.00 L 1043.00 2929.00 L 1040.00 2933.00 L 1023.00 2978.00 L 1018.00 2987.00 L 1018.00 2991.00 L 1013.00 3000.00 L 1011.00 3000.00 L 996.00 2984.00 L 996.00 2982.00 L 991.00 2978.00 L 955.00 2936.00 L 910.00 2878.00 L 895.00 2857.00 L 895.00 2855.00 L 890.00 2850.00 L 884.00 2839.00 L 877.00 2831.00 L 870.00 2818.00 L 866.00 2814.00 L 857.00 2800.00 L 857.00 2798.00 L 855.00 2797.00 L 855.00 2795.00 L 844.00 2780.00 L 843.00 2776.00 L 825.00 2748.00 L 817.00 2731.00 L 811.00 2723.00 L 811.00 2720.00 L 804.00 2710.00 L 802.00 2704.00 Z M 2267.00 2642.00 L 2266.00 2646.00 L 2249.00 2657.00 L 2247.00 2660.00 L 2156.00 2724.00 L 2154.00 2727.00 L 2139.00 2736.00 L 2133.00 2742.00 L 2110.00 2757.00 L 2108.00 2760.00 L 2062.00 2793.00 L 2047.00 2802.00 L 2012.00 2829.00 L 2003.00 2834.00 L 1977.00 2854.00 L 1975.00 2854.00 L 1968.00 2861.00 L 1950.00 2872.00 L 1915.00 2899.00 L 1903.00 2906.00 L 1891.00 2916.00 L 1887.00 2914.00 L 1892.00 2905.00 L 1895.00 2893.00 L 1902.00 2878.00 L 1902.00 2874.00 L 1908.00 2862.00 L 1909.00 2855.00 L 1912.00 2851.00 L 1916.00 2836.00 L 1919.00 2832.00 L 1923.00 2817.00 L 1927.00 2811.00 L 1927.00 2807.00 L 1934.00 2792.00 L 1937.00 2780.00 L 1940.00 2776.00 L 1940.00 2771.00 L 1947.00 2757.00 L 1947.00 2752.00 L 1954.00 2738.00 L 1954.00 2734.00 L 1968.00 2700.00 L 1968.00 2695.00 L 1971.00 2692.00 L 1972.00 2685.00 L 1974.00 2684.00 L 1975.00 2677.00 L 1978.00 2673.00 L 1982.00 2658.00 L 1985.00 2654.00 L 1988.00 2642.00 L 1993.00 2633.00 L 1995.00 2623.00 L 1999.00 2616.00 L 2003.00 2602.00 L 2006.00 2598.00 L 2006.00 2593.00 L 2014.00 2576.00 L 2013.00 2574.00 L 2020.00 2560.00 L 2020.00 2556.00 L 2024.00 2546.00 L 2027.00 2542.00 L 2026.00 2539.00 L 2034.00 2522.00 L 2034.00 2517.00 L 2037.00 2514.00 L 2041.00 2499.00 L 2045.00 2494.00 L 2048.00 2494.00 L 2067.00 2508.00 L 2074.00 2511.00 L 2082.00 2518.00 L 2093.00 2524.00 L 2227.00 2615.00 L 2229.00 2615.00 Z M 1080.00 3069.00 L 1459.00 2822.00 L 1507.00 2867.00 L 1539.00 2907.00 L 1567.00 2963.00 L 1576.00 3020.00 L 1551.00 3021.00 L 1517.00 3035.00 L 1481.00 3070.00 L 1464.00 3123.00 L 1474.00 3177.00 L 1505.00 3216.00 L 1542.00 3236.00 L 1589.00 3240.00 L 1629.00 3227.00 L 1658.00 3203.00 L 1677.00 3173.00 L 1685.00 3140.00 L 1683.00 3103.00 L 1669.00 3071.00 L 1643.00 3042.00 L 1637.00 2964.00 L 1611.00 2897.00 L 1575.00 2843.00 L 1519.00 2781.00 L 1973.00 2485.00 L 1750.00 3097.00 L 2331.00 2684.00 L 2967.00 3112.00 L 2886.00 3178.00 L 2779.00 3250.00 L 2670.00 3310.00 L 2536.00 3368.00 L 2429.00 3403.00 L 2291.00 3434.00 L 2152.00 3451.00 L 2005.00 3455.00 L 1855.00 3442.00 L 1734.00 3420.00 L 1598.00 3382.00 L 1496.00 3343.00 L 1382.00 3288.00 L 1282.00 3229.00 L 1189.00 3163.00 Z M 2388.00 2640.00 L 2690.00 2424.00 L 2728.00 2514.00 L 2731.00 2526.00 L 2773.00 2626.00 L 2776.00 2638.00 L 2780.00 2643.00 L 2798.00 2692.00 L 2801.00 2695.00 L 2801.00 2700.00 L 2822.00 2747.00 L 2822.00 2752.00 L 2842.00 2797.00 L 2843.00 2804.00 L 2846.00 2807.00 L 2874.00 2881.00 L 2888.00 2911.00 L 2887.00 2913.00 L 2922.00 2996.00 L 2920.00 2999.00 L 2389.00 2643.00 Z M 3001.00 2199.00 L 3006.00 2201.00 L 3185.00 2498.00 L 3079.00 2637.00 L 3079.00 2662.00 L 3097.00 2681.00 L 3124.00 2681.00 L 3135.00 2673.00 L 3215.00 2568.00 L 3269.00 2511.00 L 3290.00 2494.00 L 3341.00 2465.00 L 3370.00 2458.00 L 3395.00 2460.00 L 3364.00 2551.00 L 3329.00 2634.00 L 3250.00 2781.00 L 3200.00 2857.00 L 3138.00 2938.00 L 3086.00 2998.00 L 3021.00 3062.00 L 2747.00 2386.00 L 2760.00 2372.00 Z M 2639.00 2117.00 L 2641.00 2115.00 L 2951.00 2115.00 L 2957.00 2120.00 L 2961.00 2129.00 L 2968.00 2138.00 L 2967.00 2142.00 L 2956.00 2149.00 L 2954.00 2152.00 L 2936.00 2163.00 L 2926.00 2172.00 L 2910.00 2182.00 L 2905.00 2187.00 L 2892.00 2195.00 L 2873.00 2210.00 L 2864.00 2215.00 L 2859.00 2220.00 L 2838.00 2234.00 L 2833.00 2239.00 L 2825.00 2243.00 L 2821.00 2247.00 L 2819.00 2247.00 L 2804.00 2260.00 L 2802.00 2260.00 L 2781.00 2276.00 L 2771.00 2282.00 L 2766.00 2287.00 L 2753.00 2295.00 L 2741.00 2305.00 L 2721.00 2318.00 L 2715.00 2308.00 L 2711.00 2297.00 L 2711.00 2294.00 L 2708.00 2290.00 L 2704.00 2277.00 L 2700.00 2271.00 L 2701.00 2270.00 L 2698.00 2265.00 L 2697.00 2260.00 L 2694.00 2256.00 L 2694.00 2252.00 L 2687.00 2238.00 L 2687.00 2235.00 L 2684.00 2231.00 L 2684.00 2228.00 L 2680.00 2222.00 L 2680.00 2216.00 L 2677.00 2214.00 L 2676.00 2208.00 L 2673.00 2200.00 L 2670.00 2196.00 L 2666.00 2182.00 L 2662.00 2176.00 L 2659.00 2166.00 L 2654.00 2156.00 L 2655.00 2155.00 L 2649.00 2144.00 L 2648.00 2138.00 L 2642.00 2127.00 Z M 2664.00 2359.00 L 2328.00 2601.00 L 2319.00 2597.00 L 2313.00 2591.00 L 2122.00 2465.00 L 2071.00 2430.00 L 2068.00 2426.00 L 2077.00 2417.00 L 2542.00 2115.00 L 2565.00 2115.00 L 2568.00 2118.00 Z M 2110.00 2313.00 L 2114.00 2302.00 L 2118.00 2295.00 L 2120.00 2285.00 L 2125.00 2276.00 L 2127.00 2270.00 L 2127.00 2266.00 L 2131.00 2260.00 L 2132.00 2253.00 L 2134.00 2251.00 L 2135.00 2245.00 L 2138.00 2242.00 L 2138.00 2236.00 L 2142.00 2229.00 L 2142.00 2226.00 L 2146.00 2220.00 L 2145.00 2217.00 L 2149.00 2210.00 L 2152.00 2202.00 L 2152.00 2199.00 L 2159.00 2184.00 L 2158.00 2182.00 L 2166.00 2166.00 L 2165.00 2164.00 L 2172.00 2149.00 L 2172.00 2145.00 L 2176.00 2138.00 L 2177.00 2132.00 L 2179.00 2130.00 L 2180.00 2123.00 L 2184.00 2116.00 L 2416.00 2116.00 L 2411.00 2121.00 L 2408.00 2122.00 L 2405.00 2125.00 L 2403.00 2125.00 L 2400.00 2128.00 L 2398.00 2128.00 L 2385.00 2138.00 L 2377.00 2142.00 L 2370.00 2148.00 L 2365.00 2150.00 L 2362.00 2153.00 L 2355.00 2156.00 L 2348.00 2162.00 L 2335.00 2169.00 L 2332.00 2173.00 L 2314.00 2183.00 L 2310.00 2187.00 L 2308.00 2187.00 L 2299.00 2194.00 L 2295.00 2195.00 L 2293.00 2198.00 L 2275.00 2208.00 L 2273.00 2211.00 L 2268.00 2213.00 L 2250.00 2226.00 L 2242.00 2230.00 L 2238.00 2234.00 L 2236.00 2234.00 L 2230.00 2239.00 L 2225.00 2241.00 L 2215.00 2249.00 L 2213.00 2249.00 L 2209.00 2253.00 L 2206.00 2253.00 L 2198.00 2260.00 L 2196.00 2260.00 L 2193.00 2263.00 L 2185.00 2267.00 L 2178.00 2273.00 L 2163.00 2281.00 L 2161.00 2284.00 L 2153.00 2288.00 L 2150.00 2291.00 L 2143.00 2294.00 L 2140.00 2298.00 L 2121.00 2309.00 L 2112.00 2316.00 Z M 1605.00 2115.00 L 2110.00 2115.00 L 2112.00 2118.00 L 2096.00 2158.00 L 2092.00 2173.00 L 2089.00 2176.00 L 2089.00 2181.00 L 2082.00 2196.00 L 2082.00 2200.00 L 2068.00 2233.00 L 2069.00 2235.00 L 2062.00 2250.00 L 2061.00 2258.00 L 2058.00 2261.00 L 2048.00 2288.00 L 2049.00 2289.00 L 2036.00 2320.00 L 2036.00 2324.00 L 2019.00 2367.00 L 2019.00 2371.00 L 2014.00 2379.00 L 2004.00 2385.00 L 1605.00 2118.00 Z M 1441.00 2115.00 L 1483.00 2115.00 L 1943.00 2425.00 L 1463.00 2739.00 L 1402.00 2698.00 L 1350.00 2670.00 L 1298.00 2649.00 L 1234.00 2629.00 L 1412.00 2186.00 L 1412.00 2181.00 Z M 1367.00 2118.00 L 1213.00 2504.00 L 1210.00 2507.00 L 1210.00 2512.00 L 1196.00 2542.00 L 1196.00 2547.00 L 1167.00 2614.00 L 1095.00 2603.00 L 984.00 2599.00 L 923.00 2603.00 L 879.00 2610.00 L 844.00 2618.00 L 812.00 2629.00 L 811.00 2623.00 L 856.00 2548.00 L 870.00 2520.00 L 943.00 2395.00 L 950.00 2379.00 L 956.00 2372.00 L 1102.00 2115.00 L 1364.00 2115.00 Z M 814.00 2040.00 L 819.00 2039.00 L 836.00 2039.00 L 846.00 2042.00 L 847.00 2044.00 L 855.00 2048.00 L 859.00 2052.00 L 865.00 2060.00 L 866.00 2064.00 L 868.00 2066.00 L 870.00 2071.00 L 870.00 2076.00 L 872.00 2084.00 L 870.00 2088.00 L 870.00 2094.00 L 866.00 2101.00 L 866.00 2104.00 L 857.00 2115.00 L 856.00 2115.00 L 849.00 2121.00 L 846.00 2121.00 L 844.00 2123.00 L 838.00 2125.00 L 826.00 2126.00 L 823.00 2125.00 L 817.00 2125.00 L 806.00 2121.00 L 794.00 2111.00 L 791.00 2107.00 L 791.00 2105.00 L 787.00 2101.00 L 787.00 2098.00 L 785.00 2095.00 L 784.00 2091.00 L 784.00 2072.00 L 790.00 2059.00 L 792.00 2056.00 L 801.00 2047.00 L 804.00 2045.00 L 806.00 2045.00 Z M 1141.00 2045.00 L 1148.00 2035.00 L 1148.00 2032.00 L 1153.00 2026.00 L 1153.00 2024.00 L 1155.00 2022.00 L 1155.00 2020.00 L 1158.00 2017.00 L 1161.00 2009.00 L 1165.00 2005.00 L 1166.00 2001.00 L 1169.00 1995.00 L 1172.00 1993.00 L 1177.00 1982.00 L 1180.00 1979.00 L 1186.00 1968.00 L 1187.00 1964.00 L 1190.00 1961.00 L 1190.00 1959.00 L 1193.00 1956.00 L 1194.00 1952.00 L 1201.00 1942.00 L 1204.00 1935.00 L 1207.00 1932.00 L 1209.00 1932.00 L 1224.00 1943.00 L 1229.00 1945.00 L 1240.00 1954.00 L 1245.00 1956.00 L 1254.00 1962.00 L 1258.00 1966.00 L 1260.00 1966.00 L 1265.00 1969.00 L 1267.00 1972.00 L 1272.00 1974.00 L 1279.00 1980.00 L 1288.00 1986.00 L 1296.00 1990.00 L 1298.00 1993.00 L 1303.00 1995.00 L 1309.00 2000.00 L 1311.00 2000.00 L 1318.00 2006.00 L 1321.00 2007.00 L 1330.00 2014.00 L 1332.00 2014.00 L 1339.00 2020.00 L 1342.00 2021.00 L 1345.00 2024.00 L 1353.00 2028.00 L 1357.00 2032.00 L 1366.00 2038.00 L 1374.00 2042.00 L 1380.00 2047.00 L 1141.00 2047.00 Z M 2911.00 2048.00 L 2648.00 2045.00 L 2659.00 2039.00 L 2663.00 2035.00 L 2671.00 2031.00 L 2680.00 2024.00 L 2693.00 2017.00 L 2695.00 2014.00 L 2697.00 2014.00 L 2706.00 2007.00 L 2708.00 2007.00 L 2715.00 2001.00 L 2720.00 1999.00 L 2723.00 1996.00 L 2728.00 1994.00 L 2736.00 1987.00 L 2740.00 1986.00 L 2743.00 1983.00 L 2751.00 1979.00 L 2753.00 1976.00 L 2763.00 1971.00 L 2775.00 1962.00 L 2789.00 1954.00 L 2795.00 1949.00 L 2806.00 1943.00 L 2812.00 1938.00 L 2820.00 1934.00 L 2827.00 1928.00 L 2831.00 1927.00 L 2834.00 1924.00 L 2837.00 1923.00 L 2839.00 1925.00 L 2839.00 1927.00 L 2842.00 1930.00 L 2842.00 1932.00 L 2845.00 1935.00 L 2849.00 1944.00 L 2857.00 1955.00 L 2857.00 1957.00 L 2860.00 1960.00 L 2861.00 1964.00 L 2863.00 1965.00 L 2863.00 1967.00 L 2867.00 1972.00 L 2868.00 1976.00 L 2874.00 1983.00 L 2875.00 1987.00 L 2878.00 1992.00 L 2881.00 1995.00 L 2881.00 1997.00 L 2884.00 2000.00 L 2885.00 2003.00 L 2888.00 2006.00 L 2889.00 2010.00 L 2894.00 2016.00 L 2895.00 2020.00 L 2898.00 2023.00 L 2901.00 2028.00 L 2902.00 2032.00 L 2905.00 2034.00 Z M 2364.00 1624.00 L 2368.00 1624.00 L 2373.00 1635.00 L 2374.00 1641.00 L 2377.00 1645.00 L 2388.00 1675.00 L 2391.00 1679.00 L 2392.00 1685.00 L 2399.00 1699.00 L 2398.00 1700.00 L 2405.00 1713.00 L 2405.00 1718.00 L 2419.00 1748.00 L 2419.00 1753.00 L 2422.00 1756.00 L 2426.00 1770.00 L 2432.00 1781.00 L 2433.00 1787.00 L 2436.00 1791.00 L 2454.00 1839.00 L 2458.00 1845.00 L 2460.00 1854.00 L 2464.00 1860.00 L 2464.00 1864.00 L 2471.00 1877.00 L 2471.00 1882.00 L 2478.00 1895.00 L 2482.00 1908.00 L 2485.00 1911.00 L 2485.00 1916.00 L 2505.00 1962.00 L 2513.00 1986.00 L 2516.00 1989.00 L 2520.00 2002.00 L 2524.00 2008.00 L 2527.00 2020.00 L 2530.00 2024.00 L 2535.00 2039.00 L 2523.00 2048.00 L 2209.00 2047.00 L 2222.00 2010.00 L 2225.00 2006.00 L 2225.00 2001.00 L 2232.00 1987.00 L 2231.00 1985.00 L 2238.00 1970.00 L 2239.00 1963.00 L 2242.00 1960.00 L 2246.00 1944.00 L 2249.00 1940.00 L 2264.00 1896.00 L 2270.00 1884.00 L 2271.00 1877.00 L 2277.00 1865.00 L 2277.00 1860.00 L 2284.00 1846.00 L 2284.00 1842.00 L 2291.00 1827.00 L 2295.00 1812.00 L 2298.00 1808.00 L 2298.00 1803.00 L 2305.00 1789.00 L 2305.00 1784.00 L 2315.00 1762.00 L 2325.00 1730.00 L 2330.00 1721.00 L 2330.00 1717.00 L 2335.00 1707.00 L 2340.00 1690.00 L 2343.00 1686.00 L 2343.00 1681.00 L 2350.00 1667.00 L 2350.00 1661.00 L 2353.00 1657.00 L 2357.00 1643.00 L 2364.00 1629.00 Z M 712.00 1600.00 L 1151.00 1895.00 L 1063.00 2048.00 L 932.00 2047.00 L 922.00 2024.00 L 897.00 1996.00 L 860.00 1976.00 L 839.00 1972.00 L 815.00 1972.00 L 780.00 1982.00 L 758.00 1996.00 L 734.00 2022.00 L 717.00 2069.00 L 717.00 2095.00 L 724.00 2123.00 L 735.00 2144.00 L 758.00 2169.00 L 782.00 2184.00 L 803.00 2191.00 L 846.00 2192.00 L 885.00 2177.00 L 916.00 2149.00 L 934.00 2115.00 L 1023.00 2117.00 L 750.00 2595.00 L 700.00 2463.00 L 672.00 2359.00 L 648.00 2220.00 L 639.00 2109.00 L 641.00 1944.00 L 655.00 1824.00 L 679.00 1705.00 Z M 1320.00 1598.00 L 1294.00 1644.00 L 1290.00 1648.00 L 1286.00 1658.00 L 1284.00 1659.00 L 1276.00 1676.00 L 1269.00 1685.00 L 1268.00 1690.00 L 1263.00 1696.00 L 1241.00 1737.00 L 1223.00 1766.00 L 1223.00 1769.00 L 1210.00 1789.00 L 1210.00 1792.00 L 1203.00 1801.00 L 1203.00 1804.00 L 1193.00 1819.00 L 1189.00 1829.00 L 1183.00 1835.00 L 1147.00 1810.00 L 1142.00 1808.00 L 1128.00 1797.00 L 1121.00 1794.00 L 1110.00 1785.00 L 1096.00 1777.00 L 1094.00 1774.00 L 1060.00 1753.00 L 1031.00 1732.00 L 1018.00 1725.00 L 1012.00 1719.00 L 987.00 1704.00 L 974.00 1694.00 L 939.00 1672.00 L 934.00 1667.00 L 878.00 1631.00 L 876.00 1628.00 L 857.00 1617.00 L 855.00 1614.00 L 841.00 1606.00 L 839.00 1601.00 L 1013.00 1600.00 L 1085.00 1597.00 L 1318.00 1596.00 Z M 1573.00 1593.00 L 1575.00 1595.00 L 1573.00 1603.00 L 1568.00 1612.00 L 1560.00 1636.00 L 1554.00 1647.00 L 1543.00 1678.00 L 1540.00 1682.00 L 1540.00 1687.00 L 1536.00 1693.00 L 1536.00 1696.00 L 1533.00 1700.00 L 1534.00 1701.00 L 1526.00 1717.00 L 1526.00 1721.00 L 1523.00 1725.00 L 1519.00 1738.00 L 1513.00 1750.00 L 1512.00 1756.00 L 1506.00 1767.00 L 1507.00 1768.00 L 1501.00 1780.00 L 1499.00 1788.00 L 1495.00 1794.00 L 1494.00 1801.00 L 1488.00 1812.00 L 1484.00 1826.00 L 1481.00 1830.00 L 1480.00 1836.00 L 1467.00 1865.00 L 1467.00 1869.00 L 1460.00 1882.00 L 1460.00 1886.00 L 1457.00 1890.00 L 1454.00 1901.00 L 1452.00 1903.00 L 1446.00 1921.00 L 1440.00 1933.00 L 1439.00 1939.00 L 1429.00 1960.00 L 1428.00 1967.00 L 1425.00 1971.00 L 1424.00 1976.00 L 1421.00 1979.00 L 1421.00 1983.00 L 1418.00 1989.00 L 1415.00 1990.00 L 1410.00 1986.00 L 1406.00 1985.00 L 1398.00 1978.00 L 1360.00 1954.00 L 1358.00 1951.00 L 1244.00 1876.00 L 1241.00 1869.00 L 1245.00 1865.00 L 1248.00 1857.00 L 1266.00 1828.00 L 1273.00 1813.00 L 1280.00 1804.00 L 1280.00 1801.00 L 1287.00 1792.00 L 1287.00 1789.00 L 1294.00 1779.00 L 1293.00 1778.00 L 1296.00 1775.00 L 1301.00 1764.00 L 1332.00 1712.00 L 1333.00 1708.00 L 1346.00 1688.00 L 1346.00 1685.00 L 1359.00 1665.00 L 1360.00 1660.00 L 1364.00 1656.00 L 1367.00 1648.00 L 1372.00 1642.00 L 1378.00 1629.00 L 1398.00 1596.00 L 1402.00 1594.00 Z M 2308.00 1586.00 L 2148.00 2022.00 L 2136.00 2048.00 L 1500.00 2048.00 L 1479.00 2034.00 L 1474.00 2027.00 L 1650.00 1592.00 L 2224.00 1584.00 Z M 2426.00 1583.00 L 2629.00 1580.00 L 2651.00 1614.00 L 2658.00 1628.00 L 2662.00 1632.00 L 2697.00 1693.00 L 2703.00 1700.00 L 2711.00 1716.00 L 2728.00 1741.00 L 2731.00 1749.00 L 2735.00 1753.00 L 2739.00 1762.00 L 2742.00 1764.00 L 2749.00 1779.00 L 2753.00 1783.00 L 2802.00 1865.00 L 2727.00 1915.00 L 2717.00 1920.00 L 2706.00 1929.00 L 2703.00 1929.00 L 2693.00 1937.00 L 2680.00 1944.00 L 2675.00 1949.00 L 2642.00 1969.00 L 2634.00 1976.00 L 2593.00 2001.00 L 2590.00 1998.00 L 2586.00 1984.00 L 2583.00 1980.00 L 2579.00 1967.00 L 2575.00 1961.00 L 2573.00 1952.00 L 2569.00 1946.00 L 2569.00 1942.00 L 2555.00 1911.00 L 2555.00 1907.00 L 2548.00 1894.00 L 2548.00 1890.00 L 2542.00 1878.00 L 2541.00 1872.00 L 2530.00 1849.00 L 2514.00 1806.00 L 2510.00 1800.00 L 2509.00 1793.00 L 2502.00 1780.00 L 2503.00 1778.00 L 2500.00 1774.00 L 2496.00 1761.00 L 2489.00 1748.00 L 2489.00 1744.00 L 2475.00 1713.00 L 2475.00 1709.00 L 2465.00 1688.00 L 2461.00 1674.00 L 2458.00 1671.00 L 2447.00 1639.00 L 2444.00 1636.00 L 2440.00 1622.00 L 2430.00 1602.00 L 2430.00 1597.00 L 2424.00 1585.00 Z M 3373.00 1573.00 L 3395.00 1632.00 L 3416.00 1707.00 L 3436.00 1801.00 L 3448.00 1885.00 L 3456.00 1990.00 L 3456.00 2104.00 L 3440.00 2269.00 L 3413.00 2392.00 L 3360.00 2392.00 L 3329.00 2399.00 L 3281.00 2420.00 L 3235.00 2451.00 L 3058.00 2160.00 L 3203.00 2055.00 L 3207.00 2049.00 L 2992.00 2048.00 L 2893.00 1887.00 Z M 3248.00 1574.00 L 2859.00 1828.00 L 2854.00 1823.00 L 2836.00 1791.00 L 2833.00 1789.00 L 2826.00 1777.00 L 2826.00 1774.00 L 2812.00 1754.00 L 2806.00 1741.00 L 2794.00 1724.00 L 2766.00 1675.00 L 2754.00 1658.00 L 2746.00 1642.00 L 2740.00 1635.00 L 2725.00 1607.00 L 2722.00 1605.00 L 2708.00 1581.00 L 2710.00 1579.00 L 2979.00 1577.00 L 3244.00 1572.00 Z M 2473.00 1328.00 L 2478.00 1328.00 L 2481.00 1335.00 L 2485.00 1340.00 L 2485.00 1342.00 L 2492.00 1351.00 L 2492.00 1353.00 L 2495.00 1356.00 L 2495.00 1358.00 L 2498.00 1364.00 L 2502.00 1368.00 L 2505.00 1373.00 L 2506.00 1377.00 L 2510.00 1381.00 L 2513.00 1388.00 L 2516.00 1391.00 L 2519.00 1396.00 L 2519.00 1398.00 L 2522.00 1401.00 L 2526.00 1408.00 L 2527.00 1412.00 L 2530.00 1414.00 L 2532.00 1419.00 L 2537.00 1426.00 L 2538.00 1430.00 L 2541.00 1433.00 L 2546.00 1443.00 L 2550.00 1447.00 L 2558.00 1463.00 L 2561.00 1465.00 L 2565.00 1474.00 L 2570.00 1480.00 L 2571.00 1484.00 L 2578.00 1494.00 L 2579.00 1498.00 L 2582.00 1500.00 L 2586.00 1509.00 L 2589.00 1512.00 L 2587.00 1514.00 L 2578.00 1514.00 L 2573.00 1513.00 L 2492.00 1516.00 L 2407.00 1516.00 L 2406.00 1510.00 L 2409.00 1506.00 L 2410.00 1500.00 L 2417.00 1484.00 L 2416.00 1482.00 L 2419.00 1478.00 L 2420.00 1472.00 L 2423.00 1468.00 L 2423.00 1463.00 L 2429.00 1451.00 L 2430.00 1445.00 L 2432.00 1440.00 L 2434.00 1438.00 L 2437.00 1429.00 L 2436.00 1428.00 L 2443.00 1413.00 L 2443.00 1409.00 L 2444.00 1406.00 L 2447.00 1401.00 L 2450.00 1393.00 L 2451.00 1387.00 L 2454.00 1383.00 L 2454.00 1380.00 L 2457.00 1374.00 L 2457.00 1370.00 L 2458.00 1367.00 L 2460.00 1366.00 L 2461.00 1364.00 L 2462.00 1357.00 L 2465.00 1352.00 L 2465.00 1349.00 L 2468.00 1345.00 L 2469.00 1342.00 L 2469.00 1338.00 L 2472.00 1333.00 L 2472.00 1330.00 Z M 2717.00 1275.00 L 2728.00 1275.00 L 2736.00 1277.00 L 2745.00 1281.00 L 2752.00 1287.00 L 2753.00 1287.00 L 2759.00 1294.00 L 2762.00 1299.00 L 2763.00 1305.00 L 2766.00 1311.00 L 2766.00 1327.00 L 2763.00 1333.00 L 2762.00 1339.00 L 2756.00 1347.00 L 2749.00 1354.00 L 2739.00 1360.00 L 2736.00 1361.00 L 2731.00 1361.00 L 2727.00 1363.00 L 2708.00 1361.00 L 2694.00 1353.00 L 2687.00 1345.00 L 2687.00 1343.00 L 2684.00 1340.00 L 2681.00 1334.00 L 2679.00 1323.00 L 2679.00 1315.00 L 2681.00 1307.00 L 2680.00 1305.00 L 2684.00 1299.00 L 2684.00 1297.00 L 2690.00 1290.00 L 2690.00 1289.00 L 2700.00 1281.00 L 2709.00 1277.00 L 2713.00 1277.00 Z M 2001.00 715.00 L 2324.00 1515.00 L 2200.00 1520.00 L 1678.00 1525.00 L 1676.00 1521.00 Z M 1857.00 654.00 L 1357.00 1529.00 L 735.00 1534.00 L 804.00 1383.00 L 864.00 1282.00 L 910.00 1216.00 L 976.00 1133.00 L 1043.00 1060.00 L 1163.00 951.00 L 1315.00 844.00 L 1410.00 791.00 L 1507.00 746.00 L 1679.00 687.00 L 1807.00 659.00 Z M 2142.00 644.00 L 2289.00 659.00 L 2485.00 708.00 L 2650.00 774.00 L 2761.00 833.00 L 2853.00 892.00 L 3004.00 1014.00 L 3140.00 1158.00 L 3263.00 1334.00 L 3347.00 1504.00 L 2668.00 1513.00 L 2504.00 1242.00 L 2548.00 1127.00 L 2593.00 1047.00 L 2649.00 990.00 L 2666.00 983.00 L 2689.00 984.00 L 2709.00 1001.00 L 2724.00 1037.00 L 2724.00 1137.00 L 2703.00 1207.00 L 2655.00 1231.00 L 2624.00 1267.00 L 2612.00 1309.00 L 2616.00 1352.00 L 2645.00 1399.00 L 2674.00 1419.00 L 2699.00 1427.00 L 2729.00 1430.00 L 2761.00 1423.00 L 2808.00 1389.00 L 2829.00 1350.00 L 2833.00 1305.00 L 2813.00 1255.00 L 2771.00 1216.00 L 2791.00 1142.00 L 2795.00 1074.00 L 2785.00 1007.00 L 2770.00 972.00 L 2746.00 942.00 L 2705.00 919.00 L 2661.00 916.00 L 2614.00 933.00 L 2587.00 953.00 L 2541.00 1005.00 L 2506.00 1062.00 L 2458.00 1167.00 Z M 1955.00 642.00 L 1957.00 644.00 L 1605.00 1523.00 L 1602.00 1526.00 L 1519.00 1527.00 L 1437.00 1525.00 L 1934.00 654.00 L 1942.00 643.00 Z M 2045.00 640.00 L 2062.00 641.00 L 2430.00 1250.00 L 2366.00 1429.00 L 2363.00 1431.00 L 2291.00 1257.00 L 2291.00 1252.00 L 2284.00 1240.00 L 2284.00 1235.00 L 2242.00 1131.00 L 2239.00 1129.00 L 2232.00 1106.00 L 2191.00 1009.00 L 2100.00 779.00 L 2086.00 749.00 L 2086.00 744.00 L 2045.00 646.00 Z" fill="#000" fill-rule="evenodd" shape-rendering="geometricPrecision"/>
</svg>
