<svg xmlns="http://www.w3.org/2000/svg" width="4096" height="4096" viewBox="0 0 4096 4096" role="img" aria-label="Lovecraftian symbol">

  <path d="M 1323.00 580.00 L 1167.00 675.00 L 1049.00 766.00 L 980.00 828.00 L 898.00 912.00 L 802.00 1028.00 L 715.00 1158.00 L 623.00 1337.00 L 560.00 1505.00 L 507.00 1741.00 L 497.00 1859.00 L 498.00 1945.00 L 503.00 1956.00 L 521.00 1968.00 L 695.00 1968.00 L 721.00 1964.00 L 731.00 1955.00 L 738.00 1935.00 L 743.00 1805.00 L 775.00 1621.00 L 797.00 1574.00 L 832.00 1455.00 L 854.00 1420.00 L 894.00 1331.00 L 913.00 1304.00 L 924.00 1274.00 L 1042.00 1114.00 L 1187.00 966.00 L 1296.00 877.00 L 1333.00 859.00 L 1353.00 862.00 L 1747.00 1090.00 L 1766.00 1106.00 L 1809.00 1120.00 L 1818.00 1129.00 L 1820.00 1144.00 L 1807.00 1158.00 L 1719.00 1174.00 L 1662.00 1198.00 L 1627.00 1197.00 L 1564.00 1169.00 L 1481.00 1166.00 L 1433.00 1173.00 L 1374.00 1201.00 L 1313.00 1263.00 L 1277.00 1330.00 L 1272.00 1400.00 L 1263.00 1424.00 L 1151.00 1538.00 L 1038.00 1688.00 L 980.00 1792.00 L 968.00 1828.00 L 949.00 1860.00 L 938.00 1904.00 L 919.00 1938.00 L 888.00 2040.00 L 879.00 2114.00 L 862.00 2182.00 L 857.00 2288.00 L 861.00 2439.00 L 893.00 2625.00 L 920.00 2713.00 L 937.00 2742.00 L 950.00 2794.00 L 970.00 2826.00 L 982.00 2861.00 L 1039.00 2961.00 L 1137.00 3093.00 L 1187.00 3151.00 L 1288.00 3244.00 L 1406.00 3333.00 L 1517.00 3396.00 L 1646.00 3452.00 L 1755.00 3483.00 L 1882.00 3511.00 L 1980.00 3517.00 L 2114.00 3517.00 L 2217.00 3509.00 L 2339.00 3484.00 L 2512.00 3425.00 L 2638.00 3363.00 L 2725.00 3307.00 L 2831.00 3223.00 L 2906.00 3151.00 L 2984.00 3062.00 L 3051.00 2969.00 L 3064.00 2935.00 L 3083.00 2914.00 L 3144.00 2793.00 L 3153.00 2757.00 L 3171.00 2724.00 L 3184.00 2666.00 L 3202.00 2620.00 L 3227.00 2504.00 L 3236.00 2366.00 L 3230.00 2162.00 L 3171.00 1923.00 L 3113.00 1790.00 L 3053.00 1683.00 L 2990.00 1596.00 L 2908.00 1500.00 L 2846.00 1438.00 L 2834.00 1413.00 L 2832.00 1362.00 L 2816.00 1307.00 L 2782.00 1254.00 L 2729.00 1205.00 L 2657.00 1172.00 L 2548.00 1172.00 L 2493.00 1197.00 L 2459.00 1203.00 L 2371.00 1174.00 L 2313.00 1166.00 L 2297.00 1155.00 L 2297.00 1139.00 L 2315.00 1123.00 L 2398.00 1083.00 L 2427.00 1060.00 L 2709.00 901.00 L 2738.00 877.00 L 2775.00 870.00 L 2805.00 884.00 L 2957.00 1013.00 L 3050.00 1112.00 L 3166.00 1270.00 L 3228.00 1384.00 L 3240.00 1423.00 L 3258.00 1450.00 L 3267.00 1488.00 L 3284.00 1517.00 L 3298.00 1580.00 L 3315.00 1617.00 L 3324.00 1674.00 L 3346.00 1745.00 L 3357.00 1938.00 L 3365.00 1957.00 L 3378.00 1965.00 L 3573.00 1968.00 L 3590.00 1958.00 L 3598.00 1941.00 L 3587.00 1745.00 L 3556.00 1584.00 L 3538.00 1540.00 L 3529.00 1491.00 L 3507.00 1443.00 L 3498.00 1401.00 L 3441.00 1274.00 L 3418.00 1239.00 L 3410.00 1210.00 L 3391.00 1188.00 L 3379.00 1158.00 L 3291.00 1028.00 L 3227.00 948.00 L 3118.00 833.00 L 3042.00 763.00 L 2918.00 669.00 L 2813.00 602.00 L 2776.00 592.00 L 2738.00 601.00 L 2599.00 688.00 L 2565.00 701.00 L 2497.00 746.00 L 2368.00 815.00 L 2336.00 839.00 L 2161.00 935.00 L 2091.00 981.00 L 2060.00 991.00 L 1982.00 952.00 L 1353.00 581.00 Z M 2275.00 2065.00 L 2376.00 2096.00 L 2410.00 2115.00 L 2448.00 2127.00 L 2561.00 2189.00 L 2644.00 2250.00 L 2774.00 2378.00 L 2838.00 2461.00 L 2900.00 2566.00 L 2912.00 2605.00 L 2930.00 2633.00 L 2930.00 2684.00 L 2913.00 2708.00 L 2900.00 2747.00 L 2838.00 2851.00 L 2776.00 2935.00 L 2712.00 3005.00 L 2643.00 3066.00 L 2572.00 3119.00 L 2468.00 3181.00 L 2394.00 3213.00 L 2358.00 3220.00 L 2325.00 3240.00 L 2136.00 3274.00 L 1962.00 3274.00 L 1884.00 3265.00 L 1856.00 3254.00 L 1785.00 3243.00 L 1622.00 3179.00 L 1493.00 3098.00 L 1411.00 3032.00 L 1314.00 2929.00 L 1252.00 2849.00 L 1190.00 2740.00 L 1182.00 2707.00 L 1158.00 2667.00 L 1160.00 2641.00 L 1217.00 2527.00 L 1310.00 2389.00 L 1410.00 2285.00 L 1496.00 2216.00 L 1643.00 2127.00 L 1675.00 2119.00 L 1717.00 2096.00 L 1823.00 2065.00 L 1971.00 2040.00 L 2160.00 2043.00 Z M 1097.00 2241.00 L 1133.00 2060.00 L 1151.00 2019.00 L 1160.00 1976.00 L 1179.00 1947.00 L 1190.00 1909.00 L 1284.00 1756.00 L 1400.00 1626.00 L 1425.00 1620.00 L 1486.00 1640.00 L 1514.00 1641.00 L 1607.00 1615.00 L 1648.00 1588.00 L 1688.00 1550.00 L 1719.00 1506.00 L 1732.00 1450.00 L 1762.00 1414.00 L 1889.00 1383.00 L 2031.00 1373.00 L 2206.00 1383.00 L 2334.00 1414.00 L 2365.00 1440.00 L 2376.00 1485.00 L 2408.00 1546.00 L 2484.00 1611.00 L 2544.00 1640.00 L 2634.00 1641.00 L 2682.00 1626.00 L 2716.00 1647.00 L 2811.00 1757.00 L 2900.00 1905.00 L 2962.00 2059.00 L 2981.00 2170.00 L 2995.00 2217.00 L 2994.00 2244.00 L 2988.00 2250.00 L 2976.00 2249.00 L 2896.00 2155.00 L 2756.00 2033.00 L 2674.00 1976.00 L 2640.00 1962.00 L 2565.00 1914.00 L 2505.00 1888.00 L 2461.00 1876.00 L 2423.00 1856.00 L 2361.00 1843.00 L 2314.00 1825.00 L 2235.00 1817.00 L 2153.00 1799.00 L 1998.00 1796.00 L 1766.00 1830.00 L 1656.00 1862.00 L 1522.00 1918.00 L 1436.00 1966.00 L 1296.00 2064.00 L 1188.00 2165.00 L 1123.00 2244.00 L 1107.00 2251.00 Z M 2582.00 1293.00 L 2617.00 1293.00 L 2626.00 1295.00 L 2628.00 1297.00 L 2638.00 1300.00 L 2639.00 1302.00 L 2644.00 1304.00 L 2655.00 1313.00 L 2658.00 1314.00 L 2660.00 1317.00 L 2662.00 1317.00 L 2677.00 1330.00 L 2679.00 1330.00 L 2681.00 1333.00 L 2686.00 1337.00 L 2694.00 1348.00 L 2694.00 1350.00 L 2697.00 1353.00 L 2699.00 1362.00 L 2701.00 1363.00 L 2700.00 1365.00 L 2702.00 1367.00 L 2704.00 1379.00 L 2706.00 1381.00 L 2705.00 1383.00 L 2707.00 1384.00 L 2709.00 1396.00 L 2711.00 1397.00 L 2710.00 1400.00 L 2712.00 1402.00 L 2712.00 1417.00 L 2710.00 1419.00 L 2707.00 1431.00 L 2705.00 1432.00 L 2704.00 1434.00 L 2704.00 1437.00 L 2702.00 1442.00 L 2700.00 1444.00 L 2701.00 1445.00 L 2698.00 1449.00 L 2698.00 1451.00 L 2694.00 1457.00 L 2692.00 1463.00 L 2682.00 1474.00 L 2681.00 1477.00 L 2669.00 1489.00 L 2665.00 1491.00 L 2661.00 1495.00 L 2655.00 1497.00 L 2654.00 1499.00 L 2652.00 1499.00 L 2649.00 1501.00 L 2646.00 1501.00 L 2642.00 1504.00 L 2641.00 1503.00 L 2637.00 1506.00 L 2635.00 1506.00 L 2629.00 1510.00 L 2623.00 1512.00 L 2619.00 1515.00 L 2609.00 1517.00 L 2589.00 1517.00 L 2578.00 1515.00 L 2576.00 1513.00 L 2569.00 1511.00 L 2563.00 1506.00 L 2559.00 1505.00 L 2553.00 1501.00 L 2546.00 1499.00 L 2542.00 1496.00 L 2540.00 1496.00 L 2530.00 1490.00 L 2528.00 1487.00 L 2523.00 1483.00 L 2522.00 1480.00 L 2518.00 1475.00 L 2506.00 1464.00 L 2497.00 1454.00 L 2494.00 1443.00 L 2492.00 1442.00 L 2489.00 1425.00 L 2489.00 1411.00 L 2487.00 1410.00 L 2488.00 1408.00 L 2487.00 1407.00 L 2489.00 1405.00 L 2489.00 1392.00 L 2492.00 1371.00 L 2494.00 1369.00 L 2497.00 1357.00 L 2500.00 1355.00 L 2500.00 1353.00 L 2502.00 1350.00 L 2518.00 1334.00 L 2519.00 1331.00 L 2523.00 1328.00 L 2523.00 1326.00 L 2526.00 1324.00 L 2530.00 1319.00 L 2533.00 1318.00 L 2537.00 1314.00 L 2566.00 1298.00 L 2569.00 1298.00 L 2572.00 1297.00 L 2574.00 1295.00 Z M 1493.00 1288.00 L 1516.00 1288.00 L 1525.00 1289.00 L 1527.00 1291.00 L 1537.00 1292.00 L 1545.00 1294.00 L 1548.00 1297.00 L 1550.00 1297.00 L 1553.00 1299.00 L 1563.00 1309.00 L 1565.00 1309.00 L 1569.00 1314.00 L 1572.00 1315.00 L 1574.00 1318.00 L 1576.00 1318.00 L 1582.00 1323.00 L 1586.00 1325.00 L 1588.00 1328.00 L 1593.00 1332.00 L 1593.00 1334.00 L 1595.00 1336.00 L 1596.00 1340.00 L 1599.00 1343.00 L 1599.00 1346.00 L 1601.00 1351.00 L 1603.00 1352.00 L 1603.00 1354.00 L 1607.00 1362.00 L 1614.00 1371.00 L 1616.00 1377.00 L 1619.00 1381.00 L 1621.00 1390.00 L 1621.00 1410.00 L 1619.00 1417.00 L 1616.00 1421.00 L 1615.00 1425.00 L 1612.00 1427.00 L 1609.00 1436.00 L 1607.00 1437.00 L 1604.00 1447.00 L 1593.00 1467.00 L 1590.00 1469.00 L 1576.00 1484.00 L 1572.00 1486.00 L 1568.00 1490.00 L 1562.00 1492.00 L 1561.00 1494.00 L 1554.00 1497.00 L 1551.00 1497.00 L 1547.00 1500.00 L 1539.00 1502.00 L 1535.00 1505.00 L 1532.00 1505.00 L 1529.00 1507.00 L 1526.00 1507.00 L 1522.00 1510.00 L 1514.00 1512.00 L 1497.00 1512.00 L 1488.00 1510.00 L 1487.00 1508.00 L 1477.00 1505.00 L 1475.00 1503.00 L 1474.00 1504.00 L 1470.00 1501.00 L 1467.00 1501.00 L 1464.00 1499.00 L 1461.00 1499.00 L 1460.00 1497.00 L 1451.00 1495.00 L 1445.00 1491.00 L 1441.00 1490.00 L 1436.00 1486.00 L 1424.00 1472.00 L 1424.00 1470.00 L 1414.00 1458.00 L 1413.00 1455.00 L 1409.00 1452.00 L 1409.00 1450.00 L 1403.00 1443.00 L 1401.00 1437.00 L 1399.00 1436.00 L 1396.00 1423.00 L 1396.00 1417.00 L 1394.00 1416.00 L 1395.00 1414.00 L 1395.00 1391.00 L 1394.00 1389.00 L 1396.00 1388.00 L 1396.00 1378.00 L 1399.00 1365.00 L 1404.00 1356.00 L 1414.00 1345.00 L 1419.00 1338.00 L 1419.00 1336.00 L 1422.00 1334.00 L 1422.00 1332.00 L 1428.00 1325.00 L 1429.00 1322.00 L 1431.00 1320.00 L 1433.00 1320.00 L 1443.00 1312.00 L 1445.00 1312.00 L 1447.00 1309.00 L 1449.00 1309.00 L 1456.00 1303.00 L 1460.00 1302.00 L 1462.00 1299.00 L 1466.00 1298.00 L 1472.00 1294.00 L 1485.00 1291.00 L 1487.00 1289.00 Z" fill="#000" fill-rule="evenodd" shape-rendering="geometricPrecision"/>
</svg>
