<svg xmlns="http://www.w3.org/2000/svg" width="450" height="100" viewBox="0 0 450 100" fill="none">
  <path d="M 450.00 100.00 L 450.00 90.56 L 435.00 88.00 L 413.75 90.00 L 391.88 99.33 L 390.96 100.00 Z M 450.00 0.00 L 316.88 0.00 L 301.25 22.67 L 290.00 53.33 L 282.50 68.67 L 273.13 78.67 L 260.00 84.00 L 246.88 82.67 L 240.00 78.00 L 234.38 72.00 L 217.50 42.67 L 206.88 33.33 L 193.13 27.33 L 176.25 27.33 L 166.25 33.33 L 162.50 32.67 L 157.50 35.33 L 154.38 38.67 L 152.50 46.00 L 148.13 49.33 L 145.00 55.33 L 144.38 62.00 L 146.25 64.67 L 142.50 70.67 L 142.50 79.33 L 138.75 82.67 L 137.50 86.67 L 133.75 86.67 L 129.38 90.00 L 123.75 85.33 L 119.38 85.33 L 117.50 76.67 L 111.88 72.67 L 115.00 68.00 L 115.00 64.00 L 111.88 55.33 L 107.50 52.67 L 110.00 47.33 L 107.50 38.67 L 104.38 34.67 L 99.38 33.33 L 98.75 27.33 L 91.88 21.33 L 84.38 21.33 L 80.00 17.33 L 71.88 17.33 L 58.13 24.00 L 48.75 35.33 L 46.25 48.67 L 47.50 54.00 L 51.25 59.33 L 51.25 52.00 L 53.13 46.00 L 58.13 40.00 L 66.25 36.67 L 71.25 36.67 L 78.75 40.00 L 85.00 47.33 L 88.13 55.33 L 93.13 83.33 L 98.13 97.33 L 100.36 100.00 L 156.45 100.00 L 160.00 96.00 L 165.00 82.67 L 166.88 72.00 L 172.50 61.33 L 178.75 56.67 L 187.50 56.00 L 189.38 58.67 L 196.88 62.00 L 199.38 76.00 L 204.38 81.33 L 203.13 83.33 L 204.38 91.33 L 207.50 98.00 L 210.50 100.00 L 350.00 100.00 L 353.13 96.67 L 357.50 88.00 L 357.50 82.67 L 355.63 80.00 L 356.88 78.67 L 361.25 78.67 L 368.75 71.33 L 373.75 62.00 L 373.13 55.33 L 374.38 54.00 L 380.00 54.67 L 387.50 50.00 L 393.75 44.00 L 396.88 36.00 L 405.63 36.67 L 411.88 34.67 L 421.88 28.67 L 425.00 25.33 L 425.00 22.67 L 428.75 20.67 L 436.88 24.67 L 450.00 23.82 Z" fill="#0B0907" fill-opacity="0.68" fill-rule="evenodd"/>
  <path d="M 273.75 100.00 L 278.75 100.00 L 278.75 100.00 L 273.75 100.00 Z M 254.38 98.00 L 255.00 99.33 L 257.50 98.67 L 256.25 98.00 Z M 151.25 98.00 L 149.38 98.00 L 148.13 99.33 L 149.38 100.00 L 149.38 100.00 L 150.42 100.00 L 151.25 99.33 Z M 119.38 99.33 L 121.25 98.67 L 124.38 100.00 L 121.88 98.00 L 123.13 97.33 L 120.00 98.00 Z M 245.63 96.00 L 247.50 96.00 L 249.38 97.33 L 251.25 98.00 L 253.13 98.00 L 251.88 97.33 L 251.25 96.67 L 250.00 96.67 L 248.13 95.33 Z M 313.13 94.67 L 308.75 98.67 L 307.00 100.00 L 311.25 100.00 L 311.25 100.00 L 310.63 98.67 L 312.50 96.67 Z M 293.13 94.67 L 291.88 94.67 L 288.75 96.67 L 283.13 97.33 L 280.63 99.33 L 282.50 99.33 L 285.00 98.00 L 287.50 98.00 L 289.38 97.33 Z M 158.75 94.00 L 155.00 99.33 L 154.44 100.00 L 154.38 100.00 L 154.38 100.00 L 155.63 99.33 L 157.50 96.67 Z M 420.00 93.33 L 418.13 93.33 L 415.63 94.00 L 413.13 95.33 L 411.25 95.33 L 410.63 96.00 L 408.75 96.00 L 412.50 96.00 L 417.50 94.67 Z M 243.75 91.33 L 243.13 92.00 L 244.38 94.00 L 245.63 94.00 L 245.00 92.67 L 244.38 92.67 Z M 116.25 91.33 L 116.25 92.67 L 118.13 94.00 L 118.13 92.67 Z M 450.00 92.83 L 448.75 92.67 L 446.25 91.33 L 435.63 89.33 L 426.88 89.33 L 415.00 91.33 L 405.63 94.00 L 393.91 100.00 L 398.33 100.00 L 400.00 99.33 L 399.38 100.00 L 411.25 100.00 L 411.88 99.33 L 415.63 99.33 L 414.38 98.67 L 416.25 96.67 L 409.38 98.67 L 403.75 99.33 L 402.50 100.00 L 400.94 100.00 L 400.63 99.33 L 399.38 98.67 L 405.63 95.33 L 419.38 91.33 L 424.38 90.67 L 438.13 90.67 L 440.00 92.00 L 444.38 92.00 L 446.25 93.33 L 448.75 93.33 L 450.00 93.71 Z M 405.63 100.00 L 405.63 100.00 L 406.88 99.33 L 407.50 100.00 Z M 130.00 92.00 L 130.00 93.33 L 131.88 95.33 L 133.75 95.33 L 138.13 94.67 L 138.13 96.00 L 140.63 94.00 L 140.00 92.00 L 138.75 90.67 L 137.50 90.67 L 136.88 89.33 L 133.13 88.67 L 131.25 90.00 L 131.25 91.33 Z M 131.88 91.33 L 133.13 90.00 L 135.63 90.67 L 133.75 91.33 Z M 118.13 87.33 L 120.00 86.00 L 118.13 89.33 L 118.75 91.33 L 120.00 92.67 L 121.88 94.00 L 125.00 94.67 L 126.25 94.00 L 128.13 91.33 L 126.88 88.67 L 125.00 87.33 L 121.88 86.67 L 120.00 88.00 Z M 121.25 88.67 L 123.75 88.00 L 125.00 88.67 L 126.25 90.00 L 123.13 90.67 Z M 356.25 83.33 L 354.38 81.33 L 351.88 80.00 L 350.00 80.00 L 348.13 80.67 L 345.63 82.00 L 343.75 83.33 L 342.50 84.67 L 338.13 90.67 L 336.88 93.33 L 336.88 94.67 L 336.25 95.33 L 335.63 96.67 L 335.00 94.00 L 336.25 92.00 L 336.25 90.67 L 336.88 89.33 L 335.00 90.00 L 335.00 92.00 L 331.88 98.00 L 330.63 99.33 L 330.00 98.00 L 331.25 96.00 L 332.50 91.33 L 332.50 89.33 L 331.88 88.00 L 330.63 86.67 L 327.50 86.00 L 323.75 86.67 L 320.63 88.67 L 320.00 89.33 L 319.38 90.67 L 318.75 89.33 L 317.50 89.33 L 316.25 90.67 L 313.13 98.00 L 312.50 100.00 L 312.50 100.00 L 334.63 100.00 L 334.38 98.67 L 335.63 98.00 L 336.25 96.67 L 336.88 99.33 L 338.75 98.67 L 339.38 97.33 L 339.79 100.00 L 348.75 100.00 L 349.38 99.33 L 353.75 92.67 L 355.00 90.00 L 356.25 86.00 Z M 329.38 94.00 L 330.00 95.33 L 328.75 96.67 L 328.13 95.33 Z M 316.88 94.00 L 317.50 95.33 L 316.25 97.33 L 315.63 99.33 L 313.75 99.33 L 315.63 95.33 Z M 323.75 90.67 L 324.38 92.67 L 325.00 93.33 L 325.00 94.67 L 324.38 96.00 L 321.88 99.33 L 321.25 99.33 L 320.63 100.00 L 317.50 100.00 L 317.50 100.00 L 316.88 98.00 L 317.50 96.67 L 318.75 95.33 L 318.75 94.67 L 321.88 92.00 L 322.50 92.00 Z M 327.50 89.33 L 329.38 92.00 L 328.75 93.33 L 327.50 94.67 L 326.88 96.67 L 325.00 96.00 L 326.25 94.67 L 326.25 93.33 L 325.00 90.67 Z M 343.75 87.33 L 343.75 88.67 L 342.50 90.00 L 343.13 91.33 L 341.25 92.00 L 341.25 93.33 L 341.88 94.67 L 340.63 96.00 L 338.13 94.67 L 338.13 93.33 L 339.38 90.67 L 341.88 87.33 Z M 353.75 84.67 L 355.00 86.00 L 355.00 87.33 L 353.75 88.67 L 352.50 87.33 L 351.88 88.67 L 351.88 91.33 L 351.25 92.67 L 348.13 96.67 L 344.38 100.00 L 343.13 98.67 L 343.13 96.67 L 345.00 92.67 L 347.50 88.67 L 349.38 86.67 L 352.50 84.67 Z M 345.00 85.33 L 345.00 86.67 L 346.88 88.67 L 344.38 91.33 L 343.75 89.33 L 344.38 88.00 L 343.13 86.67 Z M 349.38 83.33 L 350.00 84.67 L 346.88 86.00 Z M 308.13 79.33 L 306.88 79.33 L 306.25 80.67 L 305.63 80.67 L 305.63 82.00 L 306.25 80.67 L 308.75 81.33 L 307.50 82.67 L 306.88 82.67 L 305.63 84.00 L 305.63 84.67 L 302.50 86.00 L 303.13 84.67 L 301.88 84.67 L 300.63 86.00 L 300.63 86.67 L 300.00 87.33 L 299.38 87.33 L 298.13 88.67 L 297.50 88.67 L 296.88 90.00 L 298.13 90.00 L 302.50 86.00 L 303.13 87.33 L 306.88 84.67 L 308.75 81.33 Z M 164.38 74.67 L 163.13 77.33 L 162.50 80.67 L 163.13 82.00 L 163.13 80.00 L 164.38 78.00 Z M 110.63 74.67 L 110.63 76.67 L 110.00 77.33 L 110.00 82.00 L 110.63 84.00 L 113.13 85.33 L 113.13 86.00 L 114.38 87.33 L 116.25 87.33 L 116.25 86.00 L 118.13 84.00 L 118.13 81.33 L 117.50 79.33 L 116.88 78.00 L 115.00 76.00 L 112.50 76.00 Z M 113.13 84.00 L 114.38 83.33 L 116.25 85.33 L 115.00 86.00 Z M 114.38 76.67 L 116.25 78.67 L 116.88 80.00 L 116.88 81.33 L 116.25 83.33 L 115.00 82.67 L 113.75 81.33 L 113.13 80.00 L 113.13 78.00 Z M 328.75 72.67 L 327.50 72.67 L 325.63 74.67 L 325.63 76.00 Z M 103.75 72.67 L 103.13 74.00 L 105.00 74.67 L 105.63 76.00 L 106.25 74.00 L 105.00 74.67 Z M 350.00 72.00 L 347.50 77.33 L 347.50 78.67 L 346.88 80.00 L 348.13 78.67 L 350.00 78.67 L 350.63 78.00 L 351.88 78.00 L 351.25 76.00 L 350.63 76.00 L 350.63 74.00 Z M 309.38 70.00 L 305.63 74.67 L 305.00 76.00 L 305.00 77.33 L 306.88 75.33 L 306.88 74.67 L 308.75 72.67 Z M 228.75 70.00 L 229.38 72.00 L 230.00 72.00 L 230.63 74.67 L 229.38 75.33 L 229.38 76.67 L 231.25 78.00 L 230.00 76.00 L 231.88 75.33 L 232.50 76.67 L 233.13 76.00 L 231.88 75.33 L 230.00 70.67 Z M 351.25 68.00 L 350.00 68.67 L 350.00 70.67 L 351.25 70.00 Z M 329.38 64.67 L 326.88 67.33 L 325.00 70.67 L 325.00 72.00 L 323.75 73.33 L 325.00 72.67 L 325.00 72.00 L 326.25 70.67 L 326.88 68.67 L 328.75 66.67 Z M 222.50 62.67 L 223.75 64.67 L 224.38 68.00 L 225.00 69.33 L 226.25 70.67 L 226.25 69.33 L 225.00 68.00 L 225.00 66.00 L 224.38 64.00 Z M 315.00 59.33 L 313.75 60.00 L 313.13 61.33 L 312.50 64.67 L 310.63 68.00 L 310.63 69.33 L 312.50 68.00 L 314.38 67.33 L 315.63 66.00 L 316.25 64.67 L 311.88 66.00 L 313.75 64.00 L 314.38 60.67 Z M 330.00 56.00 L 328.13 56.67 L 327.50 58.67 L 327.50 60.00 L 328.75 59.33 L 328.75 57.33 Z M 105.63 56.00 L 105.00 57.33 L 105.00 58.67 L 103.75 60.00 L 103.75 64.00 L 105.00 67.33 L 106.25 68.00 L 106.88 66.00 L 107.50 67.33 L 107.50 69.33 L 108.75 70.67 L 108.75 68.67 L 109.38 66.67 L 111.25 70.00 L 112.50 70.00 L 113.75 66.67 L 113.75 64.00 L 113.13 61.33 L 111.88 58.00 L 109.38 55.33 L 108.13 55.33 L 108.13 57.33 L 107.50 58.00 L 106.88 59.33 L 106.25 57.33 L 106.88 56.00 Z M 110.00 57.33 L 111.25 58.67 L 112.50 63.33 L 111.25 67.33 L 110.00 66.00 L 109.38 64.67 L 108.75 62.00 Z M 370.00 54.67 L 368.13 54.00 L 366.88 54.00 L 363.75 55.33 L 361.25 57.33 L 355.63 62.67 L 355.00 64.00 L 355.00 68.67 L 355.00 66.67 L 355.63 65.33 L 357.50 65.33 L 358.13 71.33 L 356.88 71.33 L 356.25 72.67 L 356.88 74.67 L 355.00 74.00 L 355.00 78.00 L 356.25 74.67 L 360.00 77.33 L 361.25 76.00 L 363.13 75.33 L 367.50 70.67 L 370.00 66.67 L 372.50 61.33 L 372.50 57.33 Z M 362.50 61.33 L 363.13 62.67 L 360.63 66.00 L 358.75 65.33 Z M 360.00 62.67 L 358.13 64.67 L 357.50 62.67 Z M 367.50 60.00 L 368.13 64.00 L 367.50 65.33 L 366.25 66.67 L 364.38 66.67 L 364.38 68.00 L 365.63 69.33 L 364.38 70.00 L 362.50 70.00 L 361.88 73.33 L 360.63 72.67 L 360.00 69.33 L 361.25 66.67 L 363.75 62.67 L 365.00 61.33 Z M 370.00 58.67 L 371.25 60.67 L 370.00 64.00 L 369.38 61.33 L 368.13 60.00 Z M 370.63 56.67 L 369.38 58.00 L 367.50 58.67 L 366.25 60.00 L 363.75 60.00 L 366.25 57.33 Z M 168.13 54.00 L 166.88 54.67 L 164.38 58.00 L 163.75 56.67 L 164.38 54.67 L 162.50 54.67 L 162.50 58.00 L 161.25 60.67 L 161.25 62.00 L 162.50 62.67 L 162.50 64.00 L 161.25 66.00 L 160.63 70.00 L 159.38 70.00 L 160.63 72.00 L 159.38 76.00 L 158.13 73.33 L 157.50 74.67 L 156.88 78.00 L 156.88 79.33 L 158.13 80.00 L 158.13 81.33 L 156.25 83.33 L 155.63 80.67 L 155.00 82.67 L 156.25 83.33 L 151.88 88.67 L 150.63 90.67 L 148.75 94.67 L 145.00 98.00 L 144.38 99.33 L 145.63 99.33 L 148.13 96.67 L 153.13 88.00 L 155.00 86.00 L 155.63 87.33 L 154.38 88.67 L 153.75 90.00 L 155.00 88.00 L 156.88 86.00 L 160.00 78.67 L 160.63 76.00 L 160.63 72.00 L 162.50 68.00 L 162.50 64.67 L 163.13 62.00 L 165.00 60.00 L 165.63 58.00 L 167.50 56.00 Z M 170.00 59.33 L 171.25 60.00 L 171.25 61.33 L 176.88 56.00 L 176.25 54.67 L 171.88 59.33 L 171.25 56.67 L 173.13 53.33 L 170.63 55.33 L 170.00 56.67 Z M 213.13 51.33 L 213.75 52.67 L 216.25 55.33 L 217.50 54.00 L 218.75 55.33 L 220.00 58.67 L 221.88 60.00 L 221.88 58.67 L 223.13 58.67 L 221.88 57.33 L 221.25 58.67 L 219.38 55.33 L 220.63 54.67 L 221.88 56.00 L 221.25 52.67 L 222.50 54.00 L 224.38 56.67 L 228.13 64.00 L 228.75 66.67 L 230.63 68.67 L 233.13 74.00 L 235.00 74.67 L 238.75 79.33 L 236.88 79.33 L 236.25 80.67 L 235.00 79.33 L 235.00 81.33 L 233.13 79.33 L 233.75 80.67 L 233.75 81.33 L 236.25 84.00 L 236.25 82.00 L 240.00 86.00 L 240.00 86.67 L 241.25 87.33 L 240.00 86.00 L 238.13 82.67 L 239.38 82.00 L 240.00 80.00 L 241.88 82.00 L 243.75 82.67 L 243.13 81.33 L 242.50 81.33 L 236.88 76.67 L 234.38 74.00 L 230.63 68.67 L 230.00 66.00 L 225.63 57.33 L 222.50 52.67 L 220.63 53.33 L 218.75 51.33 L 218.75 54.00 L 217.50 53.33 L 216.25 54.67 L 215.63 52.67 Z M 187.50 51.33 L 187.50 52.67 L 188.13 54.67 L 188.75 56.00 L 190.00 57.33 L 191.25 58.00 L 192.50 58.00 L 193.75 59.33 L 196.88 59.33 L 196.88 57.33 L 196.25 55.33 L 194.38 53.33 L 192.50 52.00 Z M 188.75 54.00 L 191.25 53.33 L 192.50 54.00 L 194.38 56.67 L 192.50 57.33 L 190.00 56.00 L 189.38 55.33 Z M 100.63 51.33 L 100.00 52.00 L 98.75 52.00 L 100.00 55.33 Z M 321.88 49.33 L 320.63 50.00 L 320.00 51.33 L 320.00 53.33 L 319.38 55.33 L 318.13 57.33 L 319.38 56.67 L 320.00 53.33 L 320.63 52.00 L 321.88 50.67 Z M 347.50 48.67 L 346.25 49.33 L 345.00 50.67 L 344.38 50.67 L 343.13 52.00 L 341.25 56.00 L 337.50 60.67 L 338.13 64.00 L 338.13 63.33 L 340.63 62.00 L 342.50 62.00 L 346.25 59.33 L 347.50 62.67 L 346.25 63.33 L 344.38 63.33 L 342.50 64.00 L 340.63 66.00 L 339.38 65.33 L 336.25 67.33 L 334.38 70.00 L 334.38 71.33 L 333.13 72.67 L 331.88 76.67 L 331.25 75.33 L 329.38 75.33 L 331.25 73.33 L 333.75 68.67 L 332.50 68.67 L 331.25 70.00 L 331.25 71.33 L 329.38 74.67 L 325.00 80.00 L 324.38 82.00 L 321.88 84.67 L 321.25 86.67 L 323.13 85.33 L 325.63 84.67 L 327.50 82.67 L 328.13 84.00 L 329.38 84.67 L 329.38 80.67 L 330.00 78.67 L 330.63 78.00 L 331.25 76.67 L 331.88 80.00 L 331.25 80.67 L 331.25 83.33 L 333.13 85.33 L 335.00 85.33 L 338.13 84.67 L 341.25 83.33 L 343.13 82.00 L 347.50 74.67 L 348.75 70.67 L 348.75 66.00 L 348.13 64.00 L 348.13 62.00 L 350.00 64.00 L 350.00 65.33 L 351.25 66.67 L 353.13 62.67 L 354.38 61.33 L 353.13 60.67 L 351.25 62.67 L 350.63 60.67 L 348.75 61.33 L 348.13 59.33 L 346.88 58.00 L 346.25 56.67 L 346.25 54.00 L 346.88 53.33 L 346.25 50.67 Z M 334.38 78.00 L 335.00 82.00 L 334.38 83.33 L 333.13 84.00 L 331.88 82.00 L 332.50 80.67 Z M 328.75 77.33 L 328.75 80.00 L 326.25 80.00 Z M 338.13 68.67 L 337.50 70.00 L 336.25 71.33 L 335.63 69.33 Z M 345.00 68.00 L 345.63 69.33 L 344.38 70.67 L 344.38 71.33 L 342.50 73.33 L 341.88 75.33 L 341.25 76.00 L 340.63 76.00 L 339.38 77.33 L 337.50 77.33 L 336.25 76.67 L 335.63 74.67 L 337.50 72.00 L 340.63 68.67 L 341.88 68.00 Z M 346.25 66.67 L 347.50 68.00 L 347.50 70.00 L 346.88 72.00 L 346.25 72.67 L 345.63 74.00 L 345.00 72.00 Z M 341.88 56.67 L 341.88 60.00 L 340.63 60.67 L 340.00 59.33 L 340.63 58.00 Z M 203.75 47.33 L 203.75 48.67 L 205.63 52.00 L 206.88 51.33 L 206.88 50.00 Z M 190.63 47.33 L 189.38 50.00 L 190.63 50.00 L 191.25 50.67 L 193.75 50.67 L 196.25 52.00 L 196.25 52.67 L 197.50 54.00 L 198.75 56.67 L 198.75 58.67 L 201.25 58.67 L 199.38 56.00 L 199.38 53.33 L 202.50 54.67 L 201.88 53.33 L 200.63 53.33 L 198.13 50.67 L 199.38 50.67 L 198.13 48.67 L 195.00 47.33 Z M 172.50 47.33 L 170.63 49.33 L 168.75 49.33 L 168.13 48.00 L 166.88 49.33 L 167.50 50.67 L 166.25 51.33 L 166.25 52.67 L 167.50 52.00 L 170.00 49.33 L 171.88 50.00 L 172.50 48.67 Z M 175.00 47.33 L 173.75 50.00 L 175.63 52.67 L 176.88 53.33 L 178.13 53.33 L 179.38 55.33 L 183.75 54.67 L 184.38 54.00 L 185.63 53.33 L 181.88 54.00 L 181.88 52.00 L 183.75 52.00 L 184.38 51.33 L 185.63 50.67 L 184.38 49.33 L 185.63 45.33 L 184.38 44.67 L 179.38 45.33 Z M 176.88 50.00 L 178.75 49.33 L 183.75 50.00 L 182.50 51.33 L 177.50 52.67 Z M 178.13 48.00 L 179.38 47.33 L 180.00 46.67 L 183.13 47.33 L 180.63 48.00 L 180.00 48.67 Z M 326.88 40.67 L 325.63 41.33 L 323.75 45.33 L 325.00 45.33 L 325.63 42.67 Z M 206.88 40.00 L 209.38 42.00 L 211.25 42.67 L 210.00 42.00 L 209.38 42.00 L 208.75 40.00 L 207.50 39.33 Z M 180.00 43.33 L 182.50 42.00 L 184.38 41.33 L 185.63 43.33 L 186.88 43.33 L 187.50 44.67 L 188.75 45.33 L 190.63 45.33 L 189.38 44.00 L 188.13 43.33 L 190.00 42.67 L 190.63 43.33 L 192.50 43.33 L 193.75 44.00 L 191.88 42.00 L 191.88 41.33 L 190.63 40.67 L 187.50 40.67 L 188.13 39.33 L 186.88 38.00 L 185.63 38.67 L 187.50 39.33 L 186.25 40.67 L 186.88 41.33 L 185.63 42.00 L 185.00 40.67 L 183.75 40.67 L 183.13 41.33 L 181.25 41.33 Z M 368.13 38.67 L 366.25 36.67 L 365.00 36.00 L 362.50 36.67 L 361.25 38.00 L 358.13 38.67 L 356.88 40.00 L 353.13 40.00 L 354.38 38.00 L 350.63 41.33 L 348.13 44.67 L 347.50 46.00 L 349.38 45.33 L 350.00 47.33 L 349.38 48.00 L 348.13 53.33 L 348.13 55.33 L 348.75 56.67 L 351.25 58.00 L 355.63 58.00 L 358.13 56.67 L 360.63 54.67 L 365.00 50.00 L 366.25 48.00 L 368.13 43.33 Z M 351.88 54.67 L 353.75 53.33 L 354.38 56.00 Z M 358.75 53.33 L 357.50 54.00 L 355.63 54.00 L 357.50 52.00 Z M 351.88 47.33 L 352.50 49.33 L 351.88 53.33 L 350.00 55.33 L 349.38 52.67 L 350.00 50.67 Z M 362.50 45.33 L 363.13 46.67 L 362.50 48.00 L 360.00 48.67 L 360.63 47.33 Z M 353.13 44.00 L 354.38 45.33 L 354.38 46.67 L 351.88 47.33 L 351.88 45.33 Z M 350.63 43.33 L 351.25 44.67 L 350.00 46.00 L 349.38 44.67 Z M 363.75 41.33 L 363.75 43.33 L 359.38 47.33 L 358.13 50.67 L 356.25 52.67 L 355.00 53.33 L 353.75 52.67 L 353.13 50.67 L 353.75 48.67 L 355.00 46.67 L 359.38 42.00 L 361.25 40.67 Z M 355.63 40.67 L 356.25 42.00 L 354.38 44.00 L 353.75 42.67 Z M 365.00 38.00 L 366.88 40.00 L 366.88 42.00 L 365.00 46.67 L 365.00 41.33 L 363.13 40.00 Z M 98.75 36.67 L 98.75 39.33 L 97.50 40.67 L 98.75 44.67 L 100.00 47.33 L 101.25 48.67 L 102.50 47.33 L 103.75 48.67 L 103.75 49.33 L 105.00 50.00 L 104.38 48.00 L 106.25 48.00 L 106.88 49.33 L 108.13 48.67 L 108.13 43.33 L 105.63 38.00 L 104.38 36.67 L 102.50 35.33 Z M 103.13 44.67 L 104.38 46.00 L 105.00 47.33 L 103.75 48.67 L 103.13 46.67 Z M 103.13 37.33 L 105.63 40.00 L 106.88 43.33 L 106.25 46.67 L 103.75 44.00 L 101.88 40.00 Z M 395.00 37.33 L 393.13 35.33 L 391.88 36.00 L 391.25 34.67 L 385.63 34.67 L 380.00 38.00 L 377.50 40.00 L 375.63 42.67 L 373.75 42.67 L 374.38 41.33 L 376.25 39.33 L 375.00 38.67 L 371.88 42.00 L 371.25 40.67 L 372.50 38.67 L 370.63 38.67 L 369.38 42.00 L 369.38 44.67 L 368.75 47.33 L 366.88 49.33 L 365.63 52.00 L 369.38 52.00 L 371.88 54.00 L 373.13 52.67 L 371.25 51.33 L 371.25 50.00 L 370.00 50.00 L 368.13 51.33 L 368.13 49.33 L 371.25 48.00 L 374.38 44.67 L 375.63 45.33 L 373.75 46.67 L 373.75 51.33 L 374.38 49.33 L 374.38 47.33 L 375.00 46.67 L 376.88 46.00 L 378.75 46.00 L 378.13 47.33 L 376.88 48.67 L 378.13 52.67 L 378.75 51.33 L 380.63 52.67 L 382.50 51.33 L 384.38 50.67 L 388.75 46.67 L 393.75 41.33 L 394.38 40.00 L 394.38 38.67 Z M 389.38 43.33 L 390.00 44.67 L 385.63 47.33 L 386.25 46.00 L 387.50 44.67 L 388.13 44.67 Z M 385.63 44.67 L 385.63 46.67 L 385.00 46.67 L 381.88 49.33 L 379.38 49.33 L 379.38 48.00 L 380.00 46.67 L 382.50 43.33 L 384.38 43.33 Z M 381.25 43.33 L 378.75 46.00 L 378.13 44.67 Z M 391.88 40.00 L 391.25 41.33 L 388.75 44.00 L 386.88 45.33 L 385.63 43.33 L 383.75 42.67 L 385.00 41.33 L 386.88 40.00 L 390.00 38.67 Z M 383.13 38.67 L 380.00 41.33 L 378.75 42.67 L 378.75 43.33 L 376.25 44.00 L 376.88 41.33 L 378.13 41.33 L 380.00 39.33 Z M 388.13 36.67 L 389.38 35.33 L 391.88 36.00 L 390.00 36.67 Z M 387.50 36.00 L 385.63 38.00 L 382.50 38.00 L 384.38 36.00 L 385.63 35.33 Z M 181.88 36.67 L 181.88 38.00 L 183.75 36.67 L 188.13 36.67 L 198.13 40.00 L 200.63 42.67 L 200.00 43.33 L 202.50 46.00 L 200.00 43.33 L 201.25 42.67 L 208.13 49.33 L 208.75 51.33 L 210.63 53.33 L 213.13 58.00 L 211.88 58.67 L 206.88 54.67 L 205.00 54.67 L 202.50 58.00 L 204.38 61.33 L 205.63 67.33 L 206.88 69.33 L 206.25 71.33 L 203.75 67.33 L 203.75 65.33 L 201.25 62.67 L 201.25 60.67 L 198.13 62.00 L 201.25 62.67 L 200.00 64.67 L 198.13 64.00 L 198.13 68.67 L 200.63 74.67 L 203.75 78.00 L 205.00 73.33 L 205.63 76.00 L 206.88 76.00 L 207.50 72.00 L 208.75 74.67 L 209.38 79.33 L 208.13 80.00 L 207.50 78.67 L 206.25 78.67 L 204.38 80.67 L 207.50 80.00 L 208.75 81.33 L 208.13 83.33 L 206.88 82.00 L 205.00 82.67 L 205.00 88.67 L 208.13 96.67 L 210.63 99.33 L 212.50 96.67 L 212.50 94.67 L 214.38 97.33 L 214.38 100.00 L 231.56 100.00 L 226.88 96.67 L 224.38 96.00 L 225.63 95.33 L 226.25 93.33 L 228.13 95.33 L 228.13 94.00 L 225.00 88.67 L 223.75 88.00 L 222.50 96.67 L 224.38 96.00 L 225.00 97.33 L 223.75 99.33 L 223.80 100.00 L 221.62 100.00 L 221.88 99.33 L 220.00 98.67 L 217.50 96.00 L 217.50 93.33 L 219.38 95.33 L 220.63 95.33 L 221.25 93.33 L 221.25 89.33 L 222.50 89.33 L 223.13 83.33 L 220.00 78.67 L 219.38 74.00 L 217.50 70.67 L 217.50 68.00 L 215.63 62.67 L 213.75 59.33 L 213.75 57.33 L 215.00 57.33 L 215.00 56.00 L 213.75 54.67 L 213.13 56.00 L 211.88 54.67 L 210.00 51.33 L 210.00 48.00 L 209.38 49.33 L 208.13 48.00 L 208.75 45.33 L 210.00 45.33 L 213.13 48.67 L 214.38 48.00 L 210.63 46.00 L 207.50 42.00 L 203.75 39.33 L 203.75 38.00 L 200.00 36.00 L 197.50 36.67 L 195.00 36.00 L 193.13 34.67 L 191.88 35.33 L 195.00 36.00 L 196.88 37.33 L 195.00 38.00 L 194.38 37.33 L 191.88 37.33 L 190.00 36.00 L 183.75 36.00 L 183.13 36.67 Z M 225.00 99.33 L 226.25 98.00 L 228.75 99.33 L 228.54 100.00 L 226.88 100.00 L 226.88 100.00 Z M 217.92 100.00 L 217.50 99.33 L 219.38 98.67 L 219.38 99.33 L 220.00 100.00 Z M 216.88 86.00 L 219.38 88.67 L 218.75 92.00 L 216.25 87.33 Z M 207.50 84.67 L 207.50 85.33 L 208.75 86.67 L 208.75 88.67 L 210.00 90.67 L 210.63 92.67 L 210.00 96.00 L 208.13 94.00 L 206.88 91.33 L 206.88 88.67 L 205.63 86.00 Z M 217.50 81.33 L 218.75 82.67 L 220.00 84.67 L 219.38 86.67 L 218.75 85.33 L 216.88 84.00 Z M 210.00 74.00 L 211.25 75.33 L 211.25 76.00 L 212.50 77.33 L 213.75 77.33 L 216.25 75.33 L 217.50 78.00 L 220.63 80.67 L 220.63 83.33 L 219.38 82.00 L 219.38 81.33 L 218.13 80.00 L 216.25 80.00 L 215.63 81.33 L 215.00 86.00 L 214.38 84.67 L 215.00 86.67 L 214.38 90.67 L 215.63 92.67 L 214.38 97.33 L 213.75 94.67 L 213.75 92.00 L 212.50 88.00 L 210.63 84.67 L 211.25 82.67 L 212.50 84.67 L 213.13 83.33 L 213.75 82.67 L 213.75 81.33 L 214.38 78.67 L 213.13 79.33 L 212.50 81.33 L 211.88 78.67 L 209.38 76.67 Z M 212.50 68.67 L 213.75 73.33 L 212.50 72.67 L 212.50 75.33 L 211.25 74.00 L 210.63 72.67 L 210.63 71.33 Z M 208.13 68.00 L 210.00 70.00 L 209.38 72.00 L 208.13 70.67 L 207.50 69.33 Z M 200.00 66.00 L 201.25 67.33 L 203.13 71.33 L 202.50 75.33 L 200.63 73.33 L 200.63 71.33 L 199.38 69.33 L 199.38 68.00 Z M 212.50 66.00 L 213.75 65.33 L 215.00 66.00 L 216.25 67.33 L 215.63 69.33 L 214.38 67.33 L 213.75 68.00 Z M 213.13 60.00 L 213.75 62.00 L 213.75 64.00 L 212.50 62.67 Z M 205.63 55.33 L 206.88 56.00 L 210.00 59.33 L 210.00 60.67 L 211.88 65.33 L 209.38 64.00 L 209.38 65.33 L 208.13 66.67 L 207.50 68.67 L 206.88 65.33 L 208.13 63.33 L 207.50 61.33 L 208.75 60.67 L 208.13 59.33 L 205.00 58.00 L 205.00 60.67 L 204.38 59.33 L 203.75 58.67 L 203.75 57.33 Z M 200.00 38.00 L 201.25 37.33 L 202.50 38.00 L 208.13 44.67 L 205.00 45.33 L 201.88 42.00 L 203.75 42.00 Z M 196.25 38.00 L 198.13 37.33 L 199.38 38.00 L 200.63 39.33 L 199.38 40.00 Z M 201.88 32.67 L 202.50 34.00 L 203.75 34.00 L 206.25 35.33 L 208.13 36.67 L 210.63 39.33 L 212.50 40.00 L 215.63 43.33 L 216.88 47.33 L 213.75 45.33 L 216.88 48.00 L 217.50 46.67 L 219.38 48.67 L 219.38 49.33 L 221.25 50.67 L 220.00 48.00 L 217.50 44.67 L 212.50 40.00 L 212.50 39.33 L 211.88 38.67 L 205.63 34.00 L 204.38 34.00 L 203.13 32.67 Z M 191.88 29.33 L 194.38 30.67 L 198.13 32.00 L 200.00 32.00 L 196.88 30.00 L 193.13 28.67 Z M 188.13 28.67 L 186.88 28.00 L 175.00 28.67 L 173.75 30.00 L 171.25 30.67 L 168.13 32.67 L 166.88 34.00 L 166.88 35.33 L 164.38 38.00 L 162.50 37.33 L 164.38 35.33 L 164.38 34.00 L 163.13 34.00 L 162.50 34.67 L 160.63 34.67 L 159.38 35.33 L 156.88 37.33 L 155.00 40.00 L 153.75 45.33 L 155.63 46.00 L 152.50 47.33 L 152.50 46.00 L 151.25 47.33 L 153.13 49.33 L 153.13 51.33 L 150.63 53.33 L 151.25 49.33 L 150.00 49.33 L 148.75 50.67 L 147.50 52.67 L 145.63 58.00 L 145.63 61.33 L 146.88 62.67 L 148.75 60.67 L 149.38 62.67 L 148.13 68.00 L 146.25 66.67 L 144.38 68.67 L 143.75 70.00 L 143.75 73.33 L 143.13 74.00 L 143.13 76.67 L 145.00 79.33 L 146.25 78.00 L 146.88 79.33 L 145.63 83.33 L 143.75 81.33 L 142.50 81.33 L 141.25 82.00 L 139.38 84.00 L 138.75 86.67 L 137.50 86.67 L 138.75 89.33 L 140.00 89.33 L 141.88 91.33 L 143.75 89.33 L 145.00 89.33 L 147.50 86.00 L 150.00 84.67 L 148.13 84.00 L 149.38 82.67 L 151.25 82.67 L 151.25 81.33 L 149.38 81.33 L 148.13 80.00 L 150.63 79.33 L 151.88 78.67 L 153.13 76.00 L 151.25 74.00 L 152.50 70.67 L 154.38 70.67 L 155.63 62.00 L 155.00 60.67 L 156.88 58.00 L 157.50 56.00 L 157.50 54.00 L 158.75 52.00 L 159.38 50.00 L 159.38 46.00 L 161.88 43.33 L 163.13 44.67 L 163.13 46.00 L 161.88 48.00 L 163.75 46.67 L 165.00 44.00 L 171.25 39.33 L 170.63 40.67 L 172.50 39.33 L 176.25 38.67 L 176.25 37.33 L 177.50 36.00 L 180.00 34.67 L 177.50 34.00 L 180.00 32.67 L 181.25 33.33 L 181.88 35.33 L 184.38 33.33 L 183.13 32.67 L 185.00 32.00 L 185.63 33.33 L 188.13 32.00 L 190.00 32.00 L 189.38 30.00 Z M 144.38 85.33 L 144.38 88.00 L 142.50 88.00 L 143.13 86.67 Z M 143.75 84.00 L 141.88 84.67 L 142.50 86.00 L 141.25 87.33 L 140.00 86.00 L 140.00 84.67 L 141.25 83.33 Z M 145.63 68.00 L 146.25 74.67 L 145.00 77.33 L 144.38 71.33 Z M 148.75 67.33 L 150.63 68.00 L 151.88 70.67 L 150.00 72.00 L 147.50 70.67 L 147.50 68.67 Z M 153.13 61.33 L 153.13 64.00 L 151.88 64.67 L 151.25 67.33 L 150.63 65.33 L 150.00 64.67 L 150.63 62.67 L 151.88 62.67 Z M 151.25 55.33 L 151.88 56.67 L 150.63 58.67 L 150.63 60.00 L 149.38 61.33 L 149.38 58.00 L 150.00 56.67 Z M 149.38 52.00 L 150.00 54.00 L 149.38 54.67 L 149.38 56.67 L 148.75 58.00 L 147.50 59.33 L 146.88 56.67 L 148.13 53.33 Z M 154.38 50.67 L 155.00 52.67 L 156.88 53.33 L 155.63 54.67 L 153.75 55.33 L 153.13 58.00 L 152.50 53.33 L 153.13 52.00 Z M 167.50 38.67 L 166.25 38.67 L 161.25 42.00 L 165.00 37.33 L 166.25 37.33 Z M 161.88 36.67 L 158.13 40.67 L 157.50 40.67 L 155.63 42.67 L 155.00 41.33 L 156.25 40.00 L 156.25 39.33 L 160.00 36.00 Z M 176.88 36.00 L 175.63 36.67 L 175.00 37.33 L 173.75 37.33 L 171.25 39.33 L 170.63 38.00 L 168.13 37.33 L 170.63 36.00 L 172.50 35.33 Z M 176.88 33.33 L 173.13 34.67 L 170.63 34.00 L 168.13 34.67 L 170.00 32.67 L 171.25 32.67 L 172.50 32.00 L 175.00 31.33 L 174.38 32.67 Z M 181.25 30.67 L 182.50 29.33 L 186.88 29.33 L 188.13 30.67 Z M 177.50 30.00 L 181.25 30.00 L 180.00 31.33 L 178.75 31.33 Z M 370.63 24.67 L 369.38 24.67 L 364.38 28.00 L 358.13 34.00 L 356.88 37.33 L 358.13 36.67 L 360.63 33.33 L 360.63 35.33 L 361.88 35.33 L 362.50 34.67 L 365.63 34.00 L 366.88 35.33 L 366.25 34.00 L 367.50 30.67 L 369.38 26.67 Z M 360.63 24.67 L 359.38 24.67 L 359.38 26.00 L 360.63 28.00 L 357.50 29.33 L 358.75 29.33 L 359.38 28.67 L 361.25 28.67 L 362.50 27.33 Z M 52.50 31.33 L 49.38 37.33 L 47.50 44.00 L 47.50 50.00 L 48.75 54.67 L 50.00 56.00 L 50.00 54.00 L 48.75 51.33 L 48.13 48.00 L 50.00 46.00 L 50.63 44.00 L 50.63 41.33 L 51.25 40.00 L 55.00 35.33 L 56.88 34.67 L 58.75 32.67 L 59.38 34.00 L 56.88 36.00 L 55.63 38.00 L 54.38 38.67 L 55.63 40.00 L 55.63 40.67 L 52.50 43.33 L 51.25 46.00 L 50.63 50.67 L 51.25 49.33 L 51.25 47.33 L 53.75 42.67 L 57.50 39.33 L 57.50 38.67 L 63.13 36.00 L 67.50 35.33 L 68.13 34.67 L 69.38 34.67 L 71.88 36.00 L 73.75 36.00 L 75.63 36.67 L 78.13 38.00 L 82.50 41.33 L 86.88 48.67 L 86.88 50.00 L 88.75 52.67 L 89.38 51.33 L 90.63 52.67 L 91.25 54.00 L 92.50 59.33 L 91.88 63.33 L 90.63 61.33 L 90.63 58.67 L 90.00 56.00 L 88.75 54.67 L 89.38 58.00 L 90.63 59.33 L 90.63 62.67 L 91.88 64.67 L 91.88 66.67 L 93.75 66.67 L 93.75 70.00 L 92.50 70.00 L 93.75 72.67 L 93.75 75.33 L 94.38 72.67 L 95.63 78.00 L 95.00 80.67 L 93.75 77.33 L 93.75 79.33 L 95.00 82.00 L 94.38 84.00 L 96.25 89.33 L 98.75 95.33 L 101.25 100.00 L 101.25 100.00 L 111.88 100.00 L 111.25 99.33 L 111.75 100.00 L 108.13 100.00 L 108.13 100.00 L 109.38 99.33 L 109.38 98.00 L 104.38 91.33 L 101.88 85.33 L 101.88 83.33 L 100.63 81.33 L 98.75 72.00 L 98.13 64.67 L 95.63 54.00 L 94.38 52.00 L 93.13 46.00 L 90.00 40.00 L 85.00 33.33 L 81.25 30.67 L 77.50 28.67 L 75.63 28.00 L 71.25 27.33 L 65.00 27.33 L 61.25 28.67 L 59.38 30.00 L 57.50 32.00 L 56.88 30.67 L 53.75 33.33 L 53.13 32.00 L 54.38 30.67 L 54.38 30.00 L 55.00 29.33 L 60.00 26.67 L 59.38 28.00 L 60.63 27.33 L 63.75 26.67 L 65.63 25.33 L 66.88 23.33 L 68.13 26.00 L 70.00 25.33 L 69.38 24.00 L 68.13 23.33 L 66.25 23.33 L 65.63 22.00 L 64.38 22.00 L 61.25 23.33 L 57.50 26.00 Z M 103.75 100.00 L 103.75 100.00 L 103.75 100.00 Z M 105.94 100.00 L 106.25 99.33 L 106.88 100.00 Z M 101.25 96.00 L 102.50 97.33 L 103.00 100.00 L 102.50 100.00 L 100.63 98.00 Z M 98.13 88.67 L 100.63 93.33 L 100.00 95.33 L 97.50 90.67 Z M 96.25 82.67 L 97.50 84.00 L 96.88 87.33 L 96.25 86.00 L 95.63 85.33 Z M 86.25 44.00 L 87.50 45.33 L 88.13 46.67 L 88.13 48.00 L 88.75 51.33 L 87.50 50.00 L 86.88 48.67 L 86.88 47.33 L 85.63 45.33 Z M 82.50 38.67 L 84.38 40.67 L 83.13 41.33 L 81.88 40.00 Z M 81.88 34.00 L 83.13 33.33 L 85.00 35.33 L 83.75 36.00 Z M 53.13 32.67 L 53.75 34.00 L 52.50 35.33 L 51.88 34.00 Z M 63.75 30.00 L 63.75 32.67 L 61.88 32.67 L 62.50 31.33 Z M 60.63 25.33 L 61.88 24.67 L 62.50 24.00 L 64.38 24.67 L 63.13 25.33 L 62.50 26.00 Z M 86.88 22.00 L 86.25 24.00 L 86.88 25.33 L 88.75 27.33 L 89.38 27.33 L 90.63 28.67 L 89.38 29.33 L 88.13 28.67 L 85.63 26.67 L 86.25 28.00 L 86.88 28.00 L 89.38 30.00 L 93.13 34.67 L 93.13 33.33 L 91.88 31.33 L 90.63 30.00 L 91.88 29.33 L 95.00 32.67 L 96.25 32.67 L 98.13 31.33 L 98.13 29.33 L 96.88 26.67 L 94.38 24.00 L 91.25 22.00 L 88.75 21.33 Z M 89.38 24.00 L 90.63 22.67 L 93.75 24.67 L 96.25 27.33 L 96.88 28.67 L 95.63 29.33 L 94.38 28.67 L 91.88 26.67 Z M 68.13 21.33 L 69.38 22.67 L 70.63 23.33 L 76.88 25.33 L 78.13 25.33 L 77.50 24.00 L 76.25 23.33 L 77.50 22.67 L 78.13 22.00 L 80.00 22.00 L 81.25 21.33 L 81.25 19.33 L 80.00 18.67 L 71.25 18.67 L 68.75 20.00 Z M 71.25 20.00 L 76.25 20.67 L 72.50 21.33 Z M 423.13 20.00 L 421.25 18.67 L 418.13 18.67 L 413.13 20.67 L 411.88 19.33 L 413.75 19.33 L 415.63 18.00 L 418.13 17.33 L 416.88 17.33 L 416.25 18.00 L 414.38 18.00 L 410.00 19.33 L 408.75 20.67 L 406.88 20.67 L 406.25 22.00 L 405.00 21.33 L 403.13 23.33 L 405.00 22.00 L 406.88 24.00 L 408.13 24.00 L 411.25 22.00 L 414.38 22.67 L 413.13 23.33 L 412.50 24.00 L 411.25 24.00 L 410.00 24.67 L 407.50 26.67 L 406.88 25.33 L 405.00 24.00 L 403.75 25.33 L 403.13 25.33 L 401.88 26.67 L 402.50 27.33 L 401.25 28.67 L 400.00 32.67 L 400.63 34.00 L 402.50 35.33 L 406.88 34.67 L 409.38 34.00 L 410.00 33.33 L 411.25 32.67 L 408.75 32.00 L 406.88 32.67 L 404.38 31.33 L 407.50 28.00 L 410.00 26.00 L 415.00 23.33 L 416.88 22.67 L 421.88 22.67 L 420.00 24.67 L 418.75 24.67 L 417.50 26.67 L 417.50 28.67 L 416.25 30.00 L 417.50 30.00 L 421.25 27.33 L 423.13 25.33 L 423.75 24.00 L 423.75 21.33 Z M 402.50 26.67 L 403.75 25.33 L 405.63 26.00 L 404.38 27.33 Z M 420.00 21.33 L 417.50 21.33 L 415.63 22.00 L 413.75 22.00 L 415.00 20.67 L 418.13 19.33 Z M 433.13 19.33 L 433.75 22.00 L 435.63 22.67 L 440.63 23.33 L 448.13 23.33 L 450.00 23.05 L 450.00 16.40 L 448.13 16.00 L 439.38 16.00 L 436.88 16.67 L 434.38 18.00 Z M 435.63 19.33 L 436.88 18.00 L 440.63 16.67 L 447.50 16.67 L 450.00 17.43 L 450.00 22.67 L 450.00 22.67 L 447.50 22.67 L 440.00 22.00 L 438.75 20.67 L 438.13 22.00 Z M 373.13 16.00 L 371.25 16.00 L 370.00 16.67 L 368.75 18.00 L 369.38 20.00 L 371.25 19.33 L 370.00 18.00 L 371.88 16.67 L 373.75 18.00 Z M 376.25 10.67 L 375.00 10.67 L 370.00 13.33 L 369.38 14.67 L 368.13 14.67 L 363.75 17.33 L 363.13 18.67 L 367.50 16.67 L 370.63 14.00 L 373.75 12.67 L 374.38 11.33 Z M 384.38 10.00 L 383.13 10.00 L 382.50 10.67 L 380.63 10.67 L 380.00 11.33 L 379.38 12.67 L 381.25 11.33 L 382.50 11.33 L 383.13 10.67 Z M 440.00 10.00 L 443.13 9.33 L 450.00 9.94 L 450.00 9.00 L 448.75 8.67 L 441.88 8.67 L 441.25 9.33 Z M 446.88 5.33 L 448.13 6.00 L 450.00 5.71 L 450.00 4.89 L 448.75 5.33 L 448.13 4.67 Z M 350.63 2.00 L 347.50 3.33 L 346.25 4.67 L 343.13 6.67 L 345.00 5.33 L 346.25 5.33 L 347.50 4.00 L 348.75 4.00 L 350.00 3.33 Z M 430.63 3.33 L 425.63 3.33 L 423.13 4.67 L 420.00 4.00 L 415.63 4.67 L 413.75 5.33 L 409.38 8.00 L 407.50 8.00 L 403.13 9.33 L 403.75 8.00 L 406.25 6.67 L 409.38 6.00 L 411.25 4.67 L 415.00 3.33 L 417.50 3.33 L 420.00 2.00 L 423.75 0.67 L 418.75 1.33 L 416.88 2.00 L 415.63 3.33 L 413.13 4.00 L 410.63 4.00 L 400.63 7.33 L 398.75 8.67 L 397.50 8.67 L 396.25 9.33 L 395.63 10.67 L 394.38 11.33 L 390.00 12.00 L 385.00 14.67 L 386.88 14.67 L 390.00 13.33 L 392.50 14.00 L 393.75 15.33 L 398.13 18.67 L 401.25 18.00 L 402.50 19.33 L 398.75 20.00 L 394.38 21.33 L 393.75 24.67 L 391.25 28.00 L 391.25 28.67 L 389.38 28.00 L 390.00 26.67 L 392.50 23.33 L 393.13 21.33 L 393.13 18.00 L 391.88 16.67 L 386.88 16.67 L 384.38 18.00 L 383.13 16.00 L 381.25 16.67 L 380.63 17.33 L 378.13 18.00 L 376.88 18.67 L 374.38 22.00 L 375.63 22.67 L 373.75 23.33 L 373.13 25.33 L 371.25 26.67 L 370.00 29.33 L 370.00 30.67 L 368.75 33.33 L 370.63 36.67 L 374.38 37.33 L 376.88 36.67 L 381.88 34.67 L 384.38 32.67 L 386.25 32.00 L 388.13 30.00 L 389.38 31.33 L 391.88 30.67 L 392.50 32.00 L 394.38 34.00 L 396.88 34.00 L 396.88 28.67 L 398.13 27.33 L 398.75 27.33 L 400.00 25.33 L 395.00 26.67 L 396.88 24.67 L 400.00 23.33 L 401.88 21.33 L 405.00 19.33 L 407.50 18.67 L 404.38 17.33 L 409.38 17.33 L 411.88 16.00 L 414.38 16.00 L 418.13 14.00 L 422.50 8.67 L 426.88 6.67 L 428.13 5.33 L 428.75 3.33 Z M 371.25 30.00 L 371.88 32.00 L 371.25 32.67 L 370.63 34.00 L 370.00 32.00 L 370.63 31.33 Z M 373.75 27.33 L 373.75 28.67 L 371.88 30.67 L 371.25 28.00 Z M 386.25 27.33 L 387.50 26.00 L 389.38 26.67 L 388.13 28.00 Z M 388.13 22.00 L 386.88 24.67 L 385.63 25.33 L 385.00 24.00 L 383.75 24.67 L 383.75 26.67 L 380.00 29.33 L 376.25 33.33 L 375.00 34.00 L 373.13 33.33 L 373.13 30.67 L 375.63 27.33 L 380.63 22.67 L 384.38 20.67 Z M 391.25 20.00 L 391.88 22.00 L 391.25 23.33 L 390.00 24.67 L 389.38 22.00 Z M 379.38 20.00 L 378.13 21.33 L 375.00 22.00 L 376.88 20.00 Z M 405.00 16.67 L 400.63 17.33 L 398.75 15.33 L 400.63 13.33 L 403.13 13.33 Z M 417.50 12.67 L 413.13 15.33 L 411.25 14.67 L 411.25 13.33 L 409.38 13.33 L 408.75 14.00 L 406.88 14.67 L 405.00 14.67 L 405.63 12.67 L 406.88 12.00 L 411.88 10.67 L 416.88 11.33 Z M 402.50 10.00 L 402.50 12.00 L 401.25 12.00 L 398.13 14.00 L 396.25 13.33 L 397.50 12.67 L 398.75 10.67 L 396.88 10.00 L 399.38 9.33 L 400.63 8.00 L 401.88 10.00 L 400.63 10.67 Z M 423.13 7.33 L 420.63 10.00 L 420.00 8.67 L 418.75 8.67 L 418.13 9.33 L 415.63 10.00 L 411.25 10.00 L 408.13 10.67 L 407.50 11.33 L 405.63 10.67 L 408.13 8.67 L 413.13 6.00 L 415.63 5.33 L 419.38 7.33 Z M 428.13 4.67 L 424.38 7.33 L 423.75 6.00 L 425.63 4.00 Z M 347.50 0.00 L 346.25 0.00 L 344.38 1.33 L 341.25 4.67 L 345.63 2.00 Z M 343.13 0.00 L 337.50 3.33 L 337.50 1.33 L 338.75 0.00 L 336.88 0.00 L 335.63 1.33 L 334.38 0.67 L 333.13 1.33 L 319.38 15.33 L 315.63 20.67 L 313.75 24.67 L 306.25 34.67 L 305.63 38.00 L 307.50 36.67 L 310.63 30.00 L 313.13 27.33 L 313.75 25.33 L 319.38 17.33 L 324.38 14.00 L 316.88 23.33 L 308.13 38.67 L 309.38 38.67 L 310.63 40.67 L 306.88 47.33 L 305.00 53.33 L 302.50 58.00 L 301.25 63.33 L 300.00 64.67 L 300.00 60.67 L 305.00 49.33 L 305.00 47.33 L 306.88 42.67 L 305.63 43.33 L 301.25 56.00 L 299.38 59.33 L 297.50 59.33 L 300.63 52.67 L 300.63 50.67 L 303.75 45.33 L 303.75 43.33 L 305.63 39.33 L 303.13 42.00 L 300.63 50.00 L 295.00 61.33 L 295.63 63.33 L 296.88 61.33 L 297.50 63.33 L 296.88 66.00 L 293.13 70.67 L 291.88 74.00 L 283.75 80.67 L 285.00 78.00 L 290.00 74.00 L 294.38 66.00 L 294.38 64.67 L 290.63 70.00 L 290.00 68.67 L 295.00 58.67 L 294.38 57.33 L 291.88 63.33 L 290.63 64.67 L 290.00 63.33 L 298.75 41.33 L 299.38 43.33 L 295.63 54.00 L 297.50 51.33 L 297.50 49.33 L 299.38 46.00 L 301.25 38.67 L 305.00 34.00 L 305.00 32.00 L 306.25 29.33 L 308.13 28.00 L 310.63 22.00 L 311.88 20.67 L 311.88 24.00 L 318.75 13.33 L 326.88 4.67 L 333.13 0.00 L 331.25 0.00 L 329.38 1.33 L 320.00 11.33 L 319.38 10.00 L 326.88 1.33 L 325.63 1.33 L 316.25 11.33 L 311.25 19.33 L 307.50 21.33 L 318.75 5.33 L 323.75 0.00 L 322.50 0.00 L 318.13 4.67 L 317.50 3.33 L 320.63 0.00 L 319.38 0.00 L 310.63 10.00 L 303.13 22.00 L 301.88 26.00 L 298.13 32.67 L 292.50 50.67 L 290.63 53.33 L 290.63 55.33 L 289.38 56.67 L 287.50 62.67 L 283.13 70.00 L 276.88 77.33 L 267.50 83.33 L 265.63 83.33 L 261.25 85.33 L 252.50 85.33 L 248.75 84.67 L 245.00 82.67 L 245.63 84.00 L 248.75 85.33 L 247.50 86.67 L 242.50 86.00 L 246.25 88.67 L 256.25 92.00 L 265.63 91.33 L 269.38 92.00 L 266.25 93.33 L 254.38 93.33 L 248.13 90.67 L 246.25 90.67 L 250.00 92.67 L 252.50 95.33 L 253.75 94.67 L 251.88 94.00 L 255.63 93.33 L 260.63 94.67 L 268.13 94.00 L 274.38 92.00 L 288.13 84.67 L 279.38 91.33 L 267.50 96.00 L 260.63 96.00 L 260.00 98.67 L 261.25 99.33 L 273.13 98.67 L 276.25 97.33 L 278.13 95.33 L 278.75 96.67 L 281.25 96.67 L 289.38 92.67 L 295.63 87.33 L 294.38 87.33 L 290.00 91.33 L 280.00 96.00 L 280.00 94.00 L 290.63 88.67 L 298.75 80.00 L 300.63 79.33 L 301.25 81.33 L 302.50 80.67 L 303.13 79.33 L 301.25 78.00 L 307.50 69.33 L 313.13 58.00 L 313.13 56.67 L 311.88 57.33 L 311.25 60.00 L 309.38 62.67 L 308.75 61.33 L 316.88 42.00 L 319.38 38.67 L 320.00 40.00 L 313.13 54.67 L 314.38 54.67 L 320.63 40.67 L 327.50 29.33 L 330.00 26.67 L 330.63 28.00 L 327.50 32.00 L 325.63 36.67 L 319.38 46.67 L 316.25 54.00 L 318.13 52.67 L 321.25 44.67 L 323.75 42.00 L 326.88 36.67 L 328.75 31.33 L 332.50 26.67 L 332.50 25.33 L 331.25 24.67 L 334.38 20.67 L 333.13 20.67 L 330.63 24.00 L 330.00 22.00 L 331.88 18.67 L 327.50 22.67 L 326.25 25.33 L 321.88 30.00 L 321.25 28.67 L 328.13 20.00 L 330.00 17.33 L 330.00 16.00 L 325.63 20.00 L 325.00 18.67 L 331.88 10.00 L 335.00 8.67 L 335.00 6.67 Z M 264.38 90.00 L 265.63 89.33 L 266.25 88.67 L 270.00 89.33 L 267.50 90.67 Z M 278.75 88.00 L 277.50 89.33 L 275.00 90.67 L 271.25 92.00 L 268.75 91.33 L 271.25 90.00 L 274.38 89.33 L 276.25 88.00 Z M 251.25 86.67 L 255.00 86.00 L 256.25 86.67 L 256.25 88.67 L 254.38 88.67 L 253.13 87.33 Z M 246.88 87.33 L 248.75 86.67 L 248.75 85.33 L 250.00 85.33 L 251.25 86.67 L 251.25 87.33 L 251.88 88.00 L 253.13 88.67 L 260.00 88.67 L 264.38 90.00 L 263.13 91.33 L 254.38 90.67 L 252.50 90.00 L 250.63 88.67 L 248.75 88.67 L 248.13 88.00 Z M 263.75 86.00 L 268.13 83.33 L 270.63 84.00 L 268.13 86.00 L 274.38 84.67 L 273.13 86.00 L 270.00 87.33 L 266.25 87.33 L 266.88 86.00 L 265.63 86.67 Z M 281.88 83.33 L 280.00 85.33 L 271.88 89.33 L 269.38 88.67 L 270.63 88.00 L 271.25 87.33 L 280.00 82.67 Z M 287.50 82.00 L 285.63 84.00 L 284.38 84.67 L 283.75 83.33 L 285.00 82.00 Z M 293.13 81.33 L 291.88 82.67 L 291.25 82.67 L 290.00 84.00 L 288.75 82.67 L 291.25 80.67 Z M 290.00 78.00 L 290.63 79.33 L 289.38 80.67 L 289.38 81.33 L 286.88 81.33 Z M 285.63 76.67 L 284.38 77.33 L 284.38 78.67 L 281.88 80.67 L 278.75 82.00 L 276.88 81.33 L 280.00 78.67 L 281.25 78.67 Z M 293.13 74.00 L 293.75 75.33 L 291.88 78.00 L 290.00 77.33 Z M 283.13 75.33 L 280.63 78.00 L 279.38 78.00 L 274.38 82.67 L 271.88 84.00 L 270.00 83.33 L 272.50 82.00 L 276.88 78.67 L 281.25 74.00 Z M 282.50 72.00 L 283.13 73.33 L 281.88 74.67 L 281.25 73.33 Z M 295.63 70.00 L 296.25 71.33 L 294.38 73.33 L 293.75 72.00 Z M 290.00 69.33 L 290.63 70.67 L 289.38 72.00 L 288.75 74.00 L 288.13 74.67 L 285.63 74.67 L 288.13 72.00 L 288.13 71.33 Z M 296.88 68.00 L 297.50 69.33 L 296.25 70.67 L 295.63 69.33 Z M 303.13 67.33 L 303.75 68.67 L 301.88 72.00 L 299.38 74.67 L 298.75 73.33 L 300.00 72.00 L 301.25 68.67 L 301.88 68.00 Z M 289.38 66.67 L 290.00 68.00 L 289.38 69.33 L 288.13 70.67 L 288.13 71.33 L 286.25 71.33 L 288.13 68.00 Z M 300.63 66.00 L 301.25 68.00 L 298.13 72.00 L 296.88 74.00 L 295.00 74.67 L 299.38 67.33 Z M 308.75 62.00 L 309.38 64.00 L 307.50 66.67 L 305.63 70.67 L 304.38 72.67 L 301.88 76.00 L 295.63 82.67 L 290.63 87.33 L 288.75 88.67 L 287.50 88.67 L 281.25 93.33 L 280.00 94.00 L 277.50 94.67 L 275.00 96.67 L 273.75 97.33 L 267.50 98.67 L 261.25 96.67 L 269.38 96.67 L 271.88 96.00 L 285.63 88.67 L 290.00 84.00 L 291.88 84.00 L 295.63 80.67 L 300.00 76.00 L 302.50 72.67 L 305.00 68.67 L 307.50 63.33 Z M 306.88 60.67 L 307.50 62.67 L 305.63 64.67 L 305.00 66.67 L 303.75 68.00 L 303.13 66.67 L 304.38 64.67 L 305.00 62.67 Z M 290.00 59.33 L 290.63 61.33 L 290.00 62.67 L 288.75 64.00 L 288.13 65.33 L 287.50 68.00 L 286.25 70.00 L 282.50 72.00 L 284.38 70.00 L 286.25 67.33 L 286.88 64.67 Z M 305.63 56.00 L 305.63 59.33 L 303.13 64.67 L 301.88 66.00 L 301.25 64.67 L 301.88 63.33 L 302.50 62.67 L 303.13 60.00 L 304.38 58.67 L 304.38 57.33 Z M 309.38 46.00 L 310.00 48.00 L 309.38 48.67 L 309.38 50.67 L 308.13 54.00 L 306.25 56.00 L 305.63 54.00 L 306.88 50.00 L 308.13 47.33 Z M 310.63 44.00 L 311.25 45.33 L 310.00 46.67 L 309.38 45.33 Z M 314.38 43.33 L 315.00 44.67 L 311.88 52.00 L 310.63 53.33 L 310.00 52.00 L 311.25 50.00 L 311.25 48.67 L 313.13 44.67 Z M 313.13 38.67 L 313.75 40.67 L 313.13 42.00 L 311.25 44.67 L 310.63 42.67 L 311.88 40.00 Z M 297.50 38.67 L 298.13 41.33 L 297.50 44.00 L 295.00 50.00 L 293.75 51.33 L 293.75 49.33 L 294.38 46.00 L 296.25 40.67 L 296.88 40.00 Z M 317.50 36.00 L 318.13 38.00 L 316.88 40.67 L 315.63 42.00 L 315.00 40.67 L 316.25 38.67 L 316.25 37.33 Z M 321.25 29.33 L 321.88 30.67 L 320.00 33.33 L 319.38 31.33 Z M 306.25 26.67 L 306.88 28.00 L 306.25 29.33 L 303.75 32.67 L 301.88 36.00 L 301.88 38.00 L 299.38 42.00 L 298.75 40.00 L 300.00 36.67 L 303.13 30.67 L 304.38 28.67 Z M 320.63 26.00 L 321.25 27.33 L 320.00 28.67 L 319.38 27.33 Z M 323.13 22.00 L 323.75 23.33 L 322.50 24.67 L 321.88 23.33 Z M 306.25 20.67 L 306.25 24.00 L 305.63 25.33 L 304.38 26.67 L 303.75 29.33 L 301.25 32.67 L 299.38 38.00 L 298.13 39.33 L 297.50 37.33 L 298.13 35.33 L 301.88 27.33 L 304.38 22.67 Z M 325.00 19.33 L 325.63 20.67 L 324.38 22.00 L 323.75 20.67 Z M 317.50 12.00 L 318.13 13.33 L 316.25 15.33 L 315.63 14.00 Z M 317.50 4.00 L 318.13 5.33 L 315.00 8.67 L 312.50 13.33 L 310.00 16.00 L 308.75 18.67 L 306.88 20.67 L 306.25 19.33 L 310.00 12.67 L 312.50 9.33 Z" fill="#A88F5D" fill-rule="evenodd"/>
</svg>
