<svg xmlns="http://www.w3.org/2000/svg" width="450" height="100" fill="none" viewBox="0 0 450 100"><path fill="#0b0907" fill-opacity=".68" fill-rule="evenodd" d="M450 100v-9.44L435 88l-21.25 2-21.87 9.33-.92.67Zm0-100H316.88l-15.63 22.67L290 53.33l-7.5 15.34-9.37 10L260 84l-13.12-1.33L240 78l-5.62-6-16.88-29.33-10.62-9.34-13.75-6h-16.88l-10 6-3.75-.66-5 2.66-3.12 3.34L152.5 46l-4.37 3.33-3.13 6-.62 6.67 1.87 2.67-3.75 6v8.66l-3.75 3.34-1.25 4h-3.75L129.38 90l-5.63-4.67h-4.37l-1.88-8.66-5.62-4L115 68v-4l-3.12-8.67-4.38-2.66 2.5-5.34-2.5-8.66-3.12-4-5-1.34-.63-6-6.87-6h-7.5l-4.38-4h-8.12L58.13 24l-9.38 11.33-2.5 13.34L47.5 54l3.75 5.33V52l1.88-6 5-6 8.12-3.33h5l7.5 3.33L85 47.33l3.13 8 5 28 5 14 2.23 2.67h56.09l3.55-4 5-13.33L166.88 72l5.62-10.67 6.25-4.66 8.75-.67 1.88 2.67 7.5 3.33 2.5 14 5 5.33-1.25 2 1.25 8L207.5 98l3 2H350l3.13-3.33L357.5 88v-5.33L355.63 80l1.25-1.33h4.37l7.5-7.34 5-9.33-.62-6.67 1.25-1.33 5.62.67 7.5-4.67 6.25-6 3.13-8 8.75.67 6.25-2 10-6 3.12-3.34v-2.66l3.75-2 8.13 4 13.12-.85Z"/><path fill="#a88f5d" fill-rule="evenodd" d="M273.75 100h5zm-19.37-2 .62 1.33 2.5-.66-1.25-.67Zm-103.13 0h-1.87l-1.25 1.33 1.25.67h1.04l.83-.67Zm-31.87 1.33 1.87-.66 3.13 1.33-2.5-2 1.25-.67L120 98ZM245.63 96h1.87l1.88 1.33 1.87.67h1.88l-1.25-.67-.63-.66H250l-1.87-1.34Zm67.5-1.33-4.38 4L307 100h4.25l-.62-1.33 1.87-2Zm-20 0h-1.25l-3.13 2-5.62.66-2.5 2h1.87L285 98h2.5l1.88-.67ZM158.75 94 155 99.33l-.56.67h-.06l1.25-.67 1.87-2.66ZM420 93.33h-1.87l-2.5.67-2.5 1.33h-1.88l-.62.67h-1.88 3.75l5-1.33Zm-176.25-2-.62.67 1.25 2h1.25l-.63-1.33h-.62Zm-127.5 0v1.34l1.88 1.33v-1.33ZM450 92.83l-1.25-.16-2.5-1.34-10.62-2h-8.75l-11.88 2-9.37 2.67-11.72 6h4.42l1.67-.67-.62.67h11.87l.63-.67h3.75l-1.25-.66 1.87-2-6.87 2-5.63.66-1.25.67h-1.56l-.31-.67-1.25-.66 6.25-3.34 13.75-4 5-.66h13.75L440 92h4.38l1.87 1.33h2.5l1.25.38ZM405.63 100l1.25-.67.62.67ZM130 92v1.33l1.88 2h1.87l4.38-.66V96l2.5-2-.63-2-1.25-1.33h-1.25l-.62-1.34-3.75-.66-1.88 1.33v1.33Zm1.88-.67 1.25-1.33 2.5.67-1.88.66Zm-13.75-4L120 86l-1.87 3.33.62 2 1.25 1.34 1.88 1.33 3.12.67 1.25-.67 1.88-2.67-1.25-2.66-1.88-1.34-3.12-.66L120 88Zm3.12 1.34 2.5-.67 1.25.67 1.25 1.33-3.12.67Zm235-5.34-1.87-2-2.5-1.33H350l-1.87.67-2.5 1.33-1.88 1.33-1.25 1.34-4.37 6-1.25 2.66v1.34l-.63.66-.62 1.34L335 94l1.25-2v-1.33l.63-1.34L335 90v2l-3.12 6-1.25 1.33L330 98l1.25-2 1.25-4.67v-2l-.62-1.33-1.25-1.33-3.13-.67-3.75.67-3.12 2-.63.66-.62 1.34-.63-1.34h-1.25l-1.25 1.34-3.12 7.33-.63 2h22.13l-.25-1.33 1.25-.67.62-1.33.63 2.66 1.87-.66.63-1.34.41 2.67h8.96l.63-.67 4.37-6.66L355 90l1.25-4ZM329.38 94l.62 1.33-1.25 1.34-.62-1.34Zm-12.5 0 .62 1.33-1.25 2-.62 2h-1.88l1.88-4Zm6.87-3.33.63 2 .62.66v1.34l-.62 1.33-2.5 3.33h-.63l-.62.67h-3.13l-.62-2 .62-1.33 1.25-1.34v-.66l3.13-2.67h.62Zm3.75-1.34 1.88 2.67-.63 1.33-1.25 1.34-.62 2L325 96l1.25-1.33v-1.34L325 90.67Zm16.25-2v1.34L342.5 90l.63 1.33-1.88.67v1.33l.63 1.34-1.25 1.33-2.5-1.33v-1.34l1.25-2.66 2.5-3.34Zm10-2.66L355 86v1.33l-1.25 1.34-1.25-1.34-.62 1.34v2.66l-.63 1.34-3.12 4-3.75 3.33-1.25-1.33v-2l1.87-4 2.5-4 1.88-2 3.12-2Zm-8.75.66v1.34l1.88 2-2.5 2.66-.63-2 .63-1.33-1.25-1.33Zm4.38-2 .62 1.34-3.12 1.33Zm-41.25-4h-1.25l-.63 1.34h-.62V82l.62-1.33 2.5.66-1.25 1.34h-.62L305.63 84v.67L302.5 86l.63-1.33h-1.25L300.63 86v.67l-.63.66h-.62l-1.25 1.34h-.63l-.62 1.33h1.25l4.37-4 .63 1.33 3.75-2.66 1.87-3.34Zm-143.75-4.66-1.25 2.66-.63 3.34.63 1.33v-2l1.25-2Zm-53.75 0v2l-.63.66V82l.63 2 2.5 1.33V86l1.25 1.33h1.87V86l1.88-2v-2.67l-.63-2-.62-1.33-1.88-2h-2.5Zm2.5 9.33 1.25-.67 1.87 2L115 86Zm1.25-7.33 1.87 2 .63 1.33v1.33l-.63 2-1.25-.66-1.25-1.34-.62-1.33v-2Zm214.37-4h-1.25l-1.87 2V76Zm-225 0-.62 1.33 1.87.67.63 1.33.62-2-1.25.67ZM350 72l-2.5 5.33v1.34l-.62 1.33 1.25-1.33H350l.63-.67h1.25l-.63-2h-.62v-2Zm-40.62-2-3.75 4.67L305 76v1.33l1.88-2v-.66l1.87-2Zm-80.63 0 .63 2h.62l.63 2.67-1.25.66v1.34l1.87 1.33-1.25-2 1.88-.67.62 1.34.63-.67-1.25-.67-1.88-4.66Zm122.5-2-1.25.67v2l1.25-.67Zm-21.87-3.33-2.5 2.66-1.88 3.34V72l-1.25 1.33 1.25-.66V72l1.25-1.33.63-2 1.87-2Zm-106.88-2 1.25 2 .63 3.33.62 1.33 1.25 1.34v-1.34L225 68v-2l-.62-2Zm92.5-3.34-1.25.67-.62 1.33-.63 3.34-1.87 3.33v1.33L312.5 68l1.88-.67 1.25-1.33.62-1.33-4.37 1.33 1.87-2 .63-3.33ZM330 56l-1.87.67-.63 2V60l1.25-.67v-2Zm-224.37 0-.63 1.33v1.34L103.75 60v4l1.25 3.33 1.25.67.63-2 .62 1.33v2l1.25 1.34v-2l.63-2 1.87 3.33h1.25l1.25-3.33V64l-.62-2.67-1.25-3.33-2.5-2.67h-1.25v2l-.63.67-.62 1.33-.63-2 .63-1.33Zm4.37 1.33 1.25 1.34 1.25 4.66-1.25 4L110 66l-.62-1.33-.63-2.67Zm260-2.66-1.87-.67h-1.25l-3.13 1.33-2.5 2-5.62 5.34L355 64v4.67-2l.63-1.34h1.87l.63 6h-1.25l-.63 1.34.63 2L355 74v4l1.25-3.33 3.75 2.66 1.25-1.33 1.88-.67 4.37-4.66 2.5-4 2.5-5.34v-4Zm-7.5 6.66.63 1.34-2.5 3.33-1.88-.67Zm-2.5 1.34-1.87 2-.63-2Zm7.5-2.67.63 4-.63 1.33-1.25 1.34h-1.87V68l1.25 1.33-1.25.67h-1.88l-.62 3.33-1.25-.66-.63-3.34 1.25-2.66 2.5-4 1.25-1.34Zm2.5-1.33 1.25 2L370 64l-.62-2.67-1.25-1.33Zm.63-2L369.38 58l-1.88.67-1.25 1.33h-2.5l2.5-2.67ZM168.13 54l-1.25.67-2.5 3.33-.63-1.33.63-2h-1.88V58l-1.25 2.67V62l1.25.67V64l-1.25 2-.62 4h-1.25l1.25 2-1.25 4-1.25-2.67-.63 1.34-.62 3.33v1.33l1.25.67v1.33l-1.88 2-.62-2.66-.63 2 1.25.66-4.37 5.34-1.25 2-1.88 4L145 98l-.62 1.33h1.25l2.5-2.66 5-8.67 1.87-2 .63 1.33-1.25 1.34-.63 1.33 1.25-2 1.88-2 3.12-7.33.63-2.67v-4l1.87-4v-3.33l.63-2.67 1.87-2 .63-2 1.87-2Zm1.87 5.33 1.25.67v1.33l5.63-5.33-.63-1.33-4.37 4.66-.63-2.66 1.88-3.34-2.5 2-.63 1.34Zm43.13-8 .62 1.34 2.5 2.66L217.5 54l1.25 1.33 1.25 3.34 1.88 1.33v-1.33h1.25l-1.25-1.34-.63 1.34-1.87-3.34 1.25-.66 1.25 1.33-.63-3.33L222.5 54l1.88 2.67 3.75 7.33.62 2.67 1.88 2 2.5 5.33 1.87.67 3.75 4.66h-1.87l-.63 1.34-1.25-1.34v2l-1.87-2 .62 1.34v.66l2.5 2.67v-2l3.75 4v.67l1.25.66L240 86l-1.87-3.33 1.25-.67.62-2 1.88 2 1.87.67-.62-1.34h-.63l-5.62-4.66-2.5-2.67-3.75-5.33L230 66l-4.37-8.67-3.13-4.66-1.87.66-1.88-2V54l-1.25-.67-1.25 1.34-.62-2Zm-25.63 0v1.34l.63 2 .62 1.33 1.25 1.33 1.25.67h1.25l1.25 1.33h3.13v-2l-.63-2-1.87-2L192.5 52Zm1.25 2.67 2.5-.67 1.25.67 1.88 2.67-1.88.66L190 56l-.62-.67Zm-88.12-2.67L100 52h-1.25l1.25 3.33Zm221.25-2-1.25.67-.63 1.33v2l-.62 2-1.25 2 1.25-.66.62-3.34.63-1.33 1.25-1.33Zm25.62-.66-1.25.66-1.25 1.34h-.62L343.13 52l-1.88 4-3.75 4.67.63 3.33v-.67l2.5-1.33h1.87l3.75-2.67 1.25 3.34-1.25.66h-1.87l-1.88.67-1.87 2-1.25-.67-3.13 2-1.87 2.67v1.33l-1.25 1.34-1.25 4-.63-1.34h-1.87l1.87-2 2.5-4.66h-1.25L331.25 70v1.33l-1.87 3.34L325 80l-.62 2-2.5 2.67-.63 2 1.88-1.34 2.5-.66 1.87-2 .63 1.33 1.25.67v-4l.62-2 .63-.67.62-1.33.63 3.33-.63.67v2.66l1.88 2H335l3.13-.66 3.12-1.34 1.88-1.33 4.37-7.33 1.25-4V66l-.62-2v-2l1.87 2v1.33l1.25 1.34 1.88-4 1.25-1.34-1.25-.66-1.88 2-.62-2-1.88.66-.62-2-1.25-1.33-.63-1.33V54l.63-.67-.63-2.66ZM334.38 78l.62 4-.62 1.33-1.25.67-1.25-2 .62-1.33Zm-5.63-.67V80h-2.5Zm9.38-8.66L337.5 70l-1.25 1.33-.62-2ZM345 68l.63 1.33-1.25 1.34v.66l-1.88 2-.62 2-.63.67h-.62l-1.25 1.33h-1.88l-1.25-.66-.62-2L337.5 72l3.13-3.33 1.25-.67Zm1.25-1.33L347.5 68v2l-.62 2-.63.67-.62 1.33-.63-2Zm-4.37-10V60l-1.25.67-.63-1.34.63-1.33Zm-138.13-9.34v1.34l1.88 3.33 1.25-.67V50Zm-13.12 0L189.38 50h1.25l.62.67h2.5l2.5 1.33v.67L197.5 54l1.25 2.67v2h2.5L199.38 56v-2.67l3.12 1.34-.62-1.34h-1.25l-2.5-2.66h1.25l-1.25-2-3.13-1.34Zm-18.13 0-1.87 2h-1.88l-.62-1.33-1.25 1.33.62 1.34-1.25.66v1.34l1.25-.67 2.5-2.67 1.88.67.62-1.33Zm2.5 0L173.75 50l1.88 2.67 1.25.66h1.25l1.25 2 4.37-.66.63-.67 1.25-.67-3.75.67v-2h1.87l.63-.67 1.25-.66-1.25-1.34 1.25-4-1.25-.66-5 .66Zm1.88 2.67 1.87-.67 5 .67-1.25 1.33-5 1.34Zm1.25-2 1.25-.67.62-.66 3.13.66-2.5.67-.63.67Zm148.75-7.33-1.25.66-1.88 4H325l.63-2.66Zm-120-.67 2.5 2 1.87.67L210 42h-.62l-.63-2-1.25-.67ZM180 43.33l2.5-1.33 1.88-.67 1.25 2h1.25l.62 1.34 1.25.66h1.88L189.38 44l-1.25-.67 1.87-.66.63.66h1.87l1.25.67-1.87-2v-.67l-1.25-.66h-3.13l.63-1.34-1.25-1.33-1.25.67 1.87.66-1.25 1.34.63.66-1.25.67-.63-1.33h-1.25l-.62.66h-1.88Zm188.13-4.66-1.88-2L365 36l-2.5.67-1.25 1.33-3.12.67-1.25 1.33h-3.75l1.25-2-3.75 3.33-2.5 3.34-.63 1.33 1.88-.67.62 2-.62.67-1.25 5.33v2l.62 1.34 2.5 1.33h4.38l2.5-1.33 2.5-2L365 50l1.25-2 1.88-4.67Zm-16.25 16 1.87-1.34.63 2.67Zm6.87-1.34-1.25.67h-1.87l1.87-2Zm-6.87-6 .62 2-.62 4-1.88 2-.62-2.66.62-2Zm10.62-2 .63 1.34-.63 1.33-2.5.67.63-1.34ZM353.13 44l1.25 1.33v1.34l-2.5.66v-2Zm-2.5-.67.62 1.34L350 46l-.62-1.33Zm13.12-2v2l-4.37 4-1.25 3.34-1.88 2-1.25.66-1.25-.66-.62-2 .62-2 1.25-2 4.38-4.67 1.87-1.33Zm-8.12-.66.62 1.33-1.87 2-.63-1.33ZM365 38l1.88 2v2L365 46.67v-5.34L363.13 40ZM98.75 36.67v2.66l-1.25 1.34 1.25 4 1.25 2.66 1.25 1.34 1.25-1.34 1.25 1.34v.66L105 50l-.62-2h1.87l.63 1.33 1.25-.66v-5.34l-2.5-5.33-1.25-1.33-1.88-1.34Zm4.38 8 1.25 1.33.62 1.33-1.25 1.34-.62-2Zm0-7.34 2.5 2.67 1.25 3.33-.63 3.34-2.5-2.67-1.87-4Zm291.87 0-1.87-2-1.25.67-.63-1.33h-5.62L380 38l-2.5 2-1.87 2.67h-1.88l.63-1.34 1.87-2-1.25-.66-3.12 3.33-.63-1.33 1.25-2h-1.87L369.38 42v2.67l-.63 2.66-1.87 2-1.25 2.67h3.75l2.5 2 1.25-1.33-1.88-1.34V50H370l-1.87 1.33v-2l3.12-1.33 3.13-3.33 1.25.66-1.88 1.34v4.66l.63-2v-2l.62-.66 1.88-.67h1.87l-.62 1.33-1.25 1.34 1.25 4 .62-1.34 1.88 1.34 1.87-1.34 1.88-.66 4.37-4 5-5.34.63-1.33v-1.33Zm-5.62 6 .62 1.34-4.37 2.66.62-1.33 1.25-1.33h.63Zm-3.75 1.34v2H385l-3.12 2.66h-2.5V48l.62-1.33 2.5-3.34h1.88Zm-4.38-1.34-2.5 2.67-.62-1.33ZM391.88 40l-.63 1.33-2.5 2.67-1.87 1.33-1.25-2-1.88-.66 1.25-1.34 1.88-1.33 3.12-1.33Zm-8.75-1.33L380 41.33l-1.25 1.34v.66l-2.5.67.63-2.67h1.25l1.87-2Zm5-2 1.25-1.34 2.5.67-1.88.67Zm-.63-.67-1.87 2h-3.13l1.88-2 1.25-.67Zm-205.62.67V38l1.87-1.33h4.38l10 3.33 2.5 2.67-.63.66 2.5 2.67-2.5-2.67 1.25-.66 6.88 6.66.62 2 1.88 2 2.5 4.67-1.25.67-5-4H205L202.5 58l1.88 3.33 1.25 6 1.25 2-.63 2-2.5-4v-2l-2.5-2.66v-2L198.13 62l3.12.67-1.25 2-1.87-.67v4.67l2.5 6 3.12 3.33 1.25-4.67.63 2.67h1.25l.62-4 1.25 2.67.63 4.66-1.25.67-.63-1.33h-1.25l-1.87 2 3.12-.67 1.25 1.33-.62 2-1.25-1.33-1.88.67v6l3.13 8 2.5 2.66 1.87-2.66v-2l1.88 2.66V100h17.18l-4.68-3.33-2.5-.67 1.25-.67.62-2 1.88 2V94L225 88.67l-1.25-.67-1.25 8.67 1.88-.67.62 1.33-1.25 2 .05.67h-2.18l.26-.67-1.88-.66-2.5-2.67v-2.67l1.88 2h1.25l.62-2v-4h1.25l.63-6-3.13-4.66-.62-4.67-1.88-3.33V68l-1.87-5.33-1.88-3.34v-2H215V56l-1.25-1.33-.62 1.33-1.25-1.33-1.88-3.34V48l-.62 1.33-1.25-1.33.62-2.67H210l3.13 3.34 1.25-.67-3.75-2-3.13-4-3.75-2.67V38L200 36l-2.5.67L195 36l-1.87-1.33-1.25.66L195 36l1.88 1.33L195 38l-.62-.67h-2.5L190 36h-6.25l-.62.67ZM225 99.33l1.25-1.33 2.5 1.33-.21.67h-1.66Zm-7.08.67-.42-.67 1.88-.66v.66l.62.67Zm-1.04-14 2.5 2.67-.63 3.33-2.5-4.67Zm-9.38-1.33v.66l1.25 1.34v2l1.25 2 .63 2L210 96l-1.87-2-1.25-2.67v-2.66L205.63 86Zm10-3.34 1.25 1.34 1.25 2-.62 2-.63-1.34-1.87-1.33ZM210 74l1.25 1.33V76l1.25 1.33h1.25l2.5-2L217.5 78l3.13 2.67v2.66L219.38 82v-.67L218.13 80h-1.88l-.62 1.33L215 86l-.62-1.33.62 2-.62 4 1.25 2-1.25 4.66-.63-2.66V92l-1.25-4-1.87-3.33.62-2 1.25 2 .63-1.34.62-.66v-1.34l.63-2.66-1.25.66-.63 2-.62-2.66-2.5-2Zm2.5-5.33 1.25 4.66-1.25-.66v2.66L211.25 74l-.62-1.33v-1.34Zm-4.37-.67 1.87 2-.62 2-1.25-1.33-.63-1.34ZM200 66l1.25 1.33 1.88 4-.63 4-1.87-2v-2l-1.25-2V68Zm12.5 0 1.25-.67L215 66l1.25 1.33-.62 2-1.25-2-.63.67Zm.63-6 .62 2v2l-1.25-1.33Zm-7.5-4.67 1.25.67 3.12 3.33v1.34l1.88 4.66-2.5-1.33v1.33l-1.25 1.34-.63 2-.62-3.34 1.25-2-.63-2 1.25-.66-.62-1.34L205 58v2.67l-.62-1.34-.63-.66v-1.34ZM200 38l1.25-.67 1.25.67 5.63 6.67-3.13.66-3.12-3.33h1.87Zm-3.75 0 1.88-.67 1.25.67 1.25 1.33-1.25.67Zm5.63-5.33.62 1.33h1.25l2.5 1.33 1.88 1.34 2.5 2.66 1.87.67 3.13 3.33 1.25 4-3.13-2 3.13 2.67.62-1.33 1.88 2v.66l1.87 1.34L220 48l-2.5-3.33-5-4.67v-.67l-.62-.66-6.25-4.67h-1.25l-1.25-1.33Zm-10-3.34 2.5 1.34 3.75 1.33H200l-3.12-2-3.75-1.33Zm-3.75-.66-1.25-.67-11.88.67-1.25 1.33-2.5.67-3.12 2-1.25 1.33v1.33l-2.5 2.67-1.88-.67 1.88-2V34h-1.25l-.63.67h-1.87l-1.25.66-2.5 2L155 40l-1.25 5.33 1.88.67-3.13 1.33V46l-1.25 1.33 1.88 2v2l-2.5 2 .62-4H150l-1.25 1.34-1.25 2-1.87 5.33v3.33l1.25 1.34 1.87-2 .63 2-1.25 5.33-1.88-1.33-1.87 2-.63 1.33v3.33l-.62.67v2.67l1.87 2.66 1.25-1.33.63 1.33-1.25 4-1.88-2h-1.25l-1.25.67-1.87 2-.63 2.67h-1.25l1.25 2.66H140l1.88 2 1.87-2H145l2.5-3.33 2.5-1.33-1.87-.67 1.25-1.33h1.87v-1.34h-1.87L148.13 80l2.5-.67 1.25-.66 1.25-2.67-1.88-2 1.25-3.33h1.88l1.25-8.67-.63-1.33 1.88-2.67.62-2v-2l1.25-2 .63-2v-4l2.5-2.67 1.25 1.34V46l-1.25 2 1.87-1.33L165 44l6.25-4.67-.62 1.34 1.87-1.34 3.75-.66v-1.34L177.5 36l2.5-1.33-2.5-.67 2.5-1.33 1.25.66.63 2 2.5-2-1.25-.66L185 32l.63 1.33 2.5-1.33H190l-.62-2Zm-43.75 56.66V88h-1.88l.63-1.33Zm-.63-1.33-1.87.67.62 1.33-1.25 1.33L140 86v-1.33l1.25-1.34Zm1.88-16 .62 6.67-1.25 2.66-.62-6Zm3.12-.67 1.88.67 1.25 2.67L150 72l-2.5-1.33v-2Zm4.38-6V64l-1.25.67-.63 2.66-.62-2-.63-.66.63-2h1.25Zm-1.88-6 .63 1.34-1.25 2V60l-1.25 1.33V58l.62-1.33ZM149.38 52l.62 2-.62.67v2l-.63 1.33-1.25 1.33-.62-2.66 1.25-3.34Zm5-1.33.62 2 1.88.66-1.25 1.34-1.88.66-.62 2.67-.63-4.67.63-1.33Zm13.12-12h-1.25l-5 3.33 3.75-4.67h1.25Zm-5.62-2-3.75 4h-.63l-1.87 2-.63-1.34 1.25-1.33v-.67L160 36Zm15-.67-1.25.67-.63.66h-1.25l-2.5 2-.62-1.33-2.5-.67 2.5-1.33 1.87-.67Zm0-2.67-3.75 1.34-2.5-.67-2.5.67 1.87-2h1.25l1.25-.67 2.5-.67-.62 1.34Zm4.37-2.66 1.25-1.34h4.38l1.25 1.34ZM177.5 30h3.75L180 31.33h-1.25Zm193.13-5.33h-1.25l-5 3.33-6.25 6-1.25 3.33 1.25-.66 2.5-3.34v2h1.25l.62-.66 3.13-.67 1.25 1.33-.63-1.33 1.25-3.33 1.88-4Zm-10 0h-1.25V26l1.25 2-3.13 1.33h1.25l.63-.66h1.87l1.25-1.34ZM52.5 31.33l-3.12 6L47.5 44v6l1.25 4.67L50 56v-2l-1.25-2.67-.62-3.33L50 46l.63-2v-2.67l.62-1.33L55 35.33l1.88-.66 1.87-2 .63 1.33-2.5 2-1.25 2-1.25.67L55.63 40v.67l-3.13 2.66L51.25 46l-.62 4.67.62-1.34v-2l2.5-4.66 3.75-3.34v-.66L63.13 36l4.37-.67.63-.66h1.25l2.5 1.33h1.87l1.88.67 2.5 1.33 4.37 3.33 4.38 7.34V50l1.87 2.67.63-1.34 1.25 1.34.62 1.33 1.25 5.33-.62 4-1.25-2v-2.66L90 56l-1.25-1.33.63 3.33 1.25 1.33v3.34l1.25 2v2h1.87V70H92.5l1.25 2.67v2.66l.63-2.66L95.63 78 95 80.67l-1.25-3.34v2L95 82l-.62 2 1.87 5.33 2.5 6 2.5 4.67h10.63l-.63-.67.5.67h-3.62l1.25-.67V98l-5-6.67-2.5-6v-2l-1.25-2L98.75 72l-.62-7.33L95.63 54l-1.25-2-1.25-6L90 40l-5-6.67-3.75-2.66-3.75-2-1.87-.67-4.38-.67H65l-3.75 1.34L59.38 30l-1.88 2-.62-1.33-3.13 2.66-.62-1.33 1.25-1.33V30l.62-.67 5-2.66-.62 1.33 1.25-.67 3.12-.66 1.88-1.34 1.25-2L68.13 26l1.87-.67-.62-1.33-1.25-.67h-1.88L65.63 22h-1.25l-3.13 1.33L57.5 26ZM105.94 100l.31-.67.63.67Zm-4.69-4 1.25 1.33.5 2.67h-.5l-1.87-2Zm-3.12-7.33 2.5 4.66-.63 2-2.5-4.66Zm-1.88-6L97.5 84l-.62 3.33-.63-1.33-.62-.67ZM86.25 44l1.25 1.33.63 1.34V48l.62 3.33L87.5 50l-.62-1.33v-1.34l-1.25-2Zm-3.75-5.33 1.88 2-1.25.66L81.88 40ZM81.88 34l1.25-.67 1.87 2-1.25.67Zm-28.75-1.33.62 1.33-1.25 1.33-.62-1.33ZM63.75 30v2.67h-1.87l.62-1.34Zm-3.12-4.67 1.25-.66.62-.67 1.88.67-1.25.66-.63.67ZM86.88 22l-.63 2 .63 1.33 1.87 2h.63l1.25 1.34-1.25.66-1.25-.66-2.5-2 .62 1.33h.63l2.5 2 3.75 4.67v-1.34l-1.25-2L90.63 30l1.25-.67L95 32.67h1.25l1.88-1.34v-2l-1.25-2.66-2.5-2.67-3.13-2-2.5-.67Zm2.5 2 1.25-1.33 3.12 2 2.5 2.66.63 1.34-1.25.66-1.25-.66-2.5-2Zm-21.25-2.67 1.25 1.34 1.25.66 6.25 2h1.25L77.5 24l-1.25-.67 1.25-.66.63-.67H80l1.25-.67v-2L80 18.67h-8.75L68.75 20ZM71.25 20l5 .67-3.75.66Zm351.88 0-1.88-1.33h-3.12l-5 2-1.25-1.34h1.87l1.88-1.33 2.5-.67h-1.25l-.63.67h-1.87L410 19.33l-1.25 1.34h-1.87l-.63 1.33-1.25-.67-1.87 2L405 22l1.88 2h1.25l3.12-2 3.13.67-1.25.66-.63.67h-1.25l-1.25.67-2.5 2-.62-1.34L405 24l-1.25 1.33h-.62l-1.25 1.34.62.66-1.25 1.34-1.25 4 .63 1.33 1.87 1.33 4.38-.66 2.5-.67.62-.67 1.25-.66-2.5-.67-1.87.67-2.5-1.34L407.5 28l2.5-2 5-2.67 1.88-.66h5l-1.88 2h-1.25l-1.25 2v2L416.25 30h1.25l3.75-2.67 1.88-2 .62-1.33v-2.67Zm-20.63 6.67 1.25-1.34 1.88.67-1.25 1.33Zm17.5-5.34h-2.5l-1.87.67h-1.88l1.25-1.33 3.13-1.34Zm13.13-2 .62 2.67 1.88.67 5 .66h7.5l1.87-.28V16.4l-1.87-.4h-8.75l-2.5.67-2.5 1.33Zm2.5 0 1.25-1.33 3.75-1.33h6.87l2.5.76v5.24h-2.5L440 22l-1.25-1.33-.62 1.33ZM373.13 16h-1.88l-1.25.67-1.25 1.33.63 2 1.87-.67L370 18l1.88-1.33 1.87 1.33Zm3.12-5.33H375l-5 2.66-.62 1.34h-1.25l-4.38 2.66-.62 1.34 4.37-2 3.13-2.67 3.12-1.33.63-1.34Zm8.13-.67h-1.25l-.63.67h-1.87l-.63.66-.62 1.34 1.87-1.34h1.25l.63-.66ZM440 10l3.13-.67 6.87.61V9l-1.25-.33h-6.87l-.63.66Zm6.88-4.67 1.25.67 1.87-.29v-.82l-1.25.44-.62-.66ZM350.63 2l-3.13 1.33-1.25 1.34-3.12 2L345 5.33h1.25L347.5 4h1.25l1.25-.67Zm80 1.33h-5l-2.5 1.34L420 4l-4.37.67-1.88.66L409.38 8h-1.88l-4.37 1.33.62-1.33 2.5-1.33 3.13-.67 1.87-1.33L415 3.33h2.5L420 2l3.75-1.33-5 .66-1.87.67-1.25 1.33-2.5.67h-2.5l-10 3.33-1.88 1.34h-1.25l-1.25.66-.62 1.34-1.25.66L390 12l-5 2.67h1.88l3.12-1.34 2.5.67 1.25 1.33 4.38 3.34 3.12-.67 1.25 1.33-3.75.67-4.37 1.33-.63 3.34-2.5 3.33v.67l-1.87-.67.62-1.33 2.5-3.34.63-2V18l-1.25-1.33h-5l-2.5 1.33-1.25-2-1.88.67-.62.66-2.5.67-1.25.67-2.5 3.33 1.25.67-1.88.66-.62 2-1.88 1.34-1.25 2.66v1.34l-1.25 2.66 1.88 3.34 3.75.66 2.5-.66 5-2 2.5-2 1.87-.67 1.88-2 1.25 1.33 2.5-.66.62 1.33 1.88 2h2.5v-5.33l1.25-1.34h.62l1.25-2-5 1.34 1.88-2 3.12-1.34 1.88-2 3.12-2 2.5-.66-3.12-1.34h5l2.5-1.33h2.5l3.75-2 4.37-5.33 4.38-2 1.25-1.34.62-2ZM371.25 30l.63 2-.63.67-.62 1.33-.63-2 .63-.67Zm2.5-2.67v1.34l-1.87 2-.63-2.67Zm12.5 0L387.5 26l1.88.67-1.25 1.33Zm1.88-5.33-1.25 2.67-1.25.66L385 24l-1.25.67v2L380 29.33l-3.75 4L375 34l-1.87-.67v-2.66l2.5-3.34 5-4.66 3.75-2Zm3.12-2 .63 2-.63 1.33-1.25 1.34-.62-2.67Zm-11.87 0-1.25 1.33L375 22l1.88-2ZM405 16.67l-4.37.66-1.88-2 1.88-2h2.5Zm12.5-4-4.37 2.66-1.88-.66v-1.34h-1.87l-.63.67-1.87.67H405l.63-2 1.25-.67 5-1.33 5 .66Zm-15-2.67v2h-1.25l-3.12 2-1.88-.67 1.25-.66 1.25-2-1.87-.67 2.5-.67L400.63 8l1.25 2-1.25.67Zm20.63-2.67-2.5 2.67-.63-1.33h-1.25l-.62.66-2.5.67h-4.38l-3.12.67-.63.66-1.87-.66 2.5-2 5-2.67 2.5-.67 3.75 2Zm5-2.66-3.75 2.66-.63-1.33 1.88-2ZM347.5 0h-1.25l-1.87 1.33-3.13 3.34L345.63 2Zm-4.37 0-5.63 3.33v-2L338.75 0h-1.87l-1.25 1.33-1.25-.66-1.25.66-13.75 14-3.75 5.34-1.88 4-7.5 10-.62 3.33 1.87-1.33 3.13-6.67 2.5-2.67.62-2 5.63-8 5-3.33-7.5 9.33-8.75 15.34h1.25l1.25 2-3.75 6.66-1.88 6-2.5 4.67-1.25 5.33-1.25 1.34v-4l5-11.34v-2l1.88-4.66-1.25.66L301.25 56l-1.87 3.33h-1.88l3.13-6.66v-2l3.12-5.34v-2l1.88-4-2.5 2.67-2.5 8L295 61.33l.63 2 1.25-2 .62 2-.62 2.67-3.75 4.67-1.25 3.33-8.13 6.67L285 78l5-4 4.38-8v-1.33L290.63 70l-.63-1.33 5-10-.62-1.34-2.5 6-1.25 1.34-.63-1.34 8.75-22 .63 2L295.63 54l1.87-2.67v-2l1.88-3.33 1.87-7.33L305 34v-2l1.25-2.67 1.88-1.33 2.5-6 1.25-1.33V24l6.87-10.67 8.13-8.66L333.13 0h-1.88l-1.87 1.33-9.38 10-.62-1.33 7.5-8.67h-1.25l-9.38 10-5 8-3.75 2 11.25-16 5-5.33h-1.25l-4.37 4.67-.63-1.34L320.63 0h-1.25l-8.75 10-7.5 12-1.25 4-3.75 6.67-5.63 18-1.87 2.66v2l-1.25 1.34-1.88 6-4.37 7.33-6.25 7.33-9.38 6h-1.87l-4.38 2h-8.75l-3.75-.66-3.75-2 .63 1.33 3.12 1.33-1.25 1.34-5-.67 3.75 2.67 10 3.33 9.38-.67 3.75.67-3.13 1.33h-11.87l-6.25-2.66h-1.88l3.75 2 2.5 2.66 1.25-.66-1.87-.67 3.75-.67 5 1.34 7.5-.67 6.25-2 13.75-7.33-8.75 6.66L267.5 96h-6.87l-.63 2.67 1.25.66 11.88-.66 3.12-1.34 1.88-2 .62 1.34h2.5l8.13-4 6.25-5.34h-1.25l-4.38 4L280 96v-2l10.63-5.33 8.12-8.67 1.88-.67.62 2 1.25-.66.63-1.34-1.88-1.33 6.25-8.67L313.13 58v-1.33l-1.25.66-.63 2.67-1.87 2.67-.63-1.34L316.88 42l2.5-3.33L320 40l-6.87 14.67h1.25l6.25-14 6.87-11.34 2.5-2.66.63 1.33-3.13 4-1.87 4.67-6.25 10-3.13 7.33 1.88-1.33 3.12-8 2.5-2.67 3.13-5.33 1.87-5.34 3.75-4.66v-1.34l-1.25-.66 3.13-4h-1.25l-2.5 3.33-.63-2 1.88-3.33-4.38 4-1.25 2.66-4.37 4.67-.63-1.33 6.88-8.67 1.87-2.67V16l-4.37 4-.63-1.33 6.88-8.67L335 8.67v-2Zm-78.75 90 1.25-.67.62-.66 3.75.66-2.5 1.34Zm14.37-2-1.25 1.33-2.5 1.34-3.75 1.33-2.5-.67 2.5-1.33 3.13-.67 1.87-1.33Zm-27.5-1.33L255 86l1.25.67v2h-1.87l-1.25-1.34Zm-4.37.66 1.87-.66v-1.34H250l1.25 1.34v.66l.63.67 1.25.67H260l4.38 1.33-1.25 1.33-8.75-.66-1.88-.67-1.87-1.33h-1.88l-.62-.67ZM263.75 86l4.38-2.67 2.5.67-2.5 2 6.25-1.33-1.25 1.33-3.13 1.33h-3.75l.63-1.33-1.25.67Zm18.13-2.67-1.88 2-8.12 4-2.5-.66 1.25-.67.62-.67 8.75-4.66ZM287.5 82l-1.87 2-1.25.67-.63-1.34L285 82Zm5.63-.67-1.25 1.34h-.63L290 84l-1.25-1.33 2.5-2ZM290 78l.63 1.33-1.25 1.34v.66h-2.5Zm-4.37-1.33-1.25.66v1.34l-2.5 2-3.13 1.33-1.87-.67 3.12-2.66h1.25Zm7.5-2.67.62 1.33-1.87 2.67-1.88-.67Zm-10 1.33-2.5 2.67h-1.25l-5 4.67-2.5 1.33-1.88-.67 2.5-1.33 4.38-3.33 4.37-4.67ZM282.5 72l.63 1.33-1.25 1.34-.63-1.34Zm13.13-2 .62 1.33-1.87 2-.63-1.33Zm-5.63-.67.63 1.34-1.25 1.33-.63 2-.62.67h-2.5l2.5-2.67v-.67Zm6.88-1.33.62 1.33-1.25 1.34-.62-1.34Zm6.25-.67.62 1.34-1.87 3.33-2.5 2.67-.63-1.34L300 72l1.25-3.33.63-.67Zm-13.75-.66L290 68l-.62 1.33-1.25 1.34v.66h-1.88l1.88-3.33Zm11.25-.67.62 2-3.12 4-1.25 2-1.88.67 4.38-7.34Zm8.12-4 .63 2-1.88 2.67-1.87 4-1.25 2-2.5 3.33-6.25 6.67-5 4.66-1.88 1.34h-1.25l-6.25 4.66L280 94l-2.5.67-2.5 2-1.25.66-6.25 1.34-6.25-2h8.13l2.5-.67 13.75-7.33L290 84h1.88l3.75-3.33L300 76l2.5-3.33 2.5-4 2.5-5.34Zm-1.87-1.33.62 2-1.87 2-.63 2-1.25 1.33-.62-1.33 1.25-2 .62-2ZM290 59.33l.63 2-.63 1.34-1.25 1.33-.62 1.33-.63 2.67-1.25 2-3.75 2 1.88-2 1.87-2.67.63-2.66ZM305.63 56v3.33l-2.5 5.34-1.25 1.33-.63-1.33.63-1.34.62-.66.63-2.67 1.25-1.33v-1.34Zm3.75-10 .62 2-.62.67v2L308.13 54l-1.88 2-.62-2 1.25-4 1.25-2.67Zm1.25-2 .62 1.33-1.25 1.34-.62-1.34Zm3.75-.67.62 1.34-3.12 7.33-1.25 1.33L310 52l1.25-2v-1.33l1.88-4Zm-1.25-4.66.62 2-.62 1.33-1.88 2.67-.62-2 1.25-2.67Zm-15.63 0 .63 2.66-.63 2.67-2.5 6-1.25 1.33v-2l.63-3.33 1.87-5.33.63-.67Zm20-2.67.63 2-1.25 2.67-1.25 1.33-.63-1.33 1.25-2v-1.34Zm3.75-6.67.63 1.34-1.88 2.66-.62-2Zm-15-2.66.63 1.33-.63 1.33-2.5 3.34-1.87 3.33v2l-2.5 4-.63-2 1.25-3.33 3.13-6 1.25-2Zm14.38-.67.62 1.33-1.25 1.34-.62-1.34Zm2.5-4 .62 1.33-1.25 1.34-.62-1.34Zm-16.88-1.33V24l-.62 1.33-1.25 1.34-.63 2.66-2.5 3.34-1.87 5.33-1.25 1.33-.63-2 .63-2 3.75-8 2.5-4.66ZM325 19.33l.63 1.34-1.25 1.33-.63-1.33ZM317.5 12l.63 1.33-1.88 2-.62-1.33Zm0-8 .63 1.33L315 8.67l-2.5 4.66L310 16l-1.25 2.67-1.87 2-.63-1.34 3.75-6.66 2.5-3.34Z"/></svg>