<?xml version="1.0" standalone="no"?>
<!DOCTYPE svg PUBLIC "-//W3C//DTD SVG 20010904//EN"
 "http://www.w3.org/TR/2001/REC-SVG-20010904/DTD/svg10.dtd">
<svg version="1.0" xmlns="http://www.w3.org/2000/svg"
 width="688.000000pt" height="688.000000pt" viewBox="0 0 688.000000 688.000000"
 preserveAspectRatio="xMidYMid meet">

<g transform="translate(0.000000,688.000000) scale(0.100000,-0.100000)"
fill="#000000" stroke="none">
<path d="M3180 6869 c-470 -34 -961 -179 -1384 -409 -857 -467 -1477 -1278
-1700 -2224 -70 -293 -90 -475 -90 -806 0 -321 24 -523 98 -825 233 -946 881
-1767 1749 -2215 388 -200 783 -319 1237 -371 161 -19 598 -16 755 5 888 116
1664 535 2227 1203 385 457 645 1011 752 1603 41 229 51 342 50 600 0 324 -22
521 -90 806 -209 886 -777 1669 -1549 2139 -613 373 -1332 546 -2055 494z
m515 -119 c446 -41 811 -140 1190 -324 886 -430 1526 -1213 1768 -2161 77
-302 102 -508 101 -845 -1 -321 -28 -539 -105 -828 -264 -993 -972 -1807
-1919 -2210 -510 -217 -1085 -301 -1637 -242 -1151 125 -2135 816 -2639 1855
-161 332 -255 648 -310 1045 -22 153 -25 579 -6 745 102 898 537 1692 1232
2251 286 229 683 444 1037 559 391 128 904 190 1288 155z"/>
<path d="M3300 6481 c0 -49 4 -81 10 -81 6 0 27 -7 47 -15 35 -15 36 -16 20
-33 -10 -9 -32 -22 -50 -28 -28 -10 -29 -13 -13 -19 24 -10 83 21 92 47 7 23
-8 42 -46 58 -26 11 -29 17 -35 76 -10 92 -25 89 -25 -5z"/>
<path d="M3551 6512 c-32 -50 -40 -82 -20 -82 7 0 17 7 24 17 16 21 35 8 35
-25 0 -25 1 -25 14 -6 13 17 15 17 21 2 4 -9 5 -27 3 -40 -3 -21 -8 -23 -63
-23 -57 0 -60 -1 -60 -25 0 -21 5 -26 33 -28 33 -3 45 13 15 21 -10 2 -2 3 17
1 19 -2 44 -7 56 -10 18 -5 22 0 28 26 14 73 8 95 -31 121 -34 22 -38 29 -35
62 2 20 1 37 -2 37 -2 0 -18 -22 -35 -48z"/>
<path d="M3047 6522 c-51 -31 -44 -96 11 -108 50 -11 52 -13 52 -51 0 -47 9
-83 21 -83 12 0 12 92 0 123 -7 17 -20 26 -45 31 -51 10 -64 38 -30 65 15 12
33 21 40 21 8 0 14 5 14 10 0 15 -32 11 -63 -8z"/>
<path d="M3372 6506 c-26 -38 -31 -76 -8 -56 15 12 41 78 34 85 -2 2 -13 -11
-26 -29z"/>
<path d="M3790 6506 c0 -32 -3 -35 -32 -38 -32 -4 -29 -8 15 -22 13 -4 17 -17
17 -57 0 -50 1 -51 18 -36 28 26 32 21 32 -34 0 -45 2 -50 15 -39 9 8 15 29
15 55 0 35 -5 48 -25 63 -32 25 -33 52 -2 52 12 0 30 12 40 25 11 16 14 25 6
25 -6 0 -17 7 -24 17 -11 14 -13 13 -19 -10 -8 -35 -22 -34 -35 3 -13 40 -21
38 -21 -4z"/>
<path d="M3249 6480 c-14 -46 -6 -63 16 -34 16 21 20 74 5 74 -5 0 -15 -18
-21 -40z"/>
<path d="M2778 6437 c-24 -58 -23 -65 15 -69 30 -3 32 -5 29 -38 -2 -33 -2
-34 13 -16 8 11 15 26 15 33 0 15 28 17 50 3 12 -7 12 -12 0 -35 -19 -35 -65
-58 -118 -58 -51 0 -52 -21 -1 -25 42 -3 115 32 142 69 25 35 15 65 -27 79
-29 9 -33 14 -29 38 4 26 4 26 -11 8 -9 -11 -16 -23 -16 -28 0 -4 -12 -8 -26
-8 -24 0 -25 2 -18 45 3 25 5 45 3 45 -2 0 -12 -19 -21 -43z"/>
<path d="M4059 6434 l-34 -35 25 -19 c14 -11 29 -20 33 -20 5 0 -1 -13 -13
-30 -25 -35 -16 -39 16 -9 18 17 26 19 43 10 31 -17 25 -40 -14 -57 -46 -19
-73 -18 -118 5 -30 15 -37 16 -37 4 0 -18 60 -43 106 -43 46 0 101 26 110 52
4 14 -2 29 -22 49 -22 23 -25 32 -16 41 20 20 13 32 -8 13 -17 -15 -24 -16
-46 -6 l-27 12 20 22 c50 55 35 65 -18 11z"/>
<path d="M2503 6413 c-66 -26 -70 -31 -52 -64 7 -15 7 -24 0 -33 -8 -10 -7
-17 3 -25 8 -7 18 -36 21 -65 9 -69 17 -81 42 -68 21 12 93 122 93 143 0 19
-38 -19 -62 -63 -12 -21 -25 -38 -29 -38 -12 0 -22 67 -15 100 4 22 2 30 -9
30 -13 0 -32 37 -23 45 2 2 33 17 68 34 79 36 49 40 -37 4z"/>
<path d="M4270 6430 c0 -5 5 -21 12 -34 9 -21 8 -29 -5 -44 -25 -27 -21 -31
18 -19 19 6 38 7 42 4 3 -4 -1 -34 -10 -67 -10 -33 -17 -70 -17 -82 0 -42 27
3 49 81 18 65 19 77 6 91 -9 9 -12 25 -8 39 6 23 6 23 -20 6 -26 -17 -27 -16
-38 9 -12 25 -29 35 -29 16z"/>
<path d="M3170 6399 c0 -42 12 -89 21 -83 14 8 10 68 -6 90 -14 18 -14 18 -15
-7z"/>
<path d="M2567 6379 c-17 -23 -17 -24 3 -33 27 -12 34 -3 23 30 l-9 28 -17
-25z"/>
<path d="M3054 6377 c-8 -22 4 -70 16 -62 13 8 13 45 0 65 -8 12 -10 12 -16
-3z"/>
<path d="M4489 6315 c-24 -55 -20 -79 7 -43 l19 26 37 -27 c21 -14 38 -29 38
-33 0 -3 -9 -27 -20 -53 -16 -38 -24 -46 -38 -40 -9 4 -30 10 -46 13 l-29 5
18 -31 c14 -23 23 -29 34 -22 11 6 22 3 34 -7 9 -9 19 -14 20 -12 6 7 67 163
67 170 0 4 -12 9 -27 12 -36 7 -73 42 -73 67 0 34 -20 22 -41 -25z"/>
<path d="M3787 6313 c-3 -5 -2 -15 2 -22 7 -10 10 -10 16 -1 4 6 3 16 -3 22
-5 5 -12 6 -15 1z"/>
<path d="M2221 6276 c-12 -18 -21 -36 -21 -40 0 -9 58 -7 101 3 47 11 69 -2
69 -39 0 -16 4 -31 9 -34 13 -9 22 22 15 52 -12 49 -23 55 -91 48 l-64 -7 7
26 c9 34 0 31 -25 -9z"/>
<path d="M4268 6282 c-18 -17 -29 -34 -25 -38 4 -4 22 6 39 24 42 41 30 52
-14 14z"/>
<path d="M4391 6262 c-13 -25 -14 -52 -2 -52 10 0 26 58 18 67 -3 2 -10 -4
-16 -15z"/>
<path d="M4758 6213 c-27 -14 -48 -31 -48 -37 0 -5 10 -20 22 -33 l22 -24 -29
-24 c-35 -28 -27 -32 16 -9 28 14 32 14 50 -2 26 -23 24 -29 -11 -44 -39 -16
-92 -6 -130 27 -32 27 -45 27 -34 0 9 -24 85 -57 130 -57 45 0 84 23 84 48 0
10 -7 28 -16 40 -15 22 -15 25 3 44 19 23 19 23 -30 3 -7 -3 -21 3 -31 14 -17
18 -16 20 13 37 17 10 33 24 35 31 7 16 9 17 -46 -14z"/>
<path d="M2304 6198 c3 -18 18 -44 32 -59 25 -26 25 -27 6 -33 -22 -7 -58 -44
-50 -51 9 -10 103 50 106 67 2 9 -6 19 -18 23 -11 4 -32 24 -46 46 -30 47 -39
49 -30 7z"/>
<path d="M4514 6216 c-8 -22 3 -33 18 -18 9 9 9 15 0 24 -9 9 -13 7 -18 -6z"/>
<path d="M1925 6161 c-47 -27 -97 -71 -81 -71 4 0 21 7 38 16 34 18 38 15 63
-41 7 -16 25 -43 39 -60 17 -19 26 -42 26 -64 0 -29 2 -32 16 -20 10 8 14 22
11 38 -9 48 -34 104 -51 113 -9 5 -23 22 -31 38 -14 26 -13 30 3 42 22 15 36
38 25 38 -4 0 -30 -13 -58 -29z"/>
<path d="M2270 6159 c7 -11 14 -19 16 -16 7 7 -7 37 -17 37 -6 0 -5 -9 1 -21z"/>
<path d="M4975 6096 c-49 -24 -49 -24 -18 -25 20 -1 42 8 60 24 36 31 22 31
-42 1z"/>
<path d="M5013 6065 c-29 -13 -53 -27 -53 -30 0 -3 14 -11 30 -16 33 -12 38
-30 16 -48 -11 -9 -20 -10 -36 -1 -28 15 -59 4 -71 -27 -10 -28 3 -53 28 -53
10 0 11 4 3 19 -13 26 -13 28 5 35 9 3 24 0 34 -6 15 -9 24 -8 46 6 33 22 41
43 27 67 -18 28 -15 35 18 49 17 7 33 17 36 21 10 16 -30 8 -83 -16z"/>
<path d="M3240 6034 c-19 -2 -80 -9 -135 -15 -383 -41 -827 -209 -1155 -438
-175 -122 -369 -300 -512 -471 -429 -511 -647 -1204 -588 -1870 68 -758 456
-1437 1075 -1882 331 -238 723 -393 1150 -455 168 -24 534 -24 700 1 483 71
936 273 1300 579 1010 850 1220 2308 490 3407 -140 210 -335 424 -538 589
-347 281 -820 480 -1287 541 -88 12 -438 21 -500 14z m530 -139 c442 -68 856
-248 1195 -522 120 -96 317 -297 402 -408 261 -344 423 -729 490 -1165 24
-160 24 -520 0 -680 -87 -568 -330 -1040 -738 -1435 -370 -358 -827 -580
-1359 -662 -160 -24 -520 -24 -680 0 -533 82 -988 304 -1359 662 -408 395
-651 868 -738 1435 -24 160 -24 520 0 680 56 366 184 708 374 1000 180 275
441 538 713 716 308 202 696 345 1040 383 52 6 111 13 130 15 77 9 431 -4 530
-19z"/>
<path d="M3341 5454 c-36 -13 -80 -36 -99 -51 -48 -36 -112 -138 -112 -178 0
-80 -13 -127 -37 -138 -13 -6 -26 -20 -29 -32 -8 -34 39 -128 98 -192 64 -70
122 -158 113 -173 -4 -6 -31 3 -71 26 -62 34 -66 35 -89 20 -14 -9 -25 -22
-25 -30 0 -7 -9 -21 -20 -31 -19 -17 -22 -17 -59 -1 -38 18 -39 18 -92 -9 -65
-33 -107 -67 -135 -109 -24 -36 -60 -197 -69 -311 -4 -44 -13 -109 -20 -145
-7 -36 -16 -96 -19 -135 -4 -38 -13 -104 -21 -145 -8 -41 -17 -104 -20 -140
-3 -36 -12 -99 -20 -140 -7 -41 -16 -104 -20 -140 -3 -36 -12 -99 -20 -140 -8
-41 -19 -111 -25 -155 -5 -44 -15 -110 -22 -147 -16 -90 -9 -98 88 -98 70 0
76 -2 111 -34 21 -19 52 -58 70 -88 l31 -53 -14 -65 c-7 -36 -14 -81 -14 -100
0 -35 -28 -248 -56 -435 -9 -55 -20 -143 -25 -195 -5 -52 -14 -117 -20 -145
-6 -27 -15 -95 -19 -150 -5 -55 -12 -114 -15 -131 -5 -22 -2 -35 10 -47 15
-16 80 -17 769 -17 571 0 755 3 764 12 14 14 15 70 2 118 -5 19 -16 104 -25
189 -9 85 -18 158 -20 162 -3 3 -9 51 -15 105 -6 55 -17 133 -25 174 -8 41
-26 180 -40 309 l-26 234 35 51 c71 101 66 98 142 103 96 6 112 10 119 33 3
10 -3 72 -15 137 -12 65 -27 170 -35 233 -16 130 -39 291 -60 425 -8 50 -17
119 -20 155 -4 36 -13 94 -20 130 -8 36 -17 101 -20 145 -4 44 -13 107 -20
140 -7 33 -16 94 -20 134 -12 133 -72 229 -173 277 -25 12 -48 14 -97 9 l-63
-7 -26 41 c-25 40 -57 54 -71 31 -12 -19 -104 -60 -110 -49 -9 13 57 109 118
172 52 54 100 147 95 186 -2 15 -15 31 -33 41 -28 16 -30 21 -36 91 -3 41 -13
89 -22 106 -41 78 -124 147 -211 176 -66 22 -99 21 -175 -9z m40 -289 c58 -26
81 -25 135 7 44 26 137 22 142 -5 3 -16 -1 -18 -41 -12 -36 6 -53 2 -95 -19
-29 -15 -54 -35 -59 -48 -4 -13 -8 -72 -8 -133 0 -97 -2 -110 -18 -113 -16 -3
-18 6 -16 116 0 72 -4 128 -10 141 -16 29 -91 61 -145 61 -25 0 -47 4 -50 9
-20 31 95 29 165 -4z m-46 -106 c10 -15 -1 -23 -20 -15 -9 3 -13 10 -10 16 8
13 22 13 30 -1z m235 -9 c0 -5 -7 -10 -15 -10 -8 0 -15 5 -15 10 0 6 7 10 15
10 8 0 15 -4 15 -10z"/>
<path d="M4895 6021 c-6 -11 9 -23 19 -14 9 9 7 23 -3 23 -6 0 -12 -4 -16 -9z"/>
<path d="M1662 5938 c3 -55 5 -63 23 -63 15 0 19 6 17 23 -2 12 2 22 8 22 7 0
20 -10 31 -22 l18 -23 1 23 c0 29 14 28 34 -4 22 -33 18 -42 -29 -69 -43 -24
-56 -51 -30 -61 19 -8 65 11 65 26 0 7 -8 9 -20 5 -39 -12 -19 5 30 26 28 12
50 24 50 28 0 3 -16 27 -35 54 -35 46 -36 47 -90 47 -48 0 -55 3 -55 19 0 11
-5 23 -11 26 -7 5 -9 -14 -7 -57z"/>
<path d="M5188 5975 c-6 -14 -19 -25 -30 -25 -10 0 -18 -7 -18 -16 0 -10 -21
-39 -47 -67 -44 -47 -45 -50 -27 -64 18 -13 98 -11 164 4 l25 6 -25 7 c-14 4
-49 5 -79 2 -52 -5 -53 -4 -42 16 14 26 59 62 78 62 9 0 12 6 8 19 -3 11 1 24
11 32 14 12 25 9 76 -20 76 -42 88 -33 17 12 -96 61 -98 61 -111 32z"/>
<path d="M5250 5881 c0 -5 3 -17 6 -26 6 -14 8 -14 25 1 26 23 24 34 -6 34
-14 0 -25 -4 -25 -9z"/>
<path d="M1450 5838 c-24 -39 -25 -67 -6 -94 13 -17 18 -18 47 -7 41 16 45 12
24 -21 -20 -30 -3 -37 25 -11 16 14 21 13 51 -12 l34 -28 -38 47 c-34 43 -37
52 -31 85 l7 38 -22 -19 c-20 -19 -22 -19 -41 -1 -12 10 -18 25 -16 32 11 28
-15 22 -34 -9z m36 -74 c-26 -18 -41 -4 -32 32 l7 27 22 -22 c22 -22 22 -22 3
-37z"/>
<path d="M5410 5771 c-14 -28 -13 -64 4 -87 13 -17 12 -22 -8 -44 -13 -14 -32
-38 -42 -54 -17 -27 -17 -28 1 -25 10 2 36 25 58 51 39 46 39 48 23 72 -16 25
-21 67 -10 78 5 6 39 -2 77 -17 28 -12 10 20 -19 34 -38 17 -72 13 -84 -8z"/>
<path d="M1585 5740 c3 -5 16 -15 28 -21 22 -12 22 -12 3 10 -19 21 -43 30
-31 11z"/>
<path d="M1370 5708 c0 -30 -51 -60 -92 -55 -33 4 -37 3 -28 -12 12 -24 72
-82 78 -76 3 3 -1 16 -8 30 -7 14 -11 26 -9 28 2 2 20 13 40 25 l35 21 39 -39
39 -40 -27 -28 c-35 -37 -34 -50 3 -44 21 3 30 10 30 22 0 11 11 22 25 27 25
8 24 10 -50 83 -46 46 -75 68 -75 58z"/>
<path d="M5369 5677 c-9 -7 -21 -22 -28 -35 -12 -22 -11 -23 7 -13 25 13 45
38 40 50 -2 6 -9 5 -19 -2z"/>
<path d="M5450 5585 c-34 -35 -37 -51 -6 -39 16 6 51 62 44 70 -3 2 -20 -12
-38 -31z"/>
<path d="M1372 5598 c3 -7 13 -15 24 -17 16 -3 17 -1 5 13 -16 19 -34 21 -29
4z"/>
<path d="M5622 5563 c-12 -2 -20 -9 -17 -14 9 -14 67 -10 95 6 25 14 25 14
-15 13 -22 0 -50 -3 -63 -5z"/>
<path d="M1209 5524 c-10 -12 -23 -15 -55 -10 -54 7 -63 -4 -22 -26 l33 -17
-42 -1 c-23 0 -44 -4 -47 -8 -8 -13 60 -42 96 -42 17 0 55 -14 85 -31 30 -17
56 -29 59 -26 4 4 -71 154 -86 170 -4 4 -13 0 -21 -9z m29 -65 c17 -27 11 -32
-23 -19 -23 9 -25 13 -15 25 17 20 23 19 38 -6z"/>
<path d="M5655 5523 c-34 -8 -37 -19 -11 -37 15 -9 26 -23 26 -30 0 -20 -42
-28 -60 -11 -22 20 -54 19 -73 -3 -22 -24 -21 -35 4 -58 22 -19 22 -19 15 9
-8 34 20 50 40 22 10 -13 20 -16 41 -10 45 11 63 33 52 62 -12 32 -12 33 9 33
9 1 31 7 47 15 l30 13 -50 0 c-27 0 -59 -2 -70 -5z"/>
<path d="M1284 5494 c8 -32 51 -82 62 -71 7 7 -41 83 -59 94 -6 4 -7 -5 -3
-23z"/>
<path d="M5550 5510 c0 -5 7 -10 15 -10 8 0 15 5 15 10 0 6 -7 10 -15 10 -8 0
-15 -4 -15 -10z"/>
<path d="M5813 5420 c9 -14 24 -35 33 -47 24 -33 10 -89 -32 -131 -31 -31 -37
-33 -74 -27 -32 5 -40 4 -40 -8 0 -27 56 -31 103 -8 50 24 79 68 81 121 1 48
-17 82 -57 105 l-32 19 18 -24z"/>
<path d="M5770 5331 c0 -55 2 -62 15 -51 19 16 19 70 0 96 -13 17 -14 13 -15
-45z"/>
<path d="M1050 5312 c7 -27 6 -34 -10 -42 -27 -14 -27 -14 -49 28 -23 43 -25
38 -10 -23 13 -52 29 -61 63 -34 l25 20 16 -31 c18 -34 29 -40 21 -10 -3 11
-8 28 -11 38 -4 13 2 22 20 30 23 11 26 9 36 -15 6 -17 6 -36 -1 -59 -11 -32
-55 -84 -71 -84 -5 0 -9 -5 -9 -11 0 -6 10 -9 23 -7 13 2 35 22 55 52 62 93
30 188 -49 145 -16 -8 -23 -6 -39 13 l-19 23 9 -33z"/>
<path d="M5710 5295 c0 -8 5 -15 10 -15 6 0 10 7 10 15 0 8 -4 15 -10 15 -5 0
-10 -7 -10 -15z"/>
<path d="M5960 5205 c-14 -8 -38 -14 -53 -15 -20 0 -30 -6 -34 -20 -6 -23 -8
-24 -35 -9 -19 10 -20 9 -14 -16 5 -19 2 -33 -10 -46 -14 -16 -15 -23 -4 -49
7 -16 19 -30 26 -30 17 0 17 5 2 30 -10 16 -10 22 1 32 10 11 16 9 28 -9 9
-13 22 -23 30 -23 14 0 13 11 -4 58 -3 6 -1 12 5 12 6 0 8 9 5 20 -4 16 0 20
19 20 14 0 37 13 53 30 31 32 25 38 -15 15z"/>
<path d="M6003 5178 c-12 -6 -24 -17 -27 -24 -4 -12 0 -11 24 1 17 9 30 20 30
25 0 12 1 12 -27 -2z"/>
<path d="M817 5114 c-3 -3 -2 -16 3 -29 9 -25 -2 -35 -41 -35 -10 0 -19 -5
-19 -11 0 -8 14 -10 40 -6 33 4 42 2 50 -14 17 -31 32 -22 25 15 -4 18 -3 36
2 39 5 3 38 -12 74 -33 35 -22 70 -40 77 -40 28 0 3 26 -64 68 -50 31 -76 42
-95 38 -14 -3 -30 -1 -36 5 -5 5 -12 7 -16 3z"/>
<path d="M970 5106 c8 -8 26 -17 40 -20 l25 -7 -24 20 c-27 25 -66 31 -41 7z"/>
<path d="M910 5016 c18 -47 31 -67 40 -61 12 7 -11 55 -35 75 -14 12 -15 10
-5 -14z"/>
<path d="M6094 4945 c-3 -8 1 -36 10 -62 24 -69 21 -91 -11 -99 -51 -11 -59
-18 -25 -22 20 -2 44 3 59 13 22 15 24 21 18 53 -19 101 -20 94 9 86 38 -9 32
3 -14 26 -35 18 -41 19 -46 5z"/>
<path d="M759 4888 c-33 -35 -41 -40 -49 -28 -5 8 -10 18 -10 23 0 4 -4 7 -9
7 -9 0 2 -77 14 -88 4 -4 28 17 53 46 51 57 69 63 97 32 20 -22 35 -26 35 -10
0 19 -49 60 -71 60 -12 0 -38 -18 -60 -42z"/>
<path d="M6024 4875 c-17 -13 -17 -14 -2 -15 9 0 20 5 23 11 11 17 0 20 -21 4z"/>
<path d="M780 4857 c0 -12 70 -47 95 -47 22 0 26 -3 20 -17 -13 -30 -18 -73
-8 -73 9 0 43 88 43 112 0 11 -12 15 -47 15 -27 0 -60 4 -75 8 -16 4 -28 5
-28 2z"/>
<path d="M6065 4846 c-16 -8 -39 -23 -49 -35 l-20 -22 -27 31 c-37 40 -56 38
-28 -2 43 -62 61 -79 76 -67 7 6 13 17 13 24 0 7 17 27 38 43 42 34 41 46 -3
28z"/>
<path d="M784 4799 c-3 -5 -1 -9 5 -9 5 0 16 -3 25 -6 9 -3 16 -2 16 4 0 13
-38 23 -46 11z"/>
<path d="M6231 4740 c-8 -24 -16 -30 -40 -30 -17 0 -31 -4 -31 -10 0 -5 6 -10
14 -10 8 0 24 -9 37 -19 l24 -19 -77 -37 c-43 -20 -80 -41 -83 -46 -13 -19 39
-8 111 25 57 27 74 39 74 55 0 12 7 21 15 21 24 0 17 19 -10 26 -29 7 -29 7
-10 44 13 26 13 30 1 30 -8 0 -19 -13 -25 -30z"/>
<path d="M6090 4661 c0 -12 44 -19 77 -13 25 5 25 6 8 13 -28 11 -85 11 -85 0z"/>
<path d="M564 4605 c11 -8 29 -15 40 -15 21 1 21 1 2 15 -11 8 -29 15 -40 15
-21 -1 -21 -1 -2 -15z"/>
<path d="M707 4567 c-14 -24 -20 -28 -27 -17 -7 12 -10 12 -16 -3 -8 -22 -22
-22 -42 2 -10 11 -33 22 -52 25 l-35 6 25 -17 c14 -10 34 -28 46 -40 12 -13
31 -23 42 -23 12 0 23 -9 27 -21 6 -19 8 -20 26 -4 10 10 25 15 34 12 8 -4 21
-4 29 -1 18 7 41 62 31 72 -4 4 -10 1 -12 -6 -8 -21 -34 -43 -44 -36 -5 3 -7
20 -3 39 8 44 -7 51 -29 12z"/>
<path d="M6173 4546 c-25 -22 -26 -24 -6 -19 24 6 63 43 45 43 -6 0 -24 -11
-39 -24z"/>
<path d="M6133 4454 c-3 -8 -1 -33 6 -53 32 -107 137 -155 156 -72 5 23 13 31
33 33 l27 4 -27 12 c-20 8 -28 19 -28 37 0 25 2 26 48 21 l47 -6 -35 16 c-19
9 -46 17 -60 17 -22 2 -25 -2 -28 -35 -3 -36 -4 -36 -39 -31 -44 7 -38 -12 7
-22 25 -5 30 -11 30 -36 0 -33 -9 -35 -50 -14 -36 19 -60 62 -60 110 0 36 -16
48 -27 19z"/>
<path d="M523 4421 c-44 -28 -65 -63 -61 -103 3 -28 5 -30 12 -13 29 75 36 84
75 96 22 6 55 9 75 5 29 -6 40 -15 56 -47 12 -22 25 -37 30 -34 18 11 10 35
-23 71 -28 31 -41 37 -83 41 -37 3 -57 -1 -81 -16z"/>
<path d="M547 4332 c-42 -44 -32 -56 18 -20 24 18 44 36 45 41 1 17 -39 5 -63
-21z"/>
<path d="M620 4294 c0 -8 5 -12 10 -9 6 3 10 10 10 16 0 5 -4 9 -10 9 -5 0
-10 -7 -10 -16z"/>
<path d="M6393 4259 c-17 -11 -39 -31 -48 -45 -9 -13 -40 -37 -70 -51 -30 -15
-52 -30 -49 -34 2 -4 35 -10 72 -14 37 -3 79 -8 93 -10 23 -3 25 -1 21 23 -2
19 4 34 22 51 36 34 36 60 0 36 -34 -22 -41 -13 -15 21 37 47 26 56 -26 23z
m-23 -99 c0 -16 -7 -20 -32 -20 l-33 1 24 19 c30 25 41 25 41 0z"/>
<path d="M419 4193 c5 -10 25 -36 43 -57 36 -42 58 -42 58 -1 0 13 5 27 10 30
19 12 40 -16 40 -51 0 -62 80 -74 89 -13 3 23 2 23 -16 6 -34 -30 -63 -15 -43
22 8 17 5 24 -23 45 -41 31 -53 32 -69 6 -17 -26 -30 -25 -58 5 -27 29 -45 33
-31 8z"/>
<path d="M410 4132 c0 -4 18 -25 39 -46 31 -31 39 -34 34 -18 -10 38 -73 93
-73 64z"/>
<path d="M6262 4083 c-24 -9 0 -23 41 -23 52 0 79 14 45 23 -27 8 -67 8 -86 0z"/>
<path d="M530 4050 c0 -5 7 -10 16 -10 8 0 12 5 9 10 -3 6 -10 10 -16 10 -5 0
-9 -4 -9 -10z"/>
<path d="M6400 4017 l-25 -11 33 -4 c33 -3 33 -4 30 -50 l-3 -47 -55 -11 -55
-10 -3 30 c-2 17 -9 37 -15 44 -8 11 -13 8 -25 -13 -11 -22 -11 -29 0 -42 7
-9 12 -24 10 -35 -4 -21 3 -22 84 -8 107 19 106 18 94 40 -18 33 -11 73 17
102 l27 28 -45 -1 c-24 0 -55 -5 -69 -12z"/>
<path d="M6359 3944 c-12 -14 -11 -16 5 -13 11 2 21 10 24 17 5 17 -13 15 -29
-4z"/>
<path d="M496 3931 c-7 -11 28 -21 74 -21 l35 1 -25 14 c-28 16 -76 20 -84 6z"/>
<path d="M356 3882 c-10 -30 1 -76 24 -97 17 -15 20 -15 50 0 17 9 36 27 42
41 11 23 14 24 75 18 44 -5 63 -3 63 4 0 15 -42 26 -100 26 -37 1 -46 -3 -57
-24 -12 -24 -40 -50 -54 -50 -8 0 -27 47 -31 80 l-4 25 -8 -23z"/>
<path d="M492 3811 c-18 -11 7 -21 51 -21 30 1 31 1 13 15 -22 17 -44 19 -64
6z"/>
<path d="M6448 3809 c-11 -6 -18 -22 -18 -39 0 -39 -15 -38 -31 3 l-13 32 -3
-36 c-4 -33 -8 -37 -46 -47 -40 -11 -39 -11 23 -7 61 5 65 4 87 -22 l22 -28 1
34 c0 33 0 34 40 28 22 -3 40 -1 40 4 0 23 -31 66 -55 77 -30 14 -26 14 -47 1z
m46 -25 c22 -22 20 -31 -9 -36 -22 -5 -25 -2 -25 23 0 32 11 37 34 13z"/>
<path d="M6350 3690 c-12 -8 -12 -10 5 -10 11 0 27 5 35 10 12 8 12 10 -5 10
-11 0 -27 -5 -35 -10z"/>
<path d="M327 3636 c-4 -11 -5 -52 -1 -92 6 -71 8 -73 30 -68 12 3 29 2 36 -3
7 -4 29 -8 48 -9 19 0 56 -4 83 -8 44 -8 47 -7 47 14 0 18 -93 150 -106 150
-13 0 1 -33 31 -73 19 -25 35 -48 35 -51 0 -12 -62 -5 -92 10 -22 11 -33 13
-41 5 -6 -6 -19 -11 -28 -11 -17 0 -19 8 -32 135 -2 19 -2 19 -10 1z"/>
<path d="M370 3611 c0 -10 29 -36 33 -30 1 2 9 12 16 22 12 15 10 17 -18 17
-17 0 -31 -4 -31 -9z"/>
<path d="M6312 3558 c-14 -14 -16 -64 -3 -73 5 -3 12 5 14 17 3 13 3 -3 0 -34
l-4 -58 63 0 63 1 28 44 c25 39 31 43 52 35 47 -18 33 7 -20 36 -41 22 -57 26
-66 17 -14 -14 -4 -33 18 -33 13 0 13 -3 3 -15 -7 -8 -24 -15 -39 -15 -22 -1
-24 -2 -8 -11 29 -17 19 -30 -20 -27 l-38 3 0 53 c0 56 -20 83 -43 60z"/>
<path d="M415 3340 c-15 -30 -16 -30 -46 -14 -55 28 -54 8 1 -29 30 -20 59
-37 64 -37 5 0 6 13 3 28 -7 37 3 53 31 45 14 -3 22 -13 22 -27 0 -30 18 -46
52 -46 30 0 52 28 38 49 -6 11 -10 9 -19 -7 -15 -27 -41 -18 -41 14 0 24 -8
30 -67 48 -18 6 -25 1 -38 -24z"/>
<path d="M6531 3268 c-2 -56 -4 -57 -109 -52 -69 3 -101 9 -114 21 -17 15 -18
15 -18 -4 0 -11 6 -25 13 -30 19 -16 86 -26 155 -24 l62 2 0 -30 c0 -37 16
-49 24 -18 8 32 6 119 -4 142 -8 18 -9 17 -9 -7z"/>
<path d="M341 3264 c7 -8 30 -24 51 -35 l39 -20 -11 20 c-11 21 -59 51 -81 51
-8 0 -8 -4 2 -16z"/>
<path d="M472 3231 c4 -13 18 -16 19 -4 0 4 -5 9 -11 12 -7 2 -11 -2 -8 -8z"/>
<path d="M482 3128 c-5 -7 -12 -22 -16 -34 -5 -16 -13 -20 -34 -17 l-27 4 23
-17 c12 -9 22 -27 22 -41 0 -21 -4 -24 -22 -19 -68 19 -73 17 -33 -8 49 -32
65 -30 79 10 10 28 14 31 35 22 39 -14 49 -3 14 16 -33 16 -41 38 -24 65 7 11
13 10 34 -4 34 -22 59 -87 51 -131 -8 -41 12 -48 22 -7 10 38 -13 113 -43 146
-28 29 -64 35 -81 15z"/>
<path d="M6246 2923 c-10 -10 -7 -111 4 -118 5 -3 20 1 34 10 17 11 35 14 59
10 20 -4 37 -3 41 4 8 13 -54 30 -88 24 -24 -5 -26 -3 -26 30 0 35 -11 53 -24
40z"/>
<path d="M6414 2853 c-37 -83 -39 -85 -81 -68 -42 18 -43 18 -43 5 0 -5 14
-17 31 -26 48 -24 77 -12 101 44 26 60 27 61 44 38 7 -11 16 -17 19 -14 8 7
-26 78 -37 78 -5 0 -21 -26 -34 -57z"/>
<path d="M513 2876 c-87 -20 -91 -22 -77 -40 20 -28 17 -69 -7 -100 -12 -15
-19 -30 -15 -33 9 -9 116 17 116 28 0 5 -14 9 -31 9 -30 0 -30 1 -27 47 l3 48
53 11 c57 13 58 12 64 -35 4 -32 24 -38 38 -11 9 17 8 25 -4 39 -9 10 -13 26
-9 39 3 12 1 21 -3 21 -5 -1 -50 -11 -101 -23z"/>
<path d="M6330 2890 c0 -5 10 -10 23 -10 18 0 19 2 7 10 -19 13 -30 13 -30 0z"/>
<path d="M520 2795 c-10 -12 -10 -15 3 -15 8 0 20 7 27 15 10 12 10 15 -3 15
-8 0 -20 -7 -27 -15z"/>
<path d="M6217 2713 c-13 -12 -7 -40 23 -106 48 -106 70 -101 26 6 -19 46 -21
57 -9 57 18 0 52 -17 77 -39 10 -9 32 -16 50 -16 34 0 34 3 22 -95 -8 -71 9
-36 28 57 13 63 12 63 -10 63 -12 0 -29 7 -38 15 -8 8 -23 15 -33 15 -10 0
-42 11 -71 25 -61 28 -57 27 -65 18z"/>
<path d="M564 2675 c-19 -14 -19 -14 2 -15 11 0 29 7 40 15 19 14 19 14 -2 15
-11 0 -29 -7 -40 -15z"/>
<path d="M615 2639 c-99 -33 -115 -41 -115 -60 0 -12 -7 -19 -20 -19 -28 0
-25 -15 6 -28 24 -11 24 -13 10 -34 -18 -26 -20 -38 -6 -38 5 0 16 13 24 28
13 24 20 28 48 25 l33 -4 -33 28 c-18 15 -32 31 -32 35 0 3 30 16 68 28 76 25
113 51 72 49 -14 0 -38 -5 -55 -10z"/>
<path d="M595 2555 c34 -16 75 -19 75 -6 0 11 -36 21 -75 20 l-30 -1 30 -13z"/>
<path d="M6330 2535 c-10 -12 -8 -16 15 -25 33 -13 35 -11 24 18 -10 26 -22
28 -39 7z"/>
<path d="M650 2440 c-11 -11 -20 -31 -20 -45 0 -21 -5 -25 -27 -25 l-28 -1 33
-14 c21 -9 32 -21 32 -35 0 -17 -7 -20 -47 -21 l-48 -1 35 -13 c69 -27 85 -20
80 33 -1 19 3 22 35 22 42 0 39 15 -5 23 -25 6 -30 11 -30 37 0 34 9 36 49 16
36 -19 59 -55 67 -105 7 -43 24 -47 24 -5 0 30 -31 92 -56 116 -11 9 -31 21
-47 27 -23 9 -31 7 -47 -9z"/>
<path d="M6131 2431 c-19 -19 -41 -79 -41 -114 0 -10 7 -33 14 -52 17 -40 41
-45 82 -19 23 16 26 15 44 -1 23 -21 26 -9 5 22 -13 18 -12 22 6 39 19 17 20
17 49 -17 39 -45 38 -23 -1 31 l-31 42 -27 -26 -27 -26 -24 25 c-31 33 -36 26
-10 -17 l20 -35 -21 -19 c-20 -18 -21 -18 -35 1 -24 32 -18 109 11 143 29 35
17 54 -14 23z"/>
<path d="M810 2183 c-37 -26 -50 -45 -47 -73 2 -29 -31 -41 -45 -16 -5 9 -22
16 -40 16 -25 0 -29 -3 -20 -12 8 -8 9 -15 1 -25 -9 -10 -5 -13 21 -13 l31 0
-20 -27 c-27 -33 -20 -41 16 -18 26 18 27 17 41 -3 20 -30 34 -28 22 4 -6 14
-10 27 -10 29 0 2 18 17 41 33 l40 30 -28 9 c-31 11 -34 5 37 62 23 19 24 20
5 21 -11 0 -32 -8 -45 -17z"/>
<path d="M860 2135 c0 -9 5 -15 11 -13 6 2 11 8 11 13 0 5 -5 11 -11 13 -6 2
-11 -4 -11 -13z"/>
<path d="M6045 2120 c10 -11 27 -20 38 -20 19 0 20 1 2 20 -10 11 -27 20 -38
20 -19 0 -20 -1 -2 -20z"/>
<path d="M5972 2098 c2 -7 29 -26 61 -43 l56 -30 29 28 c15 15 38 27 51 27 21
0 23 -4 19 -51 -3 -50 -3 -50 15 -27 14 16 17 31 12 57 -11 57 -54 69 -102 27
l-28 -24 -47 24 c-53 27 -72 30 -66 12z"/>
<path d="M5983 2015 c25 -22 67 -34 67 -20 0 9 -64 45 -80 45 -10 -1 -6 -9 13
-25z"/>
<path d="M905 1998 c-65 -33 -75 -46 -75 -99 0 -44 -2 -48 -32 -60 l-33 -13
59 -4 c68 -4 86 1 86 23 0 9 -9 15 -25 15 -33 0 -32 21 3 42 l27 17 -27 1
c-16 0 -28 4 -28 8 0 8 52 42 64 42 3 0 16 -21 29 -47 15 -34 28 -48 42 -48
28 0 31 36 5 66 l-20 24 5 -30 c6 -27 5 -28 -6 -10 -7 10 -17 36 -23 56 l-11
37 -40 -20z"/>
<path d="M5882 1948 c-18 -18 -15 -93 4 -109 14 -11 22 -10 56 9 l39 23 46
-25 c76 -43 97 -32 26 14 -34 22 -67 40 -74 40 -6 0 -22 -9 -36 -20 -44 -35
-57 -27 -49 30 7 54 6 56 -12 38z"/>
<path d="M6030 1925 c0 -19 48 -70 57 -61 9 9 -15 50 -38 64 -16 10 -19 10
-19 -3z"/>
<path d="M5980 1835 c0 -13 30 -62 45 -75 14 -12 15 -10 5 14 -16 44 -30 66
-40 66 -6 0 -10 -2 -10 -5z"/>
<path d="M1075 1700 c-4 -6 -4 -29 0 -52 7 -39 5 -43 -39 -83 -53 -49 -63 -80
-13 -43 17 13 46 35 64 48 27 19 30 26 22 47 -13 35 -11 73 4 73 6 0 26 -9 42
-20 38 -25 48 -25 33 -1 -22 35 -98 55 -113 31z"/>
<path d="M5715 1688 c3 -8 20 -25 37 -38 27 -20 30 -26 25 -63 -6 -40 5 -75
27 -89 16 -11 64 -10 71 2 4 6 -6 10 -22 10 -45 0 -55 12 -48 54 l7 36 34 -21
c41 -25 44 -15 8 22 -26 27 -26 27 -4 34 15 5 31 -1 55 -20 19 -14 35 -23 35
-20 0 38 -76 83 -110 65 -29 -16 -49 -12 -86 16 -20 16 -32 21 -29 12z"/>
<path d="M970 1604 c-24 -15 -23 -15 23 -11 27 3 54 10 60 16 17 17 -53 13
-83 -5z"/>
<path d="M1216 1529 c-17 -13 -26 -30 -25 -47 0 -25 1 -26 12 -8 7 11 22 30
35 42 39 38 23 48 -22 13z"/>
<path d="M1055 1520 c-17 -18 -17 -20 -1 -20 18 0 76 27 76 35 0 14 -60 2 -75
-15z"/>
<path d="M5588 1522 c-22 -3 -28 -9 -28 -26 0 -16 -7 -26 -21 -29 -18 -5 -12
-14 52 -71 75 -68 89 -76 89 -52 0 24 50 56 87 56 32 0 33 1 20 20 -19 27 -67
63 -74 56 -4 -3 -1 -12 5 -18 20 -20 14 -35 -23 -58 l-35 -22 -40 32 c-22 17
-40 34 -40 38 0 3 9 16 21 28 28 29 22 50 -13 46z"/>
<path d="M1293 1431 l-59 -38 -32 28 c-35 31 -88 39 -110 17 -21 -21 -13 -25
28 -15 36 10 42 9 65 -13 30 -28 31 -35 5 -67 -42 -54 -18 -53 43 2 34 31 79
67 99 78 39 23 57 47 34 47 -7 0 -40 -17 -73 -39z"/>
<path d="M5644 1445 c21 -16 32 -13 21 4 -3 6 -14 11 -23 11 -15 -1 -15 -2 2
-15z"/>
<path d="M5445 1389 c-45 -40 -65 -78 -65 -123 0 -42 23 -59 66 -47 25 7 31 4
41 -18 l11 -26 1 32 c1 21 8 36 20 43 28 15 29 14 37 -25 10 -57 28 -56 20 1
-9 61 -18 71 -51 56 -34 -16 -33 -17 -49 21 l-14 32 -1 -41 c-1 -28 -6 -44
-17 -48 -29 -11 -34 -6 -34 33 0 44 26 83 71 107 16 8 27 19 24 24 -10 16 -22
12 -60 -21z"/>
<path d="M1140 1380 c0 -5 5 -10 10 -10 6 0 10 5 10 10 0 6 -4 10 -10 10 -5 0
-10 -4 -10 -10z"/>
<path d="M1395 1335 c-25 -24 -32 -45 -17 -45 9 0 44 36 56 58 12 21 -14 13
-39 -13z"/>
<path d="M1442 1297 c-45 -46 -50 -62 -27 -93 16 -21 19 -43 7 -62 -7 -10 -17
-9 -52 3 -50 18 -58 15 -30 -10 11 -10 36 -18 57 -19 30 -1 40 4 51 24 13 23
13 30 -3 64 l-18 37 37 38 c34 35 46 61 28 61 -4 0 -27 -19 -50 -43z"/>
<path d="M1494 1262 c-12 -9 -24 -25 -27 -35 -5 -14 -3 -16 12 -8 24 13 44 38
39 50 -1 6 -12 2 -24 -7z"/>
<path d="M5212 1197 c-48 -49 -53 -67 -16 -67 16 0 37 -12 54 -30 37 -39 55
-40 35 0 -8 16 -29 37 -46 46 l-31 16 27 28 c15 16 26 33 23 40 -2 6 -22 -9
-46 -33z"/>
<path d="M5280 1151 c0 -13 29 -35 37 -28 7 8 -15 37 -28 37 -5 0 -9 -4 -9 -9z"/>
<path d="M1653 1105 c-24 -24 -43 -52 -43 -62 0 -11 -10 -29 -22 -41 -21 -18
-26 -19 -48 -7 -66 37 -33 -10 39 -57 55 -34 89 -38 49 -5 -34 28 -35 37 -4
66 13 12 34 42 46 66 14 27 34 48 51 55 16 7 26 16 23 21 -12 20 -52 4 -91
-36z"/>
<path d="M5190 1101 c0 -24 25 -73 41 -82 15 -8 32 -4 74 15 l55 25 0 -24 c0
-34 17 -40 23 -7 3 15 9 35 12 45 10 25 -26 22 -83 -8 -61 -33 -69 -32 -89 10
-15 32 -33 46 -33 26z"/>
<path d="M5075 1018 c21 -90 1 -109 -44 -43 -29 43 -60 55 -81 30 -10 -13 -9
-15 8 -15 13 0 31 -16 49 -42 27 -40 32 -43 69 -40 50 4 75 -18 53 -45 -13
-15 -11 -15 26 -9 22 4 43 10 47 12 13 8 9 44 -5 44 -7 0 -21 6 -31 13 -16 12
-17 17 -6 36 11 21 10 22 -9 16 -17 -5 -23 1 -37 34 -20 51 -50 57 -39 9z"/>
<path d="M1937 943 c-51 -81 -68 -122 -58 -142 7 -12 6 -22 -1 -29 -17 -17 -4
-24 25 -13 23 9 25 7 31 -25 10 -49 30 -44 22 6 -5 33 -3 42 14 52 32 20 24
29 -20 22 -50 -8 -52 6 -11 73 16 27 32 58 36 71 10 35 -12 26 -38 -15z"/>
<path d="M1871 932 c-8 -18 -11 -35 -8 -38 8 -9 29 35 25 54 -2 12 -8 7 -17
-16z"/>
<path d="M1984 881 c-42 -26 -55 -46 -23 -36 32 10 69 35 69 46 0 14 -12 11
-46 -10z"/>
<path d="M4718 879 c-29 -17 -20 -28 17 -22 42 7 47 -10 10 -39 -45 -35 -30
-44 33 -21 6 3 12 -2 12 -11 0 -13 4 -15 19 -7 23 13 32 4 26 -23 -4 -14 4
-32 20 -51 l26 -30 -7 30 c-4 17 -8 43 -10 60 -1 16 -10 35 -20 42 -14 10 -15
16 -6 25 18 18 14 28 -12 28 -13 0 -29 7 -36 15 -14 17 -47 19 -72 4z"/>
<path d="M2094 861 c-45 -28 -69 -94 -55 -149 14 -51 61 -92 104 -92 32 1 32
1 -15 25 -49 26 -61 46 -61 107 0 48 25 85 63 95 17 5 31 13 33 18 4 18 -37
16 -69 -4z"/>
<path d="M4612 823 c-13 -5 -82 -134 -82 -153 0 -21 21 2 52 58 l32 56 14 -34
c7 -19 12 -49 10 -67 -3 -23 0 -33 9 -33 8 0 17 -10 22 -22 8 -21 2 -27 -58
-61 -46 -27 -57 -37 -36 -32 36 8 135 63 135 75 0 5 -4 12 -10 15 -5 3 -10 19
-10 35 0 16 -4 31 -9 34 -4 3 -16 32 -25 65 -18 64 -23 71 -44 64z"/>
<path d="M2170 785 c0 -9 5 -15 11 -13 6 2 11 8 11 13 0 5 -5 11 -11 13 -6 2
-11 -4 -11 -13z"/>
<path d="M2117 766 c-8 -19 27 -80 47 -84 15 -3 13 4 -9 47 -28 55 -30 58 -38
37z"/>
<path d="M2373 762 c16 -17 16 -21 2 -32 -12 -10 -18 -10 -30 0 -13 11 -21 8
-45 -15 -34 -33 -37 -51 -13 -77 16 -18 15 -20 -18 -47 -19 -16 -31 -32 -28
-35 7 -7 119 62 119 74 0 5 -14 11 -31 15 -24 5 -29 11 -27 28 3 19 9 22 39
19 25 -2 41 3 53 17 25 27 17 65 -14 70 -24 3 -24 2 -7 -17z"/>
<path d="M4294 701 c-89 -41 -116 -141 -38 -141 18 0 23 -7 26 -32 l4 -33 11
26 c7 16 22 28 38 31 27 6 27 5 21 -41 l-5 -46 20 43 c25 54 20 72 -24 72 -32
0 -33 1 -30 38 l3 37 -17 -37 c-16 -38 -34 -46 -61 -29 -12 7 -11 14 2 40 20
39 63 61 117 61 36 0 40 2 29 15 -16 20 -46 19 -96 -4z"/>
<path d="M4810 698 c0 -8 9 -23 19 -32 19 -17 19 -17 14 3 -7 27 -33 50 -33
29z"/>
<path d="M2600 693 c0 -6 -3 -18 -6 -27 -3 -9 -2 -16 4 -16 15 0 24 32 12 44
-7 7 -10 7 -10 -1z"/>
<path d="M2635 671 c-3 -12 -22 -28 -40 -35 -36 -15 -55 -58 -55 -124 0 -45
16 -32 24 19 8 47 22 79 36 79 6 0 10 -9 10 -21 0 -16 4 -19 20 -14 16 5 20 2
20 -15 0 -14 -8 -24 -20 -27 -16 -4 -18 -9 -10 -18 7 -8 9 -30 5 -52 -6 -36
-5 -37 9 -19 9 11 16 25 16 32 0 6 6 14 13 17 19 7 20 77 1 105 -9 13 -13 34
-10 46 3 11 1 27 -3 35 -7 11 -10 9 -16 -8z"/>
<path d="M2400 660 c0 -5 7 -10 15 -10 8 0 15 5 15 10 0 6 -7 10 -15 10 -8 0
-15 -4 -15 -10z"/>
<path d="M2862 608 c-16 -52 -22 -102 -14 -113 4 -6 19 -16 33 -22 55 -24 38
-73 -25 -73 -28 0 -35 -14 -11 -24 16 -6 35 -1 73 17 35 16 29 59 -12 94 l-34
28 10 53 c8 37 8 56 1 63 -8 8 -14 0 -21 -23z"/>
<path d="M4020 608 c0 -13 8 -54 18 -93 15 -59 22 -71 41 -73 14 -2 21 -9 17
-17 -10 -26 14 -26 25 -1 l12 25 28 -20 c17 -12 30 -16 34 -9 3 6 -7 18 -24
27 -25 15 -29 22 -24 45 7 35 -3 36 -29 3 -27 -35 -36 -32 -48 18 -23 92 -31
117 -40 117 -6 0 -10 -10 -10 -22z"/>
<path d="M4552 599 c10 -30 12 -31 25 -13 17 23 12 38 -15 42 -20 3 -21 1 -10
-29z"/>
<path d="M2801 602 c-13 -25 -15 -85 -2 -78 11 7 26 85 18 93 -3 2 -10 -4 -16
-15z"/>
<path d="M2365 596 c-32 -14 -75 -56 -58 -56 11 0 93 57 93 65 0 6 0 6 -35 -9z"/>
<path d="M3824 600 c-81 -19 -128 -87 -84 -122 12 -10 28 -18 36 -18 10 0 12
-9 8 -32 l-5 -33 18 28 c11 17 27 27 41 27 25 0 26 -5 6 -69 -10 -33 7 -20 30
23 23 42 16 66 -20 66 -25 0 -26 2 -19 43 l6 42 -23 -36 c-16 -25 -29 -34 -43
-31 -36 7 -37 19 -7 53 28 32 35 34 91 34 39 0 61 4 61 11 0 23 -38 28 -96 14z"/>
<path d="M4100 575 c-18 -54 -7 -78 13 -31 19 43 22 66 8 66 -5 0 -15 -16 -21
-35z"/>
<path d="M2916 574 c-3 -9 -6 -28 -6 -42 1 -26 1 -26 15 -8 16 22 20 66 6 66
-5 0 -12 -7 -15 -16z"/>
<path d="M3522 508 c3 -69 4 -73 28 -76 30 -4 60 -29 60 -49 0 -8 -18 -22 -41
-31 -31 -12 -37 -17 -25 -24 26 -15 96 30 96 62 0 20 -37 55 -67 65 -19 5 -23
13 -23 50 0 49 -8 75 -22 75 -5 0 -8 -32 -6 -72z"/>
<path d="M3252 519 c-35 -28 -61 -53 -58 -56 3 -4 32 10 63 30 l58 36 3 -29
c2 -16 -4 -43 -13 -60 -13 -24 -14 -35 -5 -46 20 -23 4 -44 -32 -45 -18 0 -51
-4 -73 -8 -33 -7 -24 -9 52 -10 86 -1 91 0 86 19 -3 11 -2 28 3 37 4 10 8 32
9 48 1 17 5 54 10 83 7 50 7 52 -16 52 -13 -1 -52 -23 -87 -51z"/>
<path d="M3970 568 c0 -3 5 -19 11 -36 12 -34 31 -36 22 -2 -5 17 -33 50 -33
38z"/>
<path d="M3456 526 c-6 -23 7 -76 19 -76 3 0 5 23 5 50 0 53 -14 67 -24 26z"/>
<path d="M3580 516 c0 -19 5 -38 10 -41 6 -4 10 10 10 34 0 23 -4 41 -10 41
-5 0 -10 -15 -10 -34z"/>
<path d="M3190 400 c0 -28 2 -30 20 -20 11 6 20 15 20 20 0 5 -9 14 -20 20
-18 10 -20 8 -20 -20z"/>
</g>
</svg>
