<svg xmlns="http://www.w3.org/2000/svg" width="682.667" height="682.667" viewBox="0 0 512 512"><path d="M182.2 1c-42.7 7.7-66.5 49.1-54.6 95.2 3.6 14.2 12.1 34.6 19.8 47.8 2 3.4 3.5 6.4 3.3 6.7-.3.2-3.3-1.3-6.7-3.3-14.9-8.7-37.4-17.7-52.7-21-11.1-2.4-28.5-2.2-38.7.5C27 133.7 9.2 151 2.4 176.1c-2.8 10.1-2.6 28.3.4 37.9 4 12.6 11.5 25.5 22.4 38.2l3.1 3.8-3.1 3.7C14.3 272.5 6.8 285.4 2.8 298c-2.9 9.6-3.2 27.8-.4 38 6.6 24.6 24.8 42.4 50.3 49.1 10 2.6 27.5 2.8 38.6.5 15.2-3.3 37.8-12.3 52.7-21 3.4-2 6.4-3.5 6.6-3.3s-1.8 4.4-4.6 9.3c-8.6 15.4-16.3 35.1-19.6 50.3-2.4 10.9-2.1 28.4.5 38.5 6.8 25.6 24.1 43.4 49.2 50.2 10.1 2.8 28.3 2.6 37.9-.4 12.6-4 25.5-11.5 38.3-22.4l3.7-3.1 3.8 3.1c12.7 10.9 25.6 18.4 38.2 22.4 9.6 2.9 27.8 3.2 38 .4 24.6-6.6 42.4-24.8 49.1-50.3 2.6-10 2.8-27.5.5-38.6-3.3-15.2-12.3-37.8-21-52.7-2-3.4-3.5-6.4-3.3-6.7.3-.2 3.3 1.3 6.7 3.3 14.9 8.7 37.5 17.7 52.7 21 11.2 2.4 28.6 2.1 38.7-.5 25.8-6.8 43.3-24 50.2-49.2 2.8-10.1 2.6-28.3-.4-37.9-4-12.6-11.5-25.5-22.4-38.2l-3.1-3.8 3.1-3.8c10.9-12.7 18.4-25.6 22.4-38.2 2.9-9.6 3.2-27.8.4-38-11.3-42.1-54.7-61.5-102.7-45.9-10.4 3.4-26.8 10.5-36.3 15.9-4.9 2.8-9.1 4.8-9.3 4.6s1.3-3.2 3.3-6.6c8.7-14.9 17.7-37.5 21-52.7 2.4-11.2 2.1-28.6-.5-38.7C378.3 27 361 9.2 335.9 2.4c-10.1-2.8-28.3-2.6-37.9.4-12.6 4-25.5 11.5-38.2 22.4l-3.8 3.1-3.7-3.1C239.7 14.5 226.7 6.9 214.5 3c-8-2.5-23.9-3.5-32.3-2m24.9 31.3c10.9 3.7 17.6 8.4 30.1 21 17.8 18 19.6 18 37.2.3 13.2-13.2 20.7-18.3 32-21.8 5.3-1.6 8.4-1.9 14-1.5 20.4 1.5 33 13.9 36.6 35.9 5.1 32.2-30.7 94.3-89.8 155.8l-11 11.5-6.2-6c-22.1-21.5-54.2-61.6-70.3-87.6-27.7-44.8-32.4-77.7-14-98 9.7-10.7 26.6-14.6 41.4-9.6M87 156.2c32.3 6.2 86.9 42 135 88.7l11.5 11.1-11.5 11.1c-42.3 41.1-93.9 76.5-125.7 86.3-19.5 6-35.2 5.1-48.9-2.9-13.8-8.1-20.7-27.5-15.6-44.1 3.5-11.3 8.6-18.8 21.5-31.6 18-17.9 18-19.6.3-37.3-13.2-13.1-18.3-20.6-21.8-31.9-5.1-16.6 1.8-36 15.6-44.1 11.7-6.9 23.4-8.4 39.6-5.3m366 .5c17.3 4.7 27.3 17 28.7 34.9.4 5.6.1 8.7-1.5 14-3.5 11.3-8.6 18.8-21.8 31.9-17.7 17.7-17.7 19.5.3 37.3 12.9 12.8 18 20.3 21.5 31.6 1.6 5.3 1.9 8.4 1.5 14-1.5 20.4-13.9 33-35.9 36.6-32.2 5.1-94.1-30.5-155.8-89.8l-11.5-11 3-3.2c5.6-6 27.9-26.3 40-36.4 34.4-28.7 66.6-48.7 92-57.2 16.3-5.4 27.1-6.2 39.5-2.7m-187.9 131c33.7 34.3 64 75.1 79.4 106.8 15 30.8 16.8 51.7 6 70.1-8.1 13.8-27.5 20.7-44.1 15.6-11.3-3.5-18.8-8.6-31.9-21.8-17.7-17.7-19.5-17.7-37.3.3-12.8 12.9-20.3 18-31.6 21.5-12.6 3.8-27.7.8-37-7.3-10.5-9.3-15.6-24.7-13.5-41.2 3.7-30.1 29.5-74.1 71.3-121.7 11.7-13.2 28.5-31 29.5-31 .3 0 4.5 3.9 9.2 8.7"/><path d="M185 35.6c-14.3 3.8-23.3 14.9-25.8 31.7-3.4 23.6 16.8 65.5 54.1 112.2 10 12.5 32.5 38 38.7 44l4.2 4 9-9.5c53.2-56 87.9-113.1 87.9-144.9 0-12-5.8-25.7-13.4-31.5-4.6-3.5-12.3-6.4-19.1-7.2-4.1-.5-7.1-.1-12.3 1.4-11.3 3.5-18.7 8.6-31.8 21.8-13.2 13.3-15.4 14.4-24.7 12.9-3.8-.7-5.7-2.2-16.3-12.9C222.7 44.7 216 40 205.1 36.3c-7.6-2.6-12.4-2.8-20.1-.7M67.8 159.1c-15.8 2.3-26.3 9.7-30.9 21.8-3.1 8.4-3.5 14.9-1.1 22.8 3.5 11.3 8.6 18.7 21.8 31.8 10.7 10.6 12.2 12.5 12.9 16.2 1.5 9.4.4 11.6-12.9 24.8-13.2 13.1-18.3 20.5-21.8 31.8-4.3 14.2 1.3 30.3 13.1 37.8 14.4 9.2 31.7 9.1 54.8-.1 30.7-12.2 76.7-44.8 114.3-80.9l9.5-9.1-9.5-9.1c-57.9-55.6-120.4-92.1-150.2-87.8M432.6 159.2c-25.8 3-66.4 25.9-109.1 61.4-12.4 10.4-36.8 32.5-38.1 34.6-.9 1.4 11.2 13.1 30.5 29.7 50.1 43.1 95.3 68.2 123 68.2 12 0 25.7-5.8 31.5-13.4 3.5-4.6 6.4-12.3 7.2-19.1.5-4.1.1-7.1-1.4-12.3-3.5-11.3-8.6-18.7-21.8-31.8-13.3-13.1-14.4-15.4-12.9-24.8.7-3.7 2.2-5.6 12.9-16.2 13.2-13.1 18.3-20.5 21.8-31.8 4.3-14.2-1.3-30.3-13-37.8-8.8-5.6-19.6-7.9-30.6-6.7M244.7 296.2c-33.8 36.5-57.6 68.7-72 97.4-12.9 25.7-16.4 43.4-11.8 58.4 3.8 12.2 9.9 19.2 20 23.1 8.4 3.1 14.9 3.5 22.8 1.1 11.3-3.5 18.7-8.6 31.8-21.8 13.1-13.3 15.4-14.4 24.8-12.9 3.7.7 5.6 2.2 16.2 12.9 13.1 13.2 20.5 18.3 31.8 21.8 14.2 4.3 30.3-1.3 37.8-13.1 4.3-6.7 7-16.4 7-24.6-.1-28.5-28.5-78-74.3-129.8-10.8-12.1-22-23.7-22.9-23.7-.4 0-5.4 5.1-11.2 11.2"/></svg>