<?xml version="1.0" standalone="no"?>
<!DOCTYPE svg PUBLIC "-//W3C//DTD SVG 20010904//EN"
 "http://www.w3.org/TR/2001/REC-SVG-20010904/DTD/svg10.dtd">
<svg version="1.0" xmlns="http://www.w3.org/2000/svg"
 width="512.000000pt" height="512.000000pt" viewBox="0 0 512.000000 512.000000"
 preserveAspectRatio="xMidYMid meet">

<g transform="translate(0.000000,512.000000) scale(0.100000,-0.100000)"
fill="#000000" stroke="none">
<path d="M1822 5110 c-427 -77 -665 -491 -546 -952 36 -142 121 -346 198 -478
20 -34 35 -64 33 -67 -3 -2 -33 13 -67 33 -149 87 -374 177 -527 210 -111 24
-285 22 -387 -5 -256 -68 -434 -241 -502 -492 -28 -101 -26 -283 4 -379 40
-126 115 -255 224 -382 l31 -38 -31 -37 c-109 -128 -184 -257 -224 -383 -29
-96 -32 -278 -4 -380 66 -246 248 -424 503 -491 100 -26 275 -28 386 -5 152
33 378 123 527 210 34 20 64 35 66 33 2 -2 -18 -44 -46 -93 -86 -154 -163
-351 -196 -503 -24 -109 -21 -284 5 -385 68 -256 241 -434 492 -502 101 -28
283 -26 379 4 126 40 255 115 383 224 l37 31 38 -31 c127 -109 256 -184 382
-224 96 -29 278 -32 380 -4 246 66 424 248 491 503 26 100 28 275 5 386 -33
152 -123 378 -210 527 -20 34 -35 64 -33 67 3 2 33 -13 67 -33 149 -87 375
-177 527 -210 112 -24 286 -21 387 5 258 68 433 240 502 492 28 101 26 283 -4
379 -40 126 -115 255 -224 382 l-31 38 31 38 c109 127 184 256 224 382 29 96
32 278 4 380 -113 421 -547 615 -1027 459 -104 -34 -268 -105 -363 -159 -49
-28 -91 -48 -93 -46 -2 2 13 32 33 66 87 149 177 375 210 527 24 112 21 286
-5 387 -68 256 -241 434 -492 502 -101 28 -283 26 -379 -4 -126 -40 -255 -115
-382 -224 l-38 -31 -37 31 c-126 107 -256 183 -378 222 -80 25 -239 35 -323
20z m249 -313 c109 -37 176 -84 301 -210 178 -180 196 -180 372 -3 132 132
207 183 320 218 53 16 84 19 140 15 204 -15 330 -139 366 -359 51 -322 -307
-943 -898 -1558 l-110 -115 -62 60 c-221 215 -542 616 -703 876 -277 448 -324
777 -140 980 97 107 266 146 414 96z m-1201 -1239 c323 -62 869 -420 1350
-887 l115 -111 -115 -111 c-423 -411 -939 -765 -1257 -863 -195 -60 -352 -51
-489 29 -138 81 -207 275 -156 441 35 113 86 188 215 316 180 179 180 196 3
373 -132 131 -183 206 -218 319 -51 166 18 360 156 441 117 69 234 84 396 53z
m3660 -5 c173 -47 273 -170 287 -349 4 -56 1 -87 -15 -140 -35 -113 -86 -188
-218 -319 -177 -177 -177 -195 3 -373 129 -128 180 -203 215 -316 16 -53 19
-84 15 -140 -15 -204 -139 -330 -359 -366 -322 -51 -941 305 -1558 898 l-115
110 30 32 c56 60 279 263 400 364 344 287 666 487 920 572 163 54 271 62 395
27z m-1879 -1310 c337 -343 640 -751 794 -1068 150 -308 168 -517 60 -701 -81
-138 -275 -207 -441 -156 -113 35 -188 86 -319 218 -177 177 -195 177 -373 -3
-128 -129 -203 -180 -316 -215 -126 -38 -277 -8 -370 73 -105 93 -156 247
-135 412 37 301 295 741 713 1217 117 132 285 310 295 310 3 0 45 -39 92 -87z"/>
<path d="M1850 4764 c-143 -38 -233 -149 -258 -317 -34 -236 168 -655 541
-1122 100 -125 325 -380 387 -440 l42 -40 90 95 c532 560 879 1131 879 1449 0
120 -58 257 -134 315 -46 35 -123 64 -191 72 -41 5 -71 1 -123 -14 -113 -35
-187 -86 -318 -218 -132 -133 -154 -144 -247 -129 -38 7 -57 22 -163 129 -128
129 -195 176 -304 213 -76 26 -124 28 -201 7z"/>
<path d="M678 3529 c-158 -23 -263 -97 -309 -218 -31 -84 -35 -149 -11 -228
35 -113 86 -187 218 -318 107 -106 122 -125 129 -162 15 -94 4 -116 -129 -248
-132 -131 -183 -205 -218 -318 -43 -142 13 -303 131 -378 144 -92 317 -91 548
1 307 122 767 448 1143 809 l95 91 -95 91 c-579 556 -1204 921 -1502 878z"/>
<path d="M4326 3528 c-258 -30 -664 -259 -1091 -614 -124 -104 -368 -325 -381
-346 -9 -14 112 -131 305 -297 501 -431 953 -682 1230 -682 120 0 257 58 315
134 35 46 64 123 72 191 5 41 1 71 -14 123 -35 113 -86 187 -218 318 -133 131
-144 154 -129 248 7 37 22 56 129 162 132 131 183 205 218 318 43 142 -13 303
-130 378 -88 56 -196 79 -306 67z"/>
<path d="M2447 2158 c-338 -365 -576 -687 -720 -974 -129 -257 -164 -434 -118
-584 38 -122 99 -192 200 -231 84 -31 149 -35 228 -11 113 35 187 86 318 218
131 133 154 144 248 129 37 -7 56 -22 162 -129 131 -132 205 -183 318 -218
142 -43 303 13 378 131 43 67 70 164 70 246 -1 285 -285 780 -743 1298 -108
121 -220 237 -229 237 -4 0 -54 -51 -112 -112z"/>
</g>
</svg>
