<svg xmlns="http://www.w3.org/2000/svg" width="556" height="556" viewBox="0 0 417 417"><path d="M198 63c-24 .8-26.5 1.1-34.9 4.1-3 1.1-10.6 2.9-17 4-24.9 4.2-29.3 6.9-63.9 38.1-20.4 18.4-29.3 29.7-43.1 54.4-12.7 22.9-14.5 30.8-14.5 61.4 0 28.8 1.7 36.1 10.9 45.9 4.1 4.4 7 6.1 21.5 12.4 7.3 3.1 11.4 7.4 12.9 13.3 2.3 9 10.9 18.2 22.5 24.1 7.1 3.6 9.8 4.3 20.5 5.3 6.7.6 10.1 1.4 12 2.8 4.9 3.6 7.6 4.5 14.9 5.2 4.1.4 7.8 1.3 8.2 2 .4.6-.3 4.2-1.6 7.8-2.9 8.5-4.8 21.9-4 27.7.8 5.3 3.4 7.5 8.9 7.5 5 0 8.2-1.8 13.8-7.7 5.9-6.1 9.2-11 20.8-31.1 9.9-16.9 11.2-18.5 25.1-30.9 11.9-10.6 12.6-10.8 29.5-10.3 7.7.3 19.2.4 25.5.4 13.6-.1 17.3-1.2 32.5-10.3 13.6-8.1 22.9-15.9 26-22 3.3-6.7 6.3-8.5 19.6-12.1 20-5.5 29.4-12 36-25.2 1.7-3.4 5.3-9.5 8-13.3 5.6-8.1 7.2-12.4 8.9-22.7 1.6-9.9.9-32.8-1.2-38.6-6.4-17.5-42.8-57.1-55.1-59.7-2.1-.5-5.4-3-9.7-7.4-9.7-9.9-28.8-19.2-47-22.7-6.1-1.2-55.6-3.8-62-3.2-.8.1-11.6.4-24 .8m-20.5 24.3c2.2.8 7.4 2 11.6 2.6 10.1 1.4 12.9 2.5 12.9 5.2 0 2.1-.3 2.2-8.7 1.6-13.8-.9-28.3-5.9-28.3-9.8 0-1.9.5-2 4.3-1.6 2.3.2 6 1.1 8.2 2m75.7 16.3c5 1.7 6.6 3 10.3 8.7 2.2 3.3 2.5 4.9 2.5 12.1 0 10.4-1.9 16.2-7.4 22.3-5.6 6.2-6.6 8.3-6.6 13.3 0 5.3 1.7 8.4 7.7 14.1 7 6.8 9.8 7.9 19.6 7.9 9 0 12.2 1.3 11.6 4.5-.6 2.8-6.8 4.3-17.6 4.4-8.7.1-9.5-.1-16.4-3.7-4-2-7.6-4.4-8-5.2-3.6-7.3-4.9-12.4-4.9-20.2 0-9 1.6-13.3 9.5-25.8 3.1-4.8 3.5-6.2 3.5-12 0-6.4-.1-6.7-4.2-10.7-4.9-4.8-8.3-6.3-13.9-6.3-3.5 0-3.9-.3-3.9-2.5 0-2.4.2-2.5 6.8-2.5 3.8 0 8.9.7 11.4 1.6m75.6 1.3c.8.5 1.2 2.1 1 3.7-.5 4.5-7.2 6.5-23.5 7.2l-13.3.5v-3.2c0-3.6.5-3.7 12.1-4.5 4.6-.2 9.4-1.2 12-2.4 4.7-2.2 9.6-2.7 11.7-1.3M137 112.8c0 5.8 2.5 7.6 9.2 6.8 2.9-.4 9.1-.9 13.8-1.2 7.5-.5 9-.3 13 1.8 6.3 3.2 13 13.2 13 19.4 0 3.9-.3 4.4-2.2 4.4-3.6-.1-6.2-2-13.8-10.3-5.5-5.9-7.8-7.7-9.8-7.7-1.5 0-7.9 1.9-14.2 4.1-10.1 3.6-12.8 4.2-22 4.6-9.5.3-11.3.1-18.5-2.4l-8-2.8-.3-4.7c-.3-4.7-.2-4.8 4.4-7.8 4.1-2.6 12.8-6 18.9-7.3 1.1-.3 5.3-.5 9.3-.6l7.2-.1zm30.7 40.7c2.9 1.3 8.4 4.9 12.1 7.9 9.5 7.7 12.1 8.6 24.7 8.6 10.4 0 10.6 0 10.3 2.2-.4 2.9-6.7 4.8-16.8 4.9-9.6.1-19-3-30.6-10.1-5-3-9.4-5-11.2-5s-5.2 1.5-8.2 3.5c-4 2.7-6.2 3.5-9.6 3.5-3.8 0-4.4-.3-4.4-2 0-5 5.7-11.2 13.2-14.5 5.3-2.3 14.5-1.9 20.5 1m152.3 5.9c0 2.5-1.2 5-4.5 9.4-5 6.7-5.8 10.9-2.9 16.5 2.7 5.1 11.2 17.6 17.1 24.9 4.9 6.2 5.7 6.8 9.2 6.8 8 0 11.1-7.6 11.1-27.6 0-14.5.3-16.4 3-16.4 2.6 0 3.1 2.8 3.7 22.6.7 23.1.6 23.6-9.1 29.8-4 2.6-9.2 6.7-11.6 9.1-3.5 3.5-5.1 4.5-7.7 4.5-3.1 0-3.3-.2-3.3-3.3 0-8.2-4.3-18.7-12.5-30.6-3.2-4.7-7.1-11.4-8.8-15-7.2-15.7-.5-34.1 12.4-34.1 3.8 0 3.9.1 3.9 3.4m-223.9 7.8c.7 1.3 1 4.9.7 9.2-.4 5.6-1.3 8.6-4.1 14.3-2.1 4-3.7 8.6-3.7 10.3 0 4.1 7.2 11.9 13.7 14.7 2.6 1.2 7.3 3.3 10.4 4.6 5.4 2.4 5.8 2.8 7.9 8.3 2.2 6.2 5.8 10.7 10 12.9 1.4.7 8.3 1.5 15.5 1.9 7.2.3 17.3 1.5 22.5 2.6 17.4 3.6 20.7 2.4 19.7-7.3-.8-7.7-6.3-21.2-10.6-26-5.2-5.8-8.2-6.7-21.9-6.7-6.6 0-13.3-.5-14.9-1-3.2-1.2-5.3-4.5-5.3-8.5 0-3.5 4.2-3.3 9.4.2 3.9 2.8 4.2 2.8 19.1 2.8h15.1l8 5.2c10.3 6.8 14.6 8.2 28 9.3 12 1 14.8 1.8 19.3 5.1 1.8 1.3 5.8 2.5 11.5 3.4 6.1.9 9.7 2 12.4 3.8 4.4 3.1 10.6 4.6 18.4 4.7 6.4 0 8.8.7 8.8 2.5s-4.7 2.5-15.9 2.5c-11.5-.1-16-1-20.9-4.4-5.1-3.5-10.2-5.1-26.9-8.6-18.2-3.8-23.1-3.9-26.3-.5-2.3 2.5-2.3 2.6-1.1 12.7.7 5.7 1.6 11.9 2.2 13.9 1.3 5.2 10.9 14 18 16.7 8.4 3.1 29 7.2 36.5 7.2 6.3 0 6.6-.1 11.3-4.5 2.7-2.5 5.4-5.9 6.1-7.6 1.5-3.4 3.3-3.4 3.8.2.5 3.5 6.1 8.9 9.1 8.9 1.5 0 5.8-.9 9.6-2 13-3.7 13.8-2.4 2.6 4.4-11.7 7-17.7 8.6-33.1 8.6-14.2 0-24.7-1.5-54.2-7.9-35.2-7.7-48.1-8.9-106.8-10.1-27.7-.5-43.9-1.2-46.4-2-8-2.4-13.3-12.2-14.3-26.1-.7-9.8.2-14.9 2.6-14.9 1.5 0 1.9 1.1 2.4 6.9.7 8.9 2.7 13.5 8.5 19.5 10 10.3 23.2 11.7 23.2 2.3 0-2.2-1.6-4.6-6.4-9.9-7.7-8.2-9-11.6-8.3-21.2.6-9 2.6-15 5.1-15.4 1.8-.4 1.9.1 1.3 8.8-.6 7.8-.4 9.6 1.2 12.8 5.3 10.3 27 25.2 36.6 25.2 4.9 0 10.5-5.1 10.5-9.4 0-2.6-1.2-4.3-6.2-9.2-3.5-3.4-8.1-7.1-10.3-8.4-9.5-5.6-14.7-9.4-16-12.1-2.4-4.6-2-16.1.9-21.7 3.2-6.3 5.6-14.7 5.6-19.4 0-3.4.3-3.8 2.5-3.8 1.5 0 2.9.8 3.6 2.2M84.6 290.4c4.6 8.6 11.2 16.1 16.1 18.2 1.8.8 12.4 3 23.5 4.9 22.3 3.9 31.8 6.2 31.8 7.8 0 1.8-15.8-.1-39-4.8-22-4.5-25.7-5.7-29.2-9.9s-8.8-15.5-9.5-20.1c-.9-6.9 1.3-5.6 6.3 3.9"/></svg>