<?xml version="1.0" standalone="no"?>
<!DOCTYPE svg PUBLIC "-//W3C//DTD SVG 20010904//EN"
 "http://www.w3.org/TR/2001/REC-SVG-20010904/DTD/svg10.dtd">
<svg version="1.0" xmlns="http://www.w3.org/2000/svg"
 width="417.000000pt" height="417.000000pt" viewBox="0 0 417.000000 417.000000"
 preserveAspectRatio="xMidYMid meet">

<g transform="translate(0.000000,417.000000) scale(0.100000,-0.100000)"
fill="#000000" stroke="none">
<path d="M1980 3540 c-240 -8 -265 -11 -349 -41 -30 -11 -106 -29 -170 -40
-249 -42 -293 -69 -639 -381 -204 -184 -293 -297 -431 -544 -127 -229 -145
-308 -145 -614 0 -288 17 -361 109 -459 41 -44 70 -61 215 -124 73 -31 114
-74 129 -133 23 -90 109 -182 225 -241 71 -36 98 -43 205 -53 67 -6 101 -14
120 -28 49 -36 76 -45 149 -52 41 -4 78 -13 82 -20 4 -6 -3 -42 -16 -78 -29
-85 -48 -219 -40 -277 8 -53 34 -75 89 -75 50 0 82 18 138 77 59 61 92 110
208 311 99 169 112 185 251 309 119 106 126 108 295 103 77 -3 192 -4 255 -4
136 1 173 12 325 103 136 81 229 159 260 220 33 67 63 85 196 121 200 55 294
120 360 252 17 34 53 95 80 133 56 81 72 124 89 227 16 99 9 328 -12 386 -64
175 -428 571 -551 597 -21 5 -54 30 -97 74 -97 99 -288 192 -470 227 -61 12
-556 38 -620 32 -8 -1 -116 -4 -240 -8z m-205 -243 c22 -8 74 -20 116 -26 101
-14 129 -25 129 -52 0 -21 -3 -22 -87 -16 -138 9 -283 59 -283 98 0 19 5 20
43 16 23 -2 60 -11 82 -20z m757 -163 c50 -17 66 -30 103 -87 22 -33 25 -49
25 -121 0 -104 -19 -162 -74 -223 -56 -62 -66 -83 -66 -133 0 -53 17 -84 77
-141 70 -68 98 -79 196 -79 90 0 122 -13 116 -45 -6 -28 -68 -43 -176 -44 -87
-1 -95 1 -164 37 -40 20 -76 44 -80 52 -36 73 -49 124 -49 202 0 90 16 133 95
258 31 48 35 62 35 120 0 64 -1 67 -42 107 -49 48 -83 63 -139 63 -35 0 -39 3
-39 25 0 24 2 25 68 25 38 0 89 -7 114 -16z m756 -13 c8 -5 12 -21 10 -37 -5
-45 -72 -65 -235 -72 l-133 -5 0 32 c0 36 5 37 121 45 46 2 94 12 120 24 47
22 96 27 117 13z m-1918 -79 c0 -58 25 -76 92 -68 29 4 91 9 138 12 75 5 90 3
130 -18 63 -32 130 -132 130 -194 0 -39 -3 -44 -22 -44 -36 1 -62 20 -138 103
-55 59 -78 77 -98 77 -15 0 -79 -19 -142 -41 -101 -36 -128 -42 -220 -46 -95
-3 -113 -1 -185 24 l-80 28 -3 47 c-3 47 -2 48 44 78 41 26 128 60 189 73 11
3 53 5 93 6 l72 1 0 -38z m307 -407 c29 -13 84 -49 121 -79 95 -77 121 -86
247 -86 104 0 106 0 103 -22 -4 -29 -67 -48 -168 -49 -96 -1 -190 30 -306 101
-50 30 -94 50 -112 50 -18 0 -52 -15 -82 -35 -40 -27 -62 -35 -96 -35 -38 0
-44 3 -44 20 0 50 57 112 132 145 53 23 145 19 205 -10z m1523 -59 c0 -25 -12
-50 -45 -94 -50 -67 -58 -109 -29 -165 27 -51 112 -176 171 -249 49 -62 57
-68 92 -68 80 0 111 76 111 276 0 145 3 164 30 164 26 0 31 -28 37 -226 7
-231 6 -236 -91 -298 -40 -26 -92 -67 -116 -91 -35 -35 -51 -45 -77 -45 -31 0
-33 2 -33 33 0 82 -43 187 -125 306 -32 47 -71 114 -88 150 -72 157 -5 341
124 341 38 0 39 -1 39 -34z m-2239 -78 c7 -13 10 -49 7 -92 -4 -56 -13 -86
-41 -143 -21 -40 -37 -86 -37 -103 0 -41 72 -119 137 -147 26 -12 73 -33 104
-46 54 -24 58 -28 79 -83 22 -62 58 -107 100 -129 14 -7 83 -15 155 -19 72 -3
173 -15 225 -26 174 -36 207 -24 197 73 -8 77 -63 212 -106 260 -52 58 -82 67
-219 67 -66 0 -133 5 -149 10 -32 12 -53 45 -53 85 0 35 42 33 94 -2 39 -28
42 -28 191 -28 l151 0 80 -52 c103 -68 146 -82 280 -93 120 -10 148 -18 193
-51 18 -13 58 -25 115 -34 61 -9 97 -20 124 -38 44 -31 106 -46 184 -47 64 0
88 -7 88 -25 0 -18 -47 -25 -159 -25 -115 1 -160 10 -209 44 -51 35 -102 51
-269 86 -182 38 -231 39 -263 5 -23 -25 -23 -26 -11 -127 7 -57 16 -119 22
-139 13 -52 109 -140 180 -167 84 -31 290 -72 365 -72 63 0 66 1 113 45 27 25
54 59 61 76 15 34 33 34 38 -2 5 -35 61 -89 91 -89 15 0 58 9 96 20 130 37
138 24 26 -44 -117 -70 -177 -86 -331 -86 -142 0 -247 15 -542 79 -352 77
-481 89 -1068 101 -277 5 -439 12 -464 20 -80 24 -133 122 -143 261 -7 98 2
149 26 149 15 0 19 -11 24 -69 7 -89 27 -135 85 -195 100 -103 232 -117 232
-23 0 22 -16 46 -64 99 -77 82 -90 116 -83 212 6 90 26 150 51 154 18 4 19 -1
13 -88 -6 -78 -4 -96 12 -128 53 -103 270 -252 366 -252 49 0 105 51 105 94 0
26 -12 43 -62 92 -35 34 -81 71 -103 84 -95 56 -147 94 -160 121 -24 46 -20
161 9 217 32 63 56 147 56 194 0 34 3 38 25 38 15 0 29 -8 36 -22z m-115
-1232 c46 -86 112 -161 161 -182 18 -8 124 -30 235 -49 223 -39 318 -62 318
-78 0 -18 -158 1 -390 48 -220 45 -257 57 -292 99 -35 42 -88 155 -95 201 -9
69 13 56 63 -39z"/>
</g>
</svg>
