<svg width="36" height="36" viewBox="0 0 36 36" fill="none" xmlns="http://www.w3.org/2000/svg">
<path d="M24.8872 11.295C24.8939 11.295 24.9029 11.295 24.9119 11.295C25.1471 11.295 25.3653 11.3681 25.5442 11.4941L25.5408 11.4919C25.6713 11.6055 25.7591 11.7653 25.7804 11.9453V11.9486C25.8029 12.0859 25.8153 12.2434 25.8153 12.4043C25.8153 12.4774 25.8131 12.5494 25.8074 12.6214V12.6113C25.5543 15.2764 24.4563 21.7395 23.8983 24.723C23.6621 25.9864 23.1974 26.4094 22.7474 26.4499C21.7698 26.541 21.0273 25.8041 20.0801 25.1831C18.5973 24.21 17.7592 23.6048 16.3203 22.6564C14.6564 21.5618 15.7353 20.9576 16.6826 19.9744C16.9312 19.7156 21.2411 15.795 21.3254 15.4395C21.3299 15.4181 21.3322 15.3945 21.3322 15.3698C21.3322 15.282 21.2996 15.2021 21.2467 15.1414C21.1882 15.1031 21.1151 15.0818 21.0386 15.0818C20.9879 15.0818 20.9396 15.0919 20.8946 15.1088L20.8968 15.1076C20.7483 15.1414 18.3798 16.7066 13.7913 19.8034C13.2907 20.1983 12.6584 20.448 11.9699 20.4773H11.9632C10.9878 20.3591 10.1024 20.142 9.26207 19.8326L9.34532 19.8596C8.29007 19.5154 7.45194 19.3343 7.52394 18.7515C7.56219 18.4485 7.97994 18.1384 8.77719 17.8211C13.6882 15.6814 16.9631 14.271 18.6018 13.59C20.4097 12.6304 22.5056 11.8406 24.7094 11.3288L24.8861 11.2939L24.8872 11.295ZM17.9212 1.15314C8.58144 1.17564 1.01807 8.75251 1.01807 18.0956C1.01807 27.4523 8.60282 35.0381 17.9606 35.0381C27.3183 35.0381 34.9031 27.4534 34.9031 18.0956C34.9031 8.75251 27.3397 1.17564 18.0022 1.15314H17.9999C17.9737 1.15314 17.9474 1.15314 17.9212 1.15314Z" fill="white"/>
</svg>
