<svg xmlns="http://www.w3.org/2000/svg" width="4096" height="4096" viewBox="0 0 4096 4096" role="img" aria-label="Lovecraftian symbol">

  <defs>
    <linearGradient id="agedGold" x1="14%" y1="8%" x2="90%" y2="96%">
      <stop offset="0" stop-color="#eee7b4"/>
      <stop offset="0.22" stop-color="#c5bd83"/>
      <stop offset="0.58" stop-color="#77794e"/>
      <stop offset="1" stop-color="#303729"/>
    </linearGradient>
    <filter id="weatheredGrain" x="-10%" y="-10%" width="120%" height="120%" color-interpolation-filters="sRGB">
      <feTurbulence type="fractalNoise" baseFrequency="0.022 0.07" numOctaves="4" seed="23" result="noise"/>
      <feColorMatrix in="noise" type="matrix" values="0.42 0 0 0 0.01 0 0.38 0 0 0.01 0 0 0.26 0 0.01 0 0 0 0.46 0" result="grain"/>
      <feBlend in="SourceGraphic" in2="grain" mode="screen"/>
    </filter>
  </defs>
  <path d="M 2012.00 497.00 L 2003.00 509.00 L 1992.00 564.00 L 1968.00 610.00 L 1959.00 642.00 L 1926.00 696.00 L 1868.00 760.00 L 1832.00 777.00 L 1714.00 799.00 L 1566.00 865.00 L 1476.00 924.00 L 1358.00 1038.00 L 1297.00 1122.00 L 1237.00 1239.00 L 1225.00 1280.00 L 1183.00 1312.00 L 1118.00 1384.00 L 1052.00 1470.00 L 1013.00 1544.00 L 991.00 1572.00 L 931.00 1698.00 L 923.00 1738.00 L 902.00 1781.00 L 865.00 1949.00 L 850.00 2165.00 L 869.00 2347.00 L 890.00 2415.00 L 906.00 2502.00 L 919.00 2526.00 L 930.00 2568.00 L 951.00 2603.00 L 992.00 2700.00 L 1013.00 2726.00 L 1057.00 2807.00 L 1145.00 2918.00 L 1283.00 3053.00 L 1361.00 3113.00 L 1508.00 3202.00 L 1646.00 3255.00 L 1658.00 3266.00 L 1658.00 3286.00 L 1596.00 3324.00 L 1539.00 3344.00 L 1474.00 3351.00 L 1428.00 3348.00 L 1360.00 3325.00 L 1309.00 3297.00 L 1209.00 3209.00 L 1164.00 3179.00 L 1126.00 3166.00 L 1095.00 3147.00 L 1023.00 3125.00 L 913.00 3113.00 L 810.00 3118.00 L 698.00 3148.00 L 548.00 3242.00 L 534.00 3261.00 L 534.00 3285.00 L 666.00 3417.00 L 693.00 3435.00 L 709.00 3433.00 L 756.00 3398.00 L 830.00 3365.00 L 877.00 3360.00 L 961.00 3365.00 L 1047.00 3398.00 L 1134.00 3475.00 L 1234.00 3541.00 L 1294.00 3569.00 L 1444.00 3598.00 L 1551.00 3594.00 L 1651.00 3569.00 L 1716.00 3541.00 L 1775.00 3504.00 L 1909.00 3393.00 L 1997.00 3363.00 L 2077.00 3361.00 L 2126.00 3367.00 L 2195.00 3399.00 L 2317.00 3503.00 L 2384.00 3542.00 L 2459.00 3574.00 L 2589.00 3598.00 L 2686.00 3595.00 L 2800.00 3569.00 L 2904.00 3517.00 L 2959.00 3477.00 L 3016.00 3421.00 L 3060.00 3393.00 L 3124.00 3365.00 L 3153.00 3360.00 L 3256.00 3365.00 L 3339.00 3397.00 L 3382.00 3434.00 L 3407.00 3433.00 L 3422.00 3424.00 L 3535.00 3306.00 L 3555.00 3293.00 L 3562.00 3278.00 L 3560.00 3262.00 L 3543.00 3240.00 L 3456.00 3181.00 L 3422.00 3169.00 L 3382.00 3145.00 L 3290.00 3119.00 L 3215.00 3113.00 L 3093.00 3120.00 L 2997.00 3146.00 L 2929.00 3181.00 L 2854.00 3233.00 L 2758.00 3316.00 L 2666.00 3349.00 L 2599.00 3351.00 L 2541.00 3338.00 L 2490.00 3320.00 L 2441.00 3290.00 L 2431.00 3276.00 L 2433.00 3264.00 L 2446.00 3252.00 L 2507.00 3235.00 L 2573.00 3202.00 L 2701.00 3108.00 L 2822.00 2986.00 L 2906.00 2878.00 L 3000.00 2712.00 L 3061.00 2537.00 L 3095.00 2320.00 L 3095.00 2222.00 L 3089.00 2194.00 L 3081.00 2185.00 L 3071.00 2185.00 L 3059.00 2203.00 L 3027.00 2342.00 L 3002.00 2392.00 L 2991.00 2430.00 L 2972.00 2459.00 L 2962.00 2490.00 L 2877.00 2618.00 L 2788.00 2713.00 L 2699.00 2791.00 L 2585.00 2863.00 L 2476.00 2911.00 L 2465.00 2904.00 L 2459.00 2887.00 L 2464.00 2806.00 L 2454.00 2680.00 L 2428.00 2581.00 L 2421.00 2524.00 L 2477.00 2456.00 L 2543.00 2340.00 L 2576.00 2224.00 L 2583.00 2166.00 L 2576.00 2128.00 L 2560.00 2117.00 L 2488.00 2115.00 L 2464.00 2126.00 L 2454.00 2145.00 L 2448.00 2223.00 L 2416.00 2306.00 L 2384.00 2367.00 L 2363.00 2374.00 L 2348.00 2361.00 L 2331.00 2311.00 L 2278.00 2232.00 L 2266.00 2203.00 L 2176.00 2091.00 L 2091.00 2003.00 L 1999.00 1927.00 L 1918.00 1872.00 L 1810.00 1811.00 L 1764.00 1799.00 L 1753.00 1790.00 L 1749.00 1773.00 L 1756.00 1759.00 L 1802.00 1739.00 L 1836.00 1716.00 L 1914.00 1689.00 L 1987.00 1682.00 L 2007.00 1673.00 L 2021.00 1649.00 L 2021.00 1584.00 L 2016.00 1569.00 L 1999.00 1556.00 L 1966.00 1552.00 L 1884.00 1561.00 L 1839.00 1582.00 L 1787.00 1597.00 L 1686.00 1655.00 L 1590.00 1735.00 L 1567.00 1734.00 L 1543.00 1721.00 L 1502.00 1712.00 L 1367.00 1700.00 L 1306.00 1701.00 L 1290.00 1691.00 L 1294.00 1660.00 L 1364.00 1566.00 L 1439.00 1481.00 L 1490.00 1465.00 L 1598.00 1406.00 L 1680.00 1343.00 L 1771.00 1249.00 L 1809.00 1198.00 L 1871.00 1094.00 L 1882.00 1053.00 L 1898.00 1025.00 L 1934.00 875.00 L 1947.00 850.00 L 1992.00 807.00 L 2084.00 747.00 L 2144.00 731.00 L 2174.00 714.00 L 2208.00 707.00 L 2228.00 696.00 L 2229.00 685.00 L 2220.00 676.00 L 2175.00 672.00 L 2091.00 681.00 L 2044.00 701.00 L 2015.00 698.00 L 2008.00 681.00 L 2026.00 638.00 L 2036.00 521.00 L 2028.00 501.00 Z M 1584.00 2010.00 L 1595.00 2000.00 L 1615.00 1998.00 L 1624.00 2000.00 L 1654.00 2016.00 L 1690.00 2028.00 L 1723.00 2049.00 L 1757.00 2064.00 L 1802.00 2092.00 L 1818.00 2105.00 L 1831.00 2111.00 L 1856.00 2133.00 L 1878.00 2147.00 L 1899.00 2167.00 L 1915.00 2177.00 L 1938.00 2202.00 L 1960.00 2220.00 L 1965.00 2228.00 L 1982.00 2244.00 L 1990.00 2257.00 L 2013.00 2279.00 L 2022.00 2295.00 L 2048.00 2325.00 L 2055.00 2341.00 L 2082.00 2376.00 L 2089.00 2395.00 L 2110.00 2423.00 L 2120.00 2449.00 L 2142.00 2488.00 L 2152.00 2517.00 L 2152.00 2525.00 L 2146.00 2538.00 L 2135.00 2547.00 L 2124.00 2552.00 L 2100.00 2557.00 L 2052.00 2560.00 L 2050.00 2562.00 L 1989.00 2563.00 L 1924.00 2557.00 L 1887.00 2541.00 L 1840.00 2530.00 L 1812.00 2512.00 L 1783.00 2500.00 L 1770.00 2491.00 L 1753.00 2474.00 L 1742.00 2468.00 L 1707.00 2440.00 L 1691.00 2421.00 L 1669.00 2401.00 L 1655.00 2376.00 L 1637.00 2356.00 L 1625.00 2327.00 L 1604.00 2292.00 L 1597.00 2261.00 L 1581.00 2223.00 L 1572.00 2161.00 L 1571.00 2106.00 L 1573.00 2104.00 L 1572.00 2078.00 L 1574.00 2076.00 L 1575.00 2040.00 Z M 1185.00 1958.00 L 1199.00 1952.00 L 1338.00 1947.00 L 1434.00 1955.00 L 1458.00 1968.00 L 1464.00 1983.00 L 1447.00 2039.00 L 1444.00 2178.00 L 1453.00 2245.00 L 1469.00 2276.00 L 1477.00 2325.00 L 1514.00 2400.00 L 1574.00 2488.00 L 1645.00 2558.00 L 1689.00 2591.00 L 1718.00 2606.00 L 1737.00 2623.00 L 1795.00 2651.00 L 1911.00 2685.00 L 2032.00 2691.00 L 2118.00 2684.00 L 2173.00 2666.00 L 2190.00 2667.00 L 2199.00 2674.00 L 2210.00 2728.00 L 2217.00 2906.00 L 2209.00 2982.00 L 2195.00 3000.00 L 2155.00 3015.00 L 2010.00 3020.00 L 1928.00 3014.00 L 1841.00 2993.00 L 1784.00 2985.00 L 1645.00 2925.00 L 1543.00 2868.00 L 1460.00 2804.00 L 1392.00 2737.00 L 1303.00 2622.00 L 1266.00 2562.00 L 1211.00 2442.00 L 1201.00 2399.00 L 1181.00 2351.00 L 1162.00 2211.00 L 1159.00 2105.00 L 1173.00 1978.00 Z" fill="url(#agedGold)" filter="url(#weatheredGrain)" fill-rule="evenodd" shape-rendering="geometricPrecision"/>
</svg>
