<svg xmlns="http://www.w3.org/2000/svg" width="4096" height="4096" viewBox="0 0 4096 4096" role="img" aria-label="Lovecraftian symbol">

  <defs>
    <linearGradient id="agedGold" x1="14%" y1="8%" x2="90%" y2="96%">
      <stop offset="0" stop-color="#eee7b4"/>
      <stop offset="0.22" stop-color="#c5bd83"/>
      <stop offset="0.58" stop-color="#77794e"/>
      <stop offset="1" stop-color="#303729"/>
    </linearGradient>
    <filter id="weatheredGrain" x="-10%" y="-10%" width="120%" height="120%" color-interpolation-filters="sRGB">
      <feTurbulence type="fractalNoise" baseFrequency="0.022 0.07" numOctaves="4" seed="23" result="noise"/>
      <feColorMatrix in="noise" type="matrix" values="0.42 0 0 0 0.01 0 0.38 0 0 0.01 0 0 0.26 0 0.01 0 0 0 0.46 0" result="grain"/>
      <feBlend in="SourceGraphic" in2="grain" mode="screen"/>
    </filter>
  </defs>
  <path d="M 1015.00 592.00 L 901.00 713.00 L 773.00 873.00 L 710.00 969.00 L 618.00 1151.00 L 565.00 1294.00 L 552.00 1361.00 L 530.00 1426.00 L 503.00 1592.00 L 496.00 1740.00 L 502.00 1756.00 L 525.00 1770.00 L 713.00 1770.00 L 730.00 1760.00 L 739.00 1733.00 L 743.00 1598.00 L 766.00 1491.00 L 770.00 1443.00 L 793.00 1384.00 L 801.00 1343.00 L 819.00 1307.00 L 831.00 1264.00 L 892.00 1135.00 L 949.00 1040.00 L 1017.00 946.00 L 1037.00 931.00 L 1054.00 934.00 L 1634.00 1515.00 L 1643.00 1535.00 L 1637.00 1578.00 L 1612.00 1610.00 L 1595.00 1610.00 L 1559.00 1595.00 L 1454.00 1592.00 L 1352.00 1623.00 L 1278.00 1668.00 L 1223.00 1725.00 L 1156.00 1825.00 L 1093.00 1947.00 L 1034.00 2100.00 L 1025.00 2149.00 L 1008.00 2195.00 L 981.00 2381.00 L 976.00 2506.00 L 981.00 2598.00 L 1008.00 2788.00 L 1033.00 2870.00 L 1057.00 2921.00 L 1066.00 2956.00 L 1117.00 3044.00 L 1129.00 3076.00 L 1132.00 3100.00 L 1119.00 3135.00 L 1118.00 3175.00 L 1146.00 3233.00 L 1212.00 3273.00 L 1271.00 3273.00 L 1325.00 3237.00 L 1355.00 3185.00 L 1358.00 3143.00 L 1352.00 3111.00 L 1326.00 3074.00 L 1295.00 3048.00 L 1255.00 3034.00 L 1221.00 2987.00 L 1207.00 2951.00 L 1188.00 2924.00 L 1176.00 2882.00 L 1156.00 2849.00 L 1131.00 2759.00 L 1103.00 2562.00 L 1103.00 2417.00 L 1131.00 2219.00 L 1148.00 2177.00 L 1156.00 2125.00 L 1175.00 2096.00 L 1189.00 2041.00 L 1214.00 1981.00 L 1234.00 1953.00 L 1247.00 1917.00 L 1265.00 1894.00 L 1277.00 1865.00 L 1311.00 1815.00 L 1343.00 1781.00 L 1395.00 1741.00 L 1460.00 1719.00 L 1535.00 1719.00 L 1603.00 1745.00 L 1614.00 1762.00 L 1615.00 2128.00 L 1607.00 2136.00 L 1556.00 2053.00 L 1501.00 2012.00 L 1430.00 1998.00 L 1399.00 1999.00 L 1355.00 2011.00 L 1305.00 2042.00 L 1273.00 2076.00 L 1246.00 2127.00 L 1235.00 2191.00 L 1241.00 2265.00 L 1271.00 2326.00 L 1336.00 2387.00 L 1393.00 2418.00 L 1463.00 2425.00 L 1709.00 2424.00 L 1723.00 2416.00 L 1733.00 2400.00 L 1733.00 2090.00 L 1742.00 2074.00 L 1753.00 2073.00 L 1763.00 2081.00 L 1767.00 2095.00 L 1765.00 2473.00 L 1759.00 2491.00 L 1735.00 2505.00 L 1622.00 2504.00 L 1562.00 2511.00 L 1503.00 2538.00 L 1457.00 2573.00 L 1422.00 2614.00 L 1385.00 2691.00 L 1378.00 2742.00 L 1385.00 2826.00 L 1416.00 2882.00 L 1452.00 2921.00 L 1489.00 2949.00 L 1554.00 2967.00 L 1610.00 2970.00 L 1670.00 2951.00 L 1707.00 2924.00 L 1740.00 2887.00 L 1766.00 2830.00 L 1770.00 2768.00 L 1765.00 2749.00 L 1738.00 2696.00 L 1699.00 2664.00 L 1665.00 2647.00 L 1659.00 2635.00 L 1682.00 2625.00 L 1853.00 2627.00 L 1868.00 2621.00 L 1882.00 2605.00 L 1887.00 2591.00 L 1883.00 2182.00 L 1891.00 2170.00 L 1906.00 2170.00 L 1915.00 2185.00 L 1910.00 3167.00 L 1886.00 3251.00 L 1855.00 3300.00 L 1785.00 3363.00 L 1726.00 3384.00 L 1700.00 3385.00 L 1694.00 3380.00 L 1699.00 3369.00 L 1776.00 3324.00 L 1828.00 3262.00 L 1836.00 3213.00 L 1828.00 3132.00 L 1788.00 3071.00 L 1756.00 3042.00 L 1709.00 3016.00 L 1641.00 3009.00 L 1558.00 3021.00 L 1515.00 3046.00 L 1484.00 3074.00 L 1442.00 3136.00 L 1421.00 3206.00 L 1419.00 3252.00 L 1426.00 3301.00 L 1452.00 3365.00 L 1478.00 3401.00 L 1536.00 3454.00 L 1606.00 3486.00 L 1693.00 3507.00 L 1716.00 3507.00 L 1805.00 3486.00 L 1874.00 3454.00 L 1943.00 3391.00 L 1977.00 3344.00 L 2004.00 3292.00 L 2033.00 3192.00 L 2030.00 2204.00 L 2048.00 2187.00 L 2061.00 2195.00 L 2066.00 2207.00 L 2065.00 3123.00 L 2090.00 3148.00 L 2263.00 3142.00 L 2272.00 3149.00 L 2268.00 3173.00 L 2235.00 3205.00 L 2212.00 3248.00 L 2213.00 3343.00 L 2256.00 3410.00 L 2306.00 3448.00 L 2380.00 3466.00 L 2421.00 3465.00 L 2473.00 3449.00 L 2535.00 3403.00 L 2572.00 3355.00 L 2593.00 3272.00 L 2588.00 3207.00 L 2567.00 3151.00 L 2537.00 3110.00 L 2504.00 3078.00 L 2436.00 3037.00 L 2362.00 3016.00 L 2204.00 3020.00 L 2186.00 3003.00 L 2181.00 2183.00 L 2190.00 2169.00 L 2199.00 2168.00 L 2212.00 2188.00 L 2210.00 2579.00 L 2217.00 2616.00 L 2234.00 2628.00 L 2413.00 2625.00 L 2440.00 2637.00 L 2460.00 2632.00 L 2503.00 2634.00 L 2559.00 2673.00 L 2593.00 2740.00 L 2593.00 2775.00 L 2563.00 2821.00 L 2516.00 2845.00 L 2490.00 2843.00 L 2467.00 2827.00 L 2452.00 2805.00 L 2454.00 2782.00 L 2479.00 2747.00 L 2477.00 2705.00 L 2452.00 2649.00 L 2442.00 2641.00 L 2430.00 2643.00 L 2371.00 2681.00 L 2335.00 2733.00 L 2329.00 2755.00 L 2328.00 2823.00 L 2336.00 2858.00 L 2375.00 2913.00 L 2426.00 2954.00 L 2489.00 2970.00 L 2526.00 2972.00 L 2602.00 2949.00 L 2645.00 2918.00 L 2689.00 2866.00 L 2716.00 2792.00 L 2717.00 2733.00 L 2711.00 2702.00 L 2684.00 2635.00 L 2636.00 2577.00 L 2595.00 2543.00 L 2543.00 2516.00 L 2507.00 2506.00 L 2353.00 2505.00 L 2336.00 2493.00 L 2330.00 2406.00 L 2329.00 2090.00 L 2343.00 2070.00 L 2354.00 2072.00 L 2362.00 2088.00 L 2360.00 2394.00 L 2366.00 2411.00 L 2380.00 2423.00 L 2645.00 2425.00 L 2691.00 2419.00 L 2757.00 2387.00 L 2798.00 2354.00 L 2827.00 2319.00 L 2859.00 2232.00 L 2859.00 2168.00 L 2832.00 2095.00 L 2800.00 2052.00 L 2750.00 2017.00 L 2686.00 1998.00 L 2604.00 2007.00 L 2540.00 2052.00 L 2521.00 2075.00 L 2495.00 2127.00 L 2487.00 2128.00 L 2480.00 2117.00 L 2481.00 1757.00 L 2495.00 1740.00 L 2553.00 1720.00 L 2608.00 1717.00 L 2638.00 1720.00 L 2709.00 1747.00 L 2769.00 1799.00 L 2827.00 1885.00 L 2886.00 1996.00 L 2929.00 2122.00 L 2948.00 2160.00 L 2956.00 2217.00 L 2975.00 2286.00 L 2986.00 2396.00 L 2986.00 2590.00 L 2970.00 2721.00 L 2943.00 2832.00 L 2910.00 2912.00 L 2867.00 2986.00 L 2858.00 3012.00 L 2836.00 3034.00 L 2802.00 3046.00 L 2780.00 3062.00 L 2748.00 3100.00 L 2737.00 3138.00 L 2740.00 3184.00 L 2749.00 3211.00 L 2787.00 3252.00 L 2811.00 3268.00 L 2881.00 3275.00 L 2941.00 3241.00 L 2978.00 3169.00 L 2977.00 3137.00 L 2958.00 3099.00 L 2959.00 3080.00 L 2978.00 3051.00 L 2991.00 3016.00 L 3009.00 2996.00 L 3022.00 2955.00 L 3041.00 2929.00 L 3049.00 2887.00 L 3071.00 2842.00 L 3079.00 2781.00 L 3094.00 2737.00 L 3103.00 2681.00 L 3114.00 2492.00 L 3109.00 2376.00 L 3093.00 2234.00 L 3080.00 2199.00 L 3071.00 2140.00 L 3013.00 1977.00 L 2981.00 1908.00 L 2958.00 1876.00 L 2949.00 1847.00 L 2891.00 1753.00 L 2822.00 1674.00 L 2743.00 1623.00 L 2659.00 1595.00 L 2555.00 1592.00 L 2492.00 1609.00 L 2471.00 1608.00 L 2459.00 1594.00 L 2451.00 1533.00 L 2457.00 1518.00 L 3028.00 943.00 L 3055.00 931.00 L 3089.00 965.00 L 3151.00 1050.00 L 3165.00 1083.00 L 3210.00 1151.00 L 3223.00 1187.00 L 3241.00 1214.00 L 3250.00 1247.00 L 3274.00 1288.00 L 3331.00 1485.00 L 3361.00 1756.00 L 3380.00 1770.00 L 3558.00 1770.00 L 3588.00 1760.00 L 3598.00 1745.00 L 3599.00 1713.00 L 3576.00 1491.00 L 3553.00 1410.00 L 3540.00 1335.00 L 3525.00 1301.00 L 3512.00 1244.00 L 3490.00 1203.00 L 3482.00 1167.00 L 3423.00 1041.00 L 3404.00 1016.00 L 3395.00 988.00 L 3372.00 961.00 L 3359.00 932.00 L 3313.00 871.00 L 3301.00 846.00 L 3248.00 778.00 L 3074.00 593.00 L 3050.00 588.00 L 2350.00 1291.00 L 2335.00 1294.00 L 2321.00 1288.00 L 2275.00 1228.00 L 2159.00 1124.00 L 2071.00 1066.00 L 2035.00 1060.00 L 1901.00 1151.00 L 1833.00 1214.00 L 1769.00 1289.00 L 1749.00 1294.00 L 1054.00 595.00 L 1039.00 587.00 Z M 2346.00 3144.00 L 2352.00 3143.00 L 2361.00 3143.00 L 2366.00 3144.00 L 2368.00 3146.00 L 2374.00 3147.00 L 2380.00 3150.00 L 2381.00 3152.00 L 2385.00 3153.00 L 2393.00 3158.00 L 2401.00 3160.00 L 2402.00 3162.00 L 2412.00 3166.00 L 2413.00 3168.00 L 2418.00 3170.00 L 2430.00 3181.00 L 2446.00 3197.00 L 2446.00 3199.00 L 2449.00 3201.00 L 2455.00 3212.00 L 2455.00 3215.00 L 2457.00 3218.00 L 2458.00 3222.00 L 2461.00 3224.00 L 2462.00 3228.00 L 2465.00 3232.00 L 2470.00 3244.00 L 2470.00 3259.00 L 2468.00 3261.00 L 2467.00 3269.00 L 2465.00 3275.00 L 2461.00 3281.00 L 2461.00 3284.00 L 2457.00 3290.00 L 2455.00 3296.00 L 2452.00 3299.00 L 2450.00 3305.00 L 2447.00 3307.00 L 2447.00 3309.00 L 2444.00 3313.00 L 2431.00 3326.00 L 2421.00 3333.00 L 2417.00 3334.00 L 2413.00 3337.00 L 2410.00 3337.00 L 2407.00 3339.00 L 2399.00 3340.00 L 2397.00 3342.00 L 2388.00 3342.00 L 2386.00 3340.00 L 2381.00 3340.00 L 2371.00 3337.00 L 2360.00 3331.00 L 2357.00 3328.00 L 2354.00 3327.00 L 2352.00 3324.00 L 2349.00 3323.00 L 2345.00 3319.00 L 2344.00 3316.00 L 2341.00 3314.00 L 2340.00 3311.00 L 2337.00 3307.00 L 2338.00 3305.00 L 2336.00 3304.00 L 2335.00 3300.00 L 2335.00 3286.00 L 2336.00 3281.00 L 2340.00 3274.00 L 2349.00 3264.00 L 2349.00 3262.00 L 2354.00 3256.00 L 2355.00 3254.00 L 2355.00 3250.00 L 2356.00 3249.00 L 2356.00 3241.00 L 2355.00 3240.00 L 2355.00 3237.00 L 2353.00 3236.00 L 2354.00 3234.00 L 2349.00 3225.00 L 2347.00 3224.00 L 2347.00 3222.00 L 2343.00 3215.00 L 2341.00 3214.00 L 2338.00 3205.00 L 2336.00 3204.00 L 2333.00 3191.00 L 2331.00 3189.00 L 2329.00 3182.00 L 2328.00 3174.00 L 2326.00 3173.00 L 2325.00 3161.00 L 2328.00 3155.00 L 2334.00 3149.00 L 2338.00 3147.00 L 2344.00 3146.00 Z M 1672.00 3137.00 L 1679.00 3142.00 L 1706.00 3168.00 L 1708.00 3171.00 L 1708.00 3173.00 L 1710.00 3175.00 L 1712.00 3181.00 L 1712.00 3195.00 L 1711.00 3203.00 L 1709.00 3204.00 L 1709.00 3208.00 L 1705.00 3220.00 L 1701.00 3223.00 L 1700.00 3226.00 L 1697.00 3227.00 L 1696.00 3229.00 L 1693.00 3230.00 L 1691.00 3232.00 L 1683.00 3234.00 L 1681.00 3236.00 L 1670.00 3238.00 L 1666.00 3241.00 L 1664.00 3241.00 L 1662.00 3243.00 L 1658.00 3244.00 L 1647.00 3253.00 L 1631.00 3270.00 L 1631.00 3272.00 L 1628.00 3274.00 L 1627.00 3278.00 L 1624.00 3280.00 L 1621.00 3291.00 L 1619.00 3293.00 L 1620.00 3295.00 L 1618.00 3296.00 L 1615.00 3308.00 L 1612.00 3312.00 L 1612.00 3314.00 L 1608.00 3320.00 L 1600.00 3328.00 L 1596.00 3330.00 L 1584.00 3331.00 L 1582.00 3329.00 L 1579.00 3329.00 L 1576.00 3327.00 L 1569.00 3319.00 L 1566.00 3313.00 L 1564.00 3306.00 L 1564.00 3302.00 L 1563.00 3299.00 L 1561.00 3297.00 L 1562.00 3296.00 L 1557.00 3284.00 L 1555.00 3283.00 L 1555.00 3281.00 L 1548.00 3272.00 L 1548.00 3270.00 L 1545.00 3268.00 L 1543.00 3263.00 L 1542.00 3256.00 L 1540.00 3254.00 L 1540.00 3229.00 L 1545.00 3213.00 L 1547.00 3212.00 L 1548.00 3208.00 L 1554.00 3200.00 L 1555.00 3196.00 L 1560.00 3188.00 L 1560.00 3185.00 L 1563.00 3181.00 L 1566.00 3171.00 L 1569.00 3169.00 L 1570.00 3166.00 L 1578.00 3159.00 L 1584.00 3156.00 L 1594.00 3147.00 L 1597.00 3146.00 L 1600.00 3142.00 L 1603.00 3141.00 L 1606.00 3138.00 L 1610.00 3136.00 L 1616.00 3135.00 L 1618.00 3133.00 L 1625.00 3132.00 L 1657.00 3132.00 Z M 1624.00 2631.00 L 1631.00 2633.00 L 1635.00 2639.00 L 1637.00 2640.00 L 1637.00 2643.00 L 1635.00 2645.00 L 1636.00 2647.00 L 1634.00 2648.00 L 1633.00 2652.00 L 1631.00 2654.00 L 1631.00 2656.00 L 1629.00 2657.00 L 1626.00 2666.00 L 1624.00 2667.00 L 1625.00 2669.00 L 1623.00 2670.00 L 1621.00 2689.00 L 1621.00 2704.00 L 1619.00 2706.00 L 1620.00 2708.00 L 1618.00 2710.00 L 1616.00 2722.00 L 1616.00 2742.00 L 1618.00 2747.00 L 1618.00 2750.00 L 1620.00 2751.00 L 1619.00 2753.00 L 1622.00 2757.00 L 1622.00 2759.00 L 1624.00 2763.00 L 1629.00 2769.00 L 1629.00 2771.00 L 1632.00 2773.00 L 1633.00 2776.00 L 1638.00 2781.00 L 1639.00 2785.00 L 1641.00 2786.00 L 1643.00 2792.00 L 1643.00 2802.00 L 1642.00 2806.00 L 1640.00 2807.00 L 1637.00 2815.00 L 1634.00 2817.00 L 1634.00 2819.00 L 1624.00 2829.00 L 1621.00 2830.00 L 1619.00 2833.00 L 1615.00 2835.00 L 1605.00 2844.00 L 1602.00 2846.00 L 1600.00 2846.00 L 1599.00 2848.00 L 1597.00 2848.00 L 1594.00 2850.00 L 1584.00 2851.00 L 1577.00 2849.00 L 1564.00 2841.00 L 1556.00 2838.00 L 1552.00 2835.00 L 1545.00 2833.00 L 1538.00 2828.00 L 1521.00 2809.00 L 1521.00 2807.00 L 1512.00 2799.00 L 1512.00 2797.00 L 1506.00 2788.00 L 1503.00 2779.00 L 1504.00 2772.00 L 1502.00 2770.00 L 1502.00 2754.00 L 1504.00 2752.00 L 1503.00 2744.00 L 1505.00 2743.00 L 1505.00 2736.00 L 1507.00 2724.00 L 1509.00 2722.00 L 1508.00 2718.00 L 1510.00 2717.00 L 1511.00 2709.00 L 1513.00 2705.00 L 1516.00 2702.00 L 1517.00 2699.00 L 1520.00 2696.00 L 1521.00 2696.00 L 1531.00 2685.00 L 1532.00 2681.00 L 1534.00 2679.00 L 1534.00 2677.00 L 1536.00 2676.00 L 1538.00 2673.00 L 1538.00 2671.00 L 1547.00 2662.00 L 1549.00 2662.00 L 1552.00 2659.00 L 1566.00 2652.00 L 1580.00 2639.00 L 1584.00 2636.00 L 1586.00 2636.00 L 1587.00 2634.00 L 1598.00 2631.00 Z M 2710.00 2141.00 L 2713.00 2149.00 L 2716.00 2151.00 L 2717.00 2155.00 L 2722.00 2162.00 L 2723.00 2166.00 L 2726.00 2169.00 L 2729.00 2174.00 L 2729.00 2176.00 L 2731.00 2177.00 L 2731.00 2179.00 L 2734.00 2184.00 L 2734.00 2187.00 L 2736.00 2188.00 L 2737.00 2194.00 L 2737.00 2212.00 L 2736.00 2217.00 L 2734.00 2218.00 L 2731.00 2227.00 L 2728.00 2229.00 L 2728.00 2231.00 L 2724.00 2236.00 L 2725.00 2237.00 L 2723.00 2238.00 L 2721.00 2244.00 L 2717.00 2250.00 L 2715.00 2257.00 L 2713.00 2258.00 L 2711.00 2262.00 L 2705.00 2268.00 L 2702.00 2269.00 L 2696.00 2274.00 L 2689.00 2277.00 L 2682.00 2285.00 L 2671.00 2293.00 L 2668.00 2293.00 L 2667.00 2295.00 L 2663.00 2296.00 L 2643.00 2297.00 L 2630.00 2299.00 L 2593.00 2299.00 L 2592.00 2301.00 L 2571.00 2301.00 L 2560.00 2303.00 L 2526.00 2303.00 L 2504.00 2301.00 L 2502.00 2299.00 L 2496.00 2298.00 L 2494.00 2296.00 L 2492.00 2296.00 L 2486.00 2290.00 L 2483.00 2284.00 L 2479.00 2262.00 L 2479.00 2222.00 L 2481.00 2213.00 L 2483.00 2211.00 L 2483.00 2209.00 L 2487.00 2205.00 L 2496.00 2206.00 L 2503.00 2214.00 L 2506.00 2223.00 L 2509.00 2226.00 L 2510.00 2233.00 L 2513.00 2236.00 L 2513.00 2239.00 L 2516.00 2246.00 L 2520.00 2252.00 L 2530.00 2262.00 L 2541.00 2267.00 L 2552.00 2267.00 L 2559.00 2265.00 L 2586.00 2238.00 L 2586.00 2236.00 L 2593.00 2230.00 L 2594.00 2227.00 L 2598.00 2224.00 L 2607.00 2213.00 L 2611.00 2211.00 L 2613.00 2208.00 L 2615.00 2208.00 L 2618.00 2205.00 L 2618.00 2203.00 L 2621.00 2201.00 L 2623.00 2195.00 L 2622.00 2175.00 L 2623.00 2155.00 L 2625.00 2153.00 L 2627.00 2145.00 L 2630.00 2139.00 L 2631.00 2139.00 L 2632.00 2136.00 L 2636.00 2132.00 L 2639.00 2131.00 L 2641.00 2128.00 L 2650.00 2126.00 L 2652.00 2124.00 L 2656.00 2123.00 L 2678.00 2123.00 L 2683.00 2124.00 L 2684.00 2126.00 L 2692.00 2127.00 L 2703.00 2134.00 Z M 1363.00 2172.00 L 1369.00 2162.00 L 1372.00 2160.00 L 1373.00 2157.00 L 1378.00 2153.00 L 1379.00 2150.00 L 1387.00 2141.00 L 1386.00 2140.00 L 1392.00 2134.00 L 1402.00 2127.00 L 1407.00 2126.00 L 1409.00 2124.00 L 1415.00 2123.00 L 1428.00 2123.00 L 1435.00 2124.00 L 1436.00 2126.00 L 1452.00 2129.00 L 1456.00 2132.00 L 1460.00 2133.00 L 1468.00 2141.00 L 1469.00 2145.00 L 1472.00 2149.00 L 1473.00 2154.00 L 1472.00 2198.00 L 1475.00 2207.00 L 1478.00 2209.00 L 1478.00 2211.00 L 1480.00 2213.00 L 1482.00 2213.00 L 1488.00 2218.00 L 1510.00 2240.00 L 1516.00 2245.00 L 1518.00 2245.00 L 1522.00 2250.00 L 1525.00 2251.00 L 1536.00 2264.00 L 1541.00 2267.00 L 1543.00 2267.00 L 1545.00 2269.00 L 1551.00 2269.00 L 1553.00 2267.00 L 1558.00 2266.00 L 1563.00 2262.00 L 1566.00 2256.00 L 1569.00 2254.00 L 1572.00 2245.00 L 1575.00 2243.00 L 1575.00 2241.00 L 1581.00 2234.00 L 1582.00 2231.00 L 1589.00 2224.00 L 1590.00 2220.00 L 1594.00 2215.00 L 1593.00 2213.00 L 1595.00 2212.00 L 1597.00 2204.00 L 1600.00 2201.00 L 1600.00 2199.00 L 1604.00 2195.00 L 1610.00 2195.00 L 1616.00 2203.00 L 1618.00 2255.00 L 1615.00 2272.00 L 1608.00 2285.00 L 1600.00 2294.00 L 1593.00 2298.00 L 1590.00 2298.00 L 1585.00 2301.00 L 1579.00 2302.00 L 1545.00 2303.00 L 1534.00 2301.00 L 1522.00 2301.00 L 1520.00 2299.00 L 1457.00 2299.00 L 1432.00 2295.00 L 1430.00 2293.00 L 1423.00 2291.00 L 1414.00 2285.00 L 1412.00 2285.00 L 1410.00 2282.00 L 1408.00 2282.00 L 1399.00 2275.00 L 1397.00 2275.00 L 1395.00 2272.00 L 1393.00 2272.00 L 1389.00 2269.00 L 1373.00 2253.00 L 1371.00 2248.00 L 1368.00 2246.00 L 1366.00 2238.00 L 1364.00 2237.00 L 1361.00 2221.00 L 1359.00 2220.00 L 1358.00 2211.00 L 1359.00 2183.00 L 1361.00 2182.00 L 1361.00 2178.00 Z M 2364.00 1804.00 L 2366.00 1810.00 L 2365.00 1823.00 L 2361.00 1829.00 L 2360.00 1833.00 L 2357.00 1835.00 L 2357.00 1837.00 L 2335.00 1859.00 L 2333.00 1862.00 L 2332.00 1866.00 L 2329.00 1868.00 L 2329.00 1870.00 L 2308.00 1892.00 L 2306.00 1896.00 L 2303.00 1898.00 L 2301.00 1903.00 L 2291.00 1913.00 L 2278.00 1921.00 L 2276.00 1921.00 L 2274.00 1924.00 L 2271.00 1925.00 L 2269.00 1928.00 L 2266.00 1929.00 L 2251.00 1942.00 L 2247.00 1943.00 L 2246.00 1945.00 L 2237.00 1948.00 L 2235.00 1951.00 L 2231.00 1952.00 L 2225.00 1957.00 L 2223.00 1957.00 L 2211.00 1966.00 L 2207.00 1967.00 L 2201.00 1971.00 L 2191.00 1973.00 L 2185.00 1975.00 L 2183.00 1977.00 L 2166.00 1980.00 L 2164.00 1982.00 L 2160.00 1982.00 L 2153.00 1984.00 L 2147.00 1988.00 L 2143.00 1989.00 L 2137.00 1994.00 L 2133.00 1995.00 L 2127.00 1999.00 L 2123.00 2000.00 L 2109.00 2000.00 L 2102.00 1997.00 L 2102.00 1996.00 L 2097.00 1992.00 L 2096.00 1988.00 L 2096.00 1975.00 L 2098.00 1969.00 L 2100.00 1968.00 L 2101.00 1964.00 L 2103.00 1961.00 L 2123.00 1942.00 L 2126.00 1938.00 L 2127.00 1934.00 L 2132.00 1927.00 L 2143.00 1916.00 L 2147.00 1913.00 L 2149.00 1913.00 L 2156.00 1904.00 L 2171.00 1889.00 L 2177.00 1884.00 L 2180.00 1883.00 L 2195.00 1867.00 L 2197.00 1867.00 L 2203.00 1862.00 L 2209.00 1860.00 L 2210.00 1858.00 L 2212.00 1858.00 L 2222.00 1850.00 L 2225.00 1849.00 L 2232.00 1841.00 L 2234.00 1841.00 L 2239.00 1837.00 L 2245.00 1835.00 L 2249.00 1832.00 L 2262.00 1829.00 L 2269.00 1825.00 L 2276.00 1823.00 L 2280.00 1819.00 L 2282.00 1819.00 L 2283.00 1817.00 L 2291.00 1813.00 L 2294.00 1813.00 L 2298.00 1810.00 L 2315.00 1807.00 L 2316.00 1805.00 L 2323.00 1804.00 L 2328.00 1802.00 L 2332.00 1799.00 L 2341.00 1797.00 L 2354.00 1797.00 L 2359.00 1799.00 Z M 1723.00 1801.00 L 1727.00 1797.00 L 1732.00 1796.00 L 1734.00 1794.00 L 1739.00 1794.00 L 1741.00 1796.00 L 1746.00 1796.00 L 1757.00 1799.00 L 1759.00 1801.00 L 1760.00 1800.00 L 1762.00 1802.00 L 1773.00 1804.00 L 1776.00 1805.00 L 1778.00 1807.00 L 1792.00 1810.00 L 1794.00 1812.00 L 1800.00 1813.00 L 1803.00 1815.00 L 1806.00 1815.00 L 1812.00 1819.00 L 1816.00 1820.00 L 1819.00 1823.00 L 1826.00 1825.00 L 1829.00 1828.00 L 1834.00 1830.00 L 1837.00 1830.00 L 1841.00 1833.00 L 1843.00 1832.00 L 1844.00 1834.00 L 1854.00 1836.00 L 1865.00 1842.00 L 1872.00 1850.00 L 1876.00 1852.00 L 1882.00 1858.00 L 1889.00 1863.00 L 1891.00 1863.00 L 1893.00 1866.00 L 1895.00 1866.00 L 1900.00 1869.00 L 1904.00 1873.00 L 1906.00 1873.00 L 1915.00 1883.00 L 1918.00 1884.00 L 1925.00 1892.00 L 1927.00 1892.00 L 1940.00 1905.00 L 1943.00 1911.00 L 1971.00 1941.00 L 1973.00 1944.00 L 1973.00 1946.00 L 1976.00 1948.00 L 1975.00 1949.00 L 1980.00 1956.00 L 1995.00 1971.00 L 1995.00 1973.00 L 1998.00 1975.00 L 2001.00 1984.00 L 2000.00 1993.00 L 1994.00 1999.00 L 1990.00 2001.00 L 1980.00 2001.00 L 1971.00 1999.00 L 1955.00 1990.00 L 1944.00 1987.00 L 1943.00 1985.00 L 1928.00 1982.00 L 1927.00 1980.00 L 1922.00 1980.00 L 1915.00 1978.00 L 1908.00 1978.00 L 1904.00 1977.00 L 1902.00 1975.00 L 1891.00 1972.00 L 1882.00 1966.00 L 1878.00 1962.00 L 1876.00 1962.00 L 1874.00 1959.00 L 1869.00 1957.00 L 1864.00 1953.00 L 1846.00 1945.00 L 1840.00 1940.00 L 1838.00 1940.00 L 1836.00 1937.00 L 1833.00 1935.00 L 1824.00 1925.00 L 1821.00 1924.00 L 1819.00 1921.00 L 1812.00 1919.00 L 1810.00 1916.00 L 1805.00 1914.00 L 1794.00 1903.00 L 1793.00 1900.00 L 1788.00 1896.00 L 1787.00 1893.00 L 1773.00 1880.00 L 1772.00 1877.00 L 1747.00 1852.00 L 1743.00 1844.00 L 1735.00 1833.00 L 1729.00 1827.00 L 1728.00 1824.00 L 1725.00 1822.00 L 1725.00 1820.00 L 1722.00 1816.00 L 1720.00 1808.00 L 1722.00 1806.00 Z" fill="url(#agedGold)" filter="url(#weatheredGrain)" fill-rule="evenodd" shape-rendering="geometricPrecision"/>
</svg>
