<svg xmlns="http://www.w3.org/2000/svg" width="4096" height="4096" viewBox="0 0 4096 4096" role="img" aria-label="Lovecraftian symbol">

  <defs>
    <linearGradient id="agedGold" x1="14%" y1="8%" x2="90%" y2="96%">
      <stop offset="0" stop-color="#eee7b4"/>
      <stop offset="0.22" stop-color="#c5bd83"/>
      <stop offset="0.58" stop-color="#77794e"/>
      <stop offset="1" stop-color="#303729"/>
    </linearGradient>
    <filter id="weatheredGrain" x="-10%" y="-10%" width="120%" height="120%" color-interpolation-filters="sRGB">
      <feTurbulence type="fractalNoise" baseFrequency="0.022 0.07" numOctaves="4" seed="23" result="noise"/>
      <feColorMatrix in="noise" type="matrix" values="0.42 0 0 0 0.01 0 0.38 0 0 0.01 0 0 0.26 0 0.01 0 0 0 0.46 0" result="grain"/>
      <feBlend in="SourceGraphic" in2="grain" mode="screen"/>
    </filter>
  </defs>
  <path d="M 495.00 3225.00 L 501.00 3243.00 L 619.00 3357.00 L 643.00 3388.00 L 656.00 3395.00 L 675.00 3395.00 L 739.00 3348.00 L 817.00 3319.00 L 920.00 3319.00 L 1006.00 3348.00 L 1057.00 3382.00 L 1150.00 3465.00 L 1263.00 3526.00 L 1300.00 3532.00 L 1344.00 3549.00 L 1451.00 3559.00 L 1566.00 3553.00 L 1653.00 3526.00 L 1722.00 3495.00 L 1776.00 3460.00 L 1911.00 3349.00 L 1976.00 3323.00 L 2074.00 3315.00 L 2112.00 3322.00 L 2184.00 3349.00 L 2228.00 3379.00 L 2321.00 3460.00 L 2374.00 3495.00 L 2437.00 3526.00 L 2553.00 3556.00 L 2715.00 3556.00 L 2844.00 3521.00 L 2947.00 3463.00 L 3080.00 3353.00 L 3179.00 3319.00 L 3248.00 3315.00 L 3285.00 3323.00 L 3359.00 3349.00 L 3409.00 3391.00 L 3434.00 3395.00 L 3455.00 3382.00 L 3546.00 3285.00 L 3585.00 3253.00 L 3600.00 3229.00 L 3588.00 3201.00 L 3531.00 3157.00 L 3480.00 3126.00 L 3437.00 3112.00 L 3405.00 3092.00 L 3301.00 3065.00 L 3202.00 3061.00 L 3145.00 3066.00 L 3069.00 3084.00 L 2972.00 3123.00 L 2865.00 3196.00 L 2790.00 3265.00 L 2705.00 3300.00 L 2650.00 3309.00 L 2553.00 3299.00 L 2493.00 3270.00 L 2447.00 3238.00 L 2390.00 3184.00 L 2309.00 3127.00 L 2226.00 3092.00 L 2134.00 3066.00 L 2091.00 3062.00 L 1961.00 3066.00 L 1836.00 3105.00 L 1734.00 3162.00 L 1644.00 3242.00 L 1603.00 3269.00 L 1540.00 3299.00 L 1491.00 3308.00 L 1400.00 3303.00 L 1325.00 3274.00 L 1267.00 3235.00 L 1217.00 3186.00 L 1123.00 3123.00 L 1069.00 3096.00 L 944.00 3065.00 L 860.00 3061.00 L 792.00 3066.00 L 690.00 3092.00 L 621.00 3123.00 L 572.00 3153.00 L 516.00 3195.00 Z M 497.00 2668.00 L 503.00 2685.00 L 658.00 2837.00 L 681.00 2835.00 L 740.00 2786.00 L 825.00 2757.00 L 932.00 2760.00 L 997.00 2783.00 L 1045.00 2813.00 L 1111.00 2873.00 L 1197.00 2933.00 L 1221.00 2940.00 L 1269.00 2968.00 L 1369.00 2994.00 L 1515.00 2998.00 L 1573.00 2990.00 L 1657.00 2965.00 L 1725.00 2933.00 L 1746.00 2914.00 L 1780.00 2896.00 L 1868.00 2817.00 L 1923.00 2783.00 L 1998.00 2757.00 L 2083.00 2755.00 L 2183.00 2787.00 L 2319.00 2898.00 L 2372.00 2933.00 L 2437.00 2964.00 L 2541.00 2994.00 L 2662.00 2999.00 L 2737.00 2994.00 L 2836.00 2964.00 L 2905.00 2930.00 L 2956.00 2896.00 L 3079.00 2793.00 L 3187.00 2757.00 L 3251.00 2755.00 L 3303.00 2766.00 L 3355.00 2787.00 L 3393.00 2812.00 L 3413.00 2833.00 L 3438.00 2837.00 L 3589.00 2689.00 L 3600.00 2660.00 L 3585.00 2638.00 L 3536.00 2600.00 L 3480.00 2565.00 L 3446.00 2554.00 L 3403.00 2530.00 L 3290.00 2504.00 L 3155.00 2504.00 L 3037.00 2534.00 L 2966.00 2565.00 L 2881.00 2624.00 L 2829.00 2675.00 L 2779.00 2711.00 L 2693.00 2742.00 L 2604.00 2746.00 L 2561.00 2738.00 L 2488.00 2707.00 L 2346.00 2591.00 L 2313.00 2569.00 L 2238.00 2534.00 L 2117.00 2504.00 L 2043.00 2500.00 L 1960.00 2508.00 L 1862.00 2534.00 L 1748.00 2591.00 L 1641.00 2682.00 L 1585.00 2717.00 L 1498.00 2746.00 L 1429.00 2746.00 L 1396.00 2741.00 L 1324.00 2715.00 L 1271.00 2677.00 L 1178.00 2595.00 L 1065.00 2534.00 L 963.00 2508.00 L 865.00 2500.00 L 777.00 2508.00 L 673.00 2538.00 L 559.00 2600.00 L 504.00 2646.00 Z M 613.00 867.00 L 617.00 886.00 L 631.00 903.00 L 777.00 1016.00 L 801.00 1023.00 L 822.00 1012.00 L 860.00 967.00 L 911.00 921.00 L 1006.00 857.00 L 1085.00 822.00 L 1141.00 811.00 L 1176.00 796.00 L 1205.00 792.00 L 1218.00 798.00 L 1238.00 827.00 L 1262.00 883.00 L 1319.00 974.00 L 1399.00 1064.00 L 1471.00 1123.00 L 1590.00 1190.00 L 1634.00 1201.00 L 1665.00 1217.00 L 1772.00 1234.00 L 1853.00 1239.00 L 1875.00 1255.00 L 1887.00 1276.00 L 1901.00 1344.00 L 1921.00 1659.00 L 1918.00 1908.00 L 1910.00 1927.00 L 1893.00 1939.00 L 1858.00 1946.00 L 1748.00 2003.00 L 1617.00 2113.00 L 1555.00 2146.00 L 1477.00 2159.00 L 1388.00 2153.00 L 1307.00 2115.00 L 1176.00 2006.00 L 1126.00 1975.00 L 1083.00 1962.00 L 1057.00 1946.00 L 906.00 1911.00 L 800.00 1916.00 L 697.00 1942.00 L 662.00 1961.00 L 624.00 1972.00 L 527.00 2038.00 L 498.00 2067.00 L 495.00 2085.00 L 503.00 2098.00 L 657.00 2249.00 L 675.00 2249.00 L 706.00 2220.00 L 768.00 2186.00 L 841.00 2168.00 L 914.00 2168.00 L 1007.00 2199.00 L 1055.00 2230.00 L 1138.00 2306.00 L 1247.00 2371.00 L 1300.00 2382.00 L 1335.00 2399.00 L 1428.00 2410.00 L 1493.00 2410.00 L 1567.00 2402.00 L 1676.00 2371.00 L 1777.00 2310.00 L 1868.00 2229.00 L 1926.00 2194.00 L 2009.00 2169.00 L 2082.00 2167.00 L 2173.00 2194.00 L 2219.00 2225.00 L 2311.00 2306.00 L 2423.00 2371.00 L 2559.00 2406.00 L 2672.00 2410.00 L 2740.00 2402.00 L 2847.00 2372.00 L 2954.00 2310.00 L 3045.00 2229.00 L 3089.00 2199.00 L 3180.00 2169.00 L 3243.00 2166.00 L 3326.00 2186.00 L 3357.00 2199.00 L 3418.00 2245.00 L 3444.00 2247.00 L 3597.00 2088.00 L 3597.00 2064.00 L 3585.00 2049.00 L 3528.00 2006.00 L 3462.00 1967.00 L 3396.00 1941.00 L 3294.00 1916.00 L 3203.00 1911.00 L 3154.00 1916.00 L 3052.00 1941.00 L 2977.00 1972.00 L 2883.00 2035.00 L 2794.00 2114.00 L 2736.00 2144.00 L 2664.00 2158.00 L 2599.00 2157.00 L 2549.00 2149.00 L 2487.00 2118.00 L 2347.00 2003.00 L 2294.00 1972.00 L 2195.00 1935.00 L 2173.00 1910.00 L 2175.00 1668.00 L 2190.00 1397.00 L 2207.00 1284.00 L 2233.00 1244.00 L 2444.00 1216.00 L 2522.00 1186.00 L 2631.00 1125.00 L 2705.00 1065.00 L 2777.00 988.00 L 2818.00 919.00 L 2837.00 898.00 L 2847.00 867.00 L 2879.00 808.00 L 2893.00 795.00 L 2921.00 796.00 L 2956.00 812.00 L 2998.00 818.00 L 3084.00 856.00 L 3182.00 919.00 L 3290.00 1022.00 L 3331.00 1007.00 L 3474.00 896.00 L 3480.00 882.00 L 3474.00 855.00 L 3388.00 761.00 L 3255.00 661.00 L 3149.00 604.00 L 3097.00 589.00 L 3055.00 569.00 L 2962.00 547.00 L 2835.00 534.00 L 2666.00 539.00 L 2523.00 574.00 L 2378.00 635.00 L 2284.00 695.00 L 2192.00 772.00 L 2124.00 848.00 L 2062.00 942.00 L 2044.00 951.00 L 1962.00 834.00 L 1859.00 730.00 L 1829.00 714.00 L 1757.00 659.00 L 1654.00 604.00 L 1559.00 569.00 L 1454.00 543.00 L 1345.00 534.00 L 1171.00 539.00 L 1046.00 569.00 L 990.00 593.00 L 958.00 600.00 L 824.00 670.00 L 711.00 761.00 L 621.00 852.00 Z M 2693.00 808.00 L 2692.00 821.00 L 2687.00 831.00 L 2686.00 836.00 L 2680.00 844.00 L 2680.00 846.00 L 2664.00 861.00 L 2664.00 863.00 L 2658.00 869.00 L 2655.00 875.00 L 2652.00 877.00 L 2651.00 881.00 L 2648.00 884.00 L 2649.00 885.00 L 2647.00 886.00 L 2647.00 888.00 L 2641.00 895.00 L 2640.00 898.00 L 2622.00 916.00 L 2617.00 924.00 L 2608.00 933.00 L 2599.00 939.00 L 2574.00 965.00 L 2572.00 965.00 L 2571.00 967.00 L 2558.00 974.00 L 2548.00 983.00 L 2546.00 983.00 L 2532.00 997.00 L 2523.00 1001.00 L 2522.00 1003.00 L 2514.00 1005.00 L 2506.00 1009.00 L 2493.00 1018.00 L 2491.00 1021.00 L 2471.00 1031.00 L 2470.00 1033.00 L 2452.00 1036.00 L 2450.00 1038.00 L 2439.00 1040.00 L 2409.00 1056.00 L 2400.00 1057.00 L 2398.00 1059.00 L 2378.00 1062.00 L 2376.00 1064.00 L 2363.00 1066.00 L 2362.00 1068.00 L 2348.00 1070.00 L 2346.00 1072.00 L 2330.00 1070.00 L 2321.00 1060.00 L 2322.00 1048.00 L 2325.00 1041.00 L 2336.00 1031.00 L 2347.00 1016.00 L 2347.00 1014.00 L 2350.00 1012.00 L 2356.00 1000.00 L 2376.00 979.00 L 2388.00 961.00 L 2408.00 942.00 L 2408.00 940.00 L 2427.00 921.00 L 2430.00 920.00 L 2432.00 917.00 L 2447.00 907.00 L 2453.00 900.00 L 2455.00 900.00 L 2471.00 885.00 L 2473.00 885.00 L 2475.00 882.00 L 2477.00 882.00 L 2478.00 880.00 L 2487.00 874.00 L 2489.00 874.00 L 2493.00 869.00 L 2495.00 869.00 L 2508.00 857.00 L 2518.00 852.00 L 2525.00 851.00 L 2532.00 847.00 L 2538.00 846.00 L 2539.00 844.00 L 2544.00 842.00 L 2552.00 835.00 L 2569.00 826.00 L 2580.00 824.00 L 2582.00 822.00 L 2596.00 820.00 L 2598.00 818.00 L 2619.00 815.00 L 2621.00 813.00 L 2629.00 812.00 L 2645.00 804.00 L 2651.00 803.00 L 2655.00 800.00 L 2665.00 798.00 L 2679.00 798.00 L 2686.00 800.00 Z M 1414.00 801.00 L 1421.00 795.00 L 1428.00 794.00 L 1435.00 795.00 L 1445.00 799.00 L 1447.00 802.00 L 1459.00 808.00 L 1461.00 811.00 L 1467.00 812.00 L 1471.00 815.00 L 1484.00 818.00 L 1490.00 818.00 L 1491.00 820.00 L 1509.00 822.00 L 1511.00 824.00 L 1522.00 825.00 L 1528.00 828.00 L 1537.00 830.00 L 1540.00 833.00 L 1547.00 835.00 L 1548.00 837.00 L 1556.00 840.00 L 1557.00 842.00 L 1565.00 844.00 L 1566.00 846.00 L 1574.00 848.00 L 1576.00 850.00 L 1589.00 855.00 L 1605.00 870.00 L 1615.00 876.00 L 1627.00 879.00 L 1629.00 881.00 L 1638.00 883.00 L 1639.00 885.00 L 1641.00 885.00 L 1649.00 892.00 L 1654.00 898.00 L 1654.00 900.00 L 1661.00 907.00 L 1679.00 918.00 L 1687.00 926.00 L 1693.00 935.00 L 1716.00 957.00 L 1722.00 966.00 L 1744.00 989.00 L 1750.00 1004.00 L 1753.00 1006.00 L 1756.00 1012.00 L 1771.00 1027.00 L 1771.00 1029.00 L 1775.00 1032.00 L 1779.00 1040.00 L 1782.00 1049.00 L 1782.00 1057.00 L 1778.00 1065.00 L 1772.00 1070.00 L 1769.00 1070.00 L 1767.00 1072.00 L 1759.00 1072.00 L 1758.00 1070.00 L 1742.00 1068.00 L 1741.00 1066.00 L 1728.00 1064.00 L 1726.00 1062.00 L 1721.00 1062.00 L 1710.00 1059.00 L 1682.00 1044.00 L 1673.00 1042.00 L 1672.00 1040.00 L 1660.00 1038.00 L 1658.00 1036.00 L 1642.00 1033.00 L 1641.00 1031.00 L 1632.00 1029.00 L 1605.00 1011.00 L 1603.00 1011.00 L 1602.00 1009.00 L 1584.00 1000.00 L 1577.00 998.00 L 1576.00 996.00 L 1571.00 994.00 L 1565.00 988.00 L 1543.00 973.00 L 1541.00 970.00 L 1539.00 970.00 L 1527.00 957.00 L 1524.00 956.00 L 1515.00 947.00 L 1512.00 946.00 L 1483.00 915.00 L 1483.00 913.00 L 1476.00 907.00 L 1476.00 905.00 L 1472.00 902.00 L 1473.00 901.00 L 1449.00 876.00 L 1436.00 854.00 L 1430.00 848.00 L 1430.00 846.00 L 1423.00 840.00 L 1422.00 837.00 L 1418.00 833.00 L 1417.00 829.00 L 1415.00 828.00 L 1413.00 819.00 L 1411.00 817.00 L 1411.00 808.00 Z" fill="url(#agedGold)" filter="url(#weatheredGrain)" fill-rule="evenodd" shape-rendering="geometricPrecision"/>
</svg>
