<svg xmlns="http://www.w3.org/2000/svg" width="4096" height="4096" viewBox="0 0 4096 4096" role="img" aria-label="Lovecraftian symbol">

  <defs>
    <linearGradient id="agedGold" x1="14%" y1="8%" x2="90%" y2="96%">
      <stop offset="0" stop-color="#eee7b4"/>
      <stop offset="0.22" stop-color="#c5bd83"/>
      <stop offset="0.58" stop-color="#77794e"/>
      <stop offset="1" stop-color="#303729"/>
    </linearGradient>
    <filter id="weatheredGrain" x="-10%" y="-10%" width="120%" height="120%" color-interpolation-filters="sRGB">
      <feTurbulence type="fractalNoise" baseFrequency="0.022 0.07" numOctaves="4" seed="23" result="noise"/>
      <feColorMatrix in="noise" type="matrix" values="0.42 0 0 0 0.01 0 0.38 0 0 0.01 0 0 0.26 0 0.01 0 0 0 0.46 0" result="grain"/>
      <feBlend in="SourceGraphic" in2="grain" mode="screen"/>
    </filter>
  </defs>
  <path d="M 2162.00 1922.00 L 2156.00 1925.00 L 2147.00 1927.00 L 2143.00 1930.00 L 2137.00 1932.00 L 2134.00 1935.00 L 2129.00 1937.00 L 2129.00 1938.00 L 2126.00 1939.00 L 2117.00 1946.00 L 2115.00 1946.00 L 2107.00 1952.00 L 2105.00 1952.00 L 2103.00 1955.00 L 2101.00 1955.00 L 2100.00 1957.00 L 2097.00 1958.00 L 2087.00 1968.00 L 2080.00 1981.00 L 2080.00 1984.00 L 2078.00 1986.00 L 2075.00 1999.00 L 2073.00 2001.00 L 2070.00 2012.00 L 2068.00 2013.00 L 2066.00 2021.00 L 2064.00 2023.00 L 2065.00 2024.00 L 2062.00 2029.00 L 2061.00 2034.00 L 2062.00 2054.00 L 2063.00 2055.00 L 2063.00 2058.00 L 2065.00 2059.00 L 2067.00 2068.00 L 2071.00 2074.00 L 2071.00 2077.00 L 2076.00 2088.00 L 2077.00 2095.00 L 2079.00 2096.00 L 2078.00 2098.00 L 2080.00 2099.00 L 2081.00 2105.00 L 2087.00 2114.00 L 2087.00 2116.00 L 2097.00 2126.00 L 2100.00 2127.00 L 2116.00 2141.00 L 2118.00 2141.00 L 2120.00 2144.00 L 2123.00 2145.00 L 2127.00 2149.00 L 2130.00 2150.00 L 2135.00 2154.00 L 2142.00 2156.00 L 2145.00 2159.00 L 2157.00 2161.00 L 2158.00 2163.00 L 2163.00 2163.00 L 2164.00 2164.00 L 2189.00 2165.00 L 2216.00 2163.00 L 2218.00 2161.00 L 2222.00 2161.00 L 2226.00 2159.00 L 2233.00 2158.00 L 2234.00 2156.00 L 2244.00 2153.00 L 2254.00 2145.00 L 2257.00 2144.00 L 2260.00 2140.00 L 2263.00 2139.00 L 2286.00 2117.00 L 2289.00 2113.00 L 2288.00 2112.00 L 2291.00 2110.00 L 2292.00 2105.00 L 2295.00 2101.00 L 2296.00 2094.00 L 2299.00 2089.00 L 2301.00 2079.00 L 2304.00 2076.00 L 2305.00 2070.00 L 2309.00 2064.00 L 2311.00 2053.00 L 2313.00 2051.00 L 2313.00 2038.00 L 2311.00 2036.00 L 2311.00 2031.00 L 2309.00 2026.00 L 2309.00 2023.00 L 2307.00 2022.00 L 2304.00 2008.00 L 2302.00 2007.00 L 2299.00 1996.00 L 2296.00 1992.00 L 2296.00 1989.00 L 2294.00 1984.00 L 2291.00 1982.00 L 2291.00 1980.00 L 2285.00 1972.00 L 2285.00 1970.00 L 2271.00 1956.00 L 2267.00 1954.00 L 2259.00 1947.00 L 2253.00 1944.00 L 2242.00 1935.00 L 2240.00 1935.00 L 2238.00 1932.00 L 2234.00 1931.00 L 2229.00 1927.00 L 2226.00 1927.00 L 2217.00 1923.00 L 2215.00 1924.00 L 2214.00 1922.00 L 2207.00 1922.00 L 2206.00 1921.00 L 2169.00 1921.00 Z M 1909.00 502.00 L 1822.00 542.00 L 1788.00 571.00 L 1751.00 615.00 L 1714.00 694.00 L 1704.00 785.00 L 1718.00 887.00 L 1754.00 958.00 L 1814.00 1026.00 L 1921.00 1122.00 L 1978.00 1200.00 L 2016.00 1267.00 L 2045.00 1343.00 L 2065.00 1442.00 L 2075.00 1542.00 L 2064.00 1565.00 L 2050.00 1575.00 L 1998.00 1591.00 L 1951.00 1618.00 L 1912.00 1618.00 L 1874.00 1570.00 L 1816.00 1467.00 L 1776.00 1344.00 L 1757.00 1316.00 L 1716.00 1215.00 L 1682.00 1162.00 L 1633.00 1099.00 L 1581.00 1052.00 L 1509.00 1013.00 L 1455.00 994.00 L 1406.00 984.00 L 1317.00 985.00 L 1240.00 1009.00 L 1181.00 1043.00 L 1144.00 1076.00 L 1092.00 1138.00 L 1058.00 1213.00 L 1052.00 1243.00 L 1053.00 1346.00 L 1087.00 1431.00 L 1144.00 1498.00 L 1181.00 1526.00 L 1245.00 1552.00 L 1264.00 1551.00 L 1321.00 1531.00 L 1352.00 1499.00 L 1382.00 1445.00 L 1377.00 1391.00 L 1352.00 1352.00 L 1296.00 1300.00 L 1301.00 1267.00 L 1336.00 1236.00 L 1363.00 1230.00 L 1404.00 1233.00 L 1447.00 1262.00 L 1502.00 1336.00 L 1513.00 1371.00 L 1531.00 1401.00 L 1541.00 1439.00 L 1561.00 1471.00 L 1571.00 1517.00 L 1589.00 1543.00 L 1597.00 1577.00 L 1618.00 1606.00 L 1631.00 1644.00 L 1665.00 1700.00 L 1740.00 1788.00 L 1749.00 1810.00 L 1745.00 1838.00 L 1723.00 1876.00 L 1715.00 1916.00 L 1700.00 1931.00 L 1473.00 1929.00 L 1354.00 1947.00 L 1253.00 1990.00 L 1207.00 2019.00 L 1152.00 2066.00 L 1087.00 2146.00 L 1057.00 2225.00 L 1051.00 2281.00 L 1053.00 2356.00 L 1058.00 2386.00 L 1087.00 2454.00 L 1147.00 2527.00 L 1240.00 2581.00 L 1321.00 2593.00 L 1400.00 2586.00 L 1466.00 2557.00 L 1505.00 2522.00 L 1528.00 2465.00 L 1529.00 2436.00 L 1502.00 2380.00 L 1460.00 2344.00 L 1416.00 2331.00 L 1384.00 2331.00 L 1324.00 2344.00 L 1300.00 2329.00 L 1295.00 2315.00 L 1300.00 2269.00 L 1335.00 2230.00 L 1397.00 2195.00 L 1464.00 2175.00 L 1697.00 2174.00 L 1716.00 2191.00 L 1747.00 2263.00 L 1770.00 2292.00 L 1770.00 2307.00 L 1692.00 2387.00 L 1567.00 2531.00 L 1446.00 2692.00 L 1438.00 2716.00 L 1388.00 2795.00 L 1328.00 2937.00 L 1318.00 2978.00 L 1296.00 3012.00 L 1288.00 3041.00 L 1267.00 3070.00 L 1254.00 3105.00 L 1225.00 3146.00 L 1191.00 3180.00 L 1128.00 3217.00 L 1056.00 3225.00 L 1014.00 3212.00 L 971.00 3173.00 L 950.00 3128.00 L 951.00 3111.00 L 970.00 3073.00 L 1026.00 3029.00 L 1050.00 2995.00 L 1057.00 2921.00 L 1046.00 2892.00 L 1011.00 2850.00 L 988.00 2835.00 L 946.00 2825.00 L 905.00 2826.00 L 837.00 2860.00 L 788.00 2903.00 L 755.00 2946.00 L 726.00 3000.00 L 718.00 3028.00 L 705.00 3117.00 L 707.00 3155.00 L 722.00 3225.00 L 756.00 3298.00 L 822.00 3371.00 L 905.00 3432.00 L 995.00 3465.00 L 1078.00 3470.00 L 1171.00 3461.00 L 1263.00 3426.00 L 1352.00 3366.00 L 1440.00 3269.00 L 1503.00 3161.00 L 1515.00 3125.00 L 1533.00 3096.00 L 1577.00 2977.00 L 1594.00 2952.00 L 1607.00 2904.00 L 1670.00 2798.00 L 1814.00 2619.00 L 1939.00 2481.00 L 1962.00 2475.00 L 2036.00 2506.00 L 2070.00 2533.00 L 2070.00 2621.00 L 2088.00 2756.00 L 2104.00 2795.00 L 2112.00 2847.00 L 2133.00 2889.00 L 2141.00 2922.00 L 2164.00 2954.00 L 2199.00 3027.00 L 2296.00 3151.00 L 2416.00 3260.00 L 2439.00 3296.00 L 2435.00 3329.00 L 2417.00 3348.00 L 2397.00 3353.00 L 2367.00 3341.00 L 2305.00 3345.00 L 2272.00 3363.00 L 2237.00 3397.00 L 2219.00 3450.00 L 2229.00 3516.00 L 2251.00 3546.00 L 2295.00 3578.00 L 2388.00 3599.00 L 2451.00 3593.00 L 2515.00 3577.00 L 2559.00 3553.00 L 2620.00 3496.00 L 2654.00 3447.00 L 2674.00 3383.00 L 2683.00 3333.00 L 2683.00 3284.00 L 2655.00 3179.00 L 2620.00 3121.00 L 2575.00 3069.00 L 2456.00 2963.00 L 2390.00 2867.00 L 2359.00 2804.00 L 2331.00 2725.00 L 2322.00 2670.00 L 2315.00 2546.00 L 2322.00 2524.00 L 2338.00 2506.00 L 2383.00 2494.00 L 2415.00 2471.00 L 2451.00 2467.00 L 2483.00 2493.00 L 2537.00 2522.00 L 2609.00 2552.00 L 2688.00 2576.00 L 2980.00 2618.00 L 3066.00 2647.00 L 3100.00 2675.00 L 3130.00 2716.00 L 3136.00 2739.00 L 3130.00 2774.00 L 3103.00 2801.00 L 3085.00 2809.00 L 3065.00 2804.00 L 3025.00 2772.00 L 2986.00 2762.00 L 2941.00 2763.00 L 2908.00 2775.00 L 2870.00 2809.00 L 2840.00 2874.00 L 2841.00 2897.00 L 2870.00 2958.00 L 2926.00 3010.00 L 2969.00 3033.00 L 3070.00 3058.00 L 3103.00 3057.00 L 3193.00 3037.00 L 3269.00 2989.00 L 3345.00 2897.00 L 3374.00 2825.00 L 3382.00 2764.00 L 3373.00 2659.00 L 3345.00 2593.00 L 3286.00 2509.00 L 3209.00 2447.00 L 3137.00 2409.00 L 3035.00 2379.00 L 2773.00 2342.00 L 2714.00 2328.00 L 2648.00 2304.00 L 2627.00 2284.00 L 2622.00 2267.00 L 2657.00 2195.00 L 2676.00 2180.00 L 2974.00 2182.00 L 3094.00 2158.00 L 3136.00 2137.00 L 3167.00 2129.00 L 3219.00 2095.00 L 3287.00 2037.00 L 3344.00 1969.00 L 3378.00 1899.00 L 3390.00 1826.00 L 3382.00 1710.00 L 3345.00 1626.00 L 3286.00 1561.00 L 3244.00 1533.00 L 3159.00 1500.00 L 3049.00 1503.00 L 2976.00 1533.00 L 2930.00 1567.00 L 2902.00 1621.00 L 2903.00 1680.00 L 2928.00 1727.00 L 2985.00 1766.00 L 3051.00 1770.00 L 3101.00 1745.00 L 3125.00 1749.00 L 3139.00 1767.00 L 3149.00 1795.00 L 3127.00 1850.00 L 3098.00 1878.00 L 3041.00 1915.00 L 2982.00 1935.00 L 2943.00 1940.00 L 2696.00 1940.00 L 2669.00 1929.00 L 2657.00 1910.00 L 2650.00 1872.00 L 2628.00 1839.00 L 2614.00 1786.00 L 2654.00 1726.00 L 2709.00 1599.00 L 2729.00 1476.00 L 2741.00 1437.00 L 2759.00 1293.00 L 2787.00 1184.00 L 2815.00 1142.00 L 2857.00 1110.00 L 2905.00 1105.00 L 2929.00 1116.00 L 2954.00 1140.00 L 2957.00 1162.00 L 2950.00 1178.00 L 2923.00 1207.00 L 2903.00 1255.00 L 2904.00 1291.00 L 2923.00 1335.00 L 2965.00 1376.00 L 3015.00 1395.00 L 3040.00 1395.00 L 3078.00 1381.00 L 3124.00 1348.00 L 3160.00 1308.00 L 3198.00 1222.00 L 3200.00 1103.00 L 3169.00 1018.00 L 3133.00 970.00 L 3093.00 930.00 L 3043.00 896.00 L 2953.00 863.00 L 2883.00 858.00 L 2809.00 867.00 L 2738.00 896.00 L 2684.00 929.00 L 2596.00 1023.00 L 2569.00 1070.00 L 2556.00 1118.00 L 2535.00 1155.00 L 2526.00 1221.00 L 2510.00 1274.00 L 2497.00 1421.00 L 2468.00 1541.00 L 2440.00 1605.00 L 2431.00 1613.00 L 2412.00 1613.00 L 2388.00 1597.00 L 2333.00 1576.00 L 2317.00 1555.00 L 2315.00 1443.00 L 2289.00 1302.00 L 2268.00 1253.00 L 2260.00 1214.00 L 2238.00 1176.00 L 2227.00 1140.00 L 2138.00 1001.00 L 2098.00 955.00 L 1966.00 828.00 L 1943.00 789.00 L 1956.00 757.00 L 1974.00 742.00 L 2066.00 749.00 L 2097.00 739.00 L 2132.00 715.00 L 2168.00 653.00 L 2165.00 601.00 L 2126.00 540.00 L 2070.00 509.00 L 2003.00 496.00 Z M 2118.00 1806.00 L 2136.00 1803.00 L 2153.00 1803.00 L 2155.00 1801.00 L 2197.00 1801.00 L 2199.00 1803.00 L 2255.00 1806.00 L 2257.00 1808.00 L 2273.00 1810.00 L 2298.00 1828.00 L 2317.00 1835.00 L 2372.00 1883.00 L 2393.00 1916.00 L 2402.00 1924.00 L 2410.00 1938.00 L 2418.00 1970.00 L 2429.00 1991.00 L 2434.00 2014.00 L 2435.00 2069.00 L 2433.00 2070.00 L 2434.00 2073.00 L 2423.00 2103.00 L 2424.00 2105.00 L 2422.00 2106.00 L 2415.00 2133.00 L 2401.00 2162.00 L 2393.00 2170.00 L 2374.00 2201.00 L 2332.00 2242.00 L 2307.00 2256.00 L 2299.00 2258.00 L 2285.00 2268.00 L 2260.00 2279.00 L 2221.00 2285.00 L 2164.00 2285.00 L 2118.00 2280.00 L 2102.00 2275.00 L 2057.00 2251.00 L 2021.00 2222.00 L 2004.00 2205.00 L 1985.00 2175.00 L 1967.00 2155.00 L 1961.00 2142.00 L 1955.00 2116.00 L 1943.00 2091.00 L 1944.00 2088.00 L 1940.00 2075.00 L 1941.00 2006.00 L 1947.00 1986.00 L 1959.00 1960.00 L 1961.00 1946.00 L 1966.00 1933.00 L 1983.00 1914.00 L 1995.00 1895.00 L 2007.00 1886.00 L 2024.00 1866.00 L 2055.00 1837.00 L 2068.00 1830.00 L 2091.00 1824.00 Z" fill="url(#agedGold)" filter="url(#weatheredGrain)" fill-rule="evenodd" shape-rendering="geometricPrecision"/>
</svg>
