<svg xmlns="http://www.w3.org/2000/svg" width="4096" height="4096" viewBox="0 0 4096 4096" role="img" aria-label="Lovecraftian symbol">

  <defs>
    <linearGradient id="agedGold" x1="14%" y1="8%" x2="90%" y2="96%">
      <stop offset="0" stop-color="#eee7b4"/>
      <stop offset="0.22" stop-color="#c5bd83"/>
      <stop offset="0.58" stop-color="#77794e"/>
      <stop offset="1" stop-color="#303729"/>
    </linearGradient>
    <filter id="weatheredGrain" x="-10%" y="-10%" width="120%" height="120%" color-interpolation-filters="sRGB">
      <feTurbulence type="fractalNoise" baseFrequency="0.022 0.07" numOctaves="4" seed="23" result="noise"/>
      <feColorMatrix in="noise" type="matrix" values="0.42 0 0 0 0.01 0 0.38 0 0 0.01 0 0 0.26 0 0.01 0 0 0 0.46 0" result="grain"/>
      <feBlend in="SourceGraphic" in2="grain" mode="screen"/>
    </filter>
  </defs>
  <path d="M 2027.00 495.00 L 1931.00 530.00 L 1888.00 560.00 L 1846.00 607.00 L 1812.00 668.00 L 1806.00 775.00 L 1799.00 786.00 L 1770.00 801.00 L 1760.00 819.00 L 1761.00 840.00 L 1784.00 900.00 L 1812.00 943.00 L 1864.00 992.00 L 1927.00 1085.00 L 1927.00 1097.00 L 1912.00 1101.00 L 1830.00 1054.00 L 1811.00 1053.00 L 1788.00 1070.00 L 1773.00 1103.00 L 1759.00 1116.00 L 1740.00 1118.00 L 1700.00 1099.00 L 1683.00 1099.00 L 1602.00 1140.00 L 1563.00 1178.00 L 1536.00 1216.00 L 1505.00 1354.00 L 1493.00 1487.00 L 1474.00 1584.00 L 1457.00 1736.00 L 1446.00 1774.00 L 1430.00 1926.00 L 1410.00 2031.00 L 1403.00 2125.00 L 1383.00 2214.00 L 1371.00 2333.00 L 1349.00 2439.00 L 1350.00 2468.00 L 1363.00 2487.00 L 1470.00 2489.00 L 1501.00 2506.00 L 1548.00 2562.00 L 1584.00 2623.00 L 1567.00 2685.00 L 1556.00 2824.00 L 1537.00 2928.00 L 1525.00 3065.00 L 1505.00 3162.00 L 1493.00 3302.00 L 1474.00 3394.00 L 1466.00 3507.00 L 1455.00 3571.00 L 1468.00 3592.00 L 1486.00 3600.00 L 2615.00 3598.00 L 2627.00 3594.00 L 2639.00 3579.00 L 2641.00 3544.00 L 2624.00 3470.00 L 2603.00 3263.00 L 2592.00 3216.00 L 2576.00 3067.00 L 2557.00 2974.00 L 2517.00 2610.00 L 2525.00 2591.00 L 2594.00 2500.00 L 2633.00 2488.00 L 2719.00 2491.00 L 2739.00 2474.00 L 2745.00 2450.00 L 2710.00 2246.00 L 2698.00 2128.00 L 2674.00 1987.00 L 2671.00 1929.00 L 2650.00 1819.00 L 2639.00 1702.00 L 2620.00 1611.00 L 2608.00 1480.00 L 2588.00 1386.00 L 2577.00 1268.00 L 2541.00 1188.00 L 2502.00 1148.00 L 2451.00 1113.00 L 2422.00 1104.00 L 2392.00 1103.00 L 2356.00 1116.00 L 2340.00 1115.00 L 2316.00 1095.00 L 2302.00 1062.00 L 2285.00 1051.00 L 2264.00 1053.00 L 2243.00 1070.00 L 2181.00 1101.00 L 2166.00 1096.00 L 2168.00 1082.00 L 2207.00 1031.00 L 2222.00 1001.00 L 2257.00 972.00 L 2301.00 919.00 L 2333.00 850.00 L 2334.00 813.00 L 2323.00 797.00 L 2295.00 787.00 L 2285.00 776.00 L 2285.00 713.00 L 2275.00 661.00 L 2239.00 600.00 L 2196.00 557.00 L 2146.00 522.00 L 2079.00 499.00 Z M 2127.00 811.00 L 2131.00 810.00 L 2139.00 810.00 L 2141.00 811.00 L 2147.00 817.00 L 2147.00 823.00 L 2140.00 831.00 L 2135.00 833.00 L 2128.00 833.00 L 2125.00 832.00 L 2122.00 829.00 L 2121.00 826.00 L 2119.00 825.00 L 2119.00 820.00 L 2121.00 819.00 L 2121.00 817.00 Z M 1943.00 815.00 L 1949.00 809.00 L 1954.00 808.00 L 1965.00 809.00 L 1967.00 810.00 L 1974.00 817.00 L 1974.00 820.00 L 1976.00 822.00 L 1975.00 823.00 L 1976.00 825.00 L 1974.00 826.00 L 1973.00 829.00 L 1970.00 832.00 L 1962.00 833.00 L 1961.00 832.00 L 1953.00 831.00 L 1951.00 830.00 L 1943.00 822.00 Z M 1875.00 724.00 L 1882.00 716.00 L 1892.00 713.00 L 1894.00 711.00 L 1957.00 715.00 L 1975.00 720.00 L 1976.00 722.00 L 1982.00 724.00 L 1994.00 732.00 L 2002.00 734.00 L 2005.00 737.00 L 2011.00 738.00 L 2012.00 740.00 L 2020.00 742.00 L 2033.00 749.00 L 2059.00 750.00 L 2087.00 740.00 L 2088.00 738.00 L 2092.00 737.00 L 2109.00 725.00 L 2118.00 722.00 L 2119.00 720.00 L 2132.00 718.00 L 2151.00 718.00 L 2153.00 716.00 L 2197.00 717.00 L 2205.00 719.00 L 2213.00 725.00 L 2217.00 731.00 L 2217.00 739.00 L 2212.00 745.00 L 2204.00 747.00 L 2185.00 745.00 L 2183.00 743.00 L 2167.00 741.00 L 2140.00 742.00 L 2135.00 745.00 L 2126.00 747.00 L 2125.00 749.00 L 2116.00 752.00 L 2115.00 754.00 L 2108.00 756.00 L 2107.00 758.00 L 2098.00 761.00 L 2097.00 763.00 L 2089.00 765.00 L 2088.00 767.00 L 2080.00 770.00 L 2071.00 779.00 L 2063.00 796.00 L 2062.00 803.00 L 2060.00 804.00 L 2059.00 811.00 L 2054.00 823.00 L 2055.00 843.00 L 2057.00 845.00 L 2060.00 869.00 L 2060.00 933.00 L 2062.00 935.00 L 2064.00 964.00 L 2062.00 972.00 L 2056.00 980.00 L 2049.00 984.00 L 2041.00 984.00 L 2034.00 979.00 L 2031.00 974.00 L 2029.00 950.00 L 2031.00 949.00 L 2032.00 941.00 L 2031.00 902.00 L 2029.00 900.00 L 2029.00 863.00 L 2031.00 861.00 L 2033.00 842.00 L 2035.00 841.00 L 2036.00 823.00 L 2034.00 822.00 L 2035.00 816.00 L 2033.00 814.00 L 2027.00 783.00 L 2025.00 782.00 L 2026.00 780.00 L 2021.00 772.00 L 2011.00 767.00 L 2010.00 765.00 L 2003.00 764.00 L 1996.00 760.00 L 1988.00 758.00 L 1980.00 752.00 L 1956.00 742.00 L 1943.00 740.00 L 1917.00 740.00 L 1903.00 743.00 L 1888.00 743.00 L 1879.00 739.00 L 1875.00 733.00 Z" fill="url(#agedGold)" filter="url(#weatheredGrain)" fill-rule="evenodd" shape-rendering="geometricPrecision"/>
</svg>
