<svg xmlns="http://www.w3.org/2000/svg" width="4096" height="4096" viewBox="0 0 4096 4096" role="img" aria-label="Lovecraftian symbol">

  <defs>
    <linearGradient id="agedGold" x1="14%" y1="8%" x2="90%" y2="96%">
      <stop offset="0" stop-color="#eee7b4"/>
      <stop offset="0.22" stop-color="#c5bd83"/>
      <stop offset="0.58" stop-color="#77794e"/>
      <stop offset="1" stop-color="#303729"/>
    </linearGradient>
    <filter id="weatheredGrain" x="-10%" y="-10%" width="120%" height="120%" color-interpolation-filters="sRGB">
      <feTurbulence type="fractalNoise" baseFrequency="0.022 0.07" numOctaves="4" seed="23" result="noise"/>
      <feColorMatrix in="noise" type="matrix" values="0.42 0 0 0 0.01 0 0.38 0 0 0.01 0 0 0.26 0 0.01 0 0 0 0.46 0" result="grain"/>
      <feBlend in="SourceGraphic" in2="grain" mode="screen"/>
    </filter>
  </defs>
  <path d="M 2199.00 1438.00 L 2195.00 1441.00 L 2191.00 1442.00 L 2178.00 1452.00 L 2178.00 1454.00 L 2173.00 1460.00 L 2172.00 1462.00 L 2172.00 1465.00 L 2170.00 1468.00 L 2170.00 1471.00 L 2168.00 1472.00 L 2166.00 1479.00 L 2165.00 1487.00 L 2163.00 1489.00 L 2164.00 1492.00 L 2162.00 1493.00 L 2162.00 1510.00 L 2163.00 1511.00 L 2163.00 1515.00 L 2165.00 1516.00 L 2165.00 1518.00 L 2167.00 1522.00 L 2173.00 1531.00 L 2176.00 1533.00 L 2176.00 1534.00 L 2181.00 1538.00 L 2181.00 1540.00 L 2192.00 1551.00 L 2194.00 1551.00 L 2196.00 1554.00 L 2204.00 1557.00 L 2208.00 1557.00 L 2210.00 1559.00 L 2236.00 1559.00 L 2237.00 1557.00 L 2245.00 1556.00 L 2254.00 1549.00 L 2256.00 1549.00 L 2258.00 1546.00 L 2259.00 1546.00 L 2261.00 1544.00 L 2261.00 1542.00 L 2269.00 1535.00 L 2269.00 1533.00 L 2284.00 1517.00 L 2289.00 1508.00 L 2288.00 1506.00 L 2290.00 1505.00 L 2290.00 1502.00 L 2291.00 1501.00 L 2291.00 1488.00 L 2289.00 1482.00 L 2287.00 1481.00 L 2286.00 1477.00 L 2279.00 1469.00 L 2279.00 1467.00 L 2274.00 1463.00 L 2271.00 1459.00 L 2270.00 1456.00 L 2265.00 1450.00 L 2257.00 1443.00 L 2251.00 1441.00 L 2247.00 1438.00 L 2230.00 1435.00 L 2211.00 1435.00 Z M 1844.00 1438.00 L 1843.00 1440.00 L 1841.00 1440.00 L 1837.00 1443.00 L 1835.00 1443.00 L 1833.00 1446.00 L 1831.00 1446.00 L 1829.00 1448.00 L 1829.00 1449.00 L 1820.00 1457.00 L 1819.00 1460.00 L 1816.00 1462.00 L 1813.00 1471.00 L 1811.00 1473.00 L 1812.00 1474.00 L 1810.00 1476.00 L 1808.00 1486.00 L 1808.00 1505.00 L 1810.00 1516.00 L 1813.00 1520.00 L 1813.00 1523.00 L 1815.00 1526.00 L 1816.00 1530.00 L 1819.00 1532.00 L 1820.00 1535.00 L 1829.00 1544.00 L 1831.00 1544.00 L 1838.00 1550.00 L 1842.00 1551.00 L 1845.00 1554.00 L 1850.00 1556.00 L 1858.00 1557.00 L 1859.00 1559.00 L 1863.00 1559.00 L 1864.00 1560.00 L 1883.00 1560.00 L 1886.00 1559.00 L 1888.00 1557.00 L 1891.00 1557.00 L 1896.00 1554.00 L 1920.00 1530.00 L 1929.00 1519.00 L 1930.00 1515.00 L 1933.00 1511.00 L 1935.00 1503.00 L 1935.00 1486.00 L 1933.00 1481.00 L 1933.00 1478.00 L 1932.00 1476.00 L 1930.00 1475.00 L 1930.00 1473.00 L 1924.00 1466.00 L 1923.00 1463.00 L 1918.00 1459.00 L 1917.00 1456.00 L 1914.00 1454.00 L 1914.00 1453.00 L 1900.00 1442.00 L 1896.00 1440.00 L 1894.00 1440.00 L 1893.00 1438.00 L 1882.00 1435.00 L 1856.00 1435.00 Z M 2022.00 1380.00 L 2020.00 1381.00 L 2018.00 1384.00 L 2016.00 1384.00 L 2010.00 1389.00 L 2000.00 1400.00 L 1999.00 1403.00 L 1996.00 1405.00 L 1996.00 1407.00 L 1990.00 1415.00 L 1990.00 1418.00 L 1987.00 1422.00 L 1985.00 1430.00 L 1985.00 1447.00 L 1986.00 1448.00 L 1986.00 1452.00 L 1988.00 1453.00 L 1987.00 1456.00 L 1989.00 1458.00 L 1991.00 1467.00 L 1993.00 1468.00 L 1992.00 1470.00 L 1996.00 1475.00 L 1997.00 1479.00 L 2000.00 1481.00 L 2000.00 1483.00 L 2006.00 1489.00 L 2008.00 1489.00 L 2010.00 1492.00 L 2014.00 1493.00 L 2017.00 1495.00 L 2020.00 1495.00 L 2022.00 1497.00 L 2040.00 1500.00 L 2062.00 1500.00 L 2070.00 1498.00 L 2077.00 1493.00 L 2080.00 1492.00 L 2080.00 1491.00 L 2082.00 1489.00 L 2083.00 1489.00 L 2085.00 1487.00 L 2085.00 1486.00 L 2095.00 1477.00 L 2095.00 1475.00 L 2104.00 1465.00 L 2105.00 1462.00 L 2108.00 1459.00 L 2111.00 1446.00 L 2113.00 1444.00 L 2113.00 1431.00 L 2111.00 1429.00 L 2110.00 1422.00 L 2109.00 1420.00 L 2107.00 1419.00 L 2108.00 1418.00 L 2105.00 1414.00 L 2100.00 1409.00 L 2099.00 1406.00 L 2094.00 1402.00 L 2079.00 1386.00 L 2074.00 1384.00 L 2071.00 1381.00 L 2059.00 1378.00 L 2031.00 1378.00 Z M 2384.00 578.00 L 2309.00 565.00 L 2295.00 568.00 L 2268.00 594.00 L 2255.00 621.00 L 2235.00 641.00 L 2208.00 692.00 L 2199.00 746.00 L 2199.00 790.00 L 2209.00 830.00 L 2233.00 875.00 L 2239.00 918.00 L 2227.00 957.00 L 2206.00 976.00 L 2194.00 998.00 L 2181.00 1006.00 L 2135.00 1003.00 L 2122.00 991.00 L 2121.00 977.00 L 2139.00 946.00 L 2144.00 923.00 L 2140.00 840.00 L 2115.00 785.00 L 2065.00 719.00 L 2055.00 695.00 L 2055.00 656.00 L 2082.00 591.00 L 2087.00 520.00 L 2077.00 501.00 L 2055.00 495.00 L 1975.00 514.00 L 1965.00 526.00 L 1957.00 567.00 L 1935.00 611.00 L 1928.00 677.00 L 1939.00 749.00 L 2020.00 882.00 L 2019.00 914.00 L 1997.00 952.00 L 1990.00 984.00 L 1958.00 1010.00 L 1937.00 1012.00 L 1924.00 1001.00 L 1928.00 932.00 L 1903.00 862.00 L 1872.00 820.00 L 1809.00 772.00 L 1786.00 741.00 L 1775.00 707.00 L 1784.00 666.00 L 1785.00 622.00 L 1772.00 575.00 L 1760.00 562.00 L 1739.00 558.00 L 1710.00 576.00 L 1683.00 584.00 L 1656.00 613.00 L 1659.00 658.00 L 1650.00 699.00 L 1649.00 742.00 L 1662.00 764.00 L 1670.00 804.00 L 1702.00 846.00 L 1786.00 915.00 L 1800.00 955.00 L 1792.00 1049.00 L 1777.00 1074.00 L 1721.00 1111.00 L 1644.00 1178.00 L 1613.00 1214.00 L 1557.00 1302.00 L 1516.00 1411.00 L 1498.00 1504.00 L 1494.00 1582.00 L 1526.00 1743.00 L 1552.00 1806.00 L 1601.00 1882.00 L 1614.00 1934.00 L 1632.00 1967.00 L 1644.00 2017.00 L 1663.00 2055.00 L 1671.00 2100.00 L 1689.00 2131.00 L 1697.00 2167.00 L 1724.00 2213.00 L 1720.00 2232.00 L 1708.00 2234.00 L 1654.00 2183.00 L 1578.00 2125.00 L 1462.00 2065.00 L 1387.00 2038.00 L 1308.00 2025.00 L 1270.00 2011.00 L 1214.00 2007.00 L 822.00 2006.00 L 724.00 1945.00 L 615.00 1940.00 L 598.00 1950.00 L 592.00 1968.00 L 592.00 2042.00 L 598.00 2058.00 L 618.00 2068.00 L 677.00 2064.00 L 693.00 2069.00 L 716.00 2087.00 L 737.00 2121.00 L 730.00 2155.00 L 705.00 2182.00 L 689.00 2188.00 L 622.00 2189.00 L 598.00 2204.00 L 592.00 2224.00 L 592.00 2288.00 L 610.00 2315.00 L 643.00 2321.00 L 709.00 2315.00 L 754.00 2300.00 L 828.00 2248.00 L 1206.00 2250.00 L 1267.00 2255.00 L 1356.00 2282.00 L 1419.00 2313.00 L 1506.00 2370.00 L 1595.00 2468.00 L 1632.00 2525.00 L 1668.00 2613.00 L 1667.00 2636.00 L 1648.00 2652.00 L 808.00 2649.00 L 722.00 2607.00 L 617.00 2601.00 L 603.00 2607.00 L 594.00 2624.00 L 597.00 2714.00 L 610.00 2724.00 L 655.00 2724.00 L 695.00 2734.00 L 735.00 2774.00 L 740.00 2797.00 L 692.00 2850.00 L 645.00 2859.00 L 615.00 2855.00 L 597.00 2867.00 L 591.00 2881.00 L 592.00 2950.00 L 599.00 2971.00 L 613.00 2984.00 L 712.00 2979.00 L 771.00 2953.00 L 821.00 2904.00 L 863.00 2888.00 L 1548.00 2892.00 L 1642.00 2887.00 L 1656.00 2891.00 L 1668.00 2907.00 L 1663.00 2942.00 L 1628.00 3018.00 L 1595.00 3070.00 L 1526.00 3147.00 L 1426.00 3221.00 L 1377.00 3247.00 L 1305.00 3273.00 L 1221.00 3285.00 L 828.00 3286.00 L 733.00 3228.00 L 675.00 3218.00 L 606.00 3224.00 L 592.00 3244.00 L 592.00 3321.00 L 597.00 3334.00 L 617.00 3347.00 L 694.00 3349.00 L 732.00 3385.00 L 740.00 3400.00 L 736.00 3423.00 L 699.00 3464.00 L 622.00 3466.00 L 599.00 3480.00 L 592.00 3498.00 L 592.00 3570.00 L 606.00 3594.00 L 635.00 3600.00 L 746.00 3584.00 L 824.00 3528.00 L 1175.00 3529.00 L 1288.00 3522.00 L 1397.00 3496.00 L 1450.00 3471.00 L 1492.00 3460.00 L 1638.00 3369.00 L 1706.00 3310.00 L 1777.00 3230.00 L 1840.00 3134.00 L 1871.00 3073.00 L 1884.00 3023.00 L 1901.00 2992.00 L 1913.00 2915.00 L 1925.00 2899.00 L 1952.00 2890.00 L 2137.00 2888.00 L 2158.00 2892.00 L 2171.00 2904.00 L 2199.00 3013.00 L 2236.00 3105.00 L 2296.00 3203.00 L 2393.00 3317.00 L 2498.00 3403.00 L 2591.00 3455.00 L 2664.00 3487.00 L 2802.00 3522.00 L 2913.00 3529.00 L 3262.00 3529.00 L 3279.00 3535.00 L 3332.00 3576.00 L 3366.00 3589.00 L 3468.00 3597.00 L 3498.00 3580.00 L 3503.00 3567.00 L 3502.00 3500.00 L 3496.00 3485.00 L 3473.00 3468.00 L 3415.00 3470.00 L 3387.00 3460.00 L 3368.00 3444.00 L 3359.00 3420.00 L 3365.00 3385.00 L 3391.00 3353.00 L 3414.00 3344.00 L 3474.00 3346.00 L 3498.00 3331.00 L 3501.00 3245.00 L 3485.00 3224.00 L 3462.00 3218.00 L 3371.00 3224.00 L 3283.00 3278.00 L 3257.00 3285.00 L 2874.00 3285.00 L 2789.00 3273.00 L 2763.00 3260.00 L 2711.00 3247.00 L 2687.00 3229.00 L 2656.00 3217.00 L 2574.00 3155.00 L 2509.00 3085.00 L 2448.00 2988.00 L 2439.00 2949.00 L 2421.00 2917.00 L 2422.00 2898.00 L 2436.00 2888.00 L 3227.00 2890.00 L 3262.00 2897.00 L 3319.00 2952.00 L 3353.00 2961.00 L 3388.00 2980.00 L 3451.00 2983.00 L 3489.00 2973.00 L 3502.00 2949.00 L 3502.00 2884.00 L 3497.00 2872.00 L 3469.00 2857.00 L 3407.00 2855.00 L 3368.00 2826.00 L 3359.00 2801.00 L 3364.00 2762.00 L 3402.00 2731.00 L 3418.00 2725.00 L 3473.00 2725.00 L 3498.00 2709.00 L 3501.00 2634.00 L 3493.00 2615.00 L 3475.00 2603.00 L 3382.00 2603.00 L 3278.00 2652.00 L 2444.00 2650.00 L 2422.00 2638.00 L 2419.00 2619.00 L 2478.00 2496.00 L 2531.00 2428.00 L 2590.00 2368.00 L 2683.00 2307.00 L 2772.00 2272.00 L 2869.00 2249.00 L 3260.00 2248.00 L 3350.00 2305.00 L 3404.00 2318.00 L 3480.00 2315.00 L 3496.00 2299.00 L 3501.00 2284.00 L 3501.00 2222.00 L 3493.00 2202.00 L 3473.00 2188.00 L 3417.00 2192.00 L 3388.00 2180.00 L 3364.00 2154.00 L 3359.00 2118.00 L 3374.00 2087.00 L 3396.00 2070.00 L 3414.00 2065.00 L 3470.00 2067.00 L 3497.00 2052.00 L 3502.00 2039.00 L 3502.00 1967.00 L 3492.00 1949.00 L 3473.00 1940.00 L 3383.00 1943.00 L 3351.00 1951.00 L 3292.00 1995.00 L 3266.00 2006.00 L 2878.00 2007.00 L 2703.00 2038.00 L 2558.00 2100.00 L 2470.00 2157.00 L 2409.00 2213.00 L 2397.00 2217.00 L 2390.00 2211.00 L 2391.00 2194.00 L 2409.00 2169.00 L 2417.00 2141.00 L 2436.00 2109.00 L 2448.00 2058.00 L 2496.00 1955.00 L 2505.00 1909.00 L 2559.00 1823.00 L 2590.00 1753.00 L 2599.00 1706.00 L 2618.00 1660.00 L 2623.00 1545.00 L 2611.00 1426.00 L 2587.00 1355.00 L 2567.00 1325.00 L 2554.00 1285.00 L 2477.00 1182.00 L 2402.00 1111.00 L 2329.00 1068.00 L 2317.00 1047.00 L 2323.00 1024.00 L 2354.00 985.00 L 2365.00 918.00 L 2362.00 865.00 L 2348.00 821.00 L 2324.00 779.00 L 2323.00 745.00 L 2334.00 719.00 L 2379.00 664.00 L 2398.00 620.00 L 2400.00 598.00 Z M 2028.00 1236.00 L 2113.00 1240.00 L 2137.00 1245.00 L 2209.00 1273.00 L 2278.00 1322.00 L 2313.00 1361.00 L 2323.00 1379.00 L 2339.00 1395.00 L 2347.00 1408.00 L 2355.00 1436.00 L 2372.00 1468.00 L 2380.00 1521.00 L 2379.00 1613.00 L 2373.00 1643.00 L 2354.00 1680.00 L 2346.00 1708.00 L 2328.00 1731.00 L 2313.00 1760.00 L 2301.00 1769.00 L 2280.00 1793.00 L 2212.00 1844.00 L 2119.00 1875.00 L 2090.00 1880.00 L 2053.00 1880.00 L 2000.00 1875.00 L 1984.00 1871.00 L 1966.00 1862.00 L 1921.00 1850.00 L 1893.00 1829.00 L 1864.00 1814.00 L 1820.00 1771.00 L 1794.00 1739.00 L 1778.00 1707.00 L 1764.00 1688.00 L 1744.00 1621.00 L 1736.00 1571.00 L 1739.00 1511.00 L 1751.00 1478.00 L 1760.00 1438.00 L 1769.00 1421.00 L 1782.00 1406.00 L 1797.00 1375.00 L 1825.00 1339.00 L 1868.00 1301.00 L 1899.00 1285.00 L 1915.00 1271.00 L 1977.00 1246.00 Z" fill="url(#agedGold)" filter="url(#weatheredGrain)" fill-rule="evenodd" shape-rendering="geometricPrecision"/>
</svg>
