<svg xmlns="http://www.w3.org/2000/svg" width="4096" height="4096" viewBox="0 0 4096 4096" role="img" aria-label="Lovecraftian symbol">

  <defs>
    <linearGradient id="agedGold" x1="14%" y1="8%" x2="90%" y2="96%">
      <stop offset="0" stop-color="#eee7b4"/>
      <stop offset="0.22" stop-color="#c5bd83"/>
      <stop offset="0.58" stop-color="#77794e"/>
      <stop offset="1" stop-color="#303729"/>
    </linearGradient>
    <filter id="weatheredGrain" x="-10%" y="-10%" width="120%" height="120%" color-interpolation-filters="sRGB">
      <feTurbulence type="fractalNoise" baseFrequency="0.022 0.07" numOctaves="4" seed="23" result="noise"/>
      <feColorMatrix in="noise" type="matrix" values="0.42 0 0 0 0.01 0 0.38 0 0 0.01 0 0 0.26 0 0.01 0 0 0 0.46 0" result="grain"/>
      <feBlend in="SourceGraphic" in2="grain" mode="screen"/>
    </filter>
  </defs>
  <path d="M 2389.00 2416.00 L 2388.00 2419.00 L 2389.00 2424.00 L 2392.00 2427.00 L 2398.00 2429.00 L 2405.00 2429.00 L 2407.00 2431.00 L 2413.00 2433.00 L 2415.00 2436.00 L 2436.00 2441.00 L 2440.00 2443.00 L 2441.00 2445.00 L 2448.00 2447.00 L 2449.00 2449.00 L 2457.00 2450.00 L 2471.00 2458.00 L 2486.00 2462.00 L 2498.00 2470.00 L 2506.00 2472.00 L 2519.00 2480.00 L 2522.00 2480.00 L 2526.00 2483.00 L 2529.00 2483.00 L 2533.00 2486.00 L 2535.00 2486.00 L 2536.00 2488.00 L 2544.00 2490.00 L 2545.00 2492.00 L 2552.00 2494.00 L 2554.00 2497.00 L 2562.00 2499.00 L 2567.00 2502.00 L 2570.00 2502.00 L 2577.00 2506.00 L 2579.00 2509.00 L 2592.00 2513.00 L 2598.00 2519.00 L 2605.00 2522.00 L 2606.00 2521.00 L 2610.00 2524.00 L 2614.00 2525.00 L 2621.00 2531.00 L 2626.00 2532.00 L 2634.00 2536.00 L 2638.00 2540.00 L 2653.00 2546.00 L 2658.00 2551.00 L 2661.00 2551.00 L 2662.00 2553.00 L 2670.00 2555.00 L 2678.00 2562.00 L 2687.00 2564.00 L 2695.00 2571.00 L 2702.00 2573.00 L 2704.00 2575.00 L 2707.00 2575.00 L 2716.00 2583.00 L 2725.00 2585.00 L 2727.00 2588.00 L 2729.00 2588.00 L 2739.00 2596.00 L 2747.00 2598.00 L 2750.00 2602.00 L 2759.00 2603.00 L 2762.00 2600.00 L 2762.00 2596.00 L 2759.00 2593.00 L 2755.00 2592.00 L 2746.00 2581.00 L 2741.00 2579.00 L 2734.00 2571.00 L 2725.00 2565.00 L 2720.00 2559.00 L 2717.00 2558.00 L 2699.00 2541.00 L 2692.00 2537.00 L 2685.00 2529.00 L 2681.00 2528.00 L 2674.00 2520.00 L 2668.00 2517.00 L 2659.00 2507.00 L 2657.00 2507.00 L 2651.00 2501.00 L 2645.00 2497.00 L 2643.00 2497.00 L 2633.00 2486.00 L 2631.00 2486.00 L 2622.00 2477.00 L 2617.00 2475.00 L 2611.00 2468.00 L 2607.00 2467.00 L 2600.00 2462.00 L 2598.00 2459.00 L 2594.00 2458.00 L 2587.00 2453.00 L 2584.00 2449.00 L 2582.00 2449.00 L 2580.00 2446.00 L 2573.00 2442.00 L 2567.00 2436.00 L 2563.00 2435.00 L 2554.00 2427.00 L 2552.00 2427.00 L 2551.00 2425.00 L 2546.00 2423.00 L 2538.00 2415.00 L 2531.00 2412.00 L 2526.00 2407.00 L 2515.00 2401.00 L 2507.00 2394.00 L 2504.00 2394.00 L 2499.00 2391.00 L 2495.00 2386.00 L 2485.00 2382.00 L 2474.00 2373.00 L 2469.00 2372.00 L 2464.00 2369.00 L 2459.00 2364.00 L 2453.00 2363.00 L 2447.00 2360.00 L 2442.00 2360.00 L 2439.00 2363.00 L 2437.00 2363.00 L 2437.00 2365.00 L 2416.00 2386.00 L 2414.00 2391.00 L 2412.00 2393.00 L 2410.00 2393.00 L 2401.00 2402.00 L 2401.00 2404.00 L 2396.00 2407.00 L 2395.00 2410.00 Z M 2642.00 2341.00 L 2640.00 2346.00 L 2641.00 2353.00 L 2644.00 2354.00 L 2648.00 2358.00 L 2652.00 2360.00 L 2668.00 2377.00 L 2674.00 2381.00 L 2673.00 2382.00 L 2681.00 2390.00 L 2684.00 2391.00 L 2686.00 2395.00 L 2690.00 2397.00 L 2715.00 2422.00 L 2716.00 2425.00 L 2722.00 2430.00 L 2728.00 2438.00 L 2728.00 2440.00 L 2749.00 2461.00 L 2749.00 2463.00 L 2761.00 2476.00 L 2767.00 2481.00 L 2771.00 2488.00 L 2780.00 2496.00 L 2780.00 2498.00 L 2801.00 2521.00 L 2801.00 2523.00 L 2808.00 2529.00 L 2811.00 2534.00 L 2811.00 2536.00 L 2831.00 2556.00 L 2831.00 2558.00 L 2841.00 2569.00 L 2841.00 2571.00 L 2845.00 2575.00 L 2848.00 2576.00 L 2850.00 2581.00 L 2857.00 2587.00 L 2863.00 2597.00 L 2872.00 2605.00 L 2872.00 2607.00 L 2875.00 2609.00 L 2876.00 2612.00 L 2878.00 2612.00 L 2879.00 2614.00 L 2883.00 2614.00 L 2886.00 2611.00 L 2886.00 2605.00 L 2884.00 2598.00 L 2877.00 2591.00 L 2875.00 2582.00 L 2872.00 2577.00 L 2869.00 2575.00 L 2870.00 2574.00 L 2867.00 2571.00 L 2867.00 2568.00 L 2864.00 2565.00 L 2862.00 2558.00 L 2859.00 2556.00 L 2857.00 2549.00 L 2855.00 2548.00 L 2854.00 2542.00 L 2846.00 2534.00 L 2845.00 2528.00 L 2843.00 2527.00 L 2844.00 2526.00 L 2838.00 2519.00 L 2832.00 2505.00 L 2827.00 2500.00 L 2827.00 2498.00 L 2824.00 2495.00 L 2824.00 2493.00 L 2819.00 2486.00 L 2819.00 2484.00 L 2816.00 2482.00 L 2816.00 2480.00 L 2814.00 2478.00 L 2814.00 2475.00 L 2812.00 2474.00 L 2812.00 2472.00 L 2804.00 2463.00 L 2805.00 2461.00 L 2802.00 2457.00 L 2801.00 2453.00 L 2796.00 2449.00 L 2792.00 2440.00 L 2790.00 2439.00 L 2790.00 2437.00 L 2785.00 2432.00 L 2784.00 2428.00 L 2782.00 2427.00 L 2783.00 2426.00 L 2780.00 2420.00 L 2775.00 2416.00 L 2771.00 2407.00 L 2764.00 2400.00 L 2764.00 2398.00 L 2762.00 2396.00 L 2762.00 2393.00 L 2760.00 2392.00 L 2759.00 2388.00 L 2751.00 2380.00 L 2749.00 2375.00 L 2747.00 2374.00 L 2747.00 2372.00 L 2742.00 2367.00 L 2740.00 2361.00 L 2733.00 2354.00 L 2731.00 2349.00 L 2728.00 2347.00 L 2727.00 2344.00 L 2721.00 2339.00 L 2720.00 2336.00 L 2712.00 2328.00 L 2708.00 2319.00 L 2704.00 2315.00 L 2695.00 2312.00 L 2693.00 2314.00 L 2687.00 2316.00 L 2684.00 2319.00 L 2680.00 2320.00 L 2679.00 2322.00 L 2672.00 2323.00 L 2666.00 2328.00 L 2662.00 2329.00 L 2661.00 2331.00 L 2653.00 2333.00 L 2652.00 2335.00 L 2648.00 2336.00 Z M 1449.00 2309.00 L 1415.00 2310.00 L 1412.00 2311.00 L 1407.00 2315.00 L 1405.00 2327.00 L 1405.00 2359.00 L 1403.00 2361.00 L 1402.00 2388.00 L 1403.00 2409.00 L 1401.00 2435.00 L 1399.00 2437.00 L 1399.00 2454.00 L 1401.00 2456.00 L 1402.00 2460.00 L 1406.00 2460.00 L 1409.00 2457.00 L 1408.00 2455.00 L 1410.00 2454.00 L 1411.00 2448.00 L 1416.00 2441.00 L 1416.00 2439.00 L 1419.00 2437.00 L 1420.00 2432.00 L 1422.00 2430.00 L 1421.00 2424.00 L 1423.00 2423.00 L 1423.00 2416.00 L 1425.00 2407.00 L 1427.00 2406.00 L 1429.00 2401.00 L 1429.00 2398.00 L 1431.00 2396.00 L 1430.00 2394.00 L 1432.00 2393.00 L 1432.00 2387.00 L 1433.00 2384.00 L 1435.00 2382.00 L 1434.00 2380.00 L 1436.00 2378.00 L 1437.00 2373.00 L 1440.00 2369.00 L 1442.00 2360.00 L 1442.00 2352.00 L 1444.00 2351.00 L 1443.00 2346.00 L 1445.00 2342.00 L 1447.00 2340.00 L 1447.00 2338.00 L 1449.00 2337.00 L 1451.00 2332.00 L 1451.00 2329.00 L 1453.00 2328.00 L 1454.00 2320.00 L 1453.00 2313.00 Z M 1796.00 1664.00 L 1791.00 1658.00 L 1782.00 1658.00 L 1763.00 1666.00 L 1744.00 1667.00 L 1727.00 1674.00 L 1708.00 1677.00 L 1676.00 1688.00 L 1662.00 1690.00 L 1653.00 1696.00 L 1634.00 1699.00 L 1623.00 1706.00 L 1601.00 1711.00 L 1586.00 1719.00 L 1577.00 1720.00 L 1566.00 1727.00 L 1555.00 1729.00 L 1545.00 1733.00 L 1543.00 1736.00 L 1528.00 1741.00 L 1518.00 1748.00 L 1505.00 1751.00 L 1467.00 1772.00 L 1460.00 1779.00 L 1448.00 1784.00 L 1427.00 1799.00 L 1410.00 1816.00 L 1398.00 1839.00 L 1399.00 1861.00 L 1414.00 1879.00 L 1439.00 1896.00 L 1454.00 1899.00 L 1466.00 1906.00 L 1491.00 1912.00 L 1503.00 1918.00 L 1532.00 1920.00 L 1552.00 1928.00 L 1579.00 1929.00 L 1581.00 1931.00 L 1608.00 1933.00 L 1622.00 1937.00 L 1648.00 1938.00 L 1649.00 1940.00 L 1713.00 1942.00 L 1714.00 1944.00 L 1770.00 1947.00 L 1771.00 1949.00 L 1785.00 1948.00 L 1788.00 1946.00 L 1789.00 1936.00 L 1784.00 1919.00 L 1777.00 1908.00 L 1775.00 1893.00 L 1772.00 1887.00 L 1764.00 1881.00 L 1755.00 1879.00 L 1734.00 1881.00 L 1707.00 1879.00 L 1705.00 1877.00 L 1658.00 1875.00 L 1655.00 1873.00 L 1642.00 1873.00 L 1622.00 1868.00 L 1600.00 1866.00 L 1599.00 1864.00 L 1578.00 1863.00 L 1556.00 1855.00 L 1531.00 1851.00 L 1523.00 1845.00 L 1507.00 1841.00 L 1502.00 1832.00 L 1508.00 1821.00 L 1520.00 1815.00 L 1534.00 1803.00 L 1541.00 1801.00 L 1547.00 1795.00 L 1556.00 1792.00 L 1565.00 1785.00 L 1573.00 1783.00 L 1582.00 1776.00 L 1597.00 1771.00 L 1607.00 1764.00 L 1617.00 1762.00 L 1626.00 1755.00 L 1637.00 1753.00 L 1648.00 1746.00 L 1669.00 1740.00 L 1680.00 1733.00 L 1690.00 1731.00 L 1700.00 1724.00 L 1713.00 1722.00 L 1733.00 1712.00 L 1747.00 1710.00 L 1759.00 1703.00 L 1781.00 1701.00 L 1782.00 1699.00 L 1794.00 1696.00 L 1801.00 1685.00 Z M 2376.00 1661.00 L 2347.00 1638.00 L 2337.00 1635.00 L 2321.00 1625.00 L 2307.00 1623.00 L 2292.00 1616.00 L 2265.00 1614.00 L 2263.00 1612.00 L 2239.00 1609.00 L 2238.00 1607.00 L 2097.00 1605.00 L 2056.00 1606.00 L 2046.00 1609.00 L 2005.00 1611.00 L 2001.00 1618.00 L 2001.00 1627.00 L 2010.00 1643.00 L 2011.00 1655.00 L 2017.00 1662.00 L 2035.00 1664.00 L 2095.00 1664.00 L 2096.00 1666.00 L 2137.00 1668.00 L 2139.00 1670.00 L 2174.00 1671.00 L 2199.00 1679.00 L 2223.00 1681.00 L 2241.00 1689.00 L 2259.00 1692.00 L 2279.00 1703.00 L 2292.00 1717.00 L 2290.00 1735.00 L 2280.00 1748.00 L 2249.00 1778.00 L 2217.00 1801.00 L 2210.00 1803.00 L 2183.00 1822.00 L 2173.00 1825.00 L 2167.00 1831.00 L 2158.00 1833.00 L 2150.00 1840.00 L 2132.00 1846.00 L 2124.00 1853.00 L 2114.00 1855.00 L 2104.00 1862.00 L 2092.00 1864.00 L 2077.00 1872.00 L 2058.00 1877.00 L 2049.00 1883.00 L 2024.00 1886.00 L 2017.00 1889.00 L 2011.00 1896.00 L 2012.00 1923.00 L 2017.00 1927.00 L 2029.00 1927.00 L 2046.00 1920.00 L 2065.00 1918.00 L 2076.00 1912.00 L 2093.00 1909.00 L 2114.00 1899.00 L 2128.00 1897.00 L 2142.00 1889.00 L 2151.00 1888.00 L 2164.00 1880.00 L 2180.00 1876.00 L 2193.00 1868.00 L 2203.00 1866.00 L 2211.00 1859.00 L 2224.00 1855.00 L 2233.00 1848.00 L 2248.00 1844.00 L 2256.00 1837.00 L 2266.00 1834.00 L 2272.00 1828.00 L 2313.00 1805.00 L 2354.00 1773.00 L 2377.00 1750.00 L 2388.00 1734.00 L 2394.00 1715.00 L 2393.00 1698.00 L 2391.00 1697.00 L 2392.00 1693.00 L 2390.00 1692.00 L 2388.00 1679.00 Z M 1813.00 1511.00 L 1809.00 1516.00 L 1811.00 1524.00 L 1823.00 1543.00 L 1824.00 1550.00 L 1826.00 1551.00 L 1827.00 1557.00 L 1832.00 1564.00 L 1833.00 1571.00 L 1835.00 1572.00 L 1836.00 1584.00 L 1840.00 1590.00 L 1842.00 1598.00 L 1844.00 1599.00 L 1846.00 1626.00 L 1849.00 1632.00 L 1850.00 1640.00 L 1852.00 1641.00 L 1851.00 1644.00 L 1853.00 1646.00 L 1854.00 1660.00 L 1853.00 1711.00 L 1847.00 1728.00 L 1848.00 1730.00 L 1846.00 1731.00 L 1844.00 1749.00 L 1837.00 1759.00 L 1831.00 1779.00 L 1828.00 1781.00 L 1824.00 1791.00 L 1823.00 1833.00 L 1825.00 1851.00 L 1830.00 1857.00 L 1842.00 1854.00 L 1874.00 1816.00 L 1883.00 1807.00 L 1889.00 1803.00 L 1892.00 1804.00 L 1892.00 1809.00 L 1890.00 1810.00 L 1891.00 1814.00 L 1889.00 1815.00 L 1888.00 1823.00 L 1886.00 1825.00 L 1887.00 1835.00 L 1885.00 1836.00 L 1883.00 1852.00 L 1877.00 1862.00 L 1876.00 1882.00 L 1870.00 1905.00 L 1868.00 1906.00 L 1868.00 1913.00 L 1897.00 1940.00 L 1905.00 1943.00 L 1910.00 1949.00 L 1922.00 1957.00 L 1934.00 1962.00 L 1944.00 1970.00 L 1951.00 1972.00 L 1958.00 1979.00 L 1975.00 1981.00 L 1980.00 1976.00 L 1980.00 1970.00 L 1974.00 1957.00 L 1972.00 1936.00 L 1972.00 1908.00 L 1976.00 1896.00 L 1979.00 1894.00 L 1981.00 1887.00 L 1993.00 1870.00 L 2033.00 1836.00 L 2045.00 1823.00 L 2054.00 1807.00 L 2055.00 1796.00 L 2053.00 1784.00 L 2051.00 1783.00 L 2044.00 1767.00 L 2036.00 1760.00 L 2033.00 1754.00 L 2025.00 1749.00 L 2020.00 1742.00 L 2013.00 1738.00 L 1992.00 1717.00 L 1992.00 1715.00 L 1982.00 1705.00 L 1983.00 1704.00 L 1973.00 1692.00 L 1971.00 1684.00 L 1969.00 1683.00 L 1970.00 1682.00 L 1964.00 1676.00 L 1962.00 1667.00 L 1954.00 1656.00 L 1949.00 1640.00 L 1942.00 1632.00 L 1940.00 1621.00 L 1933.00 1613.00 L 1927.00 1598.00 L 1921.00 1592.00 L 1922.00 1591.00 L 1919.00 1585.00 L 1896.00 1557.00 L 1894.00 1557.00 L 1879.00 1542.00 L 1870.00 1537.00 L 1867.00 1533.00 L 1859.00 1531.00 L 1851.00 1524.00 L 1837.00 1519.00 L 1825.00 1511.00 Z M 1367.00 1428.00 L 1360.00 1428.00 L 1306.00 1529.00 L 1212.00 1761.00 L 1151.00 1930.00 L 1098.00 2135.00 L 1067.00 2306.00 L 1046.00 2470.00 L 1029.00 2714.00 L 1028.00 3001.00 L 1049.00 3238.00 L 1124.00 3289.00 L 1145.00 3289.00 L 1320.00 3043.00 L 1529.00 2774.00 L 1612.00 2678.00 L 1772.00 2512.00 L 1771.00 2504.00 L 1695.00 2437.00 L 1683.00 2438.00 L 1570.00 2538.00 L 1425.00 2679.00 L 1284.00 2829.00 L 1181.00 2951.00 L 1172.00 2952.00 L 1173.00 2751.00 L 1192.00 2613.00 L 1186.00 2607.00 L 1172.00 2619.00 L 1102.00 2761.00 L 1112.00 2601.00 L 1142.00 2421.00 L 1152.00 2420.00 L 1190.00 2476.00 L 1199.00 2481.00 L 1205.00 2473.00 L 1215.00 2225.00 L 1247.00 1901.00 L 1256.00 1846.00 L 1299.00 1715.00 L 1407.00 1470.00 L 1397.00 1450.00 Z M 3598.00 1402.00 L 3384.00 1420.00 L 2945.00 1470.00 L 2775.00 1480.00 L 2519.00 1484.00 L 2520.00 1503.00 L 2555.00 1544.00 L 2791.00 1575.00 L 2944.00 1586.00 L 2948.00 1592.00 L 2213.00 2042.00 L 2063.00 2146.00 L 1883.00 2288.00 L 1807.00 2247.00 L 1668.00 2153.00 L 1353.00 1896.00 L 1337.00 1897.00 L 1325.00 1957.00 L 1390.00 2035.00 L 1469.00 2115.00 L 1657.00 2280.00 L 1780.00 2375.00 L 1987.00 2520.00 L 2130.00 2614.00 L 2249.00 2683.00 L 2510.00 2811.00 L 2697.00 2884.00 L 2935.00 2957.00 L 3086.00 2988.00 L 3175.00 2999.00 L 3179.00 2983.00 L 2979.00 2432.00 L 2844.00 2109.00 L 2760.00 1937.00 L 2740.00 1938.00 L 2636.00 1980.00 L 2635.00 1990.00 L 2809.00 2355.00 L 2902.00 2582.00 L 2957.00 2741.00 L 2953.00 2747.00 L 2937.00 2748.00 L 2867.00 2736.00 L 2674.00 2684.00 L 2665.00 2677.00 L 2658.00 2682.00 L 2673.00 2697.00 L 2843.00 2781.00 L 2864.00 2798.00 L 2742.00 2766.00 L 2654.00 2735.00 L 2398.00 2621.00 L 2322.00 2575.00 L 2546.00 2646.00 L 2560.00 2644.00 L 2558.00 2635.00 L 2391.00 2536.00 L 2229.00 2420.00 L 2211.00 2427.00 L 2164.00 2480.00 L 2151.00 2480.00 L 2090.00 2443.00 L 1959.00 2345.00 L 1954.00 2335.00 L 2240.00 2119.00 L 2399.00 2016.00 L 2564.00 1920.00 L 3044.00 1672.00 L 3324.00 1537.00 L 3590.00 1419.00 Z M 997.00 1335.00 L 994.00 1338.00 L 994.00 1343.00 L 1000.00 1349.00 L 1003.00 1357.00 L 1006.00 1362.00 L 1009.00 1364.00 L 1009.00 1366.00 L 1012.00 1372.00 L 1014.00 1373.00 L 1015.00 1377.00 L 1022.00 1384.00 L 1025.00 1394.00 L 1028.00 1396.00 L 1028.00 1398.00 L 1030.00 1399.00 L 1031.00 1402.00 L 1033.00 1404.00 L 1033.00 1406.00 L 1035.00 1407.00 L 1036.00 1411.00 L 1042.00 1418.00 L 1042.00 1420.00 L 1045.00 1422.00 L 1045.00 1424.00 L 1048.00 1428.00 L 1049.00 1431.00 L 1052.00 1433.00 L 1051.00 1434.00 L 1054.00 1437.00 L 1054.00 1440.00 L 1055.00 1442.00 L 1057.00 1443.00 L 1057.00 1445.00 L 1062.00 1450.00 L 1064.00 1455.00 L 1066.00 1456.00 L 1068.00 1463.00 L 1071.00 1465.00 L 1074.00 1469.00 L 1076.00 1476.00 L 1078.00 1477.00 L 1077.00 1478.00 L 1083.00 1484.00 L 1085.00 1487.00 L 1085.00 1489.00 L 1087.00 1490.00 L 1086.00 1492.00 L 1090.00 1499.00 L 1097.00 1507.00 L 1098.00 1511.00 L 1100.00 1512.00 L 1100.00 1514.00 L 1106.00 1521.00 L 1106.00 1523.00 L 1107.00 1525.00 L 1109.00 1526.00 L 1109.00 1528.00 L 1112.00 1533.00 L 1115.00 1535.00 L 1116.00 1539.00 L 1118.00 1541.00 L 1120.00 1547.00 L 1127.00 1554.00 L 1130.00 1555.00 L 1141.00 1555.00 L 1146.00 1553.00 L 1147.00 1551.00 L 1149.00 1551.00 L 1151.00 1549.00 L 1154.00 1549.00 L 1155.00 1547.00 L 1170.00 1544.00 L 1172.00 1542.00 L 1177.00 1540.00 L 1177.00 1539.00 L 1182.00 1537.00 L 1188.00 1532.00 L 1188.00 1530.00 L 1189.00 1529.00 L 1188.00 1524.00 L 1131.00 1468.00 L 1131.00 1466.00 L 1127.00 1462.00 L 1124.00 1461.00 L 1121.00 1458.00 L 1120.00 1455.00 L 1118.00 1454.00 L 1114.00 1449.00 L 1111.00 1448.00 L 1110.00 1445.00 L 1103.00 1438.00 L 1101.00 1438.00 L 1099.00 1436.00 L 1098.00 1433.00 L 1093.00 1428.00 L 1090.00 1427.00 L 1088.00 1423.00 L 1087.00 1423.00 L 1084.00 1419.00 L 1068.00 1404.00 L 1068.00 1402.00 L 1063.00 1397.00 L 1061.00 1397.00 L 1059.00 1395.00 L 1058.00 1392.00 L 1052.00 1386.00 L 1051.00 1387.00 L 1037.00 1372.00 L 1035.00 1371.00 L 1035.00 1369.00 L 1029.00 1365.00 L 1028.00 1362.00 L 1019.00 1354.00 L 1016.00 1349.00 L 1012.00 1345.00 L 1007.00 1342.00 L 1002.00 1336.00 Z M 496.00 806.00 L 496.00 820.00 L 610.00 1051.00 L 755.00 1295.00 L 942.00 1569.00 L 1113.00 1783.00 L 1127.00 1776.00 L 1148.00 1692.00 L 1068.00 1579.00 L 995.00 1462.00 L 915.00 1313.00 L 872.00 1218.00 L 870.00 1202.00 L 1015.00 1263.00 L 1199.00 1327.00 L 1522.00 1419.00 L 1896.00 1492.00 L 2127.00 1523.00 L 2352.00 1541.00 L 2414.00 1612.00 L 2506.00 1768.00 L 2520.00 1764.00 L 2564.00 1727.00 L 2564.00 1712.00 L 2418.00 1508.00 L 2210.00 1254.00 L 2118.00 1154.00 L 1937.00 981.00 L 1760.00 842.00 L 1702.00 901.00 L 1576.00 1059.00 L 1446.00 1263.00 L 1442.00 1280.00 L 1572.00 1306.00 L 1584.00 1299.00 L 1661.00 1172.00 L 1687.00 1172.00 L 1738.00 1192.00 L 1742.00 1175.00 L 1727.00 1083.00 L 1741.00 1061.00 L 1752.00 1057.00 L 1899.00 1141.00 L 2048.00 1245.00 L 2187.00 1359.00 L 2288.00 1455.00 L 2286.00 1462.00 L 2104.00 1457.00 L 1867.00 1427.00 L 1630.00 1375.00 L 1387.00 1301.00 L 1156.00 1209.00 L 925.00 1094.00 L 700.00 957.00 L 587.00 876.00 L 503.00 806.00 Z" fill="url(#agedGold)" filter="url(#weatheredGrain)" fill-rule="evenodd" shape-rendering="geometricPrecision"/>
</svg>
