<svg xmlns="http://www.w3.org/2000/svg" width="4096" height="4096" viewBox="0 0 4096 4096" role="img" aria-label="Lovecraftian symbol">

  <defs>
    <linearGradient id="agedGold" x1="14%" y1="8%" x2="90%" y2="96%">
      <stop offset="0" stop-color="#eee7b4"/>
      <stop offset="0.22" stop-color="#c5bd83"/>
      <stop offset="0.58" stop-color="#77794e"/>
      <stop offset="1" stop-color="#303729"/>
    </linearGradient>
    <filter id="weatheredGrain" x="-10%" y="-10%" width="120%" height="120%" color-interpolation-filters="sRGB">
      <feTurbulence type="fractalNoise" baseFrequency="0.022 0.07" numOctaves="4" seed="23" result="noise"/>
      <feColorMatrix in="noise" type="matrix" values="0.42 0 0 0 0.01 0 0.38 0 0 0.01 0 0 0.26 0 0.01 0 0 0 0.46 0" result="grain"/>
      <feBlend in="SourceGraphic" in2="grain" mode="screen"/>
    </filter>
  </defs>
  <path d="M 2031.00 1997.00 L 2020.00 2000.00 L 2009.00 2001.00 L 1990.00 2011.00 L 1978.00 2022.00 L 1972.00 2030.00 L 1971.00 2034.00 L 1966.00 2041.00 L 1966.00 2046.00 L 1961.00 2056.00 L 1960.00 2083.00 L 1961.00 2087.00 L 1966.00 2094.00 L 1966.00 2099.00 L 1971.00 2108.00 L 1972.00 2117.00 L 1976.00 2126.00 L 1977.00 2136.00 L 1980.00 2142.00 L 1979.00 2144.00 L 1981.00 2150.00 L 1983.00 2173.00 L 1986.00 2186.00 L 1986.00 2203.00 L 1983.00 2214.00 L 1982.00 2231.00 L 1979.00 2244.00 L 1980.00 2246.00 L 1977.00 2252.00 L 1975.00 2266.00 L 1972.00 2272.00 L 1971.00 2280.00 L 1966.00 2289.00 L 1966.00 2295.00 L 1960.00 2305.00 L 1960.00 2324.00 L 1961.00 2332.00 L 1965.00 2339.00 L 1965.00 2344.00 L 1967.00 2349.00 L 1970.00 2352.00 L 1972.00 2358.00 L 1989.00 2377.00 L 1991.00 2377.00 L 2003.00 2385.00 L 2007.00 2385.00 L 2014.00 2389.00 L 2036.00 2391.00 L 2050.00 2389.00 L 2056.00 2385.00 L 2060.00 2385.00 L 2078.00 2373.00 L 2093.00 2355.00 L 2102.00 2331.00 L 2103.00 2306.00 L 2101.00 2300.00 L 2098.00 2296.00 L 2097.00 2290.00 L 2094.00 2286.00 L 2092.00 2275.00 L 2088.00 2268.00 L 2087.00 2255.00 L 2082.00 2241.00 L 2081.00 2222.00 L 2078.00 2209.00 L 2078.00 2180.00 L 2081.00 2166.00 L 2080.00 2162.00 L 2082.00 2147.00 L 2087.00 2133.00 L 2088.00 2120.00 L 2092.00 2114.00 L 2094.00 2103.00 L 2097.00 2099.00 L 2098.00 2093.00 L 2102.00 2087.00 L 2102.00 2057.00 L 2098.00 2048.00 L 2098.00 2044.00 L 2094.00 2038.00 L 2091.00 2030.00 L 2087.00 2024.00 L 2077.00 2014.00 L 2067.00 2007.00 L 2062.00 2006.00 L 2055.00 2001.00 Z M 2068.00 1917.00 L 2007.00 1917.00 L 1918.00 1938.00 L 1844.00 1969.00 L 1795.00 1996.00 L 1700.00 2060.00 L 1666.00 2090.00 L 1632.00 2135.00 L 1621.00 2170.00 L 1621.00 2202.00 L 1626.00 2233.00 L 1636.00 2259.00 L 1661.00 2294.00 L 1713.00 2342.00 L 1786.00 2393.00 L 1854.00 2431.00 L 1901.00 2452.00 L 1945.00 2467.00 L 2018.00 2483.00 L 2086.00 2478.00 L 2158.00 2457.00 L 2230.00 2425.00 L 2293.00 2389.00 L 2368.00 2335.00 L 2411.00 2294.00 L 2439.00 2254.00 L 2449.00 2216.00 L 2451.00 2174.00 L 2443.00 2140.00 L 2412.00 2096.00 L 2364.00 2054.00 L 2277.00 1996.00 L 2220.00 1965.00 L 2155.00 1938.00 Z M 2018.00 1951.00 L 2043.00 1951.00 L 2071.00 1954.00 L 2116.00 1965.00 L 2170.00 1992.00 L 2195.00 2012.00 L 2233.00 2054.00 L 2254.00 2090.00 L 2270.00 2133.00 L 2270.00 2142.00 L 2274.00 2152.00 L 2276.00 2168.00 L 2276.00 2222.00 L 2274.00 2238.00 L 2270.00 2248.00 L 2270.00 2258.00 L 2266.00 2265.00 L 2259.00 2289.00 L 2248.00 2309.00 L 2248.00 2313.00 L 2243.00 2318.00 L 2232.00 2338.00 L 2202.00 2372.00 L 2177.00 2393.00 L 2143.00 2414.00 L 2137.00 2415.00 L 2118.00 2425.00 L 2092.00 2431.00 L 2084.00 2435.00 L 2041.00 2440.00 L 2012.00 2439.00 L 2001.00 2436.00 L 1981.00 2435.00 L 1933.00 2419.00 L 1897.00 2399.00 L 1875.00 2383.00 L 1859.00 2368.00 L 1826.00 2327.00 L 1805.00 2286.00 L 1805.00 2281.00 L 1800.00 2272.00 L 1799.00 2262.00 L 1794.00 2250.00 L 1790.00 2226.00 L 1788.00 2194.00 L 1789.00 2172.00 L 1794.00 2140.00 L 1800.00 2119.00 L 1804.00 2113.00 L 1805.00 2104.00 L 1809.00 2100.00 L 1811.00 2091.00 L 1827.00 2062.00 L 1852.00 2030.00 L 1869.00 2013.00 L 1896.00 1992.00 L 1935.00 1971.00 L 1965.00 1960.00 Z M 3599.00 1693.00 L 3592.00 1692.00 L 3545.00 1722.00 L 3175.00 1917.00 L 3078.00 1959.00 L 3013.00 1979.00 L 2913.00 1994.00 L 2835.00 1993.00 L 2753.00 1978.00 L 2679.00 1952.00 L 2675.00 1944.00 L 2688.00 1881.00 L 2699.00 1770.00 L 2695.00 1605.00 L 2679.00 1496.00 L 2658.00 1407.00 L 2595.00 1230.00 L 2553.00 1144.00 L 2486.00 1029.00 L 2343.00 834.00 L 2202.00 691.00 L 2065.00 580.00 L 2059.00 581.00 L 2060.00 590.00 L 2075.00 616.00 L 2180.00 1001.00 L 2191.00 1077.00 L 2195.00 1198.00 L 2191.00 1254.00 L 2165.00 1352.00 L 2117.00 1451.00 L 2046.00 1538.00 L 1899.00 1471.00 L 1810.00 1441.00 L 1705.00 1415.00 L 1552.00 1393.00 L 1346.00 1393.00 L 1136.00 1425.00 L 936.00 1483.00 L 741.00 1560.00 L 498.00 1683.00 L 500.00 1693.00 L 900.00 1730.00 L 1033.00 1756.00 L 1149.00 1792.00 L 1232.00 1836.00 L 1297.00 1887.00 L 1346.00 1941.00 L 1396.00 2020.00 L 1285.00 2146.00 L 1221.00 2237.00 L 1170.00 2325.00 L 1133.00 2402.00 L 1091.00 2514.00 L 1049.00 2683.00 L 1029.00 2844.00 L 1028.00 3090.00 L 1049.00 3305.00 L 1082.00 3511.00 L 1087.00 3515.00 L 1275.00 3105.00 L 1334.00 2990.00 L 1371.00 2932.00 L 1416.00 2877.00 L 1491.00 2810.00 L 1563.00 2767.00 L 1642.00 2736.00 L 1653.00 2739.00 L 1699.00 2823.00 L 1761.00 2915.00 L 1872.00 3044.00 L 1989.00 3149.00 L 2161.00 3263.00 L 2288.00 3327.00 L 2375.00 3363.00 L 2564.00 3426.00 L 2669.00 3453.00 L 2785.00 3474.00 L 3004.00 3501.00 L 2671.00 3222.00 L 2589.00 3146.00 L 2523.00 3068.00 L 2460.00 2964.00 L 2428.00 2875.00 L 2418.00 2807.00 L 2423.00 2695.00 L 2429.00 2689.00 L 2536.00 2672.00 L 2620.00 2651.00 L 2793.00 2588.00 L 2965.00 2494.00 L 3104.00 2390.00 L 3186.00 2315.00 L 3266.00 2230.00 L 3375.00 2094.00 L 3502.00 1887.00 Z M 1776.00 2713.00 L 1798.00 2709.00 L 1854.00 2708.00 L 1863.00 2705.00 L 2042.00 2705.00 L 2118.00 2708.00 L 2275.00 2705.00 L 2277.00 2708.00 L 2272.00 2747.00 L 2271.00 2794.00 L 2276.00 2858.00 L 2297.00 2944.00 L 2334.00 3031.00 L 2380.00 3104.00 L 2442.00 3179.00 L 2485.00 3223.00 L 2543.00 3274.00 L 2599.00 3316.00 L 2600.00 3322.00 L 2491.00 3289.00 L 2391.00 3252.00 L 2331.00 3226.00 L 2201.00 3158.00 L 2097.00 3090.00 L 2003.00 3012.00 L 1914.00 2921.00 L 1867.00 2862.00 L 1826.00 2803.00 L 1784.00 2733.00 Z M 1448.00 2143.00 L 1484.00 2251.00 L 1505.00 2334.00 L 1510.00 2343.00 L 1510.00 2351.00 L 1552.00 2493.00 L 1583.00 2582.00 L 1593.00 2602.00 L 1590.00 2606.00 L 1560.00 2614.00 L 1510.00 2634.00 L 1433.00 2677.00 L 1372.00 2724.00 L 1323.00 2772.00 L 1265.00 2846.00 L 1217.00 2925.00 L 1180.00 3002.00 L 1159.00 3052.00 L 1144.00 3099.00 L 1140.00 3103.00 L 1135.00 3024.00 L 1139.00 2840.00 L 1149.00 2748.00 L 1160.00 2687.00 L 1191.00 2566.00 L 1229.00 2463.00 L 1260.00 2397.00 L 1297.00 2331.00 L 1323.00 2290.00 L 1384.00 2209.00 L 1442.00 2144.00 Z M 3313.00 1990.00 L 3234.00 2097.00 L 3175.00 2167.00 L 3074.00 2269.00 L 3027.00 2310.00 L 2937.00 2378.00 L 2862.00 2425.00 L 2797.00 2460.00 L 2698.00 2503.00 L 2619.00 2530.00 L 2564.00 2545.00 L 2460.00 2566.00 L 2456.00 2564.00 L 2481.00 2492.00 L 2585.00 2247.00 L 2640.00 2092.00 L 2729.00 2122.00 L 2779.00 2132.00 L 2849.00 2138.00 L 2925.00 2136.00 L 2959.00 2132.00 L 3049.00 2112.00 L 3128.00 2085.00 L 3238.00 2033.00 L 3308.00 1990.00 Z M 2023.00 1664.00 L 2021.00 1690.00 L 2025.00 1702.00 L 2071.00 1738.00 L 2092.00 1780.00 L 2153.00 1843.00 L 2161.00 1825.00 L 2161.00 1808.00 L 2143.00 1778.00 L 2150.00 1747.00 L 2150.00 1715.00 L 2145.00 1707.00 L 2147.00 1702.00 L 2159.00 1747.00 L 2180.00 1788.00 L 2202.00 1805.00 L 2208.00 1848.00 L 2228.00 1898.00 L 2265.00 1939.00 L 2293.00 1962.00 L 2406.00 2029.00 L 2465.00 2074.00 L 2495.00 2103.00 L 2515.00 2130.00 L 2528.00 2171.00 L 2525.00 2208.00 L 2496.00 2259.00 L 2452.00 2304.00 L 2383.00 2358.00 L 2287.00 2419.00 L 2205.00 2462.00 L 2108.00 2502.00 L 2039.00 2523.00 L 1966.00 2503.00 L 1868.00 2462.00 L 1785.00 2419.00 L 1695.00 2362.00 L 1627.00 2310.00 L 1578.00 2261.00 L 1559.00 2234.00 L 1543.00 2191.00 L 1544.00 2168.00 L 1558.00 2129.00 L 1607.00 2074.00 L 1668.00 2028.00 L 1804.00 1949.00 L 1825.00 1930.00 L 1877.00 1858.00 L 1888.00 1835.00 L 1905.00 1773.00 L 1933.00 1771.00 L 1945.00 1757.00 L 1949.00 1740.00 L 1945.00 1709.00 L 1950.00 1711.00 L 1958.00 1732.00 L 1959.00 1756.00 L 1939.00 1793.00 L 1939.00 1803.00 L 1953.00 1825.00 L 1967.00 1832.00 L 1989.00 1829.00 L 2016.00 1818.00 L 2038.00 1799.00 L 2046.00 1787.00 L 2047.00 1758.00 L 2019.00 1707.00 L 2016.00 1688.00 Z M 914.00 1606.00 L 993.00 1578.00 L 1084.00 1551.00 L 1198.00 1525.00 L 1312.00 1509.00 L 1364.00 1505.00 L 1501.00 1504.00 L 1614.00 1516.00 L 1715.00 1536.00 L 1845.00 1578.00 L 1941.00 1620.00 L 1945.00 1626.00 L 1813.00 1717.00 L 1645.00 1823.00 L 1509.00 1922.00 L 1463.00 1850.00 L 1411.00 1791.00 L 1358.00 1745.00 L 1283.00 1697.00 L 1228.00 1671.00 L 1153.00 1645.00 L 1053.00 1623.00 Z M 2285.00 938.00 L 2364.00 1043.00 L 2400.00 1097.00 L 2447.00 1178.00 L 2484.00 1251.00 L 2484.00 1257.00 L 2511.00 1315.00 L 2552.00 1441.00 L 2573.00 1542.00 L 2584.00 1681.00 L 2579.00 1799.00 L 2573.00 1852.00 L 2564.00 1890.00 L 2559.00 1890.00 L 2497.00 1848.00 L 2252.00 1665.00 L 2172.00 1612.00 L 2212.00 1565.00 L 2260.00 1492.00 L 2281.00 1450.00 L 2301.00 1397.00 L 2317.00 1332.00 L 2327.00 1266.00 L 2328.00 1169.00 L 2312.00 1049.00 L 2308.00 1041.00 L 2307.00 1026.00 L 2291.00 960.00 L 2284.00 943.00 Z" fill="url(#agedGold)" filter="url(#weatheredGrain)" fill-rule="evenodd" shape-rendering="geometricPrecision"/>
</svg>
