<svg xmlns="http://www.w3.org/2000/svg" width="4096" height="4096" viewBox="0 0 4096 4096" role="img" aria-label="Lovecraftian symbol">

  <defs>
    <linearGradient id="agedGold" x1="14%" y1="8%" x2="90%" y2="96%">
      <stop offset="0" stop-color="#eee7b4"/>
      <stop offset="0.22" stop-color="#c5bd83"/>
      <stop offset="0.58" stop-color="#77794e"/>
      <stop offset="1" stop-color="#303729"/>
    </linearGradient>
    <filter id="weatheredGrain" x="-10%" y="-10%" width="120%" height="120%" color-interpolation-filters="sRGB">
      <feTurbulence type="fractalNoise" baseFrequency="0.022 0.07" numOctaves="4" seed="23" result="noise"/>
      <feColorMatrix in="noise" type="matrix" values="0.42 0 0 0 0.01 0 0.38 0 0 0.01 0 0 0.26 0 0.01 0 0 0 0.46 0" result="grain"/>
      <feBlend in="SourceGraphic" in2="grain" mode="screen"/>
    </filter>
  </defs>
  <path d="M 1513.00 3263.00 L 1513.00 3270.00 L 1514.00 3272.00 L 1517.00 3274.00 L 1523.00 3276.00 L 1535.00 3277.00 L 1543.00 3280.00 L 1547.00 3280.00 L 1551.00 3282.00 L 1560.00 3284.00 L 1569.00 3284.00 L 1574.00 3287.00 L 1579.00 3287.00 L 1585.00 3290.00 L 1591.00 3290.00 L 1592.00 3289.00 L 1602.00 3290.00 L 1604.00 3288.00 L 1603.00 3284.00 L 1601.00 3283.00 L 1598.00 3283.00 L 1592.00 3277.00 L 1578.00 3273.00 L 1568.00 3273.00 L 1566.00 3272.00 L 1565.00 3270.00 L 1561.00 3268.00 L 1553.00 3269.00 L 1550.00 3266.00 L 1544.00 3263.00 L 1534.00 3264.00 L 1522.00 3262.00 L 1521.00 3261.00 L 1517.00 3261.00 Z M 1178.00 2972.00 L 1179.00 2982.00 L 1197.00 3010.00 L 1247.00 3074.00 L 1275.00 3083.00 L 1344.00 3140.00 L 1395.00 3173.00 L 1412.00 3191.00 L 1449.00 3212.00 L 1541.00 3250.00 L 1558.00 3253.00 L 1627.00 3282.00 L 1635.00 3281.00 L 1658.00 3292.00 L 1666.00 3291.00 L 1676.00 3308.00 L 1700.00 3309.00 L 1712.00 3315.00 L 1755.00 3321.00 L 1808.00 3321.00 L 1827.00 3311.00 L 1860.00 3314.00 L 1871.00 3311.00 L 1880.00 3316.00 L 1909.00 3316.00 L 2001.00 3302.00 L 2006.00 3289.00 L 2023.00 3294.00 L 2077.00 3280.00 L 2087.00 3283.00 L 2128.00 3257.00 L 2161.00 3227.00 L 2192.00 3186.00 L 2207.00 3156.00 L 2206.00 3131.00 L 2212.00 3123.00 L 2212.00 3109.00 L 2188.00 3031.00 L 2205.00 3034.00 L 2218.00 3025.00 L 2216.00 3019.00 L 2206.00 3017.00 L 2191.00 3022.00 L 2134.00 3026.00 L 2129.00 3031.00 L 2113.00 3026.00 L 2088.00 3040.00 L 2067.00 3046.00 L 2030.00 3081.00 L 2015.00 3104.00 L 2014.00 3116.00 L 1984.00 3157.00 L 1961.00 3177.00 L 1905.00 3208.00 L 1884.00 3215.00 L 1878.00 3210.00 L 1857.00 3205.00 L 1822.00 3207.00 L 1805.00 3203.00 L 1752.00 3202.00 L 1707.00 3192.00 L 1691.00 3192.00 L 1672.00 3185.00 L 1664.00 3187.00 L 1655.00 3178.00 L 1641.00 3177.00 L 1635.00 3170.00 L 1621.00 3170.00 L 1606.00 3160.00 L 1564.00 3150.00 L 1559.00 3139.00 L 1555.00 3141.00 L 1550.00 3156.00 L 1543.00 3158.00 L 1478.00 3137.00 L 1432.00 3116.00 L 1424.00 3098.00 L 1413.00 3096.00 L 1401.00 3082.00 L 1378.00 3070.00 L 1366.00 3058.00 L 1351.00 3052.00 L 1320.00 3027.00 L 1306.00 3020.00 L 1300.00 3024.00 L 1297.00 3022.00 L 1301.00 3016.00 L 1291.00 3000.00 L 1248.00 2969.00 L 1233.00 2967.00 L 1225.00 2975.00 L 1221.00 2972.00 L 1227.00 2967.00 L 1227.00 2962.00 L 1207.00 2949.00 L 1204.00 2959.00 L 1212.00 2964.00 L 1212.00 2969.00 L 1191.00 2960.00 L 1184.00 2963.00 Z M 1563.00 3160.00 L 1565.00 3159.00 L 1572.00 3159.00 L 1574.00 3161.00 L 1573.00 3166.00 L 1569.00 3166.00 L 1564.00 3164.00 Z M 2426.00 2938.00 L 2422.00 2940.00 L 2420.00 2944.00 L 2420.00 2951.00 L 2423.00 2958.00 L 2424.00 2963.00 L 2423.00 2970.00 L 2426.00 2979.00 L 2426.00 2983.00 L 2424.00 2987.00 L 2424.00 2993.00 L 2426.00 2995.00 L 2427.00 2998.00 L 2426.00 3005.00 L 2427.00 3015.00 L 2428.00 3018.00 L 2433.00 3025.00 L 2436.00 3035.00 L 2440.00 3035.00 L 2442.00 3033.00 L 2442.00 3024.00 L 2444.00 3018.00 L 2442.00 3003.00 L 2442.00 2987.00 L 2439.00 2982.00 L 2437.00 2974.00 L 2437.00 2963.00 L 2435.00 2957.00 L 2435.00 2944.00 L 2434.00 2941.00 L 2432.00 2939.00 Z M 2508.00 2899.00 L 2505.00 2896.00 L 2499.00 2896.00 L 2489.00 2901.00 L 2479.00 2902.00 L 2466.00 2902.00 L 2462.00 2904.00 L 2451.00 2905.00 L 2445.00 2908.00 L 2435.00 2909.00 L 2413.00 2908.00 L 2409.00 2910.00 L 2408.00 2912.00 L 2408.00 2915.00 L 2409.00 2917.00 L 2413.00 2920.00 L 2420.00 2920.00 L 2424.00 2917.00 L 2435.00 2918.00 L 2444.00 2916.00 L 2453.00 2916.00 L 2457.00 2914.00 L 2459.00 2912.00 L 2464.00 2910.00 L 2478.00 2911.00 L 2487.00 2910.00 L 2490.00 2909.00 L 2495.00 2904.00 L 2507.00 2903.00 Z M 1939.00 2854.00 L 1938.00 2856.00 L 1938.00 2860.00 L 1940.00 2863.00 L 1942.00 2864.00 L 1945.00 2873.00 L 1948.00 2875.00 L 1955.00 2890.00 L 1956.00 2896.00 L 1962.00 2903.00 L 1963.00 2908.00 L 1967.00 2914.00 L 1968.00 2917.00 L 1968.00 2921.00 L 1970.00 2924.00 L 1972.00 2925.00 L 1979.00 2925.00 L 1981.00 2924.00 L 1982.00 2914.00 L 1981.00 2912.00 L 1974.00 2904.00 L 1965.00 2889.00 L 1959.00 2883.00 L 1957.00 2874.00 L 1952.00 2867.00 L 1950.00 2861.00 L 1946.00 2857.00 L 1941.00 2854.00 Z M 3253.00 2835.00 L 3240.00 2825.00 L 3212.00 2825.00 L 3197.00 2831.00 L 3150.00 2830.00 L 3138.00 2825.00 L 3118.00 2825.00 L 3083.00 2834.00 L 3047.00 2831.00 L 3020.00 2838.00 L 2993.00 2856.00 L 2962.00 2865.00 L 2947.00 2876.00 L 2934.00 2893.00 L 2924.00 2895.00 L 2897.00 2920.00 L 2854.00 2987.00 L 2842.00 3017.00 L 2835.00 3023.00 L 2826.00 3042.00 L 2798.00 3075.00 L 2785.00 3097.00 L 2757.00 3125.00 L 2739.00 3130.00 L 2723.00 3149.00 L 2685.00 3165.00 L 2663.00 3179.00 L 2659.00 3189.00 L 2647.00 3189.00 L 2637.00 3197.00 L 2627.00 3197.00 L 2599.00 3215.00 L 2485.00 3257.00 L 2474.00 3256.00 L 2433.00 3273.00 L 2364.00 3281.00 L 2349.00 3276.00 L 2288.00 3275.00 L 2227.00 3268.00 L 2179.00 3258.00 L 2166.00 3250.00 L 2136.00 3269.00 L 2120.00 3291.00 L 2110.00 3288.00 L 2098.00 3295.00 L 2084.00 3295.00 L 2073.00 3302.00 L 2073.00 3309.00 L 2086.00 3316.00 L 2106.00 3317.00 L 2118.00 3326.00 L 2151.00 3329.00 L 2172.00 3339.00 L 2198.00 3343.00 L 2211.00 3339.00 L 2218.00 3342.00 L 2257.00 3341.00 L 2267.00 3342.00 L 2275.00 3350.00 L 2303.00 3342.00 L 2349.00 3343.00 L 2355.00 3347.00 L 2389.00 3343.00 L 2404.00 3347.00 L 2412.00 3343.00 L 2508.00 3341.00 L 2519.00 3336.00 L 2537.00 3340.00 L 2546.00 3335.00 L 2558.00 3338.00 L 2563.00 3334.00 L 2603.00 3334.00 L 2611.00 3329.00 L 2636.00 3328.00 L 2655.00 3317.00 L 2679.00 3316.00 L 2736.00 3294.00 L 2766.00 3288.00 L 2818.00 3262.00 L 2832.00 3260.00 L 2896.00 3219.00 L 2915.00 3211.00 L 2939.00 3192.00 L 2951.00 3189.00 L 2993.00 3164.00 L 3023.00 3134.00 L 3035.00 3132.00 L 3060.00 3107.00 L 3099.00 3081.00 L 3154.00 3029.00 L 3179.00 2998.00 L 3224.00 2921.00 L 3226.00 2899.00 L 3232.00 2893.00 L 3237.00 2860.00 L 3242.00 2852.00 L 3251.00 2849.00 Z M 2918.00 3026.00 L 2926.00 3034.00 L 2932.00 3034.00 L 2937.00 3038.00 L 2948.00 3054.00 L 2951.00 3060.00 L 2956.00 3066.00 L 2957.00 3069.00 L 2956.00 3083.00 L 2957.00 3097.00 L 2955.00 3103.00 L 2946.00 3117.00 L 2946.00 3120.00 L 2944.00 3124.00 L 2939.00 3129.00 L 2935.00 3130.00 L 2931.00 3135.00 L 2920.00 3143.00 L 2914.00 3142.00 L 2908.00 3144.00 L 2902.00 3144.00 L 2889.00 3142.00 L 2879.00 3138.00 L 2873.00 3138.00 L 2869.00 3136.00 L 2865.00 3131.00 L 2857.00 3129.00 L 2855.00 3127.00 L 2854.00 3123.00 L 2854.00 3118.00 L 2850.00 3113.00 L 2848.00 3109.00 L 2848.00 3107.00 L 2842.00 3097.00 L 2841.00 3081.00 L 2846.00 3071.00 L 2848.00 3069.00 L 2850.00 3056.00 L 2852.00 3055.00 L 2857.00 3055.00 L 2859.00 3053.00 L 2861.00 3047.00 L 2865.00 3043.00 L 2872.00 3043.00 L 2875.00 3042.00 L 2882.00 3035.00 L 2884.00 3034.00 L 2903.00 3035.00 L 2906.00 3034.00 L 2909.00 3030.00 L 2915.00 3026.00 Z M 2971.00 2877.00 L 2986.00 2877.00 L 2989.00 2878.00 L 2994.00 2882.00 L 3000.00 2884.00 L 3008.00 2892.00 L 3008.00 2893.00 L 3021.00 2905.00 L 3022.00 2907.00 L 3022.00 2911.00 L 3024.00 2916.00 L 3028.00 2918.00 L 3031.00 2918.00 L 3033.00 2919.00 L 3040.00 2929.00 L 3040.00 2972.00 L 3039.00 2976.00 L 3035.00 2984.00 L 3031.00 2987.00 L 3024.00 2990.00 L 3022.00 2990.00 L 3011.00 2995.00 L 3007.00 3000.00 L 3003.00 3003.00 L 2998.00 3005.00 L 2996.00 3007.00 L 2995.00 3010.00 L 2992.00 3013.00 L 2983.00 3013.00 L 2980.00 3015.00 L 2975.00 3015.00 L 2968.00 3013.00 L 2956.00 3014.00 L 2953.00 3013.00 L 2949.00 3008.00 L 2940.00 3004.00 L 2935.00 2999.00 L 2932.00 2998.00 L 2926.00 2992.00 L 2925.00 2988.00 L 2922.00 2984.00 L 2918.00 2974.00 L 2918.00 2971.00 L 2915.00 2967.00 L 2913.00 2962.00 L 2913.00 2940.00 L 2914.00 2937.00 L 2917.00 2934.00 L 2917.00 2929.00 L 2919.00 2923.00 L 2927.00 2910.00 L 2930.00 2907.00 L 2935.00 2905.00 L 2939.00 2899.00 L 2949.00 2896.00 L 2951.00 2894.00 L 2953.00 2887.00 L 2956.00 2884.00 L 2964.00 2879.00 Z M 3169.00 2867.00 L 3177.00 2875.00 L 3178.00 2877.00 L 3178.00 2882.00 L 3179.00 2883.00 L 3179.00 2885.00 L 3187.00 2892.00 L 3188.00 2894.00 L 3187.00 2904.00 L 3185.00 2908.00 L 3183.00 2920.00 L 3179.00 2926.00 L 3179.00 2930.00 L 3174.00 2937.00 L 3174.00 2940.00 L 3171.00 2946.00 L 3162.00 2955.00 L 3158.00 2955.00 L 3156.00 2957.00 L 3145.00 2961.00 L 3132.00 2960.00 L 3130.00 2961.00 L 3128.00 2964.00 L 3128.00 2967.00 L 3127.00 2969.00 L 3124.00 2972.00 L 3113.00 2972.00 L 3109.00 2970.00 L 3101.00 2971.00 L 3097.00 2969.00 L 3091.00 2962.00 L 3091.00 2956.00 L 3084.00 2950.00 L 3079.00 2944.00 L 3078.00 2941.00 L 3079.00 2940.00 L 3075.00 2932.00 L 3070.00 2925.00 L 3074.00 2916.00 L 3074.00 2904.00 L 3075.00 2901.00 L 3079.00 2897.00 L 3082.00 2896.00 L 3086.00 2887.00 L 3091.00 2881.00 L 3096.00 2873.00 L 3097.00 2870.00 L 3099.00 2868.00 L 3108.00 2864.00 L 3112.00 2864.00 L 3119.00 2859.00 L 3133.00 2859.00 L 3138.00 2861.00 L 3141.00 2861.00 L 3144.00 2859.00 L 3151.00 2859.00 L 3158.00 2864.00 L 3165.00 2865.00 Z M 2377.00 2883.00 L 2374.00 2880.00 L 2359.00 2876.00 L 2344.00 2864.00 L 2330.00 2862.00 L 2315.00 2852.00 L 2305.00 2850.00 L 2296.00 2844.00 L 2290.00 2843.00 L 2248.00 2818.00 L 2225.00 2845.00 L 2220.00 2854.00 L 2213.00 2857.00 L 2206.00 2864.00 L 2190.00 2871.00 L 2188.00 2874.00 L 2175.00 2878.00 L 2166.00 2886.00 L 2142.00 2892.00 L 2129.00 2901.00 L 2109.00 2903.00 L 2096.00 2910.00 L 2080.00 2911.00 L 2063.00 2920.00 L 2040.00 2923.00 L 2033.00 2927.00 L 2017.00 2929.00 L 2004.00 2935.00 L 1998.00 2935.00 L 1981.00 2941.00 L 1978.00 2944.00 L 1978.00 2948.00 L 1988.00 2961.00 L 1989.00 2966.00 L 1987.00 2968.00 L 1982.00 2965.00 L 1975.00 2951.00 L 1971.00 2947.00 L 1964.00 2947.00 L 1934.00 2977.00 L 1921.00 2996.00 L 1913.00 3004.00 L 1911.00 3012.00 L 1906.00 3018.00 L 1898.00 3038.00 L 1897.00 3048.00 L 1891.00 3062.00 L 1889.00 3116.00 L 1885.00 3123.00 L 1885.00 3131.00 L 1889.00 3139.00 L 1889.00 3164.00 L 1893.00 3185.00 L 1901.00 3189.00 L 1909.00 3185.00 L 1917.00 3185.00 L 1949.00 3166.00 L 1975.00 3140.00 L 1981.00 3138.00 L 1986.00 3126.00 L 1991.00 3122.00 L 2000.00 3094.00 L 2003.00 3092.00 L 2006.00 3084.00 L 2028.00 3053.00 L 2049.00 3035.00 L 2072.00 3022.00 L 2082.00 3020.00 L 2095.00 3012.00 L 2107.00 3014.00 L 2115.00 3009.00 L 2128.00 3011.00 L 2139.00 3008.00 L 2177.00 3008.00 L 2184.00 3004.00 L 2196.00 3003.00 L 2224.00 3004.00 L 2236.00 3001.00 L 2242.00 2997.00 L 2260.00 2994.00 L 2266.00 2989.00 L 2269.00 2989.00 L 2305.00 2958.00 L 2351.00 2906.00 L 2366.00 2893.00 L 2374.00 2894.00 L 2378.00 2889.00 Z M 3501.00 2722.00 L 3502.00 2730.00 L 3526.00 2729.00 L 3532.00 2730.00 L 3539.00 2734.00 L 3567.00 2734.00 L 3573.00 2735.00 L 3578.00 2737.00 L 3585.00 2737.00 L 3586.00 2738.00 L 3592.00 2738.00 L 3596.00 2734.00 L 3599.00 2728.00 L 3599.00 2726.00 L 3592.00 2727.00 L 3583.00 2722.00 L 3577.00 2720.00 L 3557.00 2720.00 L 3550.00 2717.00 L 3540.00 2717.00 L 3536.00 2719.00 L 3532.00 2717.00 L 3528.00 2713.00 L 3524.00 2712.00 L 3520.00 2709.00 L 3515.00 2709.00 L 3513.00 2710.00 L 3506.00 2718.00 Z M 1258.00 2378.00 L 1254.00 2382.00 L 1254.00 2388.00 L 1262.00 2404.00 L 1263.00 2418.00 L 1275.00 2438.00 L 1277.00 2446.00 L 1288.00 2461.00 L 1291.00 2470.00 L 1326.00 2513.00 L 1375.00 2563.00 L 1399.00 2584.00 L 1425.00 2616.00 L 1441.00 2632.00 L 1454.00 2657.00 L 1495.00 2718.00 L 1523.00 2774.00 L 1531.00 2795.00 L 1532.00 2809.00 L 1537.00 2815.00 L 1539.00 2828.00 L 1544.00 2836.00 L 1549.00 2879.00 L 1548.00 2888.00 L 1551.00 2896.00 L 1551.00 2904.00 L 1558.00 2922.00 L 1558.00 2932.00 L 1563.00 2937.00 L 1571.00 2955.00 L 1590.00 2983.00 L 1600.00 2994.00 L 1608.00 2995.00 L 1612.00 3006.00 L 1618.00 3005.00 L 1622.00 2998.00 L 1622.00 2991.00 L 1615.00 2989.00 L 1611.00 2985.00 L 1611.00 2981.00 L 1618.00 2969.00 L 1624.00 2948.00 L 1631.00 2939.00 L 1633.00 2915.00 L 1637.00 2907.00 L 1637.00 2892.00 L 1644.00 2881.00 L 1645.00 2830.00 L 1644.00 2796.00 L 1639.00 2783.00 L 1638.00 2771.00 L 1633.00 2764.00 L 1631.00 2748.00 L 1624.00 2729.00 L 1620.00 2708.00 L 1610.00 2687.00 L 1584.00 2655.00 L 1574.00 2646.00 L 1565.00 2632.00 L 1477.00 2556.00 L 1416.00 2490.00 L 1413.00 2481.00 L 1385.00 2446.00 L 1364.00 2411.00 L 1363.00 2397.00 L 1359.00 2391.00 L 1336.00 2389.00 L 1323.00 2385.00 L 1283.00 2382.00 L 1276.00 2377.00 Z M 2030.00 2429.00 L 2029.00 2449.00 L 2040.00 2472.00 L 2041.00 2484.00 L 2055.00 2513.00 L 2055.00 2520.00 L 2080.00 2566.00 L 2081.00 2574.00 L 2098.00 2599.00 L 2101.00 2608.00 L 2113.00 2623.00 L 2127.00 2652.00 L 2127.00 2660.00 L 2140.00 2685.00 L 2165.00 2716.00 L 2172.00 2731.00 L 2230.00 2787.00 L 2256.00 2806.00 L 2332.00 2843.00 L 2338.00 2853.00 L 2346.00 2852.00 L 2362.00 2864.00 L 2378.00 2871.00 L 2447.00 2881.00 L 2517.00 2876.00 L 2527.00 2871.00 L 2539.00 2869.00 L 2551.00 2871.00 L 2557.00 2866.00 L 2577.00 2863.00 L 2605.00 2864.00 L 2621.00 2858.00 L 2657.00 2852.00 L 2662.00 2847.00 L 2671.00 2845.00 L 2675.00 2840.00 L 2687.00 2747.00 L 2685.00 2686.00 L 2680.00 2673.00 L 2670.00 2674.00 L 2634.00 2691.00 L 2595.00 2704.00 L 2576.00 2704.00 L 2556.00 2712.00 L 2542.00 2713.00 L 2534.00 2717.00 L 2462.00 2733.00 L 2411.00 2731.00 L 2401.00 2726.00 L 2386.00 2726.00 L 2362.00 2719.00 L 2354.00 2712.00 L 2349.00 2713.00 L 2338.00 2705.00 L 2315.00 2699.00 L 2309.00 2694.00 L 2298.00 2691.00 L 2248.00 2655.00 L 2241.00 2643.00 L 2223.00 2626.00 L 2198.00 2590.00 L 2193.00 2572.00 L 2192.00 2519.00 L 2194.00 2503.00 L 2200.00 2492.00 L 2207.00 2462.00 L 2175.00 2417.00 L 2170.00 2402.00 L 2149.00 2377.00 L 2134.00 2353.00 L 2128.00 2352.00 L 2115.00 2357.00 L 2083.00 2378.00 L 2046.00 2413.00 L 2040.00 2415.00 L 2036.00 2424.00 Z M 2433.00 2319.00 L 2422.00 2328.00 L 2422.00 2333.00 L 2426.00 2338.00 L 2427.00 2347.00 L 2426.00 2393.00 L 2435.00 2413.00 L 2471.00 2413.00 L 2485.00 2416.00 L 2492.00 2421.00 L 2510.00 2421.00 L 2527.00 2429.00 L 2536.00 2438.00 L 2544.00 2440.00 L 2572.00 2460.00 L 2588.00 2476.00 L 2602.00 2496.00 L 2641.00 2535.00 L 2681.00 2600.00 L 2686.00 2615.00 L 2695.00 2628.00 L 2697.00 2646.00 L 2707.00 2652.00 L 2702.00 2664.00 L 2702.00 2675.00 L 2706.00 2684.00 L 2705.00 2699.00 L 2709.00 2712.00 L 2709.00 2750.00 L 2705.00 2758.00 L 2701.00 2809.00 L 2697.00 2818.00 L 2695.00 2840.00 L 2689.00 2850.00 L 2689.00 2860.00 L 2683.00 2868.00 L 2682.00 2886.00 L 2677.00 2891.00 L 2672.00 2905.00 L 2650.00 3020.00 L 2655.00 3075.00 L 2657.00 3159.00 L 2665.00 3164.00 L 2701.00 3145.00 L 2712.00 3134.00 L 2726.00 3131.00 L 2739.00 3115.00 L 2767.00 3091.00 L 2762.00 3079.00 L 2760.00 2989.00 L 2764.00 2957.00 L 2779.00 2897.00 L 2788.00 2886.00 L 2792.00 2861.00 L 2801.00 2839.00 L 2815.00 2767.00 L 2815.00 2703.00 L 2806.00 2661.00 L 2808.00 2645.00 L 2796.00 2603.00 L 2794.00 2585.00 L 2779.00 2545.00 L 2741.00 2468.00 L 2705.00 2420.00 L 2697.00 2405.00 L 2653.00 2362.00 L 2652.00 2355.00 L 2634.00 2334.00 L 2620.00 2299.00 L 2549.00 2302.00 L 2541.00 2306.00 L 2507.00 2310.00 L 2499.00 2314.00 L 2482.00 2314.00 L 2473.00 2319.00 Z M 1854.00 2268.00 L 1850.00 2276.00 L 1851.00 2286.00 L 1848.00 2291.00 L 1849.00 2302.00 L 1846.00 2310.00 L 1846.00 2317.00 L 1851.00 2327.00 L 1851.00 2335.00 L 1853.00 2339.00 L 1857.00 2343.00 L 1859.00 2348.00 L 1863.00 2351.00 L 1867.00 2357.00 L 1867.00 2359.00 L 1869.00 2362.00 L 1878.00 2371.00 L 1879.00 2371.00 L 1885.00 2378.00 L 1885.00 2380.00 L 1887.00 2383.00 L 1904.00 2390.00 L 1905.00 2389.00 L 1908.00 2391.00 L 1911.00 2391.00 L 1914.00 2393.00 L 1918.00 2394.00 L 1923.00 2394.00 L 1928.00 2391.00 L 1931.00 2391.00 L 1937.00 2394.00 L 1942.00 2394.00 L 1956.00 2382.00 L 1961.00 2380.00 L 1965.00 2380.00 L 1970.00 2376.00 L 1976.00 2369.00 L 1978.00 2365.00 L 1977.00 2344.00 L 1978.00 2323.00 L 1973.00 2310.00 L 1966.00 2304.00 L 1959.00 2294.00 L 1950.00 2286.00 L 1950.00 2285.00 L 1946.00 2280.00 L 1946.00 2276.00 L 1943.00 2274.00 L 1933.00 2273.00 L 1929.00 2271.00 L 1922.00 2264.00 L 1913.00 2261.00 L 1893.00 2261.00 L 1886.00 2258.00 L 1877.00 2258.00 L 1870.00 2261.00 L 1865.00 2266.00 L 1861.00 2267.00 L 1856.00 2267.00 Z M 3272.00 2177.00 L 3258.00 2174.00 L 3250.00 2167.00 L 3223.00 2158.00 L 3207.00 2156.00 L 3180.00 2157.00 L 3139.00 2177.00 L 3131.00 2188.00 L 3121.00 2190.00 L 3092.00 2221.00 L 3078.00 2228.00 L 3071.00 2238.00 L 3064.00 2238.00 L 3065.00 2246.00 L 3056.00 2256.00 L 3047.00 2274.00 L 3037.00 2285.00 L 3004.00 2340.00 L 2970.00 2420.00 L 2964.00 2426.00 L 2957.00 2440.00 L 2955.00 2450.00 L 2946.00 2466.00 L 2942.00 2481.00 L 2937.00 2486.00 L 2936.00 2493.00 L 2924.00 2513.00 L 2896.00 2543.00 L 2862.00 2574.00 L 2855.00 2576.00 L 2843.00 2586.00 L 2835.00 2589.00 L 2829.00 2596.00 L 2821.00 2595.00 L 2816.00 2602.00 L 2815.00 2609.00 L 2820.00 2620.00 L 2820.00 2633.00 L 2824.00 2640.00 L 2825.00 2648.00 L 2821.00 2657.00 L 2824.00 2665.00 L 2825.00 2683.00 L 2821.00 2689.00 L 2827.00 2701.00 L 2826.00 2716.00 L 2832.00 2725.00 L 2844.00 2725.00 L 2890.00 2679.00 L 2900.00 2663.00 L 2910.00 2658.00 L 2914.00 2648.00 L 2939.00 2612.00 L 2940.00 2604.00 L 2960.00 2564.00 L 2970.00 2550.00 L 2973.00 2539.00 L 2980.00 2526.00 L 2985.00 2521.00 L 2986.00 2515.00 L 3020.00 2445.00 L 3029.00 2436.00 L 3030.00 2431.00 L 3040.00 2422.00 L 3060.00 2391.00 L 3069.00 2384.00 L 3084.00 2361.00 L 3101.00 2346.00 L 3116.00 2323.00 L 3121.00 2320.00 L 3128.00 2309.00 L 3163.00 2277.00 L 3198.00 2251.00 L 3204.00 2250.00 L 3211.00 2243.00 L 3225.00 2236.00 L 3259.00 2210.00 L 3267.00 2194.00 L 3275.00 2186.00 L 3275.00 2181.00 Z M 2533.00 2072.00 L 2527.00 2078.00 L 2524.00 2087.00 L 2524.00 2096.00 L 2525.00 2101.00 L 2527.00 2106.00 L 2529.00 2108.00 L 2530.00 2111.00 L 2529.00 2112.00 L 2531.00 2119.00 L 2534.00 2126.00 L 2537.00 2130.00 L 2540.00 2142.00 L 2545.00 2148.00 L 2546.00 2154.00 L 2552.00 2161.00 L 2552.00 2164.00 L 2553.00 2166.00 L 2557.00 2170.00 L 2559.00 2171.00 L 2563.00 2171.00 L 2565.00 2169.00 L 2566.00 2166.00 L 2569.00 2164.00 L 2586.00 2183.00 L 2596.00 2188.00 L 2605.00 2187.00 L 2620.00 2188.00 L 2624.00 2185.00 L 2625.00 2182.00 L 2628.00 2179.00 L 2635.00 2178.00 L 2639.00 2173.00 L 2640.00 2169.00 L 2640.00 2164.00 L 2644.00 2159.00 L 2645.00 2156.00 L 2644.00 2132.00 L 2645.00 2131.00 L 2644.00 2119.00 L 2640.00 2115.00 L 2639.00 2112.00 L 2633.00 2107.00 L 2628.00 2095.00 L 2624.00 2091.00 L 2621.00 2090.00 L 2618.00 2085.00 L 2613.00 2080.00 L 2604.00 2076.00 L 2603.00 2074.00 L 2597.00 2068.00 L 2594.00 2066.00 L 2590.00 2066.00 L 2582.00 2061.00 L 2580.00 2061.00 L 2577.00 2063.00 L 2574.00 2063.00 L 2570.00 2060.00 L 2567.00 2060.00 L 2560.00 2063.00 L 2555.00 2062.00 L 2550.00 2064.00 L 2544.00 2069.00 Z M 1820.00 2039.00 L 1817.00 2042.00 L 1818.00 2062.00 L 1811.00 2091.00 L 1811.00 2116.00 L 1807.00 2127.00 L 1807.00 2172.00 L 1799.00 2181.00 L 1800.00 2200.00 L 1795.00 2211.00 L 1795.00 2228.00 L 1791.00 2239.00 L 1792.00 2259.00 L 1786.00 2278.00 L 1786.00 2318.00 L 1780.00 2332.00 L 1782.00 2407.00 L 1779.00 2416.00 L 1780.00 2454.00 L 1785.00 2467.00 L 1795.00 2521.00 L 1800.00 2530.00 L 1800.00 2538.00 L 1813.00 2580.00 L 1818.00 2587.00 L 1826.00 2615.00 L 1838.00 2641.00 L 1840.00 2658.00 L 1845.00 2664.00 L 1858.00 2697.00 L 1880.00 2735.00 L 1885.00 2751.00 L 1903.00 2776.00 L 1926.00 2818.00 L 1970.00 2879.00 L 1984.00 2906.00 L 1995.00 2916.00 L 2002.00 2917.00 L 2034.00 2905.00 L 2053.00 2904.00 L 2069.00 2897.00 L 2101.00 2891.00 L 2107.00 2887.00 L 2107.00 2881.00 L 2077.00 2842.00 L 2070.00 2825.00 L 2062.00 2818.00 L 2052.00 2801.00 L 2049.00 2791.00 L 2031.00 2762.00 L 2004.00 2695.00 L 2004.00 2686.00 L 1999.00 2678.00 L 1999.00 2668.00 L 1995.00 2659.00 L 1997.00 2638.00 L 1993.00 2629.00 L 1991.00 2611.00 L 1991.00 2534.00 L 2004.00 2458.00 L 2019.00 2423.00 L 2028.00 2416.00 L 2042.00 2394.00 L 2090.00 2356.00 L 2120.00 2343.00 L 2122.00 2335.00 L 2107.00 2313.00 L 2096.00 2304.00 L 2093.00 2297.00 L 2044.00 2245.00 L 2017.00 2208.00 L 1999.00 2191.00 L 1982.00 2167.00 L 1967.00 2155.00 L 1948.00 2131.00 L 1943.00 2130.00 L 1903.00 2097.00 L 1884.00 2077.00 L 1869.00 2070.00 L 1866.00 2065.00 L 1826.00 2039.00 Z M 1871.00 2237.00 L 1882.00 2236.00 L 1889.00 2238.00 L 1895.00 2238.00 L 1896.00 2237.00 L 1904.00 2236.00 L 1924.00 2235.00 L 1933.00 2237.00 L 1937.00 2239.00 L 1939.00 2241.00 L 1949.00 2245.00 L 1954.00 2250.00 L 1958.00 2250.00 L 1964.00 2255.00 L 1971.00 2258.00 L 1981.00 2268.00 L 1988.00 2273.00 L 1990.00 2277.00 L 1992.00 2278.00 L 1994.00 2282.00 L 2000.00 2288.00 L 2003.00 2296.00 L 2003.00 2303.00 L 2010.00 2317.00 L 2010.00 2371.00 L 2009.00 2373.00 L 2005.00 2377.00 L 1998.00 2382.00 L 1979.00 2402.00 L 1971.00 2401.00 L 1964.00 2405.00 L 1961.00 2412.00 L 1958.00 2414.00 L 1951.00 2414.00 L 1948.00 2415.00 L 1942.00 2420.00 L 1938.00 2421.00 L 1933.00 2417.00 L 1930.00 2417.00 L 1929.00 2418.00 L 1914.00 2417.00 L 1905.00 2414.00 L 1896.00 2415.00 L 1892.00 2413.00 L 1888.00 2410.00 L 1886.00 2406.00 L 1882.00 2402.00 L 1872.00 2398.00 L 1865.00 2393.00 L 1855.00 2384.00 L 1852.00 2380.00 L 1851.00 2376.00 L 1843.00 2367.00 L 1843.00 2365.00 L 1839.00 2358.00 L 1834.00 2352.00 L 1834.00 2349.00 L 1828.00 2340.00 L 1825.00 2330.00 L 1826.00 2329.00 L 1825.00 2325.00 L 1823.00 2322.00 L 1823.00 2318.00 L 1825.00 2313.00 L 1824.00 2295.00 L 1826.00 2291.00 L 1825.00 2279.00 L 1829.00 2268.00 L 1835.00 2262.00 L 1837.00 2258.00 L 1840.00 2255.00 L 1850.00 2250.00 L 1852.00 2248.00 L 1852.00 2247.00 L 1859.00 2242.00 L 1862.00 2242.00 Z M 1812.00 2032.00 L 1790.00 2019.00 L 1782.00 2019.00 L 1748.00 2003.00 L 1720.00 1999.00 L 1715.00 2003.00 L 1709.00 2022.00 L 1700.00 2032.00 L 1681.00 2069.00 L 1657.00 2102.00 L 1648.00 2109.00 L 1601.00 2167.00 L 1562.00 2200.00 L 1547.00 2208.00 L 1548.00 2198.00 L 1540.00 2195.00 L 1534.00 2200.00 L 1533.00 2206.00 L 1540.00 2213.00 L 1515.00 2227.00 L 1497.00 2234.00 L 1484.00 2235.00 L 1475.00 2243.00 L 1449.00 2252.00 L 1371.00 2262.00 L 1358.00 2267.00 L 1347.00 2278.00 L 1339.00 2279.00 L 1329.00 2273.00 L 1292.00 2276.00 L 1282.00 2271.00 L 1274.00 2274.00 L 1239.00 2274.00 L 1226.00 2269.00 L 1218.00 2274.00 L 1178.00 2246.00 L 1166.00 2242.00 L 1130.00 2217.00 L 1118.00 2213.00 L 1102.00 2201.00 L 1091.00 2183.00 L 1069.00 2167.00 L 1061.00 2153.00 L 1031.00 2120.00 L 1019.00 2097.00 L 992.00 2070.00 L 956.00 2022.00 L 949.00 2024.00 L 949.00 2039.00 L 953.00 2047.00 L 959.00 2087.00 L 957.00 2097.00 L 961.00 2104.00 L 963.00 2148.00 L 968.00 2160.00 L 966.00 2183.00 L 1064.00 2268.00 L 1123.00 2309.00 L 1132.00 2311.00 L 1153.00 2326.00 L 1176.00 2336.00 L 1185.00 2345.00 L 1206.00 2353.00 L 1295.00 2374.00 L 1410.00 2381.00 L 1417.00 2387.00 L 1497.00 2375.00 L 1553.00 2349.00 L 1613.00 2315.00 L 1644.00 2290.00 L 1656.00 2286.00 L 1672.00 2271.00 L 1718.00 2244.00 L 1754.00 2242.00 L 1774.00 2245.00 L 1781.00 2216.00 L 1781.00 2189.00 L 1788.00 2163.00 L 1796.00 2083.00 L 1802.00 2067.00 L 1803.00 2044.00 L 1812.00 2039.00 Z M 2145.00 1894.00 L 2128.00 1899.00 L 2126.00 1907.00 L 2145.00 1942.00 L 2152.00 1964.00 L 2148.00 1975.00 L 2129.00 1961.00 L 2101.00 1911.00 L 2095.00 1911.00 L 2061.00 1931.00 L 2045.00 1948.00 L 2048.00 1954.00 L 2107.00 1996.00 L 2105.00 2002.00 L 2091.00 2006.00 L 2074.00 2000.00 L 2018.00 1966.00 L 2003.00 1996.00 L 2003.00 2031.00 L 2009.00 2036.00 L 2089.00 2040.00 L 2106.00 2047.00 L 2108.00 2051.00 L 2103.00 2056.00 L 2055.00 2059.00 L 2018.00 2056.00 L 2013.00 2064.00 L 2045.00 2132.00 L 2054.00 2131.00 L 2062.00 2121.00 L 2084.00 2107.00 L 2121.00 2094.00 L 2126.00 2102.00 L 2067.00 2149.00 L 2068.00 2158.00 L 2090.00 2184.00 L 2086.00 2197.00 L 2095.00 2201.00 L 2104.00 2184.00 L 2115.00 2176.00 L 2122.00 2159.00 L 2136.00 2152.00 L 2140.00 2165.00 L 2113.00 2221.00 L 2124.00 2232.00 L 2166.00 2249.00 L 2171.00 2244.00 L 2169.00 2186.00 L 2175.00 2180.00 L 2175.00 2172.00 L 2182.00 2169.00 L 2188.00 2179.00 L 2186.00 2189.00 L 2190.00 2199.00 L 2193.00 2247.00 L 2201.00 2255.00 L 2214.00 2255.00 L 2235.00 2249.00 L 2239.00 2242.00 L 2219.00 2193.00 L 2215.00 2153.00 L 2221.00 2150.00 L 2230.00 2161.00 L 2252.00 2226.00 L 2260.00 2238.00 L 2266.00 2237.00 L 2297.00 2206.00 L 2298.00 2198.00 L 2253.00 2135.00 L 2261.00 2129.00 L 2272.00 2134.00 L 2322.00 2182.00 L 2327.00 2156.00 L 2352.00 2105.00 L 2348.00 2097.00 L 2276.00 2102.00 L 2269.00 2096.00 L 2270.00 2090.00 L 2293.00 2080.00 L 2353.00 2074.00 L 2357.00 2061.00 L 2345.00 2027.00 L 2343.00 1998.00 L 2334.00 1998.00 L 2266.00 2037.00 L 2247.00 2037.00 L 2249.00 2027.00 L 2326.00 1976.00 L 2298.00 1928.00 L 2291.00 1928.00 L 2288.00 1937.00 L 2275.00 1947.00 L 2262.00 1965.00 L 2247.00 1979.00 L 2242.00 1979.00 L 2239.00 1969.00 L 2246.00 1952.00 L 2257.00 1944.00 L 2260.00 1932.00 L 2272.00 1921.00 L 2269.00 1909.00 L 2230.00 1898.00 L 2222.00 1891.00 L 2212.00 1894.00 L 2218.00 1945.00 L 2209.00 1971.00 L 2205.00 1970.00 L 2197.00 1952.00 L 2186.00 1898.00 L 2181.00 1894.00 Z M 497.00 1915.00 L 496.00 1920.00 L 501.00 1925.00 L 506.00 1928.00 L 520.00 1931.00 L 527.00 1934.00 L 533.00 1933.00 L 535.00 1931.00 L 539.00 1931.00 L 546.00 1934.00 L 549.00 1934.00 L 561.00 1928.00 L 570.00 1929.00 L 580.00 1928.00 L 587.00 1924.00 L 603.00 1924.00 L 607.00 1922.00 L 623.00 1922.00 L 636.00 1925.00 L 648.00 1924.00 L 655.00 1927.00 L 661.00 1928.00 L 671.00 1936.00 L 681.00 1935.00 L 686.00 1937.00 L 690.00 1941.00 L 701.00 1946.00 L 707.00 1952.00 L 708.00 1958.00 L 712.00 1964.00 L 719.00 1970.00 L 726.00 1980.00 L 731.00 1984.00 L 740.00 1995.00 L 753.00 2007.00 L 758.00 2009.00 L 762.00 2009.00 L 765.00 2011.00 L 770.00 2018.00 L 770.00 2020.00 L 773.00 2023.00 L 779.00 2024.00 L 783.00 2022.00 L 786.00 2018.00 L 787.00 2015.00 L 787.00 1947.00 L 789.00 1939.00 L 794.00 1933.00 L 793.00 1924.00 L 794.00 1908.00 L 792.00 1904.00 L 781.00 1896.00 L 775.00 1894.00 L 771.00 1890.00 L 763.00 1888.00 L 758.00 1883.00 L 750.00 1880.00 L 747.00 1877.00 L 735.00 1872.00 L 727.00 1866.00 L 718.00 1863.00 L 713.00 1856.00 L 706.00 1854.00 L 701.00 1849.00 L 690.00 1849.00 L 679.00 1844.00 L 671.00 1844.00 L 640.00 1836.00 L 629.00 1836.00 L 624.00 1837.00 L 614.00 1842.00 L 609.00 1842.00 L 598.00 1846.00 L 593.00 1845.00 L 586.00 1853.00 L 579.00 1856.00 L 573.00 1857.00 L 565.00 1862.00 L 558.00 1863.00 L 545.00 1874.00 L 539.00 1876.00 L 527.00 1889.00 L 519.00 1894.00 L 512.00 1896.00 L 505.00 1903.00 L 504.00 1910.00 L 500.00 1914.00 Z M 3030.00 1875.00 L 3008.00 1855.00 L 3001.00 1853.00 L 2977.00 1831.00 L 2963.00 1822.00 L 2935.00 1791.00 L 2923.00 1786.00 L 2923.00 1794.00 L 2918.00 1800.00 L 2917.00 1811.00 L 2897.00 1856.00 L 2893.00 1859.00 L 2867.00 1912.00 L 2845.00 1939.00 L 2834.00 1947.00 L 2824.00 1949.00 L 2809.00 1960.00 L 2792.00 1965.00 L 2762.00 1981.00 L 2710.00 1987.00 L 2650.00 1983.00 L 2628.00 1975.00 L 2610.00 1972.00 L 2590.00 1958.00 L 2564.00 1947.00 L 2552.00 1934.00 L 2527.00 1920.00 L 2488.00 1888.00 L 2482.00 1872.00 L 2474.00 1871.00 L 2471.00 1877.00 L 2472.00 1886.00 L 2467.00 1892.00 L 2464.00 1912.00 L 2459.00 1922.00 L 2456.00 1942.00 L 2448.00 1956.00 L 2449.00 1985.00 L 2446.00 1995.00 L 2445.00 2030.00 L 2441.00 2039.00 L 2439.00 2167.00 L 2430.00 2187.00 L 2431.00 2204.00 L 2426.00 2220.00 L 2427.00 2236.00 L 2421.00 2257.00 L 2422.00 2308.00 L 2431.00 2310.00 L 2452.00 2302.00 L 2462.00 2302.00 L 2470.00 2298.00 L 2479.00 2299.00 L 2504.00 2291.00 L 2552.00 2287.00 L 2584.00 2279.00 L 2591.00 2282.00 L 2606.00 2282.00 L 2636.00 2273.00 L 2650.00 2273.00 L 2694.00 2263.00 L 2709.00 2256.00 L 2719.00 2255.00 L 2740.00 2243.00 L 2759.00 2237.00 L 2785.00 2223.00 L 2825.00 2192.00 L 2837.00 2191.00 L 2892.00 2141.00 L 2946.00 2080.00 L 2989.00 2017.00 L 3019.00 1946.00 L 3025.00 1912.00 L 3030.00 1899.00 Z M 2528.00 2042.00 L 2532.00 2040.00 L 2536.00 2040.00 L 2540.00 2037.00 L 2546.00 2035.00 L 2575.00 2034.00 L 2583.00 2036.00 L 2587.00 2039.00 L 2594.00 2040.00 L 2599.00 2045.00 L 2602.00 2047.00 L 2606.00 2048.00 L 2609.00 2052.00 L 2619.00 2056.00 L 2628.00 2064.00 L 2635.00 2067.00 L 2638.00 2070.00 L 2641.00 2077.00 L 2644.00 2080.00 L 2650.00 2083.00 L 2657.00 2094.00 L 2658.00 2097.00 L 2662.00 2100.00 L 2664.00 2105.00 L 2664.00 2120.00 L 2665.00 2123.00 L 2669.00 2128.00 L 2668.00 2153.00 L 2669.00 2155.00 L 2665.00 2161.00 L 2665.00 2172.00 L 2664.00 2178.00 L 2662.00 2182.00 L 2660.00 2184.00 L 2646.00 2191.00 L 2635.00 2203.00 L 2626.00 2203.00 L 2619.00 2209.00 L 2617.00 2209.00 L 2613.00 2207.00 L 2606.00 2207.00 L 2599.00 2210.00 L 2591.00 2207.00 L 2587.00 2207.00 L 2584.00 2206.00 L 2577.00 2202.00 L 2561.00 2202.00 L 2552.00 2198.00 L 2547.00 2195.00 L 2542.00 2190.00 L 2538.00 2189.00 L 2536.00 2187.00 L 2532.00 2180.00 L 2531.00 2176.00 L 2528.00 2174.00 L 2527.00 2168.00 L 2523.00 2160.00 L 2519.00 2146.00 L 2516.00 2144.00 L 2505.00 2144.00 L 2502.00 2141.00 L 2500.00 2134.00 L 2496.00 2128.00 L 2494.00 2118.00 L 2494.00 2115.00 L 2497.00 2108.00 L 2496.00 2089.00 L 2500.00 2084.00 L 2501.00 2081.00 L 2501.00 2072.00 L 2503.00 2068.00 L 2510.00 2059.00 L 2514.00 2056.00 L 2520.00 2049.00 Z M 3397.00 1665.00 L 3394.00 1667.00 L 3394.00 1674.00 L 3395.00 1678.00 L 3398.00 1685.00 L 3400.00 1686.00 L 3407.00 1707.00 L 3413.00 1714.00 L 3415.00 1719.00 L 3414.00 1728.00 L 3420.00 1746.00 L 3425.00 1756.00 L 3425.00 1761.00 L 3427.00 1764.00 L 3429.00 1774.00 L 3434.00 1782.00 L 3434.00 1792.00 L 3433.00 1796.00 L 3440.00 1814.00 L 3440.00 1825.00 L 3444.00 1841.00 L 3447.00 1847.00 L 3447.00 1859.00 L 3454.00 1877.00 L 3454.00 1888.00 L 3455.00 1893.00 L 3460.00 1897.00 L 3462.00 1895.00 L 3463.00 1891.00 L 3463.00 1880.00 L 3459.00 1871.00 L 3459.00 1858.00 L 3456.00 1853.00 L 3455.00 1820.00 L 3450.00 1813.00 L 3449.00 1808.00 L 3449.00 1796.00 L 3448.00 1793.00 L 3445.00 1790.00 L 3443.00 1786.00 L 3441.00 1777.00 L 3441.00 1757.00 L 3438.00 1752.00 L 3436.00 1742.00 L 3434.00 1738.00 L 3432.00 1736.00 L 3429.00 1729.00 L 3429.00 1714.00 L 3427.00 1709.00 L 3423.00 1704.00 L 3423.00 1699.00 L 3419.00 1692.00 L 3414.00 1686.00 L 3412.00 1680.00 L 3408.00 1675.00 L 3406.00 1674.00 L 3404.00 1670.00 Z M 1861.00 1663.00 L 1842.00 1653.00 L 1820.00 1652.00 L 1774.00 1640.00 L 1756.00 1640.00 L 1746.00 1635.00 L 1734.00 1638.00 L 1728.00 1634.00 L 1692.00 1629.00 L 1631.00 1626.00 L 1566.00 1634.00 L 1493.00 1653.00 L 1449.00 1673.00 L 1418.00 1683.00 L 1397.00 1699.00 L 1382.00 1703.00 L 1345.00 1732.00 L 1328.00 1750.00 L 1322.00 1752.00 L 1317.00 1761.00 L 1297.00 1780.00 L 1275.00 1815.00 L 1256.00 1833.00 L 1239.00 1860.00 L 1223.00 1905.00 L 1224.00 1913.00 L 1218.00 1927.00 L 1218.00 1938.00 L 1213.00 1942.00 L 1209.00 1968.00 L 1205.00 1975.00 L 1205.00 2088.00 L 1213.00 2163.00 L 1211.00 2190.00 L 1221.00 2239.00 L 1226.00 2243.00 L 1260.00 2245.00 L 1292.00 2253.00 L 1315.00 2252.00 L 1322.00 2246.00 L 1322.00 2229.00 L 1313.00 2206.00 L 1310.00 2187.00 L 1312.00 2162.00 L 1309.00 2125.00 L 1310.00 2064.00 L 1324.00 2002.00 L 1324.00 1970.00 L 1350.00 1904.00 L 1369.00 1870.00 L 1371.00 1861.00 L 1380.00 1855.00 L 1411.00 1820.00 L 1434.00 1806.00 L 1447.00 1786.00 L 1454.00 1780.00 L 1511.00 1754.00 L 1573.00 1740.00 L 1585.00 1731.00 L 1617.00 1727.00 L 1636.00 1731.00 L 1647.00 1728.00 L 1654.00 1733.00 L 1682.00 1740.00 L 1705.00 1755.00 L 1746.00 1795.00 L 1758.00 1812.00 L 1820.00 1818.00 L 1863.00 1816.00 L 1868.00 1809.00 L 1867.00 1796.00 L 1874.00 1771.00 L 1875.00 1732.00 L 1871.00 1710.00 L 1874.00 1698.00 Z M 2066.00 1632.00 L 2064.00 1630.00 L 2060.00 1628.00 L 2053.00 1626.00 L 2044.00 1625.00 L 2040.00 1623.00 L 2037.00 1620.00 L 2034.00 1619.00 L 2027.00 1619.00 L 2021.00 1616.00 L 2006.00 1617.00 L 1998.00 1621.00 L 1990.00 1621.00 L 1978.00 1630.00 L 1975.00 1631.00 L 1974.00 1633.00 L 1967.00 1635.00 L 1966.00 1637.00 L 1964.00 1639.00 L 1963.00 1639.00 L 1959.00 1644.00 L 1956.00 1651.00 L 1957.00 1666.00 L 1951.00 1673.00 L 1949.00 1678.00 L 1950.00 1682.00 L 1954.00 1687.00 L 1957.00 1688.00 L 1960.00 1691.00 L 1961.00 1693.00 L 1961.00 1698.00 L 1966.00 1708.00 L 1970.00 1713.00 L 2007.00 1713.00 L 2014.00 1709.00 L 2019.00 1709.00 L 2021.00 1708.00 L 2028.00 1700.00 L 2031.00 1700.00 L 2035.00 1696.00 L 2041.00 1693.00 L 2048.00 1684.00 L 2050.00 1678.00 L 2053.00 1675.00 L 2063.00 1656.00 L 2063.00 1652.00 L 2067.00 1644.00 L 2067.00 1634.00 Z M 3157.00 1456.00 L 3130.00 1468.00 L 3119.00 1482.00 L 3109.00 1483.00 L 3099.00 1495.00 L 3078.00 1506.00 L 3070.00 1521.00 L 3060.00 1524.00 L 3058.00 1534.00 L 3029.00 1576.00 L 3024.00 1592.00 L 3039.00 1609.00 L 3096.00 1655.00 L 3130.00 1667.00 L 3200.00 1662.00 L 3262.00 1710.00 L 3270.00 1723.00 L 3273.00 1744.00 L 3303.00 1790.00 L 3343.00 1882.00 L 3346.00 1912.00 L 3355.00 1938.00 L 3356.00 1965.00 L 3367.00 2002.00 L 3374.00 2064.00 L 3374.00 2186.00 L 3362.00 2236.00 L 3362.00 2291.00 L 3355.00 2332.00 L 3343.00 2369.00 L 3344.00 2381.00 L 3335.00 2421.00 L 3322.00 2447.00 L 3309.00 2496.00 L 3272.00 2594.00 L 3270.00 2646.00 L 3273.00 2657.00 L 3255.00 2659.00 L 3250.00 2666.00 L 3244.00 2692.00 L 3253.00 2695.00 L 3280.00 2676.00 L 3310.00 2665.00 L 3314.00 2653.00 L 3311.00 2637.00 L 3389.00 2508.00 L 3405.00 2466.00 L 3428.00 2424.00 L 3429.00 2410.00 L 3441.00 2378.00 L 3457.00 2302.00 L 3462.00 2197.00 L 3467.00 2186.00 L 3463.00 2171.00 L 3459.00 1945.00 L 3450.00 1914.00 L 3450.00 1892.00 L 3444.00 1884.00 L 3436.00 1849.00 L 3432.00 1810.00 L 3419.00 1760.00 L 3405.00 1726.00 L 3406.00 1716.00 L 3383.00 1662.00 L 3365.00 1635.00 L 3338.00 1578.00 L 3293.00 1517.00 L 3270.00 1496.00 L 3236.00 1476.00 L 3222.00 1459.00 Z M 2537.00 1391.00 L 2531.00 1393.00 L 2524.00 1418.00 L 2480.00 1487.00 L 2447.00 1553.00 L 2386.00 1637.00 L 2304.00 1708.00 L 2222.00 1764.00 L 2172.00 1790.00 L 2058.00 1822.00 L 1940.00 1826.00 L 1910.00 1834.00 L 1840.00 1830.00 L 1832.00 1835.00 L 1664.00 1835.00 L 1655.00 1830.00 L 1498.00 1818.00 L 1457.00 1807.00 L 1437.00 1817.00 L 1381.00 1872.00 L 1354.00 1923.00 L 1356.00 1942.00 L 1508.00 1922.00 L 1574.00 1921.00 L 1633.00 1930.00 L 1664.00 1946.00 L 1680.00 1946.00 L 1754.00 1973.00 L 1826.00 2010.00 L 1883.00 2049.00 L 2010.00 2175.00 L 2196.00 2400.00 L 2269.00 2524.00 L 2301.00 2597.00 L 2307.00 2646.00 L 2297.00 2663.00 L 2299.00 2670.00 L 2362.00 2702.00 L 2402.00 2714.00 L 2416.00 2706.00 L 2412.00 2668.00 L 2418.00 2631.00 L 2416.00 2571.00 L 2397.00 2449.00 L 2402.00 2410.00 L 2397.00 2210.00 L 2416.00 2132.00 L 2420.00 2013.00 L 2429.00 1957.00 L 2442.00 1921.00 L 2449.00 1870.00 L 2488.00 1718.00 L 2535.00 1625.00 L 2564.00 1592.00 L 2586.00 1576.00 L 2612.00 1568.00 L 2612.00 1552.00 L 2573.00 1449.00 Z M 2214.00 1877.00 L 2219.00 1879.00 L 2229.00 1879.00 L 2252.00 1889.00 L 2264.00 1890.00 L 2271.00 1895.00 L 2296.00 1906.00 L 2305.00 1918.00 L 2311.00 1922.00 L 2319.00 1920.00 L 2328.00 1927.00 L 2334.00 1938.00 L 2335.00 1949.00 L 2341.00 1956.00 L 2346.00 1966.00 L 2346.00 1971.00 L 2350.00 1981.00 L 2355.00 1988.00 L 2355.00 1997.00 L 2360.00 2003.00 L 2364.00 2016.00 L 2363.00 2017.00 L 2375.00 2045.00 L 2376.00 2067.00 L 2379.00 2074.00 L 2379.00 2126.00 L 2368.00 2146.00 L 2364.00 2161.00 L 2358.00 2167.00 L 2351.00 2169.00 L 2348.00 2178.00 L 2335.00 2187.00 L 2326.00 2200.00 L 2316.00 2209.00 L 2304.00 2225.00 L 2264.00 2254.00 L 2217.00 2270.00 L 2206.00 2269.00 L 2188.00 2285.00 L 2180.00 2288.00 L 2176.00 2284.00 L 2176.00 2277.00 L 2165.00 2263.00 L 2146.00 2260.00 L 2139.00 2256.00 L 2128.00 2253.00 L 2113.00 2242.00 L 2105.00 2239.00 L 2091.00 2227.00 L 2088.00 2221.00 L 2082.00 2216.00 L 2070.00 2195.00 L 2058.00 2184.00 L 2049.00 2166.00 L 2040.00 2156.00 L 2036.00 2147.00 L 2024.00 2131.00 L 2011.00 2118.00 L 2004.00 2105.00 L 2000.00 2101.00 L 1995.00 2087.00 L 1991.00 2081.00 L 1991.00 2076.00 L 1988.00 2069.00 L 1977.00 2057.00 L 1977.00 2024.00 L 1984.00 2006.00 L 1984.00 1999.00 L 1987.00 1990.00 L 1986.00 1988.00 L 1999.00 1963.00 L 2007.00 1952.00 L 2015.00 1945.00 L 2018.00 1938.00 L 2030.00 1935.00 L 2063.00 1912.00 L 2070.00 1910.00 L 2087.00 1898.00 L 2096.00 1896.00 L 2113.00 1884.00 L 2136.00 1884.00 L 2152.00 1879.00 L 2205.00 1879.00 Z M 2801.00 1366.00 L 2801.00 1369.00 L 2803.00 1371.00 L 2803.00 1372.00 L 2807.00 1375.00 L 2810.00 1376.00 L 2815.00 1381.00 L 2817.00 1382.00 L 2825.00 1382.00 L 2831.00 1386.00 L 2834.00 1389.00 L 2836.00 1393.00 L 2848.00 1404.00 L 2851.00 1409.00 L 2856.00 1414.00 L 2858.00 1414.00 L 2867.00 1421.00 L 2874.00 1424.00 L 2877.00 1424.00 L 2879.00 1423.00 L 2880.00 1415.00 L 2878.00 1411.00 L 2871.00 1404.00 L 2861.00 1397.00 L 2857.00 1396.00 L 2852.00 1393.00 L 2846.00 1386.00 L 2839.00 1383.00 L 2828.00 1373.00 L 2824.00 1371.00 L 2819.00 1370.00 L 2815.00 1365.00 L 2810.00 1363.00 L 2804.00 1363.00 Z M 2678.00 1367.00 L 2675.00 1379.00 L 2694.00 1424.00 L 2696.00 1434.00 L 2700.00 1439.00 L 2708.00 1468.00 L 2713.00 1474.00 L 2713.00 1491.00 L 2720.00 1503.00 L 2727.00 1528.00 L 2735.00 1540.00 L 2735.00 1558.00 L 2741.00 1571.00 L 2745.00 1575.00 L 2758.00 1577.00 L 2776.00 1588.00 L 2801.00 1598.00 L 2830.00 1617.00 L 2834.00 1625.00 L 2848.00 1636.00 L 2861.00 1657.00 L 2883.00 1682.00 L 2897.00 1704.00 L 2905.00 1724.00 L 2910.00 1728.00 L 2915.00 1738.00 L 2949.00 1774.00 L 2959.00 1789.00 L 2975.00 1806.00 L 3026.00 1849.00 L 3038.00 1856.00 L 3047.00 1858.00 L 3050.00 1868.00 L 3070.00 1889.00 L 3090.00 1891.00 L 3102.00 1896.00 L 3127.00 1897.00 L 3161.00 1903.00 L 3209.00 1902.00 L 3265.00 1878.00 L 3303.00 1849.00 L 3304.00 1844.00 L 3298.00 1830.00 L 3298.00 1816.00 L 3290.00 1807.00 L 3279.00 1779.00 L 3252.00 1738.00 L 3236.00 1723.00 L 3234.00 1715.00 L 3223.00 1710.00 L 3217.00 1704.00 L 3210.00 1704.00 L 3202.00 1693.00 L 3149.00 1687.00 L 3098.00 1674.00 L 3046.00 1638.00 L 3024.00 1619.00 L 2972.00 1562.00 L 2907.00 1482.00 L 2905.00 1474.00 L 2898.00 1464.00 L 2814.00 1385.00 L 2792.00 1373.00 L 2776.00 1370.00 L 2772.00 1366.00 L 2752.00 1365.00 L 2737.00 1361.00 L 2707.00 1360.00 L 2692.00 1356.00 Z M 1020.00 1348.00 L 945.00 1417.00 L 904.00 1467.00 L 864.00 1536.00 L 838.00 1603.00 L 812.00 1735.00 L 809.00 1914.00 L 800.00 1959.00 L 797.00 2048.00 L 793.00 2056.00 L 798.00 2166.00 L 783.00 2179.00 L 797.00 2231.00 L 808.00 2340.00 L 822.00 2399.00 L 819.00 2412.00 L 857.00 2549.00 L 887.00 2634.00 L 886.00 2647.00 L 898.00 2691.00 L 922.00 2754.00 L 962.00 2825.00 L 969.00 2849.00 L 988.00 2871.00 L 1005.00 2917.00 L 1041.00 2872.00 L 1108.00 2727.00 L 1126.00 2639.00 L 1127.00 2556.00 L 1132.00 2538.00 L 1125.00 2449.00 L 1109.00 2397.00 L 1086.00 2347.00 L 1059.00 2305.00 L 980.00 2233.00 L 966.00 2236.00 L 959.00 2229.00 L 952.00 2205.00 L 951.00 2150.00 L 944.00 2139.00 L 944.00 2097.00 L 938.00 2083.00 L 931.00 1950.00 L 927.00 1942.00 L 931.00 1932.00 L 934.00 1848.00 L 952.00 1713.00 L 964.00 1684.00 L 972.00 1640.00 L 1010.00 1532.00 L 1043.00 1472.00 L 1056.00 1466.00 L 1065.00 1455.00 L 1028.00 1374.00 L 1029.00 1361.00 Z M 1030.00 2676.00 L 1043.00 2683.00 L 1057.00 2695.00 L 1060.00 2701.00 L 1061.00 2709.00 L 1066.00 2716.00 L 1065.00 2736.00 L 1061.00 2742.00 L 1061.00 2746.00 L 1060.00 2748.00 L 1054.00 2755.00 L 1054.00 2756.00 L 1048.00 2761.00 L 1048.00 2762.00 L 1045.00 2765.00 L 1038.00 2770.00 L 1030.00 2772.00 L 1021.00 2782.00 L 1017.00 2785.00 L 1005.00 2785.00 L 997.00 2783.00 L 996.00 2781.00 L 989.00 2777.00 L 984.00 2772.00 L 983.00 2769.00 L 979.00 2764.00 L 977.00 2763.00 L 976.00 2760.00 L 976.00 2756.00 L 971.00 2746.00 L 971.00 2744.00 L 974.00 2738.00 L 976.00 2730.00 L 979.00 2724.00 L 983.00 2720.00 L 985.00 2715.00 L 988.00 2712.00 L 994.00 2703.00 L 997.00 2696.00 L 1011.00 2681.00 L 1014.00 2680.00 L 1018.00 2676.00 L 1021.00 2676.00 L 1022.00 2675.00 Z M 1022.00 2473.00 L 1025.00 2475.00 L 1026.00 2474.00 L 1033.00 2478.00 L 1041.00 2479.00 L 1049.00 2484.00 L 1060.00 2494.00 L 1061.00 2497.00 L 1065.00 2501.00 L 1068.00 2509.00 L 1073.00 2513.00 L 1075.00 2517.00 L 1074.00 2520.00 L 1076.00 2524.00 L 1076.00 2528.00 L 1074.00 2533.00 L 1076.00 2541.00 L 1076.00 2546.00 L 1074.00 2551.00 L 1075.00 2566.00 L 1074.00 2569.00 L 1068.00 2577.00 L 1062.00 2580.00 L 1059.00 2579.00 L 1052.00 2579.00 L 1042.00 2587.00 L 1031.00 2589.00 L 1023.00 2589.00 L 1018.00 2592.00 L 1008.00 2593.00 L 1003.00 2592.00 L 996.00 2587.00 L 992.00 2583.00 L 991.00 2583.00 L 984.00 2574.00 L 983.00 2570.00 L 979.00 2566.00 L 975.00 2558.00 L 971.00 2547.00 L 970.00 2517.00 L 971.00 2512.00 L 973.00 2508.00 L 976.00 2505.00 L 979.00 2500.00 L 979.00 2498.00 L 982.00 2495.00 L 984.00 2489.00 L 991.00 2484.00 L 993.00 2481.00 L 996.00 2479.00 L 1001.00 2479.00 L 1014.00 2473.00 Z M 970.00 2324.00 L 981.00 2329.00 L 985.00 2332.00 L 985.00 2333.00 L 987.00 2335.00 L 990.00 2343.00 L 994.00 2347.00 L 1000.00 2358.00 L 1005.00 2372.00 L 1005.00 2380.00 L 1006.00 2384.00 L 1008.00 2387.00 L 1007.00 2389.00 L 1008.00 2404.00 L 1007.00 2406.00 L 1001.00 2411.00 L 997.00 2417.00 L 994.00 2424.00 L 981.00 2437.00 L 971.00 2442.00 L 958.00 2444.00 L 952.00 2449.00 L 947.00 2450.00 L 921.00 2449.00 L 917.00 2447.00 L 915.00 2445.00 L 909.00 2443.00 L 900.00 2436.00 L 888.00 2423.00 L 881.00 2413.00 L 881.00 2404.00 L 883.00 2400.00 L 883.00 2396.00 L 881.00 2393.00 L 880.00 2385.00 L 883.00 2379.00 L 882.00 2368.00 L 884.00 2365.00 L 885.00 2361.00 L 885.00 2356.00 L 888.00 2350.00 L 893.00 2347.00 L 899.00 2341.00 L 902.00 2340.00 L 905.00 2337.00 L 915.00 2334.00 L 919.00 2331.00 L 922.00 2331.00 L 925.00 2329.00 L 934.00 2327.00 L 943.00 2326.00 L 958.00 2327.00 L 960.00 2325.00 L 963.00 2324.00 Z M 1307.00 1563.00 L 1309.00 1572.00 L 1315.00 1575.00 L 1329.00 1559.00 L 1403.00 1534.00 L 1430.00 1530.00 L 1458.00 1518.00 L 1539.00 1493.00 L 1573.00 1490.00 L 1585.00 1485.00 L 1616.00 1481.00 L 1651.00 1485.00 L 1676.00 1498.00 L 1728.00 1512.00 L 1764.00 1532.00 L 1816.00 1570.00 L 1845.00 1599.00 L 1871.00 1634.00 L 1885.00 1667.00 L 1886.00 1685.00 L 1891.00 1700.00 L 1891.00 1765.00 L 1877.00 1811.00 L 1881.00 1815.00 L 1894.00 1817.00 L 1940.00 1812.00 L 1947.00 1808.00 L 2005.00 1799.00 L 2044.00 1787.00 L 2086.00 1780.00 L 2121.00 1767.00 L 2131.00 1767.00 L 2183.00 1744.00 L 2233.00 1714.00 L 2244.00 1713.00 L 2254.00 1702.00 L 2251.00 1694.00 L 2189.00 1652.00 L 2180.00 1640.00 L 2137.00 1606.00 L 2029.00 1489.00 L 1947.00 1414.00 L 1882.00 1373.00 L 1819.00 1352.00 L 1799.00 1351.00 L 1789.00 1347.00 L 1724.00 1347.00 L 1682.00 1352.00 L 1669.00 1357.00 L 1654.00 1355.00 L 1615.00 1365.00 L 1602.00 1365.00 L 1557.00 1378.00 L 1534.00 1379.00 L 1508.00 1387.00 L 1495.00 1386.00 L 1487.00 1390.00 L 1458.00 1392.00 L 1448.00 1396.00 L 1428.00 1397.00 L 1421.00 1385.00 L 1412.00 1384.00 L 1407.00 1390.00 L 1398.00 1425.00 L 1383.00 1459.00 L 1374.00 1466.00 L 1374.00 1472.00 L 1362.00 1488.00 L 1354.00 1509.00 L 1329.00 1544.00 Z M 2075.00 1617.00 L 2079.00 1621.00 L 2082.00 1626.00 L 2091.00 1634.00 L 2095.00 1639.00 L 2095.00 1642.00 L 2096.00 1644.00 L 2102.00 1649.00 L 2105.00 1653.00 L 2104.00 1672.00 L 2107.00 1683.00 L 2101.00 1691.00 L 2095.00 1697.00 L 2092.00 1703.00 L 2084.00 1710.00 L 2079.00 1719.00 L 2067.00 1730.00 L 2062.00 1732.00 L 2055.00 1737.00 L 2050.00 1737.00 L 2044.00 1740.00 L 2041.00 1743.00 L 2037.00 1745.00 L 2031.00 1745.00 L 2027.00 1746.00 L 2024.00 1748.00 L 2015.00 1749.00 L 2006.00 1748.00 L 2002.00 1750.00 L 1991.00 1751.00 L 1990.00 1752.00 L 1973.00 1751.00 L 1968.00 1749.00 L 1966.00 1746.00 L 1955.00 1743.00 L 1949.00 1740.00 L 1945.00 1736.00 L 1945.00 1735.00 L 1925.00 1716.00 L 1924.00 1714.00 L 1925.00 1702.00 L 1921.00 1695.00 L 1923.00 1691.00 L 1923.00 1688.00 L 1921.00 1683.00 L 1920.00 1677.00 L 1920.00 1669.00 L 1932.00 1639.00 L 1932.00 1636.00 L 1934.00 1633.00 L 1950.00 1617.00 L 1953.00 1615.00 L 1959.00 1613.00 L 1962.00 1610.00 L 1968.00 1608.00 L 1970.00 1606.00 L 1977.00 1604.00 L 1979.00 1602.00 L 1987.00 1600.00 L 2002.00 1601.00 L 2010.00 1597.00 L 2018.00 1597.00 L 2022.00 1600.00 L 2027.00 1602.00 L 2042.00 1603.00 L 2045.00 1604.00 L 2052.00 1609.00 L 2058.00 1610.00 L 2063.00 1615.00 L 2072.00 1615.00 Z M 2504.00 1200.00 L 2469.00 1228.00 L 2460.00 1240.00 L 2449.00 1244.00 L 2427.00 1268.00 L 2427.00 1278.00 L 2518.00 1355.00 L 2557.00 1398.00 L 2583.00 1443.00 L 2591.00 1462.00 L 2597.00 1467.00 L 2597.00 1488.00 L 2610.00 1513.00 L 2610.00 1521.00 L 2621.00 1539.00 L 2625.00 1561.00 L 2628.00 1564.00 L 2635.00 1584.00 L 2637.00 1600.00 L 2642.00 1609.00 L 2646.00 1629.00 L 2646.00 1666.00 L 2628.00 1709.00 L 2619.00 1717.00 L 2588.00 1763.00 L 2571.00 1776.00 L 2558.00 1782.00 L 2523.00 1791.00 L 2511.00 1791.00 L 2502.00 1795.00 L 2493.00 1825.00 L 2480.00 1850.00 L 2479.00 1859.00 L 2501.00 1882.00 L 2545.00 1916.00 L 2554.00 1919.00 L 2591.00 1943.00 L 2600.00 1953.00 L 2609.00 1956.00 L 2618.00 1955.00 L 2624.00 1962.00 L 2629.00 1963.00 L 2632.00 1960.00 L 2631.00 1951.00 L 2626.00 1949.00 L 2626.00 1941.00 L 2651.00 1906.00 L 2659.00 1885.00 L 2670.00 1869.00 L 2684.00 1838.00 L 2685.00 1827.00 L 2697.00 1798.00 L 2704.00 1767.00 L 2710.00 1753.00 L 2712.00 1732.00 L 2729.00 1697.00 L 2730.00 1595.00 L 2725.00 1588.00 L 2716.00 1561.00 L 2716.00 1546.00 L 2704.00 1521.00 L 2703.00 1509.00 L 2698.00 1503.00 L 2695.00 1486.00 L 2697.00 1474.00 L 2686.00 1452.00 L 2684.00 1435.00 L 2680.00 1431.00 L 2677.00 1419.00 L 2671.00 1413.00 L 2671.00 1406.00 L 2664.00 1391.00 L 2658.00 1385.00 L 2650.00 1367.00 L 2646.00 1364.00 L 2631.00 1337.00 L 2620.00 1326.00 L 2600.00 1298.00 L 2597.00 1290.00 L 2547.00 1240.00 L 2541.00 1229.00 L 2524.00 1215.00 L 2518.00 1206.00 L 2512.00 1201.00 Z M 1327.00 1175.00 L 1313.00 1175.00 L 1300.00 1182.00 L 1266.00 1182.00 L 1258.00 1189.00 L 1247.00 1191.00 L 1232.00 1200.00 L 1212.00 1200.00 L 1205.00 1205.00 L 1201.00 1213.00 L 1194.00 1213.00 L 1191.00 1216.00 L 1191.00 1227.00 L 1186.00 1238.00 L 1190.00 1258.00 L 1188.00 1263.00 L 1189.00 1272.00 L 1186.00 1278.00 L 1186.00 1298.00 L 1198.00 1323.00 L 1217.00 1347.00 L 1218.00 1357.00 L 1224.00 1369.00 L 1224.00 1389.00 L 1218.00 1401.00 L 1218.00 1409.00 L 1213.00 1418.00 L 1209.00 1439.00 L 1202.00 1453.00 L 1202.00 1463.00 L 1200.00 1467.00 L 1193.00 1471.00 L 1186.00 1483.00 L 1186.00 1497.00 L 1179.00 1505.00 L 1179.00 1513.00 L 1173.00 1526.00 L 1169.00 1546.00 L 1160.00 1570.00 L 1160.00 1578.00 L 1152.00 1598.00 L 1151.00 1613.00 L 1146.00 1627.00 L 1146.00 1639.00 L 1139.00 1666.00 L 1138.00 1694.00 L 1132.00 1701.00 L 1133.00 1757.00 L 1139.00 1780.00 L 1139.00 1792.00 L 1152.00 1837.00 L 1160.00 1855.00 L 1177.00 1871.00 L 1186.00 1884.00 L 1197.00 1892.00 L 1206.00 1907.00 L 1212.00 1906.00 L 1213.00 1896.00 L 1220.00 1880.00 L 1221.00 1868.00 L 1225.00 1863.00 L 1227.00 1853.00 L 1250.00 1823.00 L 1266.00 1797.00 L 1297.00 1759.00 L 1297.00 1752.00 L 1293.00 1750.00 L 1271.00 1709.00 L 1270.00 1684.00 L 1265.00 1674.00 L 1266.00 1626.00 L 1270.00 1620.00 L 1271.00 1611.00 L 1277.00 1600.00 L 1279.00 1590.00 L 1290.00 1573.00 L 1292.00 1564.00 L 1303.00 1552.00 L 1303.00 1548.00 L 1312.00 1532.00 L 1323.00 1519.00 L 1324.00 1513.00 L 1337.00 1495.00 L 1345.00 1473.00 L 1354.00 1466.00 L 1362.00 1453.00 L 1365.00 1436.00 L 1376.00 1414.00 L 1377.00 1403.00 L 1382.00 1397.00 L 1386.00 1381.00 L 1396.00 1360.00 L 1404.00 1315.00 L 1408.00 1305.00 L 1409.00 1254.00 L 1404.00 1243.00 L 1400.00 1223.00 L 1393.00 1216.00 L 1376.00 1208.00 Z M 847.00 1173.00 L 842.00 1169.00 L 808.00 1169.00 L 802.00 1176.00 L 798.00 1179.00 L 797.00 1183.00 L 800.00 1186.00 L 809.00 1190.00 L 814.00 1190.00 L 820.00 1193.00 L 822.00 1197.00 L 819.00 1200.00 L 810.00 1203.00 L 806.00 1207.00 L 802.00 1209.00 L 795.00 1209.00 L 789.00 1213.00 L 774.00 1212.00 L 769.00 1213.00 L 765.00 1215.00 L 752.00 1230.00 L 785.00 1230.00 L 789.00 1228.00 L 791.00 1226.00 L 798.00 1223.00 L 810.00 1223.00 L 814.00 1225.00 L 817.00 1225.00 L 826.00 1221.00 L 832.00 1217.00 L 833.00 1215.00 L 836.00 1201.00 L 837.00 1199.00 L 839.00 1198.00 L 841.00 1192.00 L 845.00 1187.00 L 847.00 1179.00 Z M 3088.00 1065.00 L 3088.00 1070.00 L 3089.00 1072.00 L 3097.00 1079.00 L 3104.00 1087.00 L 3107.00 1088.00 L 3112.00 1093.00 L 3112.00 1095.00 L 3126.00 1110.00 L 3131.00 1117.00 L 3135.00 1126.00 L 3139.00 1128.00 L 3147.00 1137.00 L 3147.00 1139.00 L 3151.00 1141.00 L 3154.00 1149.00 L 3156.00 1150.00 L 3160.00 1157.00 L 3169.00 1167.00 L 3172.00 1172.00 L 3172.00 1174.00 L 3178.00 1179.00 L 3179.00 1184.00 L 3185.00 1196.00 L 3188.00 1199.00 L 3193.00 1199.00 L 3200.00 1196.00 L 3211.00 1198.00 L 3253.00 1196.00 L 3258.00 1194.00 L 3270.00 1194.00 L 3285.00 1191.00 L 3289.00 1189.00 L 3293.00 1185.00 L 3297.00 1184.00 L 3303.00 1179.00 L 3314.00 1176.00 L 3319.00 1173.00 L 3326.00 1166.00 L 3332.00 1162.00 L 3334.00 1159.00 L 3340.00 1156.00 L 3350.00 1146.00 L 3352.00 1142.00 L 3358.00 1138.00 L 3365.00 1130.00 L 3365.00 1126.00 L 3333.00 1097.00 L 3325.00 1091.00 L 3313.00 1079.00 L 3300.00 1069.00 L 3289.00 1070.00 L 3283.00 1072.00 L 3280.00 1075.00 L 3276.00 1077.00 L 3263.00 1077.00 L 3256.00 1081.00 L 3245.00 1080.00 L 3241.00 1082.00 L 3218.00 1082.00 L 3210.00 1079.00 L 3202.00 1079.00 L 3193.00 1082.00 L 3186.00 1082.00 L 3179.00 1078.00 L 3172.00 1078.00 L 3167.00 1076.00 L 3159.00 1077.00 L 3144.00 1076.00 L 3132.00 1071.00 L 3119.00 1070.00 L 3111.00 1065.00 L 3096.00 1062.00 L 3092.00 1062.00 Z M 2917.00 1143.00 L 2890.00 1135.00 L 2805.00 1079.00 L 2777.00 1071.00 L 2726.00 1044.00 L 2642.00 1052.00 L 2631.00 1057.00 L 2622.00 1051.00 L 2608.00 1052.00 L 2600.00 1048.00 L 2586.00 1048.00 L 2579.00 1052.00 L 2539.00 1052.00 L 2533.00 1056.00 L 2519.00 1056.00 L 2483.00 1066.00 L 2458.00 1082.00 L 2429.00 1093.00 L 2405.00 1110.00 L 2359.00 1153.00 L 2337.00 1180.00 L 2284.00 1257.00 L 2258.00 1303.00 L 2256.00 1315.00 L 2243.00 1334.00 L 2211.00 1423.00 L 2190.00 1466.00 L 2190.00 1474.00 L 2180.00 1478.00 L 2171.00 1494.00 L 2129.00 1535.00 L 2122.00 1535.00 L 2109.00 1542.00 L 2107.00 1548.00 L 2151.00 1597.00 L 2232.00 1657.00 L 2267.00 1687.00 L 2273.00 1687.00 L 2333.00 1633.00 L 2336.00 1627.00 L 2319.00 1569.00 L 2316.00 1507.00 L 2318.00 1481.00 L 2326.00 1470.00 L 2325.00 1459.00 L 2331.00 1441.00 L 2333.00 1416.00 L 2345.00 1385.00 L 2344.00 1376.00 L 2357.00 1350.00 L 2358.00 1341.00 L 2385.00 1294.00 L 2426.00 1245.00 L 2436.00 1244.00 L 2446.00 1231.00 L 2496.00 1192.00 L 2515.00 1171.00 L 2531.00 1171.00 L 2557.00 1154.00 L 2595.00 1142.00 L 2611.00 1145.00 L 2619.00 1140.00 L 2660.00 1131.00 L 2669.00 1126.00 L 2713.00 1118.00 L 2807.00 1121.00 L 2889.00 1148.00 L 2913.00 1163.00 L 2928.00 1163.00 L 2931.00 1159.00 Z M 1658.00 1060.00 L 1662.00 1074.00 L 1683.00 1097.00 L 1690.00 1111.00 L 1734.00 1132.00 L 1744.00 1139.00 L 1754.00 1140.00 L 1773.00 1147.00 L 1794.00 1158.00 L 1801.00 1158.00 L 1809.00 1164.00 L 1841.00 1172.00 L 1851.00 1172.00 L 1857.00 1176.00 L 1875.00 1177.00 L 1883.00 1182.00 L 1893.00 1182.00 L 1907.00 1190.00 L 1957.00 1199.00 L 1966.00 1203.00 L 2016.00 1203.00 L 2033.00 1194.00 L 2045.00 1194.00 L 2052.00 1191.00 L 2061.00 1193.00 L 2086.00 1190.00 L 2100.00 1185.00 L 2125.00 1183.00 L 2136.00 1185.00 L 2149.00 1181.00 L 2170.00 1183.00 L 2173.00 1180.00 L 2178.00 1180.00 L 2182.00 1184.00 L 2197.00 1183.00 L 2214.00 1185.00 L 2222.00 1189.00 L 2244.00 1191.00 L 2254.00 1197.00 L 2267.00 1199.00 L 2279.00 1208.00 L 2296.00 1216.00 L 2304.00 1209.00 L 2309.00 1196.00 L 2326.00 1175.00 L 2330.00 1166.00 L 2363.00 1129.00 L 2363.00 1124.00 L 2353.00 1117.00 L 2335.00 1114.00 L 2318.00 1105.00 L 2285.00 1104.00 L 2262.00 1098.00 L 2241.00 1097.00 L 2232.00 1102.00 L 2204.00 1105.00 L 2170.00 1114.00 L 2162.00 1114.00 L 2152.00 1119.00 L 2143.00 1120.00 L 2137.00 1124.00 L 2126.00 1122.00 L 2111.00 1124.00 L 2106.00 1128.00 L 2079.00 1132.00 L 2069.00 1137.00 L 2021.00 1139.00 L 1966.00 1136.00 L 1954.00 1130.00 L 1940.00 1128.00 L 1934.00 1124.00 L 1923.00 1123.00 L 1915.00 1119.00 L 1903.00 1117.00 L 1890.00 1104.00 L 1872.00 1101.00 L 1849.00 1088.00 L 1833.00 1084.00 L 1818.00 1074.00 L 1805.00 1071.00 L 1797.00 1065.00 L 1766.00 1052.00 L 1756.00 1051.00 L 1739.00 1044.00 L 1727.00 1044.00 L 1716.00 1040.00 L 1704.00 1039.00 L 1694.00 1044.00 L 1684.00 1044.00 L 1667.00 1049.00 L 1661.00 1054.00 Z M 2006.00 853.00 L 1945.00 816.00 L 1880.00 788.00 L 1795.00 775.00 L 1769.00 779.00 L 1756.00 776.00 L 1736.00 783.00 L 1704.00 783.00 L 1666.00 794.00 L 1655.00 791.00 L 1627.00 797.00 L 1600.00 796.00 L 1585.00 803.00 L 1554.00 806.00 L 1544.00 814.00 L 1476.00 837.00 L 1434.00 842.00 L 1377.00 874.00 L 1366.00 885.00 L 1353.00 888.00 L 1170.00 1027.00 L 1106.00 1098.00 L 1066.00 1161.00 L 1048.00 1227.00 L 1042.00 1237.00 L 1037.00 1321.00 L 1041.00 1329.00 L 1039.00 1366.00 L 1062.00 1413.00 L 1089.00 1449.00 L 1097.00 1470.00 L 1143.00 1520.00 L 1153.00 1522.00 L 1167.00 1492.00 L 1169.00 1478.00 L 1181.00 1463.00 L 1180.00 1457.00 L 1199.00 1408.00 L 1202.00 1392.00 L 1199.00 1356.00 L 1171.00 1312.00 L 1167.00 1279.00 L 1161.00 1264.00 L 1157.00 1236.00 L 1161.00 1221.00 L 1158.00 1195.00 L 1160.00 1150.00 L 1164.00 1149.00 L 1168.00 1158.00 L 1174.00 1157.00 L 1187.00 1128.00 L 1205.00 1111.00 L 1225.00 1082.00 L 1312.00 1006.00 L 1354.00 982.00 L 1414.00 957.00 L 1435.00 955.00 L 1443.00 949.00 L 1481.00 940.00 L 1524.00 923.00 L 1597.00 908.00 L 1656.00 890.00 L 1689.00 890.00 L 1729.00 881.00 L 1756.00 880.00 L 1775.00 872.00 L 1808.00 871.00 L 1817.00 866.00 L 1871.00 863.00 L 1890.00 858.00 L 1901.00 863.00 L 1924.00 863.00 L 1939.00 858.00 L 1945.00 867.00 L 1956.00 868.00 L 2005.00 858.00 Z M 2237.00 745.00 L 2243.00 783.00 L 2264.00 827.00 L 2295.00 865.00 L 2297.00 874.00 L 2315.00 897.00 L 2360.00 932.00 L 2373.00 948.00 L 2477.00 1007.00 L 2565.00 1024.00 L 2597.00 1021.00 L 2613.00 1029.00 L 2687.00 1028.00 L 2726.00 1021.00 L 2816.00 1064.00 L 2927.00 1137.00 L 3016.00 1226.00 L 3026.00 1243.00 L 3067.00 1289.00 L 3071.00 1304.00 L 3106.00 1362.00 L 3125.00 1403.00 L 3127.00 1417.00 L 3134.00 1422.00 L 3133.00 1436.00 L 3136.00 1439.00 L 3164.00 1433.00 L 3200.00 1432.00 L 3212.00 1437.00 L 3222.00 1436.00 L 3271.00 1454.00 L 3286.00 1473.00 L 3295.00 1471.00 L 3292.00 1452.00 L 3267.00 1396.00 L 3265.00 1383.00 L 3253.00 1367.00 L 3234.00 1308.00 L 3176.00 1205.00 L 3150.00 1174.00 L 3128.00 1139.00 L 3078.00 1083.00 L 3069.00 1067.00 L 2961.00 973.00 L 2794.00 868.00 L 2697.00 822.00 L 2613.00 792.00 L 2599.00 783.00 L 2553.00 770.00 L 2524.00 769.00 L 2506.00 762.00 L 2435.00 756.00 L 2425.00 752.00 L 2381.00 751.00 L 2373.00 745.00 Z M 2536.00 881.00 L 2543.00 888.00 L 2548.00 898.00 L 2550.00 905.00 L 2552.00 918.00 L 2550.00 933.00 L 2547.00 940.00 L 2548.00 941.00 L 2545.00 951.00 L 2538.00 959.00 L 2533.00 962.00 L 2529.00 963.00 L 2523.00 967.00 L 2519.00 965.00 L 2516.00 962.00 L 2513.00 962.00 L 2510.00 964.00 L 2507.00 970.00 L 2504.00 972.00 L 2480.00 972.00 L 2478.00 971.00 L 2475.00 968.00 L 2474.00 965.00 L 2470.00 962.00 L 2461.00 947.00 L 2460.00 938.00 L 2461.00 927.00 L 2460.00 924.00 L 2458.00 922.00 L 2457.00 916.00 L 2461.00 910.00 L 2461.00 899.00 L 2463.00 895.00 L 2466.00 892.00 L 2469.00 887.00 L 2471.00 885.00 L 2472.00 885.00 L 2477.00 879.00 L 2481.00 877.00 L 2488.00 878.00 L 2494.00 876.00 L 2496.00 874.00 L 2503.00 875.00 L 2521.00 874.00 L 2523.00 876.00 Z M 2675.00 872.00 L 2679.00 876.00 L 2688.00 880.00 L 2695.00 882.00 L 2700.00 886.00 L 2703.00 891.00 L 2704.00 896.00 L 2707.00 901.00 L 2707.00 908.00 L 2709.00 912.00 L 2709.00 930.00 L 2706.00 939.00 L 2706.00 946.00 L 2704.00 952.00 L 2701.00 956.00 L 2700.00 959.00 L 2696.00 962.00 L 2695.00 964.00 L 2695.00 970.00 L 2690.00 978.00 L 2684.00 980.00 L 2679.00 977.00 L 2675.00 977.00 L 2669.00 974.00 L 2666.00 974.00 L 2655.00 984.00 L 2652.00 985.00 L 2647.00 981.00 L 2641.00 981.00 L 2638.00 980.00 L 2631.00 975.00 L 2621.00 964.00 L 2619.00 959.00 L 2619.00 956.00 L 2617.00 953.00 L 2617.00 937.00 L 2614.00 930.00 L 2614.00 924.00 L 2619.00 915.00 L 2620.00 909.00 L 2622.00 904.00 L 2625.00 901.00 L 2626.00 897.00 L 2628.00 895.00 L 2628.00 894.00 L 2631.00 892.00 L 2632.00 889.00 L 2635.00 885.00 L 2638.00 884.00 L 2641.00 881.00 L 2644.00 881.00 L 2652.00 876.00 L 2655.00 876.00 L 2660.00 873.00 Z M 2362.00 780.00 L 2365.00 780.00 L 2372.00 783.00 L 2384.00 782.00 L 2394.00 784.00 L 2403.00 787.00 L 2415.00 801.00 L 2418.00 808.00 L 2418.00 811.00 L 2420.00 814.00 L 2421.00 827.00 L 2420.00 839.00 L 2422.00 843.00 L 2422.00 845.00 L 2418.00 851.00 L 2418.00 861.00 L 2415.00 865.00 L 2413.00 874.00 L 2412.00 876.00 L 2404.00 884.00 L 2399.00 894.00 L 2396.00 895.00 L 2390.00 900.00 L 2385.00 900.00 L 2376.00 904.00 L 2372.00 903.00 L 2369.00 901.00 L 2358.00 899.00 L 2357.00 897.00 L 2353.00 895.00 L 2350.00 895.00 L 2347.00 893.00 L 2344.00 893.00 L 2340.00 891.00 L 2335.00 886.00 L 2335.00 883.00 L 2337.00 881.00 L 2337.00 877.00 L 2336.00 875.00 L 2333.00 874.00 L 2327.00 878.00 L 2325.00 878.00 L 2323.00 876.00 L 2322.00 872.00 L 2318.00 866.00 L 2318.00 862.00 L 2317.00 860.00 L 2313.00 857.00 L 2308.00 843.00 L 2309.00 834.00 L 2312.00 829.00 L 2312.00 822.00 L 2313.00 818.00 L 2322.00 808.00 L 2324.00 802.00 L 2328.00 798.00 L 2334.00 795.00 L 2335.00 793.00 L 2336.00 793.00 L 2338.00 791.00 L 2340.00 791.00 L 2345.00 787.00 L 2350.00 786.00 Z" fill="url(#agedGold)" filter="url(#weatheredGrain)" fill-rule="evenodd" shape-rendering="geometricPrecision"/>
</svg>
