<svg xmlns="http://www.w3.org/2000/svg" width="4096" height="4096" viewBox="0 0 4096 4096" role="img" aria-label="Lovecraftian symbol">

  <defs>
    <linearGradient id="agedGold" x1="14%" y1="8%" x2="90%" y2="96%">
      <stop offset="0" stop-color="#eee7b4"/>
      <stop offset="0.22" stop-color="#c5bd83"/>
      <stop offset="0.58" stop-color="#77794e"/>
      <stop offset="1" stop-color="#303729"/>
    </linearGradient>
    <filter id="weatheredGrain" x="-10%" y="-10%" width="120%" height="120%" color-interpolation-filters="sRGB">
      <feTurbulence type="fractalNoise" baseFrequency="0.022 0.07" numOctaves="4" seed="23" result="noise"/>
      <feColorMatrix in="noise" type="matrix" values="0.42 0 0 0 0.01 0 0.38 0 0 0.01 0 0 0.26 0 0.01 0 0 0 0.46 0" result="grain"/>
      <feBlend in="SourceGraphic" in2="grain" mode="screen"/>
    </filter>
  </defs>
  <path d="M 1574.00 641.00 L 1469.00 728.00 L 1406.00 795.00 L 1348.00 872.00 L 1284.00 983.00 L 1271.00 1026.00 L 1257.00 1050.00 L 1248.00 1098.00 L 1230.00 1131.00 L 1213.00 1256.00 L 1210.00 1347.00 L 1180.00 1389.00 L 1082.00 1454.00 L 953.00 1513.00 L 859.00 1543.00 L 719.00 1568.00 L 633.00 1576.00 L 614.00 1591.00 L 614.00 1675.00 L 622.00 1688.00 L 645.00 1697.00 L 725.00 1692.00 L 888.00 1666.00 L 992.00 1632.00 L 1049.00 1604.00 L 1069.00 1609.00 L 1067.00 1632.00 L 1052.00 1650.00 L 1025.00 1714.00 L 993.00 1841.00 L 971.00 2020.00 L 975.00 2039.00 L 984.00 2049.00 L 1001.00 2055.00 L 1067.00 2056.00 L 1098.00 2041.00 L 1112.00 1879.00 L 1149.00 1740.00 L 1203.00 1615.00 L 1230.00 1565.00 L 1251.00 1542.00 L 1289.00 1480.00 L 1312.00 1463.00 L 1445.00 1454.00 L 1566.00 1427.00 L 1603.00 1409.00 L 1645.00 1401.00 L 1762.00 1341.00 L 1845.00 1282.00 L 1958.00 1176.00 L 2045.00 1061.00 L 2103.00 949.00 L 2135.00 855.00 L 2150.00 770.00 L 2166.00 755.00 L 2194.00 754.00 L 2240.00 766.00 L 2296.00 788.00 L 2361.00 825.00 L 2420.00 868.00 L 2466.00 912.00 L 2540.00 999.00 L 2604.00 1121.00 L 2612.00 1169.00 L 2626.00 1208.00 L 2635.00 1284.00 L 2631.00 1422.00 L 2614.00 1459.00 L 2604.00 1503.00 L 2565.00 1559.00 L 2492.00 1540.00 L 2449.00 1522.00 L 2254.00 1506.00 L 2137.00 1517.00 L 2081.00 1527.00 L 1996.00 1553.00 L 1880.00 1609.00 L 1815.00 1652.00 L 1746.00 1646.00 L 1705.00 1665.00 L 1670.00 1699.00 L 1652.00 1741.00 L 1649.00 1763.00 L 1672.00 1836.00 L 1720.00 1876.00 L 1793.00 1882.00 L 1824.00 1872.00 L 1869.00 1834.00 L 1878.00 1815.00 L 1884.00 1772.00 L 1919.00 1732.00 L 2020.00 1679.00 L 2118.00 1646.00 L 2268.00 1628.00 L 2357.00 1634.00 L 2425.00 1646.00 L 2475.00 1662.00 L 2489.00 1680.00 L 2487.00 1688.00 L 2394.00 1781.00 L 2268.00 1893.00 L 1620.00 2395.00 L 1449.00 2521.00 L 1430.00 2542.00 L 1397.00 2564.00 L 1347.00 2618.00 L 1322.00 2697.00 L 1322.00 2727.00 L 1343.00 2792.00 L 1373.00 2833.00 L 1422.00 2870.00 L 1492.00 2888.00 L 1859.00 2880.00 L 1876.00 2885.00 L 1876.00 2897.00 L 1827.00 2926.00 L 1693.00 2964.00 L 1658.00 2984.00 L 1530.00 3024.00 L 1501.00 3043.00 L 1451.00 3055.00 L 1410.00 3075.00 L 1288.00 3115.00 L 1264.00 3130.00 L 1205.00 3143.00 L 1173.00 3162.00 L 973.00 3230.00 L 940.00 3249.00 L 899.00 3262.00 L 850.00 3297.00 L 813.00 3351.00 L 805.00 3430.00 L 819.00 3500.00 L 849.00 3542.00 L 898.00 3580.00 L 990.00 3600.00 L 3462.00 3595.00 L 3476.00 3584.00 L 3483.00 3567.00 L 3482.00 3390.00 L 3472.00 3370.00 L 3450.00 3358.00 L 1658.00 3359.00 L 1372.00 3365.00 L 1360.00 3358.00 L 1361.00 3348.00 L 1391.00 3327.00 L 1454.00 3313.00 L 1492.00 3294.00 L 1703.00 3221.00 L 1728.00 3207.00 L 1852.00 3167.00 L 1890.00 3147.00 L 2014.00 3108.00 L 2052.00 3087.00 L 2099.00 3076.00 L 2123.00 3062.00 L 2176.00 3048.00 L 2208.00 3030.00 L 2332.00 2989.00 L 2369.00 2963.00 L 2400.00 2931.00 L 2432.00 2875.00 L 2432.00 2783.00 L 2396.00 2713.00 L 2342.00 2668.00 L 2271.00 2643.00 L 1968.00 2648.00 L 1886.00 2643.00 L 1714.00 2651.00 L 1702.00 2643.00 L 1702.00 2630.00 L 2173.00 2265.00 L 2276.00 2192.00 L 2466.00 2039.00 L 2584.00 1928.00 L 2660.00 1850.00 L 2683.00 1816.00 L 2700.00 1804.00 L 2716.00 1806.00 L 2743.00 1832.00 L 2807.00 1908.00 L 2837.00 1955.00 L 2851.00 1991.00 L 2869.00 2016.00 L 2891.00 2079.00 L 2923.00 2223.00 L 2919.00 2356.00 L 2897.00 2459.00 L 2869.00 2540.00 L 2805.00 2650.00 L 2773.00 2675.00 L 2744.00 2679.00 L 2697.00 2700.00 L 2673.00 2725.00 L 2650.00 2775.00 L 2650.00 2804.00 L 2667.00 2856.00 L 2713.00 2902.00 L 2765.00 2913.00 L 2809.00 2910.00 L 2826.00 2903.00 L 2871.00 2866.00 L 2888.00 2813.00 L 2889.00 2750.00 L 2957.00 2641.00 L 2990.00 2574.00 L 3016.00 2502.00 L 3045.00 2349.00 L 3045.00 2205.00 L 3031.00 2154.00 L 3021.00 2078.00 L 3002.00 2033.00 L 2990.00 1980.00 L 2903.00 1829.00 L 2783.00 1692.00 L 2786.00 1669.00 L 2811.00 1629.00 L 2823.00 1589.00 L 2838.00 1564.00 L 2870.00 1448.00 L 2876.00 1371.00 L 2871.00 1211.00 L 2843.00 1088.00 L 2820.00 1038.00 L 2811.00 995.00 L 2751.00 884.00 L 2687.00 795.00 L 2554.00 668.00 L 2419.00 582.00 L 2268.00 522.00 L 2133.00 498.00 L 1967.00 500.00 L 1839.00 522.00 L 1794.00 541.00 L 1741.00 554.00 L 1683.00 580.00 Z" fill="url(#agedGold)" filter="url(#weatheredGrain)" fill-rule="evenodd" shape-rendering="geometricPrecision"/>
</svg>
