<svg xmlns="http://www.w3.org/2000/svg" width="4096" height="4096" viewBox="0 0 4096 4096" role="img" aria-label="Lovecraftian symbol">

  <defs>
    <linearGradient id="agedGold" x1="14%" y1="8%" x2="90%" y2="96%">
      <stop offset="0" stop-color="#eee7b4"/>
      <stop offset="0.22" stop-color="#c5bd83"/>
      <stop offset="0.58" stop-color="#77794e"/>
      <stop offset="1" stop-color="#303729"/>
    </linearGradient>
    <filter id="weatheredGrain" x="-10%" y="-10%" width="120%" height="120%" color-interpolation-filters="sRGB">
      <feTurbulence type="fractalNoise" baseFrequency="0.022 0.07" numOctaves="4" seed="23" result="noise"/>
      <feColorMatrix in="noise" type="matrix" values="0.42 0 0 0 0.01 0 0.38 0 0 0.01 0 0 0.26 0 0.01 0 0 0 0.46 0" result="grain"/>
      <feBlend in="SourceGraphic" in2="grain" mode="screen"/>
    </filter>
  </defs>
  <path d="M 3419.00 495.00 L 3390.00 502.00 L 2125.00 1763.00 L 2101.00 1767.00 L 2090.00 1757.00 L 2065.00 1650.00 L 2002.00 1482.00 L 1901.00 1296.00 L 1838.00 1206.00 L 1741.00 1087.00 L 1653.00 998.00 L 1548.00 910.00 L 1422.00 820.00 L 1305.00 756.00 L 1223.00 719.00 L 1166.00 702.00 L 1126.00 682.00 L 1019.00 652.00 L 790.00 608.00 L 775.00 584.00 L 773.00 520.00 L 749.00 502.00 L 723.00 497.00 L 560.00 498.00 L 531.00 506.00 L 517.00 521.00 L 514.00 925.00 L 517.00 951.00 L 528.00 968.00 L 550.00 976.00 L 746.00 975.00 L 773.00 952.00 L 775.00 901.00 L 783.00 884.00 L 797.00 876.00 L 822.00 876.00 L 1008.00 920.00 L 1098.00 951.00 L 1181.00 988.00 L 1294.00 1050.00 L 1395.00 1121.00 L 1535.00 1247.00 L 1662.00 1407.00 L 1730.00 1519.00 L 1763.00 1586.00 L 1830.00 1777.00 L 1843.00 1861.00 L 1860.00 1921.00 L 1858.00 1941.00 L 1843.00 1955.00 L 1198.00 1958.00 L 1171.00 1946.00 L 1107.00 1871.00 L 1047.00 1828.00 L 967.00 1802.00 L 881.00 1802.00 L 791.00 1832.00 L 750.00 1862.00 L 696.00 1916.00 L 659.00 1983.00 L 641.00 2068.00 L 648.00 2143.00 L 663.00 2190.00 L 719.00 2276.00 L 762.00 2315.00 L 815.00 2346.00 L 910.00 2364.00 L 971.00 2360.00 L 1033.00 2345.00 L 1093.00 2308.00 L 1168.00 2226.00 L 1189.00 2219.00 L 1845.00 2219.00 L 1864.00 2229.00 L 1871.00 2283.00 L 1869.00 3572.00 L 1876.00 3589.00 L 1887.00 3597.00 L 2097.00 3600.00 L 2117.00 3592.00 L 2130.00 3568.00 L 2126.00 2246.00 L 2139.00 2224.00 L 2151.00 2219.00 L 2797.00 2218.00 L 2819.00 2227.00 L 2858.00 2276.00 L 2901.00 2316.00 L 2953.00 2345.00 L 3032.00 2364.00 L 3084.00 2364.00 L 3163.00 2349.00 L 3223.00 2315.00 L 3277.00 2267.00 L 3313.00 2211.00 L 3344.00 2121.00 L 3342.00 2024.00 L 3317.00 1962.00 L 3280.00 1903.00 L 3251.00 1873.00 L 3198.00 1832.00 L 3119.00 1805.00 L 3017.00 1802.00 L 2938.00 1828.00 L 2891.00 1860.00 L 2817.00 1945.00 L 2797.00 1958.00 L 2332.00 1961.00 L 2318.00 1943.00 L 2341.00 1910.00 L 2521.00 1741.00 L 2755.00 1502.00 L 3572.00 696.00 L 3581.00 675.00 L 3574.00 649.00 L 3488.00 568.00 L 3440.00 510.00 Z M 881.00 1940.00 L 893.00 1938.00 L 903.00 1938.00 L 905.00 1936.00 L 915.00 1935.00 L 951.00 1936.00 L 952.00 1938.00 L 955.00 1938.00 L 958.00 1940.00 L 961.00 1940.00 L 965.00 1943.00 L 971.00 1944.00 L 972.00 1946.00 L 977.00 1947.00 L 981.00 1950.00 L 986.00 1951.00 L 990.00 1954.00 L 993.00 1954.00 L 1004.00 1959.00 L 1005.00 1961.00 L 1009.00 1962.00 L 1023.00 1974.00 L 1022.00 1975.00 L 1029.00 1982.00 L 1029.00 1984.00 L 1035.00 1989.00 L 1035.00 1991.00 L 1038.00 1993.00 L 1039.00 1996.00 L 1043.00 2000.00 L 1048.00 2011.00 L 1050.00 2012.00 L 1052.00 2019.00 L 1054.00 2020.00 L 1055.00 2025.00 L 1057.00 2026.00 L 1059.00 2033.00 L 1061.00 2034.00 L 1061.00 2036.00 L 1064.00 2039.00 L 1063.00 2041.00 L 1065.00 2042.00 L 1069.00 2055.00 L 1068.00 2113.00 L 1066.00 2114.00 L 1065.00 2126.00 L 1063.00 2128.00 L 1064.00 2130.00 L 1061.00 2136.00 L 1059.00 2137.00 L 1057.00 2144.00 L 1055.00 2145.00 L 1052.00 2152.00 L 1050.00 2153.00 L 1050.00 2155.00 L 1044.00 2162.00 L 1038.00 2173.00 L 1030.00 2181.00 L 1026.00 2183.00 L 1020.00 2189.00 L 1017.00 2190.00 L 1015.00 2193.00 L 1012.00 2194.00 L 1008.00 2199.00 L 1005.00 2200.00 L 998.00 2207.00 L 995.00 2208.00 L 987.00 2215.00 L 983.00 2216.00 L 982.00 2218.00 L 971.00 2223.00 L 963.00 2224.00 L 961.00 2226.00 L 944.00 2228.00 L 896.00 2227.00 L 890.00 2226.00 L 888.00 2224.00 L 873.00 2222.00 L 872.00 2220.00 L 866.00 2219.00 L 850.00 2210.00 L 848.00 2207.00 L 846.00 2207.00 L 811.00 2173.00 L 811.00 2171.00 L 797.00 2158.00 L 792.00 2147.00 L 790.00 2146.00 L 789.00 2141.00 L 787.00 2140.00 L 788.00 2138.00 L 786.00 2136.00 L 785.00 2129.00 L 783.00 2128.00 L 781.00 2118.00 L 779.00 2117.00 L 777.00 2105.00 L 775.00 2103.00 L 774.00 2087.00 L 775.00 2074.00 L 777.00 2072.00 L 778.00 2055.00 L 783.00 2038.00 L 785.00 2037.00 L 786.00 2031.00 L 788.00 2030.00 L 787.00 2028.00 L 789.00 2026.00 L 789.00 2023.00 L 792.00 2019.00 L 794.00 2010.00 L 798.00 2003.00 L 803.00 1999.00 L 803.00 1997.00 L 818.00 1983.00 L 820.00 1983.00 L 831.00 1971.00 L 834.00 1970.00 L 841.00 1964.00 L 843.00 1964.00 L 850.00 1958.00 L 854.00 1957.00 L 862.00 1950.00 L 864.00 1950.00 L 865.00 1948.00 L 867.00 1948.00 L 874.00 1943.00 L 880.00 1942.00 Z M 3044.00 1933.00 L 3078.00 1934.00 L 3089.00 1936.00 L 3091.00 1938.00 L 3100.00 1940.00 L 3104.00 1943.00 L 3107.00 1943.00 L 3118.00 1948.00 L 3119.00 1950.00 L 3125.00 1953.00 L 3133.00 1955.00 L 3134.00 1957.00 L 3140.00 1959.00 L 3141.00 1961.00 L 3143.00 1961.00 L 3151.00 1968.00 L 3154.00 1969.00 L 3167.00 1982.00 L 3167.00 1984.00 L 3172.00 1989.00 L 3172.00 1991.00 L 3181.00 2000.00 L 3180.00 2001.00 L 3200.00 2025.00 L 3201.00 2029.00 L 3205.00 2035.00 L 3205.00 2038.00 L 3207.00 2040.00 L 3206.00 2042.00 L 3208.00 2044.00 L 3211.00 2056.00 L 3211.00 2103.00 L 3208.00 2117.00 L 3206.00 2118.00 L 3207.00 2122.00 L 3205.00 2123.00 L 3204.00 2129.00 L 3202.00 2130.00 L 3199.00 2140.00 L 3195.00 2144.00 L 3190.00 2155.00 L 3187.00 2158.00 L 3186.00 2162.00 L 3183.00 2164.00 L 3183.00 2166.00 L 3180.00 2169.00 L 3181.00 2170.00 L 3176.00 2174.00 L 3176.00 2176.00 L 3165.00 2187.00 L 3163.00 2187.00 L 3158.00 2193.00 L 3156.00 2193.00 L 3138.00 2207.00 L 3133.00 2209.00 L 3132.00 2211.00 L 3126.00 2213.00 L 3125.00 2215.00 L 3121.00 2216.00 L 3118.00 2219.00 L 3112.00 2222.00 L 3103.00 2224.00 L 3102.00 2226.00 L 3084.00 2229.00 L 3056.00 2230.00 L 3054.00 2228.00 L 3042.00 2228.00 L 3027.00 2226.00 L 3025.00 2224.00 L 3016.00 2223.00 L 2997.00 2214.00 L 2982.00 2201.00 L 2980.00 2201.00 L 2978.00 2198.00 L 2968.00 2192.00 L 2964.00 2187.00 L 2961.00 2186.00 L 2956.00 2181.00 L 2956.00 2179.00 L 2953.00 2177.00 L 2952.00 2174.00 L 2948.00 2170.00 L 2948.00 2168.00 L 2945.00 2166.00 L 2946.00 2165.00 L 2933.00 2151.00 L 2932.00 2148.00 L 2929.00 2146.00 L 2928.00 2141.00 L 2926.00 2140.00 L 2924.00 2132.00 L 2922.00 2130.00 L 2921.00 2122.00 L 2919.00 2121.00 L 2920.00 2117.00 L 2918.00 2115.00 L 2917.00 2098.00 L 2915.00 2096.00 L 2915.00 2078.00 L 2917.00 2077.00 L 2918.00 2056.00 L 2920.00 2054.00 L 2919.00 2049.00 L 2921.00 2048.00 L 2922.00 2040.00 L 2924.00 2038.00 L 2925.00 2031.00 L 2928.00 2027.00 L 2931.00 2018.00 L 2933.00 2017.00 L 2933.00 2015.00 L 2935.00 2014.00 L 2935.00 2012.00 L 2939.00 2008.00 L 2940.00 2005.00 L 2943.00 2003.00 L 2943.00 2001.00 L 2954.00 1989.00 L 2955.00 1986.00 L 2958.00 1984.00 L 2958.00 1982.00 L 2974.00 1966.00 L 2979.00 1964.00 L 2985.00 1959.00 L 3004.00 1950.00 L 3005.00 1948.00 L 3018.00 1943.00 L 3022.00 1940.00 L 3031.00 1938.00 L 3032.00 1936.00 L 3042.00 1935.00 Z" fill="url(#agedGold)" filter="url(#weatheredGrain)" fill-rule="evenodd" shape-rendering="geometricPrecision"/>
</svg>
