<svg xmlns="http://www.w3.org/2000/svg" width="4096" height="4096" viewBox="0 0 4096 4096" role="img" aria-label="Lovecraftian symbol">

  <defs>
    <linearGradient id="agedGold" x1="14%" y1="8%" x2="90%" y2="96%">
      <stop offset="0" stop-color="#eee7b4"/>
      <stop offset="0.22" stop-color="#c5bd83"/>
      <stop offset="0.58" stop-color="#77794e"/>
      <stop offset="1" stop-color="#303729"/>
    </linearGradient>
    <filter id="weatheredGrain" x="-10%" y="-10%" width="120%" height="120%" color-interpolation-filters="sRGB">
      <feTurbulence type="fractalNoise" baseFrequency="0.022 0.07" numOctaves="4" seed="23" result="noise"/>
      <feColorMatrix in="noise" type="matrix" values="0.42 0 0 0 0.01 0 0.38 0 0 0.01 0 0 0.26 0 0.01 0 0 0 0.46 0" result="grain"/>
      <feBlend in="SourceGraphic" in2="grain" mode="screen"/>
    </filter>
  </defs>
  <path d="M 2024.00 1772.00 L 1982.00 1781.00 L 1968.00 1786.00 L 1949.00 1800.00 L 1934.00 1807.00 L 1924.00 1814.00 L 1890.00 1847.00 L 1878.00 1873.00 L 1867.00 1888.00 L 1860.00 1903.00 L 1861.00 1904.00 L 1859.00 1905.00 L 1860.00 1908.00 L 1858.00 1909.00 L 1859.00 1913.00 L 1857.00 1915.00 L 1850.00 1960.00 L 1850.00 1978.00 L 1856.00 2011.00 L 1858.00 2013.00 L 1858.00 2023.00 L 1860.00 2024.00 L 1859.00 2028.00 L 1861.00 2029.00 L 1860.00 2033.00 L 1862.00 2035.00 L 1863.00 2041.00 L 1869.00 2052.00 L 1880.00 2066.00 L 1884.00 2077.00 L 1892.00 2091.00 L 1902.00 2099.00 L 1920.00 2118.00 L 1971.00 2151.00 L 1987.00 2156.00 L 2022.00 2163.00 L 2049.00 2165.00 L 2065.00 2161.00 L 2095.00 2159.00 L 2130.00 2148.00 L 2149.00 2134.00 L 2174.00 2120.00 L 2194.00 2099.00 L 2205.00 2090.00 L 2216.00 2064.00 L 2229.00 2047.00 L 2232.00 2039.00 L 2233.00 2029.00 L 2235.00 2027.00 L 2234.00 2023.00 L 2237.00 2016.00 L 2236.00 2013.00 L 2238.00 2011.00 L 2245.00 1985.00 L 2245.00 1962.00 L 2238.00 1921.00 L 2236.00 1919.00 L 2237.00 1915.00 L 2235.00 1913.00 L 2236.00 1911.00 L 2229.00 1892.00 L 2216.00 1873.00 L 2205.00 1849.00 L 2174.00 1817.00 L 2162.00 1808.00 L 2144.00 1799.00 L 2125.00 1786.00 L 2110.00 1780.00 L 2069.00 1773.00 Z M 2005.00 1885.00 L 2015.00 1882.00 L 2039.00 1877.00 L 2054.00 1877.00 L 2070.00 1880.00 L 2089.00 1885.00 L 2095.00 1888.00 L 2107.00 1900.00 L 2111.00 1906.00 L 2125.00 1921.00 L 2128.00 1923.00 L 2130.00 1926.00 L 2134.00 1935.00 L 2134.00 1939.00 L 2136.00 1943.00 L 2139.00 1958.00 L 2139.00 1981.00 L 2134.00 2003.00 L 2132.00 2009.00 L 2126.00 2019.00 L 2111.00 2031.00 L 2103.00 2041.00 L 2096.00 2047.00 L 2085.00 2052.00 L 2070.00 2056.00 L 2062.00 2057.00 L 2028.00 2057.00 L 2019.00 2055.00 L 2007.00 2051.00 L 1997.00 2045.00 L 1979.00 2026.00 L 1973.00 2022.00 L 1966.00 2014.00 L 1961.00 2001.00 L 1959.00 1989.00 L 1954.00 1974.00 L 1954.00 1960.00 L 1961.00 1934.00 L 1966.00 1922.00 L 1970.00 1919.00 L 1978.00 1909.00 L 1980.00 1909.00 L 1984.00 1905.00 L 1984.00 1903.00 L 1995.00 1891.00 Z M 1603.00 868.00 L 1443.00 943.00 L 1260.00 1065.00 L 1145.00 1169.00 L 1027.00 1310.00 L 924.00 1476.00 L 891.00 1559.00 L 872.00 1591.00 L 825.00 1740.00 L 799.00 1881.00 L 793.00 1985.00 L 779.00 1999.00 L 729.00 2010.00 L 644.00 2055.00 L 579.00 2114.00 L 525.00 2194.00 L 503.00 2259.00 L 496.00 2303.00 L 499.00 2335.00 L 517.00 2349.00 L 588.00 2346.00 L 598.00 2331.00 L 605.00 2278.00 L 631.00 2219.00 L 655.00 2186.00 L 717.00 2133.00 L 768.00 2108.00 L 809.00 2100.00 L 875.00 2098.00 L 921.00 2107.00 L 974.00 2131.00 L 1009.00 2157.00 L 1063.00 2219.00 L 1089.00 2283.00 L 1095.00 2364.00 L 1087.00 2411.00 L 1068.00 2461.00 L 1026.00 2516.00 L 959.00 2568.00 L 892.00 2591.00 L 860.00 2592.00 L 847.00 2601.00 L 842.00 2613.00 L 846.00 2687.00 L 860.00 2697.00 L 915.00 2694.00 L 988.00 2669.00 L 1033.00 2645.00 L 1074.00 2614.00 L 1142.00 2540.00 L 1188.00 2445.00 L 1198.00 2371.00 L 1194.00 2273.00 L 1171.00 2204.00 L 1117.00 2116.00 L 1053.00 2058.00 L 964.00 2010.00 L 907.00 1997.00 L 898.00 1983.00 L 898.00 1941.00 L 927.00 1763.00 L 943.00 1726.00 L 956.00 1667.00 L 969.00 1647.00 L 976.00 1612.00 L 1001.00 1556.00 L 1077.00 1422.00 L 1152.00 1318.00 L 1241.00 1217.00 L 1273.00 1197.00 L 1276.00 1204.00 L 1264.00 1230.00 L 1193.00 1333.00 L 1164.00 1416.00 L 1143.00 1455.00 L 1137.00 1494.00 L 1119.00 1546.00 L 1101.00 1669.00 L 1098.00 1809.00 L 1123.00 1980.00 L 1172.00 2124.00 L 1244.00 2261.00 L 1337.00 2378.00 L 1348.00 2404.00 L 1346.00 2940.00 L 1367.00 3035.00 L 1393.00 3094.00 L 1451.00 3174.00 L 1525.00 3239.00 L 1638.00 3290.00 L 1758.00 3304.00 L 1860.00 3289.00 L 1918.00 3267.00 L 1967.00 3239.00 L 2048.00 3176.00 L 2128.00 3240.00 L 2232.00 3288.00 L 2356.00 3304.00 L 2474.00 3286.00 L 2568.00 3238.00 L 2621.00 3195.00 L 2674.00 3135.00 L 2726.00 3042.00 L 2746.00 2957.00 L 2750.00 2900.00 L 2748.00 2393.00 L 2758.00 2368.00 L 2848.00 2251.00 L 2901.00 2157.00 L 2932.00 2065.00 L 2948.00 2039.00 L 2972.00 1936.00 L 2988.00 1761.00 L 2973.00 1573.00 L 2947.00 1470.00 L 2900.00 1348.00 L 2882.00 1325.00 L 2875.00 1302.00 L 2809.00 1208.00 L 2810.00 1195.00 L 2821.00 1197.00 L 2841.00 1214.00 L 2939.00 1324.00 L 3016.00 1433.00 L 3066.00 1520.00 L 3118.00 1636.00 L 3165.00 1786.00 L 3191.00 1979.00 L 3179.00 1997.00 L 3142.00 2006.00 L 3081.00 2033.00 L 3007.00 2086.00 L 2955.00 2147.00 L 2925.00 2198.00 L 2903.00 2257.00 L 2897.00 2372.00 L 2909.00 2448.00 L 2955.00 2542.00 L 3033.00 2624.00 L 3106.00 2669.00 L 3173.00 2691.00 L 3237.00 2696.00 L 3249.00 2684.00 L 3251.00 2615.00 L 3244.00 2598.00 L 3142.00 2570.00 L 3097.00 2541.00 L 3059.00 2505.00 L 3030.00 2466.00 L 3002.00 2384.00 L 3001.00 2311.00 L 3009.00 2273.00 L 3029.00 2224.00 L 3086.00 2156.00 L 3129.00 2126.00 L 3179.00 2106.00 L 3266.00 2098.00 L 3327.00 2108.00 L 3377.00 2132.00 L 3432.00 2177.00 L 3463.00 2218.00 L 3491.00 2278.00 L 3497.00 2332.00 L 3512.00 2347.00 L 3579.00 2349.00 L 3595.00 2339.00 L 3600.00 2315.00 L 3589.00 2248.00 L 3568.00 2192.00 L 3540.00 2146.00 L 3481.00 2079.00 L 3401.00 2026.00 L 3347.00 2004.00 L 3311.00 1999.00 L 3299.00 1990.00 L 3272.00 1788.00 L 3244.00 1680.00 L 3194.00 1546.00 L 3143.00 1442.00 L 3052.00 1300.00 L 2966.00 1196.00 L 2852.00 1087.00 L 2730.00 994.00 L 2607.00 923.00 L 2485.00 870.00 L 2313.00 817.00 L 2150.00 794.00 L 1988.00 791.00 L 1871.00 802.00 L 1773.00 818.00 Z M 1551.00 2569.00 L 1564.00 2568.00 L 1591.00 2580.00 L 1623.00 2601.00 L 1636.00 2605.00 L 1667.00 2622.00 L 1695.00 2630.00 L 1716.00 2642.00 L 1759.00 2653.00 L 1811.00 2672.00 L 1850.00 2677.00 L 1884.00 2688.00 L 1926.00 2694.00 L 1939.00 2702.00 L 1946.00 2716.00 L 1943.00 2759.00 L 1944.00 2853.00 L 1950.00 2890.00 L 1948.00 2924.00 L 1938.00 2950.00 L 1933.00 2980.00 L 1928.00 2993.00 L 1911.00 3013.00 L 1900.00 3032.00 L 1865.00 3065.00 L 1828.00 3086.00 L 1804.00 3094.00 L 1785.00 3097.00 L 1754.00 3106.00 L 1735.00 3105.00 L 1667.00 3086.00 L 1642.00 3070.00 L 1630.00 3065.00 L 1592.00 3031.00 L 1584.00 3015.00 L 1571.00 2998.00 L 1547.00 2931.00 L 1547.00 2626.00 L 1544.00 2583.00 Z M 2543.00 2560.00 L 2549.00 2569.00 L 2547.00 2639.00 L 2548.00 2930.00 L 2534.00 2967.00 L 2528.00 2991.00 L 2523.00 3000.00 L 2510.00 3015.00 L 2499.00 3035.00 L 2485.00 3045.00 L 2465.00 3065.00 L 2451.00 3071.00 L 2428.00 3086.00 L 2404.00 3094.00 L 2364.00 3103.00 L 2333.00 3104.00 L 2294.00 3094.00 L 2264.00 3084.00 L 2248.00 3073.00 L 2229.00 3064.00 L 2190.00 3029.00 L 2180.00 3007.00 L 2166.00 2990.00 L 2159.00 2970.00 L 2147.00 2910.00 L 2147.00 2879.00 L 2151.00 2847.00 L 2150.00 2799.00 L 2152.00 2790.00 L 2152.00 2751.00 L 2150.00 2714.00 L 2152.00 2708.00 L 2161.00 2697.00 L 2168.00 2693.00 L 2196.00 2688.00 L 2228.00 2678.00 L 2289.00 2668.00 L 2323.00 2654.00 L 2369.00 2642.00 L 2389.00 2631.00 L 2429.00 2617.00 L 2460.00 2600.00 L 2483.00 2591.00 L 2502.00 2577.00 L 2519.00 2569.00 L 2530.00 2560.00 Z M 1942.00 1016.00 L 2136.00 1015.00 L 2257.00 1040.00 L 2337.00 1068.00 L 2393.00 1096.00 L 2499.00 1164.00 L 2612.00 1273.00 L 2695.00 1393.00 L 2746.00 1504.00 L 2776.00 1615.00 L 2788.00 1769.00 L 2773.00 1912.00 L 2725.00 2056.00 L 2694.00 2119.00 L 2627.00 2217.00 L 2551.00 2298.00 L 2500.00 2342.00 L 2387.00 2415.00 L 2258.00 2469.00 L 2134.00 2494.00 L 1974.00 2496.00 L 1831.00 2470.00 L 1712.00 2421.00 L 1616.00 2364.00 L 1561.00 2320.00 L 1475.00 2235.00 L 1398.00 2128.00 L 1370.00 2078.00 L 1323.00 1953.00 L 1302.00 1847.00 L 1298.00 1709.00 L 1323.00 1559.00 L 1375.00 1421.00 L 1472.00 1273.00 L 1581.00 1170.00 L 1684.00 1101.00 L 1810.00 1043.00 Z" fill="url(#agedGold)" filter="url(#weatheredGrain)" fill-rule="evenodd" shape-rendering="geometricPrecision"/>
</svg>
